<svg xmlns="http://www.w3.org/2000/svg" width="100" height="14.642" viewBox="0 0 100 14.642">
  <g id="brand__Samsung" transform="translate(-16.258 -84.647)">
    <path id="Trazado_2343" data-name="Trazado 2343" d="M71.094,91.446a12.928,12.928,0,0,0-1.575-.834,12.422,12.422,0,0,1-2.232-1.274,1.3,1.3,0,0,1-.3-1.478.924.924,0,0,1,.945-.52s1,.055,1,.876v1.158h3.578l-.006-1.7s.275-2.792-4.215-2.915c0,0-3.532-.232-4.544,1.67,0,0-.4.424-.4,1.9v1.068a3.535,3.535,0,0,0,.589,2.026,4.652,4.652,0,0,0,1.232,1.095s1.779.958,2.847,1.507c0,0,1.078.615.936,1.594a1.056,1.056,0,0,1-1.129.964.994.994,0,0,1-.952-1.028V94.393H63.055v1.681s-.107,3.214,4.793,3.214c0,0,4.682.095,4.9-3.3V94.621a3.575,3.575,0,0,0-1.654-3.175Zm-18.32-6.293-1.2,7.509H51.3l-1.145-7.441H44.174l-.3,13.6h3.539l.042-10.245h.278L49.61,98.817h3.723l1.853-10.24h.247l.085,10.242h3.558l-.383-13.665H52.774Zm-21.067.057L29.352,98.8h3.81l1.395-10.539h.313L36.264,98.8h3.809L37.72,85.21Zm79.944,6.049v2.005h.977v2.152a.978.978,0,1,1-1.951.072V88.043c0-.767.97-.808.97-.808a.908.908,0,0,1,.937.915v1.132h3.587c.117-2.21-.323-2.745-.323-2.745-.89-2-4.256-1.889-4.256-1.889-5.173,0-4.6,3.969-4.6,3.969v7.2c.111,3.723,5.208,3.344,5.295,3.341,2.267-.251,2.952-.972,2.952-.972a2.2,2.2,0,0,0,.793-1.116,6.57,6.57,0,0,0,.225-1.581V91.259h-4.607Zm-11.89,2.212H99.6l-3.64-8.314H91.609V98.82h3.545l-.212-8.313H95.1l3.771,8.313h4.223V85.156H99.5l.256,8.316Zm-16.8,1.944s.051,1.121-.989,1.121a1.025,1.025,0,0,1-1.093-1.093l-.011-10.278H76.975v10.2s-.4,3.859,5.047,3.859c0,0,4.733.056,4.733-3.682V85.166h-3.8ZM24.295,91.446a12.788,12.788,0,0,0-1.574-.834,12.381,12.381,0,0,1-2.23-1.274,1.3,1.3,0,0,1-.3-1.478.922.922,0,0,1,.944-.52s1,.054,1,.875v1.158h3.58l-.007-1.706s.273-2.792-4.215-2.914a8.051,8.051,0,0,0-.834,0s-2.719.146-3.691,1.638c-.006.011-.014.019-.019.029s-.4.424-.4,1.9v1.068a3.529,3.529,0,0,0,.588,2.026,4.652,4.652,0,0,0,1.232,1.095s1.779.958,2.846,1.506c0,0,1.079.614.936,1.594a1.056,1.056,0,0,1-1.128.964.994.994,0,0,1-.952-1.028V94.393H16.258v1.682s-.107,3.214,4.793,3.214c0,0,4.681.095,4.9-3.3V94.623a3.579,3.579,0,0,0-1.657-3.177Z" transform="translate(0 0)" fill="#cfcfcf" fill-rule="evenodd"/>
  </g>
</svg>
