<svg xmlns="http://www.w3.org/2000/svg" width="100" height="11.665" viewBox="0 0 100 11.665">
  <g id="brand__Airtours" transform="translate(-2.834 -85.466)">
    <path id="Trazado_2345" data-name="Trazado 2345" d="M71.061,89.493h5.429L74.671,93.7c-.209.477-.419,1.283.3,1.283a2.819,2.819,0,0,0,2.327-1.76l.835-1.969c.358-.835.09-1.343-.358-1.343l.21-.417h5.428L81.2,94.535a4.743,4.743,0,0,0-.417,2.3H76.252a1.844,1.844,0,0,1,.03-.985,6.863,6.863,0,0,1-3.938,1.223c-2.745,0-2.924-1.85-2.416-2.834L71.3,91.074c.209-.507.03-1.164-.417-1.164l.179-.417ZM68.585,93.7c-1.253,2.894-4.206,3.43-7.071,3.43-4.534,0-5.638-2.655-5.071-4.147,1.193-3.073,4.177-3.818,7.13-3.818C67.392,89.165,69.809,90.836,68.585,93.7ZM63.6,90.6c-1.462,0-2.178,1.67-2.536,2.237-.358.6-1.313,2.864.506,2.864,1.4,0,2.089-1.462,2.416-2.089.359-.6,1.582-3.013-.387-3.013ZM92.928,93.73h-.417L91.5,96.087a11.771,11.771,0,0,0,4.952.954c2.685,0,4.148-.656,4.833-2.028.746-1.461,0-2.387-1.582-2.863-1.581-.507-2-.686-1.76-1.1.268-.477,1.223-.418,2.149-.239a2.817,2.817,0,0,1,1.611.835h.328l.806-1.819a12.1,12.1,0,0,0-3.968-.716c-1.312.03-3.7-.089-4.654,1.79-.835,1.641.985,2.387,1.492,2.565.507.209,2.476.6,2.059,1.223-.358.6-1.85.567-2.6.358a3.63,3.63,0,0,1-2.24-1.312ZM34.1,85.466h4.565L37.38,88.42H32.816L34.1,85.466Zm-2.714,4.027H36.9l-2.416,5.519a4.115,4.115,0,0,0-.3,1.819H29.146l2.536-5.846c.239-.537-.059-1.074-.477-1.074l.18-.418ZM52.535,86.54h1.67l-1.283,2.954h3.818L55.906,91.4H52.088l-1.1,2.476c-.149.358-.3,1.074.3,1.193a5.918,5.918,0,0,0,3.312-.506L53.758,96.5a15.949,15.949,0,0,1-5.071.448c-2.387-.268-2.864-1.551-2.207-3.073l1.849-4.206A5.817,5.817,0,0,0,52.535,86.54Zm-49.7,10.5L25.3,85.466h5.4l-3.669,8.413c-.358.836-.985,2.3-.805,2.953H20.346l3.639-8.413L7.488,97.04H2.834Zm40.154-6.2c.925-1.134,2.894-1.85,3.968-1.283L46,91.76a2.537,2.537,0,0,0-1.85-.029,3.745,3.745,0,0,0-1.7,1.969l-1.343,3.132H36.544l2.476-5.638c.328-.806,0-1.283-.418-1.283l.179-.417h4.773l-.566,1.343Zm46.509,0c.955-1.134,2.924-1.85,4-1.283l-.954,2.207a2.559,2.559,0,0,0-1.85-.029,3.67,3.67,0,0,0-1.73,1.969l-1.343,3.132H83.084l2.446-5.638c.329-.806.03-1.283-.388-1.283l.179-.417H90.1l-.6,1.343Z" transform="translate(0 0)" fill="#cfcfcf" fill-rule="evenodd"/>
    <path id="Trazado_2346" data-name="Trazado 2346" d="M32.593,99.62H26.388l3.49-1.819h3.49Z" transform="translate(-10.964 -5.742)" fill="#cfcfcf" fill-rule="evenodd"/>
  </g>
</svg>
