<svg xmlns="http://www.w3.org/2000/svg" width="100" height="32.744" viewBox="0 0 100 32.744">
  <g id="brand__CocaCola" transform="translate(-0.001 0.001)">
    <path id="Trazado_2339" data-name="Trazado 2339" d="M38.4,28.563c-3.721-2.4-8.771-2.818-16.915-.558-8.682,2.04-11.577,3.348-15.379.723-1.461-1.29-1.984-3.366-1.593-6.358C5.422,17.494,7.873,12.8,12.226,7.6c2.43-2.708,4.684-5.032,7.66-5.965,2.281-.585,2.068,1.207,1.792,1.464a2.207,2.207,0,0,0-1.159.293,3,3,0,0,0-1.195,2.04C19.259,7.01,20.9,6.681,21.6,5.812c.761-.979,1.887-2.854,1-4.6A2.6,2.6,0,0,0,20.8.012c-2.725-.156-5.263,1.143-7.606,2.58A33.233,33.233,0,0,0,1.652,16.479C.315,19.735-.894,24.4.918,28.2c1.4,2.635,4.312,4.034,7.785,3.741a61.349,61.349,0,0,0,7.361-1.518c1.981-.476,12.119-3.961,15.451,2.1a4.5,4.5,0,0,1,3.876-2.2,12.757,12.757,0,0,1,7.951,2.415A20.221,20.221,0,0,0,38.4,28.563Z" transform="translate(0 0)" fill="#cfcfcf"/>
    <path id="Trazado_2340" data-name="Trazado 2340" d="M96.33,8.3c-1.9-1.244-5.708,1.134-8.76,5.214-2.792,3.66-4,7.913-2.685,9.88,1.951,2.314,5.574-1.052,7.114-2.854l.2-.211a22.461,22.461,0,0,0,2.64-3.779s.72-1.189.754-1.244c.445-.082.981-.21,1.585-.384-.009.027-2.311,3.9-2.076,5.818.073.586.017,2.727,2.107,3.376,2.786.467,5.01-1.692,6.972-3.614,0,0,.334-.32.524-.5-.048.191-.11.447-.11.447-.815,2.836.284,3.431.971,3.651,2.078.6,4.561-2.415,4.569-2.415-.064.951-.253,1.738.75,2.369a3.041,3.041,0,0,0,2.632-.663c2.622-1.848,4.734-4.74,6.44-7.24h-1.088c-.013,0-2.685,3.874-4.421,4.715,0,0-.319.162-.5.034-.225-.192-.136-.592,0-.875.009-.018,6.7-11.625,6.7-11.625h-3.16s-.345.558-.373.6c-.021-.018-.072-.114-.107-.16-1.958-2.708-6.39,1.457-9.728,6.287a31.721,31.721,0,0,1-4.617,5.458s-2.513,2.3-3.587.649a3.194,3.194,0,0,1-.05-2.38,19.779,19.779,0,0,1,5.856-8.737,1.829,1.829,0,0,1,1.817-.467.793.793,0,0,1,.188,1.089,1.761,1.761,0,0,0-1.4.54,2.175,2.175,0,0,0-.754,2.205c1.131,1.61,3.388-1.574,3.279-3.513a2.082,2.082,0,0,0-.964-1.674,3.322,3.322,0,0,0-2.9.028,12.911,12.911,0,0,0-3.824,2.964c-1.269,1.4-3.444,2.955-4.124,2.781.222-.595,2.06-4.355.127-5.763Zm15.233,5.562a43.784,43.784,0,0,1,2.84-3.513c1.467-1.29,2.053-.723,2.1-.32-1.369,2.452-2.985,5.26-4.5,7.785,0-.009-.475.723-.475.723a7,7,0,0,1-2.448,2.515.71.71,0,0,1-.589-.064.624.624,0,0,1-.266-.6c.066-.787.867-3.192,3.338-6.522ZM94.375,15.333s-.028.083-.041.11c0,0-1.378,2.241-1.378,2.241A10.541,10.541,0,0,1,89.8,20.849c-.384.128-.914.211-1.184-.128-.573-.686-.278-1.638-.038-2.406l.085-.274A22.756,22.756,0,0,1,91.5,13a.139.139,0,0,1,.054-.018.074.074,0,0,1,.009.028,4.56,4.56,0,0,0,2.851,2.15c.006,0,.012.009.012.028A.45.45,0,0,1,94.375,15.333Zm1.3-2.644c-.006.018-.612,1.409-.612,1.409-.088.073-.226.037-.385,0l-.272-.046a2.442,2.442,0,0,1-1.7-1.509,2.954,2.954,0,0,1,1.347-2.726A1.5,1.5,0,0,1,95.7,9.653a1.727,1.727,0,0,1,.365,1.153A6.261,6.261,0,0,1,95.676,12.69Zm39.943,4.244a1.86,1.86,0,0,0-1.8-1.034c-2.5.229-4.951,2.287-6.237,5.242a15.048,15.048,0,0,0-1.284,4.766,13.188,13.188,0,0,1,4.167-3.174,8.671,8.671,0,0,1,1.5-3.614c.473-.7,1.419-1.839,2.482-1.537.929.311.6,2.882-.632,5.37a17.252,17.252,0,0,1-3.725,4.922c-1.25,1.061-3.1,2.342-4.718,1.354a3.555,3.555,0,0,1-1.429-3.495c.487-4.62,2.59-8.553,5.6-13.036,3.1-4.162,6.524-8.435,11.131-10.713a3.11,3.11,0,0,1,2.563-.293,16.8,16.8,0,0,0-6.387,6.779c-.525,1.116-1.254,2.625-.519,3.961a1.544,1.544,0,0,0,1.614.714c2.527-.586,4.16-2.946,5.494-5.1A11.9,11.9,0,0,0,144.9,2.965c0-.22-.011-.512-.03-.732,1.207-.64,3.684.494,3.684.494,1.935.641,6.055,3.8,7.445,4.4.678-.787,1.792-1.976,2.419-2.571L157.506,4c-1.454-.887-2.99-1.729-4.5-2.562a9.007,9.007,0,0,0-7.654-.7c-.559.2-1.07.375-1.07.375-1.056-1.153-2.788-1.043-4.064-.732-4.589,1.317-8.85,4.528-13.418,10.1a36.9,36.9,0,0,0-6.552,11.856c-.856,2.507-1.116,6.193.973,8.38,1.776,1.857,4.131,1.454,5.794.787a18.356,18.356,0,0,0,8.456-10c.389-1.308.822-3.156.151-4.565ZM143.9,3.148c-.477,5.471-4.729,8.682-5.782,8.938-.638.128-1.726-.156-.754-2.451a15.268,15.268,0,0,1,6.492-7.063,1.4,1.4,0,0,1,.044.576Zm25.225.7A12.2,12.2,0,0,1,161.6,5.691c-.8.9-1.57,1.821-2.284,2.772,4.029,1.025,8.3-1.253,10.682-3.421A16.813,16.813,0,0,0,173.81.1,20.02,20.02,0,0,1,169.13,3.843ZM125.9,8.4h-3l-1.692,2.75h3Z" transform="translate(-73.809 -0.09)" fill="#cfcfcf"/>
    <path id="Trazado_2341" data-name="Trazado 2341" d="M509.364,31.447c-.323.219-.776.051-.606-.452a26.162,26.162,0,0,1,2.1-3.891l4.675-8.291h-3.2c-.152.25-.478.824-.478.824a4.4,4.4,0,0,0-.773-.914,2.815,2.815,0,0,0-2.722.188c-3.442,2.013-5.954,5.99-7.935,9.091,0,0-2.085,3.448-3.242,3.7-.9.073-.81-1.144-.771-1.428a23.239,23.239,0,0,1,1.978-5.764,44.271,44.271,0,0,0,5.285-4.318,52.918,52.918,0,0,0,7.358-8.536,7.3,7.3,0,0,1-1.089.119c-2.879,4.016-8.771,9.853-10.557,10.722.791-1.9,5.9-10.987,10.254-15.332l.685-.659c1.059-1.034,2.155-2.095,3.01-2.269.09-.009.206,0,.307.211a3.949,3.949,0,0,1-.605,2.077l-.482.988a11.166,11.166,0,0,0,1.131-.275,5.294,5.294,0,0,0,.884-3.384.971.971,0,0,0-.774-.814c-1.3-.247-2.712.713-3.85,1.491l-.046.027c-5.85,4.583-10.79,11.188-15.109,20.208a3.094,3.094,0,0,1-1.728.384,14.674,14.674,0,0,0,1.232-3.339,8.878,8.878,0,0,0,.09-1.107,2.328,2.328,0,0,0-.894-2.04,3.092,3.092,0,0,0-2.538.091c-3.087,1.281-5.395,4.446-7.06,7.053a15.47,15.47,0,0,0-2.036,5.461c-.174,1.592.18,2.616,1.085,3.129a3.028,3.028,0,0,0,2.562-.256c3.128-1.647,5.313-4.949,7.035-7.968a10.089,10.089,0,0,0,1.721-.219.044.044,0,0,1,.029.01c-.041.137-.408,1.235-.408,1.235-1.092,3.2-1.6,5.379-.565,6.669,1.474,1.821,3.913-.064,5.9-2.553-.426,2.982,1.12,3.449,2.3,3.221a9.438,9.438,0,0,0,3.561-2.552c-.225.869-.164,2.424,1.067,2.58a3.3,3.3,0,0,0,2.206-.7c2.621-1.427,5.759-6.183,6.573-7.558h-1.068C512.691,28.064,511.218,30.358,509.364,31.447Zm-23.527-.319a1.442,1.442,0,0,1-.227-.809c-.032-1.794,1.9-5.006,3.26-6.756h0a5.3,5.3,0,0,0,2.644,2.392c-.969,2.159-4.293,6.783-5.68,5.173Zm6.227-6.138A2.712,2.712,0,0,1,490.026,23a2.741,2.741,0,0,1,1.493-2.827,1.5,1.5,0,0,1,1.342-.247,1.358,1.358,0,0,1,.484,1.208,7.334,7.334,0,0,1-.076.9l-.008.064a12.187,12.187,0,0,1-1.2,2.9Zm13.075,5.562s-.309.274-.309.274c-.44.393-.892.814-1.439.6a.548.548,0,0,1-.283-.412,7.12,7.12,0,0,1,.973-3.183l.126-.265c1.414-2.36,3.056-5.141,5.47-7.071a1.36,1.36,0,0,1,1.314-.348.683.683,0,0,1,.232.448.756.756,0,0,1-.077.247c-.674,1.089-1.316,2.232-1.94,3.33A46.212,46.212,0,0,1,505.138,30.553Z" transform="translate(-421.584 -2.63)" fill="#cfcfcf"/>
  </g>
</svg>
