<svg xmlns="http://www.w3.org/2000/svg" width="100" height="19.792" viewBox="0 0 100 19.792">
  <g id="brand__Facebook" transform="translate(-28.79 -28.828)">
    <path id="Trazado_2338" data-name="Trazado 2338" d="M80.272,38.441a4.57,4.57,0,0,0-2.024.547v6.242a13.166,13.166,0,0,0,1.458.055c1.982,0,2.254-.908,2.254-2.175V40.128c0-.936-.311-1.688-1.687-1.688ZM67.11,38.1c-1.375,0-1.689.755-1.689,1.69v.525H68.8V39.79C68.8,38.855,68.483,38.1,67.11,38.1Zm-25.5,6.5a.985.985,0,0,0,1.119,1.124,4.1,4.1,0,0,0,1.918-.546V43.694H42.843c-.855,0-1.231.159-1.231.9Zm51.464-6.156c-1.377,0-1.855.752-1.855,1.688v3.415c0,.938.477,1.692,1.855,1.692s1.855-.754,1.855-1.692V40.128C94.93,39.192,94.449,38.441,93.076,38.441ZM34.862,48.427H30.813v-9.8H28.79V35.249h2.024V33.221c0-2.755,1.142-4.393,4.387-4.393h2.7v3.378H36.214c-1.264,0-1.347.472-1.347,1.353l-.005,1.69h3.059l-.358,3.377h-2.7Zm13.838.025H45.325l-.146-.853a7.735,7.735,0,0,1-3.823.992,3.59,3.59,0,0,1-3.792-3.94c0-2.7,1.537-3.66,4.287-3.66h2.8v-.583c0-1.377-.158-1.781-2.275-1.781H38.912l.338-3.377h3.784c4.646,0,5.665,1.468,5.665,5.185v8.017Zm11.475-9.578a19.313,19.313,0,0,0-3.713-.439c-1.815,0-2.363.4-2.363,1.942v2.915c0,1.541.548,1.943,2.363,1.943a19.271,19.271,0,0,0,3.713-.442v3.294a17.9,17.9,0,0,1-4.05.521c-4.347,0-6.075-2.286-6.075-5.588V40.654c0-3.305,1.728-5.6,6.075-5.6a17.822,17.822,0,0,1,4.05.523v3.292ZM72.846,43.02H65.421v.272c0,1.541.549,1.943,2.363,1.943a23.607,23.607,0,0,0,4.723-.442v3.294a21.288,21.288,0,0,1-5.058.521c-4.347,0-6.076-2.286-6.076-5.588v-2.7c0-2.89,1.283-5.256,5.737-5.256s5.736,2.339,5.736,5.256Zm13.162.062c0,3.192-.912,5.52-6.439,5.52a30.564,30.564,0,0,1-5.369-.514V29.843l4.048-.675v6.382a9.189,9.189,0,0,1,3.037-.49c4.048,0,4.722,1.815,4.722,4.731v3.292Zm12.975.069c0,2.753-1.137,5.424-5.893,5.424s-5.916-2.671-5.916-5.424V40.493c0-2.755,1.158-5.426,5.916-5.426s5.893,2.671,5.893,5.426v2.659Zm12.966,0c0,2.753-1.138,5.424-5.893,5.424s-5.916-2.671-5.916-5.424V40.493c0-2.755,1.158-5.426,5.916-5.426s5.893,2.671,5.893,5.426v2.659Zm13.306,5.275h-4.387l-3.711-6.194v6.194h-4.049V29.842l4.049-.675V41.131l3.711-5.881h4.387L121.2,41.668Zm-19.213-9.986c-1.375,0-1.852.752-1.852,1.688v3.415c0,.938.477,1.692,1.852,1.692s1.859-.754,1.859-1.692V40.128C107.9,39.192,107.414,38.441,106.041,38.441Zm21.524,7.674a1.24,1.24,0,1,1-.005,0Zm-.005.194a1.06,1.06,0,0,0,.005,2.116,1.06,1.06,0,0,0,0-2.116Zm-.233,1.783h-.222V46.7a2.561,2.561,0,0,1,.394-.032.741.741,0,0,1,.434.105.336.336,0,0,1,.126.288.347.347,0,0,1-.271.34v.011c.122.023.2.133.233.338a1.161,1.161,0,0,0,.088.345h-.233a1.05,1.05,0,0,1-.094-.356.26.26,0,0,0-.3-.244h-.154v.6Zm0-.772h.161c.182,0,.337-.067.337-.24,0-.122-.088-.244-.337-.244a1.151,1.151,0,0,0-.161.011v.473Z" fill="#cfcfcf"/>
  </g>
</svg>
