<svg xmlns="http://www.w3.org/2000/svg" width="100" height="29.993" viewBox="0 0 100 29.993">
  <path id="brand__Spotify" d="M89.426,1369.15a15,15,0,1,0,15,15,15,15,0,0,0-15-15h0Zm6.877,21.629a.934.934,0,0,1-1.285.311c-3.522-2.152-7.954-2.639-13.174-1.446a.934.934,0,1,1-.416-1.822c5.712-1.306,10.613-.744,14.565,1.671a.935.935,0,0,1,.31,1.286h0Zm1.836-4.083a1.17,1.17,0,0,1-1.608.385,19.683,19.683,0,0,0-14.943-1.748,1.169,1.169,0,1,1-.679-2.237,21.877,21.877,0,0,1,16.846,1.993,1.169,1.169,0,0,1,.385,1.607h0Zm.158-4.252c-4.834-2.871-12.807-3.135-17.422-1.734a1.4,1.4,0,1,1-.814-2.684c5.3-1.608,14.1-1.3,19.668,2.006a1.4,1.4,0,0,1-1.431,2.412h0Zm16.933.55c-2.589-.617-3.05-1.051-3.05-1.961,0-.86.81-1.439,2.014-1.439a5.886,5.886,0,0,1,3.539,1.345.169.169,0,0,0,.128.031.168.168,0,0,0,.112-.069l1.264-1.782a.17.17,0,0,0-.032-.231,7.65,7.65,0,0,0-4.973-1.723c-2.8,0-4.749,1.678-4.749,4.078,0,2.574,1.685,3.486,4.6,4.189,2.478.571,2.9,1.049,2.9,1.9,0,.947-.846,1.536-2.206,1.536a5.947,5.947,0,0,1-4.123-1.7.178.178,0,0,0-.124-.041.169.169,0,0,0-.116.06l-1.418,1.687a.168.168,0,0,0,.017.235,8.451,8.451,0,0,0,5.707,2.189c3.013,0,4.959-1.646,4.959-4.194.005-2.151-1.282-3.342-4.436-4.109Zm11.257-2.554a4.062,4.062,0,0,0-3.26,1.568v-1.186a.17.17,0,0,0-.169-.17h-2.318a.17.17,0,0,0-.169.17V1394a.17.17,0,0,0,.169.17h2.318a.17.17,0,0,0,.169-.17v-4.16a4.165,4.165,0,0,0,3.26,1.476c2.426,0,4.882-1.868,4.882-5.438s-2.453-5.44-4.88-5.44Zm2.187,5.439a2.8,2.8,0,0,1-2.724,3.087,3.1,3.1,0,0,1,0-6.174,2.826,2.826,0,0,1,2.724,3.087Zm8.991-5.439a5.45,5.45,0,1,0,5.553,5.439,5.467,5.467,0,0,0-5.553-5.439Zm0,8.544a2.949,2.949,0,0,1-2.915-3.106,2.879,2.879,0,0,1,2.877-3.068,2.958,2.958,0,0,1,2.934,3.107,2.887,2.887,0,0,1-2.9,3.067Zm12.225-8.332h-2.551v-2.608a.169.169,0,0,0-.169-.17h-2.318a.17.17,0,0,0-.17.17v2.608h-1.115a.17.17,0,0,0-.169.17v1.993a.17.17,0,0,0,.169.17h1.115v5.156c0,2.083,1.037,3.14,3.082,3.14a4.228,4.228,0,0,0,2.172-.541.169.169,0,0,0,.086-.147v-1.9a.17.17,0,0,0-.246-.152,2.923,2.923,0,0,1-1.361.328c-.744,0-1.076-.338-1.076-1.095v-4.791h2.551a.17.17,0,0,0,.169-.17v-1.992a.164.164,0,0,0-.167-.17Zm8.889.01v-.32c0-.942.361-1.363,1.172-1.363a3.909,3.909,0,0,1,1.306.241.17.17,0,0,0,.223-.161v-1.954a.17.17,0,0,0-.12-.163,6.365,6.365,0,0,0-1.927-.277c-2.141,0-3.273,1.206-3.273,3.486v.491h-1.114a.171.171,0,0,0-.17.17v2a.171.171,0,0,0,.17.17h1.114v7.953a.17.17,0,0,0,.169.17h2.318a.17.17,0,0,0,.17-.17v-7.952h2.165l3.316,7.951c-.376.835-.747,1-1.252,1a2.673,2.673,0,0,1-1.278-.363.174.174,0,0,0-.135-.013.171.171,0,0,0-.1.092l-.786,1.724a.169.169,0,0,0,.073.219,4.883,4.883,0,0,0,2.476.634c1.712,0,2.658-.8,3.492-2.943l4.022-10.393a.17.17,0,0,0-.157-.232h-2.414a.17.17,0,0,0-.161.114l-2.472,7.062-2.708-7.067a.169.169,0,0,0-.158-.109h-3.961Zm-5.154-.01h-2.318a.17.17,0,0,0-.17.17v10.115a.17.17,0,0,0,.17.17h2.318a.17.17,0,0,0,.17-.17v-10.114a.17.17,0,0,0-.17-.17Zm-1.146-4.606a1.663,1.663,0,1,0,1.663,1.662,1.663,1.663,0,0,0-1.663-1.662Zm20.311,7.858a1.636,1.636,0,1,1,1.64-1.641,1.625,1.625,0,0,1-1.64,1.641Zm.009-3.11a1.473,1.473,0,1,0,1.46,1.469,1.459,1.459,0,0,0-1.46-1.469h0Zm.362,1.636.461.646h-.389l-.415-.593h-.357v.593h-.326v-1.713h.764c.4,0,.66.2.66.546a.508.508,0,0,1-.4.52Zm-.276-.773h-.425v.542h.425c.212,0,.339-.1.339-.271s-.127-.271-.338-.271Z" transform="translate(-74.43 -1369.15)" fill="#cfcfcf"/>
</svg>
