<?xml version="1.0" encoding="utf-8"?>
<!-- Generator: Adobe Illustrator 25.2.3, SVG Export Plug-In . SVG Version: 6.00 Build 0)  -->
<svg version="1.1" id="Capa_1" xmlns="http://www.w3.org/2000/svg" xmlns:xlink="http://www.w3.org/1999/xlink" x="0px" y="0px"
	 viewBox="0 0 104 40" style="enable-background:new 0 0 104 40;" xml:space="preserve">
<style type="text/css">
	.st0{enable-background:new    ;}
	.st1{fill:#363638;}
</style>
<g transform="translate(84 25.553)">
	<g class="st0">
		<path class="st1" d="M-82.5-8.7c-0.1-0.1-0.1-0.2-0.1-0.3v-11.7c0-0.1,0-0.2,0.1-0.3s0.2-0.1,0.3-0.1h7.8c0.1,0,0.2,0,0.3,0.1
			c0.1,0.1,0.1,0.2,0.1,0.3v1.3c0,0.1,0,0.2-0.1,0.3c-0.1,0.1-0.2,0.1-0.3,0.1h-5.8v3.4h5.4c0.1,0,0.2,0,0.3,0.1s0.1,0.2,0.1,0.3
			v1.3c0,0.1,0,0.2-0.1,0.3s-0.2,0.1-0.3,0.1h-5.4V-9c0,0.1,0,0.2-0.1,0.3c-0.1,0.1-0.2,0.1-0.3,0.1h-1.6
			C-82.3-8.6-82.4-8.6-82.5-8.7z"/>
		<path class="st1" d="M-70.5-9.6c-0.9-0.8-1.4-2.1-1.4-3.8v-7.3c0-0.1,0-0.2,0.1-0.3c0.1-0.1,0.2-0.1,0.3-0.1h1.6
			c0.1,0,0.2,0,0.3,0.1c0.1,0.1,0.1,0.2,0.1,0.3v7.3c0,1,0.2,1.7,0.7,2.2c0.5,0.5,1.1,0.7,1.9,0.7s1.5-0.2,1.9-0.7
			c0.5-0.5,0.7-1.2,0.7-2.2v-7.3c0-0.1,0-0.2,0.1-0.3c0.1-0.1,0.2-0.1,0.3-0.1h1.6c0.1,0,0.2,0,0.3,0.1s0.1,0.2,0.1,0.3v7.3
			c0,1.7-0.4,2.9-1.3,3.8c-0.9,0.8-2.2,1.2-3.8,1.2C-68.4-8.4-69.6-8.8-70.5-9.6z"/>
		<path class="st1" d="M-58.8-8.7c-0.1-0.1-0.1-0.2-0.1-0.3v-11.7c0-0.1,0-0.2,0.1-0.3s0.2-0.1,0.3-0.1h1.4c0.1,0,0.3,0,0.3,0.1
			c0.1,0.1,0.1,0.1,0.2,0.2l5.2,8.1v-7.9c0-0.1,0-0.2,0.1-0.3s0.2-0.1,0.3-0.1h1.5c0.1,0,0.2,0,0.3,0.1s0.1,0.2,0.1,0.3V-9
			c0,0.1,0,0.2-0.1,0.3s-0.2,0.1-0.3,0.1h-1.4c-0.2,0-0.4-0.1-0.5-0.3l-5.2-7.9V-9c0,0.1,0,0.2-0.1,0.3s-0.2,0.1-0.3,0.1h-1.5
			C-58.6-8.6-58.7-8.6-58.8-8.7z"/>
		<path class="st1" d="M-46.1-8.7c-0.1-0.1-0.1-0.2-0.1-0.3v-11.7c0-0.1,0-0.2,0.1-0.3s0.2-0.1,0.3-0.1h4.4c3.5,0,5.3,1.6,5.4,4.9
			c0,0.7,0,1.2,0,1.4c0,0.2,0,0.7,0,1.4c0,1.7-0.5,2.9-1.4,3.7c-0.9,0.8-2.2,1.2-4,1.2h-4.5C-45.9-8.6-46-8.6-46.1-8.7z M-41.4-10.6
			c1,0,1.7-0.2,2.2-0.7s0.7-1.2,0.7-2.2c0-0.7,0-1.2,0-1.4c0-0.2,0-0.6,0-1.3c0-1-0.3-1.7-0.7-2.2s-1.2-0.7-2.2-0.7h-2.2v8.5H-41.4z
			"/>
		<path class="st1" d="M-34.9-8.7C-34.9-8.7-35-8.8-35-8.9l0-0.2l4.3-11.6c0.1-0.3,0.3-0.4,0.6-0.4h2c0.3,0,0.5,0.1,0.6,0.4L-23-9.1
			c0,0,0,0.1,0,0.2c0,0.1,0,0.2-0.1,0.3c-0.1,0.1-0.2,0.1-0.3,0.1h-1.6c-0.2,0-0.3,0-0.4-0.1c-0.1-0.1-0.1-0.1-0.2-0.2l-0.8-2.2
			h-5.3l-0.8,2.2c-0.1,0.2-0.3,0.3-0.5,0.3h-1.6C-34.7-8.6-34.8-8.6-34.9-8.7z M-26.9-13.2l-2.1-5.6l-2,5.6H-26.9z"/>
		<path class="st1" d="M-20.6-9.7c-0.9-0.9-1.4-2.1-1.4-3.6c0-0.3,0-0.9,0-1.6c0-0.7,0-1.3,0-1.6c0.1-1.5,0.5-2.7,1.5-3.6
			c0.9-0.9,2.2-1.3,3.8-1.3c1.1,0,2,0.2,2.8,0.5c0.8,0.4,1.4,0.9,1.8,1.5c0.4,0.6,0.7,1.3,0.7,2.1v0c0,0.1,0,0.2-0.1,0.2
			c-0.1,0.1-0.2,0.1-0.3,0.1h-1.7c-0.1,0-0.3,0-0.3-0.1c-0.1-0.1-0.1-0.2-0.2-0.3c-0.2-0.8-0.5-1.3-1-1.6s-1-0.5-1.8-0.5
			c-1.7,0-2.6,1-2.7,2.9c0,0.3,0,0.8,0,1.5c0,0.7,0,1.2,0,1.5c0.1,1.9,1,2.9,2.7,2.9c0.7,0,1.3-0.2,1.8-0.5c0.4-0.3,0.8-0.8,0.9-1.6
			c0-0.2,0.1-0.3,0.2-0.3c0.1-0.1,0.2-0.1,0.3-0.1h1.7c0.1,0,0.2,0,0.3,0.1c0.1,0.1,0.1,0.2,0.1,0.3c0,0.8-0.3,1.5-0.7,2.1
			c-0.4,0.6-1,1.1-1.8,1.5s-1.7,0.5-2.8,0.5C-18.4-8.4-19.7-8.8-20.6-9.7z"/>
		<path class="st1" d="M-9.2-8.7C-9.2-8.8-9.3-8.9-9.3-9v-11.7c0-0.1,0-0.2,0.1-0.3c0.1-0.1,0.2-0.1,0.3-0.1h1.7
			c0.1,0,0.2,0,0.3,0.1c0.1,0.1,0.1,0.2,0.1,0.3V-9c0,0.1,0,0.2-0.1,0.3S-7-8.6-7.2-8.6h-1.7C-9-8.6-9.1-8.6-9.2-8.7z"/>
		<path class="st1" d="M-2.9-9.6c-0.9-0.8-1.4-2.1-1.4-3.7c0-0.3,0-0.9,0-1.5c0-0.7,0-1.2,0-1.5c0-1.6,0.5-2.8,1.5-3.7
			c0.9-0.9,2.2-1.3,3.8-1.3s2.8,0.4,3.8,1.3c0.9,0.9,1.4,2.1,1.5,3.7c0,0.7,0,1.2,0,1.5c0,0.3,0,0.8,0,1.5c-0.1,1.6-0.5,2.9-1.5,3.7
			C3.8-8.8,2.6-8.4,0.9-8.4C-0.7-8.4-2-8.8-2.9-9.6z M2.9-11.2c0.5-0.5,0.7-1.2,0.8-2.2c0-0.7,0-1.2,0-1.5c0-0.3,0-0.8,0-1.5
			c0-1-0.3-1.7-0.8-2.2c-0.5-0.5-1.1-0.7-1.9-0.7c-0.8,0-1.4,0.2-1.9,0.7c-0.5,0.5-0.7,1.2-0.8,2.2c0,0.3,0,0.8,0,1.5
			c0,0.6,0,1.1,0,1.5c0,1,0.3,1.7,0.8,2.2s1.1,0.7,1.9,0.7C1.7-10.4,2.4-10.7,2.9-11.2z M-0.2-22.3c0-0.1,0-0.2,0.1-0.2l1.5-1.8
			c0.1-0.1,0.2-0.2,0.3-0.3c0.1,0,0.2-0.1,0.4-0.1H4c0.2,0,0.3,0.1,0.3,0.3c0,0.1,0,0.2-0.1,0.2L2-22.3c-0.1,0.1-0.2,0.1-0.3,0.2
			c-0.1,0-0.2,0.1-0.3,0.1H0.1C-0.1-22.1-0.2-22.1-0.2-22.3z"/>
		<path class="st1" d="M8.7-8.7C8.7-8.8,8.6-8.9,8.6-9v-11.7c0-0.1,0-0.2,0.1-0.3s0.2-0.1,0.3-0.1h1.4c0.1,0,0.3,0,0.3,0.1
			c0.1,0.1,0.1,0.1,0.2,0.2l5.2,8.1v-7.9c0-0.1,0-0.2,0.1-0.3s0.2-0.1,0.3-0.1h1.5c0.1,0,0.2,0,0.3,0.1s0.1,0.2,0.1,0.3V-9
			c0,0.1,0,0.2-0.1,0.3s-0.2,0.1-0.3,0.1h-1.4c-0.2,0-0.4-0.1-0.5-0.3L11-16.7V-9c0,0.1,0,0.2-0.1,0.3s-0.2,0.1-0.3,0.1H9
			C8.9-8.6,8.8-8.6,8.7-8.7z"/>
	</g>
	<g class="st0">
		<path class="st1" d="M-82.6,9.3c-0.1-0.1-0.1-0.2-0.1-0.3V-2.7c0-0.1,0-0.2,0.1-0.3s0.2-0.1,0.3-0.1h2.3c0.1,0,0.2,0,0.3,0.1
			c0.1,0.1,0.1,0.2,0.1,0.3v4.3h4.4v-4.3c0-0.1,0-0.2,0.1-0.3c0.1-0.1,0.2-0.1,0.3-0.1h2.3c0.1,0,0.2,0,0.3,0.1s0.1,0.2,0.1,0.3V9
			c0,0.1,0,0.2-0.1,0.3s-0.2,0.1-0.3,0.1h-2.3c-0.1,0-0.2,0-0.3-0.1C-75,9.2-75.1,9.1-75.1,9V4.5h-4.4V9c0,0.1,0,0.2-0.1,0.3
			c-0.1,0.1-0.2,0.1-0.3,0.1h-2.3C-82.4,9.4-82.5,9.4-82.6,9.3z"/>
		<path class="st1" d="M-69.2,9.3c-0.1-0.1-0.1-0.2-0.1-0.3V-2.7c0-0.1,0-0.2,0.1-0.3s0.2-0.1,0.3-0.1h8.4c0.1,0,0.2,0,0.3,0.1
			S-60-2.8-60-2.7V-1c0,0.1,0,0.2-0.1,0.3c-0.1,0.1-0.2,0.1-0.3,0.1h-5.7v2.4h5.3c0.1,0,0.2,0,0.3,0.1c0.1,0.1,0.1,0.2,0.1,0.3v1.6
			c0,0.1,0,0.2-0.1,0.3c-0.1,0.1-0.2,0.1-0.3,0.1h-5.3v2.5h5.9c0.1,0,0.2,0,0.3,0.1s0.1,0.2,0.1,0.3V9c0,0.1,0,0.2-0.1,0.3
			s-0.2,0.1-0.3,0.1h-8.5C-69,9.4-69.1,9.4-69.2,9.3z"/>
		<path class="st1" d="M-57.7,9.3c-0.1-0.1-0.1-0.2-0.1-0.3V-2.7c0-0.1,0-0.2,0.1-0.3s0.2-0.1,0.3-0.1h1.9c0.3,0,0.5,0.1,0.6,0.4
			l3.2,5.7l3.2-5.7c0.1-0.3,0.3-0.4,0.6-0.4h1.9c0.1,0,0.2,0,0.3,0.1c0.1,0.1,0.1,0.2,0.1,0.3V9c0,0.1,0,0.2-0.1,0.3
			c-0.1,0.1-0.2,0.1-0.3,0.1h-2.1c-0.1,0-0.2,0-0.3-0.1c-0.1-0.1-0.1-0.2-0.1-0.3V2.2l-2,3.8c-0.2,0.3-0.4,0.4-0.6,0.4h-0.9
			c-0.2,0-0.3,0-0.4-0.1s-0.2-0.2-0.3-0.3l-2-3.8V9c0,0.1,0,0.2-0.1,0.3s-0.2,0.1-0.3,0.1h-2.2C-57.5,9.4-57.6,9.4-57.7,9.3z"/>
		<path class="st1" d="M-41.8,8.4c-1-0.8-1.5-2-1.5-3.7c0-0.3,0-0.9,0-1.5c0-0.7,0-1.2,0-1.6c0.1-1.6,0.6-2.8,1.6-3.7
			c1-0.9,2.3-1.3,4-1.3c1.7,0,3,0.4,4,1.3c1,0.9,1.5,2.1,1.6,3.7c0,0.7,0,1.2,0,1.6c0,0.3,0,0.9,0,1.5c-0.1,1.6-0.6,2.8-1.5,3.7
			c-1,0.8-2.3,1.2-4,1.2C-39.5,9.6-40.8,9.2-41.8,8.4z M-36.2,6.4c0.4-0.4,0.6-1,0.6-1.8c0-0.7,0-1.2,0-1.5c0-0.3,0-0.8,0-1.5
			c0-0.8-0.2-1.4-0.6-1.8c-0.4-0.4-0.9-0.6-1.6-0.6c-0.6,0-1.2,0.2-1.6,0.6c-0.4,0.4-0.6,1-0.6,1.8c0,0.3,0,0.8,0,1.5
			c0,0.6,0,1.1,0,1.5c0,0.8,0.2,1.4,0.6,1.8C-39,6.8-38.4,7-37.8,7C-37.1,7-36.6,6.8-36.2,6.4z"/>
		<path class="st1" d="M-27.4,9.3c-0.1-0.1-0.1-0.2-0.1-0.3v-9.3h-3.2c-0.1,0-0.2,0-0.3-0.1s-0.1-0.2-0.1-0.3v-1.9
			c0-0.1,0-0.2,0.1-0.3s0.2-0.1,0.3-0.1h9.7c0.1,0,0.2,0,0.3,0.1s0.1,0.2,0.1,0.3v1.9c0,0.1,0,0.2-0.1,0.3c-0.1,0.1-0.2,0.1-0.3,0.1
			h-3.2V9c0,0.1,0,0.2-0.1,0.3s-0.2,0.1-0.3,0.1h-2.4C-27.2,9.4-27.3,9.4-27.4,9.3z"/>
		<path class="st1" d="M-17.6,8.4c-1-0.8-1.4-2.1-1.4-3.7v-7.3c0-0.1,0-0.2,0.1-0.3s0.2-0.1,0.3-0.1h2.3c0.1,0,0.2,0,0.3,0.1
			c0.1,0.1,0.1,0.2,0.1,0.3v7.3c0,0.8,0.2,1.4,0.5,1.8c0.4,0.4,0.9,0.6,1.6,0.6c0.7,0,1.2-0.2,1.6-0.6c0.4-0.4,0.6-1,0.6-1.7v-7.3
			c0-0.1,0-0.2,0.1-0.3s0.2-0.1,0.3-0.1h2.3c0.1,0,0.2,0,0.3,0.1s0.1,0.2,0.1,0.3v7.3c0,1.7-0.5,2.9-1.4,3.7c-1,0.8-2.3,1.2-3.9,1.2
			C-15.4,9.6-16.7,9.2-17.6,8.4z"/>
		<path class="st1" d="M-4.8,8.4c-1-0.8-1.5-2-1.5-3.6c0-0.3,0-0.9,0-1.6c0-0.7,0-1.3,0-1.6C-6.3,0-5.7-1.2-4.7-2.1
			c1-0.8,2.3-1.3,4-1.3c1.1,0,2,0.2,2.8,0.5c0.8,0.4,1.5,0.9,2,1.5C4.6-0.6,4.8,0.1,4.8,1v0c0,0.1,0,0.2-0.1,0.2
			C4.6,1.4,4.5,1.4,4.5,1.4H2c-0.2,0-0.3,0-0.4-0.1C1.6,1.2,1.5,1.1,1.4,0.9C1.3,0.3,1-0.1,0.7-0.4C0.3-0.6-0.2-0.7-0.8-0.7
			c-1.4,0-2.1,0.8-2.2,2.4C-3,2-3,2.5-3,3.1c0,0.7,0,1.2,0,1.5C-2.9,6.2-2.2,7-0.8,7c0.6,0,1.1-0.1,1.4-0.4C1,6.4,1.3,6,1.4,5.4
			c0-0.2,0.1-0.3,0.2-0.4C1.7,4.9,1.9,4.9,2,4.9h2.4c0.1,0,0.2,0,0.3,0.1c0.1,0.1,0.1,0.2,0.1,0.3c0,0.9-0.3,1.6-0.7,2.3
			c-0.5,0.7-1.1,1.2-2,1.5C1.3,9.4,0.3,9.6-0.8,9.6C-2.5,9.6-3.8,9.2-4.8,8.4z"/>
	</g>
</g>
</svg>
