<svg xmlns="http://www.w3.org/2000/svg" xmlns:xlink="http://www.w3.org/1999/xlink" width="66.258" height="48" viewBox="0 0 66.258 48"><defs><clipPath id="a"><path d="M0,11.447H66.258v-48H0Z" transform="translate(0 36.553)" fill="#fff"/></clipPath></defs><g transform="translate(0 36.553)"><g transform="translate(0 -36.553)" clip-path="url(#a)"><g transform="translate(0 0)"><path d="M0,8.86c.068-.511.139-1.022.2-1.534A11.533,11.533,0,0,1,1.463,3.658,23.51,23.51,0,0,1,16.042-8.63a47.458,47.458,0,0,1,8.234-1.662,64.132,64.132,0,0,1,8.1-.555A50.062,50.062,0,0,1,44.373-9.456a13.762,13.762,0,0,0,9.23-.826,10.7,10.7,0,0,0,4.717-4.2,19.438,19.438,0,0,0,2.542-5.71c.1-.449.142-.913.221-1.441-.393.042-.725.071-1.054.116A3.809,3.809,0,0,1,56.4-22.793a3.329,3.329,0,0,1,1.811-5.414,1.8,1.8,0,0,0,.226-.084h.986a7.585,7.585,0,0,1,2.848,1.472,10.9,10.9,0,0,1,3.536,5.308,25.688,25.688,0,0,1,.448,3.686,12.737,12.737,0,0,1-.815,3.588,20.6,20.6,0,0,1-7.025,9.113A31.015,31.015,0,0,1,45.621.542,62.8,62.8,0,0,1,30.394,1.729a50.818,50.818,0,0,1-7.3-.766c-1.3-.239-2.59-.618-3.9-.749a11.262,11.262,0,0,0-9.8,3.576A16.088,16.088,0,0,0,5.75,10.87c-.188.7-.33,1.421-.512,2.213.289-.039.471-.063.654-.089A8.718,8.718,0,0,1,7.3,12.8a3.266,3.266,0,0,1,3.127,2.935,3.344,3.344,0,0,1-2.618,3.647A4.668,4.668,0,0,1,5.1,18.976a7.6,7.6,0,0,1-4.752-5.76C.189,12.568.112,11.9,0,11.243Z" transform="translate(0 28.291)" fill="#fff"/></g><g transform="translate(32.171 33.205)"><path d="M1.246,3.528V-.528l.243-.066A2.666,2.666,0,0,0,3.341-2.145,3.882,3.882,0,0,0,2.82-6.309,2.18,2.18,0,0,0,.644-7.166.481.481,0,0,0,.164-6.6C.179-3.438.172-.275.172,2.889V3.4H-3.98V-11.266H-3.5c1.479,0,2.959,0,4.437,0A7.034,7.034,0,0,1,7.416-6.344c.029.105.162.263.231.255a.453.453,0,0,0,.311-.223,7.843,7.843,0,0,1,6.574-4.835,20.917,20.917,0,0,1,2.488-.014V-7.5c-.742,0-1.477,0-2.213,0a2.225,2.225,0,0,0-2.293,2.059h4.559V-2.33H12.733a1.284,1.284,0,0,0,.462,1.448,3.381,3.381,0,0,0,2,.628c.6.03,1.2.007,1.829.007V3.459c-.675-.033-1.339-.043-2-.1a9.732,9.732,0,0,1-4.16-1.266A6.186,6.186,0,0,1,8.151-1.145a.42.42,0,0,0-.292-.244.418.418,0,0,0-.3.227A7.391,7.391,0,0,1,1.632,3.455a.509.509,0,0,0-.139.074Z" transform="translate(3.98 11.267)" fill="#fff"/></g><g transform="translate(18.323 1.808)"><path d="M1.669,0a6.981,6.981,0,1,1-7,6.822A6.981,6.981,0,0,1,1.669,0" transform="translate(5.33 0)" fill="#fff"/></g><g transform="translate(33.918 1.799)"><path d="M3.326,1.71A6.944,6.944,0,0,1-4.011,8.494a6.972,6.972,0,0,1-6.608-7.115A7,7,0,0,1-3.1-5.445,7,7,0,0,1,3.326,1.71" transform="translate(10.62 5.461)" fill="#fff"/></g><g transform="translate(13.287 33.151)"><path d="M3.137,2.143A1.974,1.974,0,0,0,3.893,3.56,3.715,3.715,0,0,0,6.152,4.3c.516.028,1.036.005,1.584.005v3.61c-.494,0-1,.02-1.5,0a10.23,10.23,0,0,1-4.3-1.048A6.09,6.09,0,0,1-1.2,3.2c-.034-.1-.075-.2-.118-.323H-5.635V7.9h-4.378c0-.407-.009-.825,0-1.24q.1-3.837.21-7.674a17.727,17.727,0,0,1,.141-2.411A3.81,3.81,0,0,1-5.979-6.69c1.4-.066,2.813-.013,4.253-.013v3.924h-2.46A1.475,1.475,0,0,0-5.594-.732c1.23,0,2.474.005,3.718-.011.087,0,.225-.146.25-.246C-.81-4.354,1.451-6.095,4.755-6.612c.993-.155,2.008-.156,3.053-.23v3.816c-.158,0-.327-.007-.5,0A15.032,15.032,0,0,0,4.985-2.9a2.03,2.03,0,0,0-1.768,2H7.741V2.143Z" transform="translate(10.017 6.842)" fill="#fff"/></g><g transform="translate(54.257 33.22)"><path d="M1.625,2.133H-.744V7.856H-5.19V-6.771H-.784v5.178h2.4V-6.767c.144-.016.248-.038.353-.038,1.261,0,2.52,0,3.781-.007.274,0,.383.063.383.362Q6.116.578,6.122,7.6c0,.08-.012.159-.02.259H1.625Z" transform="translate(5.19 6.812)" fill="#fff"/></g></g></g></svg>