<svg id="fresenius-1" xmlns="http://www.w3.org/2000/svg" width="100" height="14.372" viewBox="0 0 100 14.372">
  <path id="Trazado_2347" data-name="Trazado 2347" d="M0,3.867V6.306H10.328V3.867ZM0,0H14.213V2.44H0ZM2.556,14.21V11.77H0V14.21ZM0,7.818v2.44H6.442V7.818ZM23.255,6.17v1.6h3.65v2.291h-3.65v4.152h-2.6V3.866h7.709v2.3Zm11.9,8.039h2.926l-2.04-3.974a3.018,3.018,0,0,0,1.907-3.03c0-2.364-1.611-3.34-3.872-3.34h-4.7V14.209h2.571v-3.56h1.464ZM34,6.1c.917,0,1.33.429,1.33,1.169,0,.8-.413,1.227-1.359,1.227H31.943V6.1Zm5.431,8.113h7.818V11.933H42.015V9.91h3.257V7.664H42.015V6.14h4.869V3.866H39.428V14.209Zm12.578.162c2.6,0,4.212-1.092,4.212-3.324,0-2.039-1.376-2.764-3.665-3.3-1.434-.34-1.819-.531-1.819-1,0-.4.251-.724,1.2-.724a4.482,4.482,0,0,1,2.719.961l1.4-1.936a5.97,5.97,0,0,0-4-1.345c-2.336,0-3.947,1.256-3.947,3.193,0,2.054,1.24,2.7,3.547,3.236,1.566.369,1.936.621,1.936,1.11,0,.577-.414.812-1.492.812A5.189,5.189,0,0,1,49.168,11l-1.4,1.906a6.61,6.61,0,0,0,4.242,1.462Zm5.608-.162h7.818V11.933H60.2V9.91h3.258V7.664H60.2V6.14h4.872V3.866H57.614Zm15.745,0h2.172V3.866H73.019V9.509L69.03,3.866H66.679V14.209h2.512V8.283Zm4.047,0H80.05V3.866H77.406Zm8.774.162c2.6,0,4.432-1.447,4.432-4.624V3.866h-2.63V9.747c0,1.4-.591,2.262-1.775,2.262s-1.788-.872-1.788-2.262V3.866H81.773V9.747C81.773,12.939,83.607,14.372,86.18,14.372Zm9.609,0c2.6,0,4.211-1.092,4.211-3.324,0-2.039-1.373-2.764-3.666-3.3-1.431-.34-1.817-.531-1.817-1,0-.4.252-.724,1.2-.724a4.485,4.485,0,0,1,2.72.961l1.4-1.936a5.973,5.973,0,0,0-4-1.345C93.5,3.7,91.887,4.959,91.887,6.9c0,2.054,1.242,2.7,3.547,3.236,1.566.369,1.937.621,1.937,1.11,0,.577-.414.812-1.492.812A5.193,5.193,0,0,1,92.951,11l-1.4,1.906A6.609,6.609,0,0,0,95.789,14.372Z" fill="#cecece"/>
</svg>
