<svg xmlns="http://www.w3.org/2000/svg" width="55" height="55" viewBox="0 0 55 55"><g transform="translate(-536 -1591)"><circle cx="27.5" cy="27.5" r="27.5" transform="translate(536 1591)" fill="#292669"/><g transform="translate(-399 -262.53)"><g transform="translate(951 1869.53)"><path d="M20.979,0H2.021A2.024,2.024,0,0,0,0,2.021V20.979A2.024,2.024,0,0,0,2.021,23H20.979A2.024,2.024,0,0,0,23,20.979V2.021A2.024,2.024,0,0,0,20.979,0Zm.674,20.979a.675.675,0,0,1-.674.674H2.021a.675.675,0,0,1-.674-.674V2.021a.675.675,0,0,1,.674-.674H20.979a.675.675,0,0,1,.674.674Zm0,0" fill="#fff"/><path d="M92.806,64.592a12.937,12.937,0,0,0-15.537,0,.675.675,0,0,0-.134.945l3.556,4.736a.673.673,0,0,0,.943.134,5.67,5.67,0,0,1,6.809,0,.673.673,0,0,0,.942-.134l3.556-4.736a.675.675,0,0,0-.134-.945Zm-4.113,4.358a6.937,6.937,0,0,0-2.982-.994V65.9a.674.674,0,1,0-1.347,0v2.056a6.938,6.938,0,0,0-2.982.994l-2.754-3.668a11.594,11.594,0,0,1,12.819,0Zm0,0" transform="translate(-73.538 -59.212)" fill="#fff"/></g></g></g></svg>