<svg xmlns="http://www.w3.org/2000/svg" width="25" height="25" viewBox="0 0 25 25"><g transform="translate(-4.5 -4.5)"><path d="M22.208,6.583a5.224,5.224,0,0,1,5.208,5.208V22.208a5.224,5.224,0,0,1-5.208,5.208H11.792a5.224,5.224,0,0,1-5.208-5.208V11.792a5.224,5.224,0,0,1,5.208-5.208H22.208m0-2.083H11.792A7.313,7.313,0,0,0,4.5,11.792V22.208A7.313,7.313,0,0,0,11.792,29.5H22.208A7.313,7.313,0,0,0,29.5,22.208V11.792A7.313,7.313,0,0,0,22.208,4.5Z" fill="#fff"/><path d="M25.313,12.375A1.688,1.688,0,1,1,27,10.688,1.683,1.683,0,0,1,25.313,12.375Z" transform="translate(-1.619 -0.381)" fill="#fff"/><path d="M18,13.5A4.5,4.5,0,1,1,13.5,18,4.5,4.5,0,0,1,18,13.5m0-2.25A6.75,6.75,0,1,0,24.75,18,6.752,6.752,0,0,0,18,11.25Z" transform="translate(-1 -1)" fill="#fff"/></g></svg>