<svg xmlns="http://www.w3.org/2000/svg" width="55" height="55" viewBox="0 0 55 55"><g transform="translate(-536 -1741)"><circle cx="27.5" cy="27.5" r="27.5" transform="translate(536 1741)" fill="#f9575c"/><g transform="translate(552 1757)"><g transform="translate(0 0)"><path d="M72.364,64a.523.523,0,1,0,0,1.045,7.318,7.318,0,1,1-7.318,7.318.523.523,0,1,0-1.045,0A8.364,8.364,0,1,0,72.364,64Z" transform="translate(-60.864 -60.864)" fill="#fff"/><path d="M112.941,119.212a.523.523,0,0,0,0-1.045,5.227,5.227,0,1,1,5.227-5.227.523.523,0,0,0,1.045,0,6.273,6.273,0,1,0-6.273,6.273Z" transform="translate(-101.441 -101.44)" fill="#fff"/><path d="M20.909,0h-.683a.522.522,0,0,0-.449.256.489.489,0,0,1-.872,0A.522.522,0,0,0,18.455,0H17.089a.522.522,0,0,0-.449.256.489.489,0,0,1-.872,0A.522.522,0,0,0,15.319,0H13.953A.522.522,0,0,0,13.5.256a.489.489,0,0,1-.872,0A.522.522,0,0,0,12.183,0H10.817a.522.522,0,0,0-.449.256.489.489,0,0,1-.872,0A.522.522,0,0,0,9.046,0H7.68a.522.522,0,0,0-.449.256.489.489,0,0,1-.872,0A.522.522,0,0,0,5.91,0H4.544a.522.522,0,0,0-.449.256.489.489,0,0,1-.872,0A.522.522,0,0,0,2.774,0H2.091A2.093,2.093,0,0,0,0,2.091V20.909A2.093,2.093,0,0,0,2.091,23h.683a.522.522,0,0,0,.449-.256.489.489,0,0,1,.872,0A.522.522,0,0,0,4.544,23H5.91a.522.522,0,0,0,.449-.256.489.489,0,0,1,.872,0A.522.522,0,0,0,7.681,23H9.047a.522.522,0,0,0,.449-.256.489.489,0,0,1,.872,0,.522.522,0,0,0,.449.256h1.366a.522.522,0,0,0,.449-.256.489.489,0,0,1,.872,0,.522.522,0,0,0,.449.256h1.366a.522.522,0,0,0,.449-.256.489.489,0,0,1,.872,0A.522.522,0,0,0,17.09,23h1.366a.522.522,0,0,0,.449-.256.489.489,0,0,1,.872,0,.522.522,0,0,0,.449.256h.683A2.093,2.093,0,0,0,23,20.909V2.091A2.093,2.093,0,0,0,20.909,0Zm1.045,20.909a1.047,1.047,0,0,1-1.045,1.045h-.42a1.573,1.573,0,0,0-2.3,0h-.84a1.573,1.573,0,0,0-2.3,0h-.84a1.573,1.573,0,0,0-2.3,0h-.84a1.573,1.573,0,0,0-2.3,0h-.84a1.573,1.573,0,0,0-2.3,0h-.84a1.573,1.573,0,0,0-2.3,0h-.42a1.047,1.047,0,0,1-1.045-1.045V2.091A1.047,1.047,0,0,1,2.091,1.045h.42a1.573,1.573,0,0,0,2.3,0h.84a1.573,1.573,0,0,0,2.3,0h.84a1.573,1.573,0,0,0,2.3,0h.84a1.573,1.573,0,0,0,2.3,0h.84a1.573,1.573,0,0,0,2.3,0h.84a1.573,1.573,0,0,0,2.3,0h.42a1.047,1.047,0,0,1,1.045,1.045Z" transform="translate(0 0)" fill="#fff"/></g></g></g></svg>