<svg xmlns="http://www.w3.org/2000/svg" width="55" height="55" viewBox="0 0 55 55"><g transform="translate(-912 -1741)"><circle cx="27.5" cy="27.5" r="27.5" transform="translate(912 1741)" fill="#292669"/><g transform="translate(928 1757.938)"><g transform="translate(2.875 7.666)"><path d="M78.843,202.654H65.426a1.439,1.439,0,0,0-1.438,1.438v.958a9.082,9.082,0,0,0,4.929,8.093.479.479,0,1,0,.44-.852,8.126,8.126,0,0,1-4.41-7.241v-.958a.479.479,0,0,1,.479-.479H78.843a.479.479,0,0,1,.479.479v.958a8.122,8.122,0,0,1-4.411,7.24.48.48,0,0,0,.22.906.472.472,0,0,0,.219-.054,9.078,9.078,0,0,0,4.93-8.092v-.958A1.439,1.439,0,0,0,78.843,202.654Z" transform="translate(-63.988 -202.654)" fill="#fff"/></g><g transform="translate(0 17.249)"><path d="M22.006,416.262a.48.48,0,0,0-.443-.3H.479a.48.48,0,0,0-.339.818l1.074,1.075a3.334,3.334,0,0,0,2.372.982H18.454a3.34,3.34,0,0,0,2.374-.982l1.074-1.075A.478.478,0,0,0,22.006,416.262Zm-1.856.92a2.382,2.382,0,0,1-1.694.7H3.586a2.382,2.382,0,0,1-1.694-.7l-.257-.257H20.406Z" transform="translate(0 -415.966)" fill="#fff"/></g><g transform="translate(15.952 9.581)"><path d="M361.214,245.62c-1.291-.83-3.353.071-3.584.175a.48.48,0,1,0,.4.873c.462-.21,1.944-.707,2.668-.241a1.362,1.362,0,0,1,.487,1.242c0,1.919-3.87,3.078-5.364,3.364l-.339.067a.479.479,0,0,0,.092.949.445.445,0,0,0,.093-.01l.336-.066c.251-.048,6.14-1.2,6.14-4.3A2.261,2.261,0,0,0,361.214,245.62Z" transform="translate(-355.093 -245.272)" fill="#fff"/></g><g transform="translate(13.417 0)"><path d="M300,35.653a2.871,2.871,0,0,0,0-3.472.479.479,0,0,0-.748.6,1.933,1.933,0,0,1,0,2.276,2.868,2.868,0,0,0,0,3.472.479.479,0,1,0,.748-.6A1.93,1.93,0,0,1,300,35.653Z" transform="translate(-298.666 -32.001)" fill="#fff"/></g><g transform="translate(10.539 0)"><path d="M235.931,35.662a2.868,2.868,0,0,0,0-3.472.479.479,0,0,0-.748.6,1.93,1.93,0,0,1,0,2.276,2.871,2.871,0,0,0,0,3.472.479.479,0,1,0,.748-.6A1.933,1.933,0,0,1,235.931,35.662Z" transform="translate(-234.597 -32.009)" fill="#fff"/></g><g transform="translate(7.667 0.001)"><path d="M172,35.674a2.871,2.871,0,0,0,0-3.472.479.479,0,0,0-.748.6,1.933,1.933,0,0,1,0,2.276,2.868,2.868,0,0,0,0,3.472.479.479,0,1,0,.748-.6A1.93,1.93,0,0,1,172,35.674Z" transform="translate(-170.666 -32.022)" fill="#fff"/></g></g></g></svg>