<svg xmlns="http://www.w3.org/2000/svg" width="55" height="55" viewBox="0 0 55 55"><g transform="translate(-159 -1591)"><circle cx="27.5" cy="27.5" r="27.5" transform="translate(159 1591)" fill="#f9575c"/><g transform="translate(175 1607)"><g transform="translate(0)"><path d="M19.632,3.368A11.5,11.5,0,1,0,3.368,19.632,11.5,11.5,0,1,0,19.632,3.368ZM11.5,22.1A10.6,10.6,0,1,1,22.1,11.5,10.614,10.614,0,0,1,11.5,22.1Z" transform="translate(0 0)" fill="#fff"/><path d="M444.774,246.37a.448.448,0,1,0-.268.5A.452.452,0,0,0,444.774,246.37Z" transform="translate(-423.94 -234.957)" fill="#fff"/><path d="M66.24,59.08a.449.449,0,0,0-.541.335,8.444,8.444,0,1,1,0-3.862.449.449,0,0,0,.875-.205,9.33,9.33,0,1,0,0,4.274.449.449,0,0,0-.335-.54Z" transform="translate(-45.979 -45.98)" fill="#fff"/><path d="M120.21,151.175a1.381,1.381,0,0,0,1.379-1.379v-7.685a1.381,1.381,0,0,0-1.379-1.379h-1.643a1.379,1.379,0,1,0,0,2.759h.263V149.8A1.381,1.381,0,0,0,120.21,151.175Zm-1.643-8.581a.483.483,0,0,1,0-.966h1.643a.484.484,0,0,1,.483.483V149.8a.483.483,0,0,1-.966,0v-6.754a.448.448,0,0,0-.448-.448Z" transform="translate(-111.921 -134.397)" fill="#fff"/><path d="M237.683,148.677a3.6,3.6,0,0,0,2.65-6.039,3,3,0,1,0-5.3,0,3.6,3.6,0,0,0,2.65,6.039Zm-1.785-5.633a.448.448,0,0,0,.069-.6,2.1,2.1,0,1,1,3.431,0,.448.448,0,0,0,.069.6,2.705,2.705,0,1,1-3.569,0Z" transform="translate(-223.554 -132.012)" fill="#fff"/><path d="M290.21,182.065a1.137,1.137,0,1,0-1.137-1.137A1.138,1.138,0,0,0,290.21,182.065Zm0-1.378a.241.241,0,1,1-.241.241A.241.241,0,0,1,290.21,180.687Z" transform="translate(-276.084 -171.712)" fill="#fff"/><path d="M277.376,255.573a1.739,1.739,0,1,0-1.739-1.739A1.741,1.741,0,0,0,277.376,255.573Zm0-2.582a.843.843,0,1,1-.843.843A.844.844,0,0,1,277.376,252.99Z" transform="translate(-263.25 -240.765)" fill="#fff"/></g></g></g></svg>