<svg xmlns="http://www.w3.org/2000/svg" width="55" height="55" viewBox="0 0 55 55"><g transform="translate(-159 -1741)"><circle cx="27.5" cy="27.5" r="27.5" transform="translate(159 1741)" fill="#dba92a"/><g transform="translate(175 1755.963)"><g transform="translate(0 0)"><path d="M43.175.423A2.348,2.348,0,0,0,39.908,1L36.658,5.64l-.986-.69a.49.49,0,1,0-.562.8l1.056.74A5.108,5.108,0,0,0,32.57,8l-.329.329L31.912,8a5.156,5.156,0,0,0-.529-.461,5.592,5.592,0,0,0,2.742-4.813.49.49,0,0,0-.49-.49,5.6,5.6,0,0,0-3.642,1.35,1.809,1.809,0,0,0-1.928-1.133,1.808,1.808,0,0,0-1.675-1.122,1.833,1.833,0,0,0-1.672,1.123,1.808,1.808,0,0,0-1.81.89,1.833,1.833,0,0,0,.137,2.01,1.808,1.808,0,0,0-.134,2.012,1.764,1.764,0,0,0,.132.2,2.267,2.267,0,0,0-1.869,2.229v4.125a2.844,2.844,0,0,0,2.841,2.841h2.108l1.712,1.712A20.68,20.68,0,0,0,25.742,24.5a.49.49,0,0,0,.729.51A20.706,20.706,0,0,0,30.9,21.531a2.007,2.007,0,0,0,2.753-.077L34.811,20.3h6.233a2.266,2.266,0,0,0,2.264-2.264V13.913a2.845,2.845,0,0,0-1.977-2.706,5.129,5.129,0,0,0-.287-1.323.49.49,0,0,0,.443-.863l-.986-.69,3.25-4.641A2.349,2.349,0,0,0,43.175.423ZM32.587,9.365l.675-.675a4.162,4.162,0,0,1,7.068,2.382H24.151a4.132,4.132,0,0,1,1-2.192,1.8,1.8,0,0,0,1.241.493,1.833,1.833,0,0,0,1.672-1.123,1.812,1.812,0,0,0,1.56-.554,4.166,4.166,0,0,1,1.591.994l.675.675a.49.49,0,0,0,.693,0Zm.53-6.122a4.578,4.578,0,0,1-2.725,3.7q-.154-.07-.313-.129a1.856,1.856,0,0,0-.338-1.466A4.622,4.622,0,0,1,33.117,3.243Zm-9.361.589a.857.857,0,0,1,1.1-.33.49.49,0,0,0,.7-.4.838.838,0,0,1,1.673,0,.49.49,0,0,0,.7.4.838.838,0,0,1,.838,1.448.49.49,0,0,0,0,.8.838.838,0,0,1-.835,1.45.49.49,0,0,0-.7.4.838.838,0,0,1-1.673,0,.49.49,0,0,0-.7-.4.838.838,0,0,1-.838-1.448.49.49,0,0,0,0-.8A.857.857,0,0,1,23.757,3.832ZM23.438,8.5h.757a5.1,5.1,0,0,0-1.028,2.54,1.284,1.284,0,0,1,.271-2.54Zm3.5,15.058a19.691,19.691,0,0,1,1.62-4.37l1.65,1.65a19.725,19.725,0,0,1-3.27,2.72Zm14.1-4.239H35.791l2.569-2.569h2.684a1.284,1.284,0,1,1,0,2.569Zm1.284-5.409v2.262a2.25,2.25,0,0,0-1.284-.4h-6.6a.49.49,0,1,0,0,.979h2.529l-4.009,4.009a1.026,1.026,0,0,1-1.449,0l-4.009-4.009h2.529a.49.49,0,0,0,0-.979H24.014a1.863,1.863,0,0,1-1.861-1.861V11.651a2.25,2.25,0,0,0,1.284.4H40.467A1.863,1.863,0,0,1,42.328,13.913Zm.62-10.785L39.7,7.769,37.46,6.2l3.25-4.641a1.366,1.366,0,1,1,2.238,1.567Z" transform="translate(-21.174 0)" fill="#fff"/><path d="M433.154,37.87a.509.509,0,1,0,.359.149A.512.512,0,0,0,433.154,37.87Z" transform="translate(-412.603 -35.944)" fill="#fff"/><path d="M118.254,100.277a.509.509,0,1,0-.359-.149.511.511,0,0,0,.359.149Z" transform="translate(-113.025 -94.406)" fill="#fff"/><path d="M237.654,322.09a.509.509,0,1,0,.359.149A.512.512,0,0,0,237.654,322.09Z" transform="translate(-226.587 -306.34)" fill="#fff"/></g></g></g></svg>