<svg xmlns="http://www.w3.org/2000/svg" width="55" height="55" viewBox="0 0 55 55"><g transform="translate(-912 -1591)"><circle cx="27.5" cy="27.5" r="27.5" transform="translate(912 1591)" fill="#dba92a"/><g transform="translate(928 1606.5)"><g transform="translate(0 0)"><path d="M20.536,2.464H18.071V.821a.821.821,0,1,0-1.643,0V2.464H6.571V.821a.821.821,0,1,0-1.643,0V2.464H2.464A2.464,2.464,0,0,0,0,4.929V20.536A2.464,2.464,0,0,0,2.464,23H20.536A2.464,2.464,0,0,0,23,20.536V4.929A2.464,2.464,0,0,0,20.536,2.464Zm.821,18.071a.821.821,0,0,1-.821.821H2.464a.821.821,0,0,1-.821-.821V9.857H21.357Zm0-12.321H1.643V4.929a.821.821,0,0,1,.821-.821H4.929V5.75a.821.821,0,0,0,1.643,0V4.107h9.857V5.75a.821.821,0,1,0,1.643,0V4.107h2.464a.821.821,0,0,1,.821.821V8.214Z" transform="translate(0 0)" fill="#fff"/></g><g transform="translate(4.107 11.5)"><path d="M87.8,238.933H86.154a.821.821,0,0,0,0,1.643H87.8a.821.821,0,1,0,0-1.643Z" transform="translate(-85.333 -238.933)" fill="#fff"/></g><g transform="translate(9.857 11.5)"><path d="M207.264,238.933h-1.643a.821.821,0,0,0,0,1.643h1.643a.821.821,0,0,0,0-1.643Z" transform="translate(-204.8 -238.933)" fill="#fff"/></g><g transform="translate(15.607 11.5)"><path d="M326.731,238.933h-1.643a.821.821,0,1,0,0,1.643h1.643a.821.821,0,0,0,0-1.643Z" transform="translate(-324.267 -238.933)" fill="#fff"/></g><g transform="translate(4.107 14.786)"><path d="M87.8,307.2H86.154a.821.821,0,0,0,0,1.643H87.8a.821.821,0,1,0,0-1.643Z" transform="translate(-85.333 -307.2)" fill="#fff"/></g><g transform="translate(9.857 14.786)"><path d="M207.264,307.2h-1.643a.821.821,0,0,0,0,1.643h1.643a.821.821,0,0,0,0-1.643Z" transform="translate(-204.8 -307.2)" fill="#fff"/></g><g transform="translate(15.607 14.786)"><path d="M326.731,307.2h-1.643a.821.821,0,1,0,0,1.643h1.643a.821.821,0,0,0,0-1.643Z" transform="translate(-324.267 -307.2)" fill="#fff"/></g><g transform="translate(4.107 18.071)"><path d="M87.8,375.467H86.154a.821.821,0,1,0,0,1.643H87.8a.821.821,0,1,0,0-1.643Z" transform="translate(-85.333 -375.467)" fill="#fff"/></g><g transform="translate(9.857 18.071)"><path d="M207.264,375.467h-1.643a.821.821,0,0,0,0,1.643h1.643a.821.821,0,1,0,0-1.643Z" transform="translate(-204.8 -375.467)" fill="#fff"/></g><g transform="translate(15.607 18.071)"><path d="M326.731,375.467h-1.643a.821.821,0,1,0,0,1.643h1.643a.821.821,0,1,0,0-1.643Z" transform="translate(-324.267 -375.467)" fill="#fff"/></g></g></g></svg>