<svg xmlns="http://www.w3.org/2000/svg" width="15" height="15" viewBox="0 0 15 15"><path d="M6.244,10.989c0,.646-.469.85-1.045.85H3.69V10.068H5.23C5.853,10.071,6.244,10.329,6.244,10.989ZM5.987,8.233c0-.593-.459-.733-.968-.733H3.693V9h1.43c.506,0,.864-.221.864-.767Zm4.43.777A1,1,0,0,0,9.355,10h2.083A.954.954,0,0,0,10.416,9.01ZM15,3.857V15.643a1.608,1.608,0,0,1-1.607,1.607H1.607A1.608,1.608,0,0,1,0,15.643V3.857A1.608,1.608,0,0,1,1.607,2.25H13.393A1.608,1.608,0,0,1,15,3.857ZM9.1,7.373h2.6V6.74H9.1Zm-1.44,3.693A1.665,1.665,0,0,0,6.485,9.338,1.25,1.25,0,0,0,7.363,8.1c0-1.279-.954-1.59-2.056-1.59H2.277v6.429H5.394C6.563,12.931,7.657,12.372,7.657,11.066Zm5.066-.5A2.289,2.289,0,0,0,10.46,8.046,2.337,2.337,0,0,0,8.079,10.51a2.268,2.268,0,0,0,2.381,2.444,2.076,2.076,0,0,0,2.18-1.567H11.511a1.059,1.059,0,0,1-1.011.606,1.051,1.051,0,0,1-1.142-1.182h3.355C12.717,10.734,12.723,10.651,12.723,10.57Z" transform="translate(0 -2.25)" fill="#363638"/></svg>