<svg xmlns="http://www.w3.org/2000/svg" width="22" height="21" viewBox="0 0 22 21"><ellipse cx="11" cy="10.5" rx="11" ry="10.5" fill="#fff"/><path d="M5.253,4.8a2.7,2.7,0,1,0,2.7,2.7A2.691,2.691,0,0,0,5.253,4.8Zm0,4.448A1.753,1.753,0,1,1,7.005,7.495,1.756,1.756,0,0,1,5.253,9.247ZM8.687,4.689a.629.629,0,1,1-.629-.629A.627.627,0,0,1,8.687,4.689Zm1.785.638a3.112,3.112,0,0,0-.849-2.2,3.131,3.131,0,0,0-2.2-.849c-.868-.049-3.469-.049-4.337,0a3.127,3.127,0,0,0-2.2.847,3.122,3.122,0,0,0-.849,2.2c-.049.868-.049,3.47,0,4.338a3.112,3.112,0,0,0,.849,2.2,3.135,3.135,0,0,0,2.2.849c.868.049,3.469.049,4.337,0a3.111,3.111,0,0,0,2.2-.849,3.132,3.132,0,0,0,.849-2.2c.049-.868.049-3.468,0-4.336ZM9.351,10.594a1.774,1.774,0,0,1-1,1,11.582,11.582,0,0,1-3.1.211,11.673,11.673,0,0,1-3.1-.211,1.774,1.774,0,0,1-1-1,11.59,11.59,0,0,1-.211-3.1,11.681,11.681,0,0,1,.211-3.1,1.774,1.774,0,0,1,1-1,11.583,11.583,0,0,1,3.1-.211,11.673,11.673,0,0,1,3.1.211,1.774,1.774,0,0,1,1,1,11.59,11.59,0,0,1,.211,3.1A11.583,11.583,0,0,1,9.351,10.594Z" transform="translate(5.748 3.019)" fill="#e73555"/></svg>