<svg xmlns="http://www.w3.org/2000/svg" width="21" height="21" viewBox="0 0 21 21"><circle cx="10.5" cy="10.5" r="10.5" fill="#fff"/><path d="M8.94,3.778a5.212,5.212,0,0,0-8.2,6.287L0,12.764l2.762-.725a5.194,5.194,0,0,0,2.49.634h0a5.26,5.26,0,0,0,5.26-5.21A5.231,5.231,0,0,0,8.94,3.778ZM5.255,11.8a4.323,4.323,0,0,1-2.206-.6L2.891,11.1l-1.638.429.437-1.6-.1-.164a4.339,4.339,0,1,1,8.048-2.3A4.379,4.379,0,0,1,5.255,11.8ZM7.63,8.552c-.129-.066-.77-.38-.889-.422s-.207-.066-.293.066-.336.422-.413.512-.153.1-.282.033A3.544,3.544,0,0,1,3.98,7.19c-.134-.23.134-.214.383-.711a.241.241,0,0,0-.012-.228c-.033-.066-.293-.706-.4-.967s-.214-.218-.293-.223-.162,0-.249,0a.482.482,0,0,0-.347.162,1.463,1.463,0,0,0-.455,1.087,2.55,2.55,0,0,0,.53,1.347A5.818,5.818,0,0,0,5.36,9.619a2.548,2.548,0,0,0,1.563.326,1.333,1.333,0,0,0,.878-.62,1.089,1.089,0,0,0,.075-.62C7.846,8.648,7.759,8.615,7.63,8.552Z" transform="translate(5.228 3.007)" fill="#e73555"/></svg>