<svg xmlns="http://www.w3.org/2000/svg" width="38.23" height="67.588" viewBox="0 0 38.23 67.588"><g transform="translate(0 0)"><path d="M884.592,257.084c-.935,3.08-2.909,3.658-5.613,5.333-3.333,2.065-6.619,4.223-9.88,6.4-6.5,4.347-12.694,9.034-19.625,12.7-1.238.654-3.122-.791-2.117-2.116,4.691-6.185,10.52-10.924,16.905-15.274,3.5-2.383,7.082-4.585,10.784-6.64,2.847-1.58,5.062-3.445,8.343-2.518a1.746,1.746,0,0,1,1.2,2.119Z" transform="translate(-847.072 -254.718)" fill="#e73555"/></g><g transform="translate(0 32.976)"><path d="M874.2,292.344c-11.021.781-23.168.577-33.941-1.939-2.165-.505-2.259-4.029,0-4.475,11.1-2.188,23.617-1.268,34.651,1.165,3.089.681,2.157,5.045-.71,5.249Z" transform="translate(-838.601 -284.694)" fill="#e73555"/></g><g transform="translate(0 46.352)"><path d="M872.963,322.069A74.57,74.57,0,0,1,844.34,304.2a1.842,1.842,0,0,1,1.778-3.055,117.374,117.374,0,0,1,30.1,13.218c3.891,2.447,1.456,9.3-3.251,7.711Z" transform="translate(-843.825 -301.069)" fill="#e73555"/></g></svg>