<svg xmlns="http://www.w3.org/2000/svg" xmlns:xlink="http://www.w3.org/1999/xlink" width="644.461" height="130.974" viewBox="0 0 644.461 130.974"><defs><clipPath id="a"><path d="M216.575,703.249c-26.293,6.284-71.754,29.174-70.354,65.557,1.222,31.773,37.407,53.736,65.557,58.762,6.1,1.09,38.748,6.919,59.961-13.591,29.983-28.991,18.633-92.732-13.591-109.529C243.5,696.814,227.789,700.569,216.575,703.249Z" fill="none"/></clipPath></defs><g transform="translate(-360.77 -1888.513)"><rect width="482" height="72" rx="36" transform="translate(469.5 1918)" fill="#ece768"/><text transform="translate(749.5 1962)" fill="rgba(0,0,0,0.87)" font-size="24" font-family="Rubik-Bold, Rubik" font-weight="700"><tspan x="-171.612" y="0">Ayudanos a seguir creciendo</tspan></text><g transform="translate(-485.659 1665.489)"><path d="M847.139,257.084c.935,3.08,2.909,3.658,5.613,5.333,3.333,2.065,6.619,4.223,9.88,6.4,6.5,4.347,12.694,9.034,19.625,12.7,1.238.654,3.122-.791,2.117-2.116-4.691-6.185-10.52-10.924-16.905-15.274-3.5-2.383-7.082-4.585-10.784-6.64-2.847-1.58-5.062-3.445-8.343-2.518a1.746,1.746,0,0,0-1.2,2.119Z" fill="#e73555"/><g transform="translate(7.827 3)"><path d="M841.231,292.344c11.021.781,23.168.577,33.941-1.939,2.165-.505,2.259-4.029,0-4.475-11.1-2.188-23.617-1.268-34.651,1.165-3.089.681-2.157,5.045.71,5.249Z" fill="#e73555"/></g><path d="M849.011,322.069A74.57,74.57,0,0,0,877.634,304.2a1.842,1.842,0,0,0-1.778-3.055,117.374,117.374,0,0,0-30.1,13.218c-3.891,2.447-1.456,9.3,3.251,7.711Z" transform="translate(6.51)" fill="#e73555"/></g><g transform="translate(967 1920.206)"><g transform="translate(0 0)"><path d="M884.592,257.084c-.935,3.08-2.909,3.658-5.613,5.333-3.333,2.065-6.619,4.223-9.88,6.4-6.5,4.347-12.694,9.034-19.625,12.7-1.238.654-3.122-.791-2.117-2.116,4.691-6.185,10.52-10.924,16.905-15.274,3.5-2.383,7.082-4.585,10.784-6.64,2.847-1.58,5.062-3.445,8.343-2.518a1.746,1.746,0,0,1,1.2,2.119Z" transform="translate(-847.072 -254.718)" fill="#e73555"/></g><g transform="translate(0 32.976)"><path d="M874.2,292.344c-11.021.781-23.168.577-33.941-1.939-2.165-.505-2.259-4.029,0-4.475,11.1-2.188,23.617-1.268,34.651,1.165,3.089.681,2.157,5.045-.71,5.249Z" transform="translate(-838.601 -284.694)" fill="#e73555"/></g><g transform="translate(0 46.352)"><path d="M872.963,322.069A74.57,74.57,0,0,1,844.34,304.2a1.842,1.842,0,0,1,1.778-3.055,117.374,117.374,0,0,1,30.1,13.218c3.891,2.447,1.456,9.3-3.251,7.711Z" transform="translate(-843.825 -301.069)" fill="#e73555"/></g></g><g transform="translate(268.811 1188.589)"><path d="M216.575,703.249c-26.293,6.284-71.754,29.174-70.354,65.557,1.222,31.773,37.407,53.736,65.557,58.762,6.1,1.09,38.748,6.919,59.961-13.591,29.983-28.991,18.633-92.732-13.591-109.529C243.5,696.814,227.789,700.569,216.575,703.249Z" fill="#292669"/><path d="M280.933,777.2c0,28.832-47.283,64.177-83.946,50.767-34.938-12.78-44.1-63.935-38.375-67.556,4.4-2.788,15.413,24,38.339,26.168,30.777,2.915,49.906-41.667,69.991-34.563C276.343,755.343,280.933,768.217,280.933,777.2Z" fill="#ffc7c6"/><g clip-path="url(#a)"><path d="M221.384,713.472s16.8,29.41,19.131,23.471C243.354,729.715,222.349,707.1,221.384,713.472Z" fill="#2ca5c6"/><path d="M240.763,735.816a11.036,11.036,0,0,0-1.6-5.885c-2.421-4.652-7.007-9.812-10.03-12.8a19.784,19.784,0,0,0-7.151-4.644l.032-.034c.3-.313,16.906-16.758,20.243-19.8,16.458-.627,19.307,13.341,30.517,14.445a24.521,24.521,0,0,1,16.836,8.91c-13.508,10.613-49.571,21.723-49.571,21.723a3.687,3.687,0,0,0,.237-.362,3.941,3.941,0,0,0,.483-1.524Z" fill="#40bedb"/><path d="M202.021,723.23s-12.632.211-13.453,1.407c-1.584,2.3,4.781,2.3,4.781,2.3Z" fill="#ee9681"/><path d="M221.983,714.189c-3.924,2.068-6.788,3.288-9.491,4.667-6.667,3.4-18.26,12.09-17.62,18.654s8.852,13.927,11.274,12.051-2.62-11.042-1.674-13.152,13.122-2.083,13.517-.442-8.295,8.459-5.444,11.516c0,0,1.6,1.718,6.368-2.188,2.582-2.116,7.8-3.983,11.9-8.47,1.613-1.765,4.015-4.248,4.735-5.694C236.781,728.656,224.133,713.056,221.983,714.189Z" fill="#f8c6a3"/><path d="M210.271,720.082s-14.424,4.366-18.526,9.625-6.108,9.541-3.764,11.065,11.364-7.149,11.364-7.149Z" fill="#f8c6a3"/><path d="M216.981,716.75c-5.362,1.659-33.228,13.356-33.561,15.322-.644,3.808,9.866.146,9.866.146Z" fill="#f8c6a3"/><path d="M204.988,748.3s-5.085-4.772-10.058-.6,1.453,10.778,7.789,12.607,8.1,2.786,9.181,2.152,12.969-18.794,4.96-24.957C211.113,733.076,204.642,738.131,204.988,748.3Z" fill="#e73555"/><path d="M217.989,735.967s-7.163,7.882-6.538,11.086,6.916-1.343,14.124-6.1S221.166,731.053,217.989,735.967Z" fill="#f8c6a3"/><path d="M194.872,737.705a.2.2,0,0,1-.188-.143,7.087,7.087,0,0,1,5.672-8.9.2.2,0,0,1,.1.377,6.7,6.7,0,0,0-5.4,8.413.2.2,0,0,1-.135.241A.2.2,0,0,1,194.872,737.705Z" fill="#ee9681"/><path d="M189.14,733.568a.2.2,0,0,1-.1-.029.2.2,0,0,1-.064-.269c.108-.176,2.672-4.315,4.779-5.421a37.635,37.635,0,0,1,5.925-2.151.2.2,0,0,1,.1.377,38.04,38.04,0,0,0-5.847,2.12c-2.012,1.057-4.6,5.237-4.627,5.28A.2.2,0,0,1,189.14,733.568Z" fill="#ee9681"/><path d="M197.522,754.8l-2.538-4.2a1.388,1.388,0,0,0-1.684-.579l-4.558,1.742,4.7-2.757a.873.873,0,0,0,.385-1.037l-.9-2.633,1.658,2.177a1.277,1.277,0,0,0,1.313.467l2.485-.6-2.235,1.332a.91.91,0,0,0-.392,1.084Z" fill="#fff"/><g opacity="0.8"><path d="M233.693,765.3l0-.005a1.476,1.476,0,0,1-.437-1.044v-3.806a2.515,2.515,0,0,0-2.565-2.515L192.4,758.7a2.672,2.672,0,0,0-2.6,2.351s.559,3.01-.152,3.633c-6.093,5.336-11.124,13.849-11.124,22.588,0,11.836,6.311,20.314,14.253,26.064a92.517,92.517,0,0,0,17.382,1.475,104.483,104.483,0,0,0,19.694-1.475c7.943-5.749,14.528-11.929,14.528-24.743C244.381,779.851,239.42,771.031,233.693,765.3Z" fill="#acc9c5"/></g><g opacity="0.6"><path d="M235.032,764.42l0-.005a1.57,1.57,0,0,1-.459-1.106v-4.03a2.651,2.651,0,0,0-2.693-2.663l-40.193.807a2.814,2.814,0,0,0-2.729,2.49s.587,3.188-.16,3.848c-6.4,5.65-11.678,14.666-11.678,23.92a32.041,32.041,0,0,0,9.9,23.3,18.132,18.132,0,0,0,10.748,5.163,115.592,115.592,0,0,0,12.561.7,134.526,134.526,0,0,0,14.981-.736,19.074,19.074,0,0,0,10.359-4.48c6.1-5.247,10.586-11.619,10.586-22.549C246.252,779.826,241.045,770.485,235.032,764.42Z" fill="#bce3f6"/></g><ellipse cx="15.665" cy="1.75" rx="15.665" ry="1.75" transform="translate(195.65 810.282)" fill="#8bb2ac"/><path d="M199.485,762.976c-3.368,0-6.607-.085-9.507-.292l.017-.234c16.172,1.156,42.976-1.492,43.245-1.518l.024.233C233.043,761.187,214.925,762.976,199.485,762.976Z" fill="#8bb2ac"/><path d="M209.192,764.379c-7.593,0-15.078-.213-19.205-.912l.04-.231c10.485,1.776,42.775.4,43.1.39l.01.235C232.94,763.869,220.938,764.379,209.192,764.379Z" fill="#8bb2ac"/><path d="M189.8,761.165v-.234c.377,0,37.759-.056,43.3-1.365l.054.228C227.587,761.109,190.178,761.165,189.8,761.165Z" fill="#8bb2ac"/><g opacity="0.7"><path d="M193.182,798.921s-3.894-4.169-8.177-1.033.606,8.875,5.679,10.709,6.464,2.71,7.378,2.25,11.6-14.641,5.391-20.1C199,786.827,193.446,790.6,193.182,798.921Z" fill="#ec6469"/><path d="M202.249,793.377a.212.212,0,0,1-.2-.141,2.482,2.482,0,0,0-2.222-1.764,4.442,4.442,0,0,0-1.6.136.212.212,0,1,1-.126-.4c.033-.01,3.332-1,4.344,1.892a.211.211,0,0,1-.13.269A.19.19,0,0,1,202.249,793.377Z" fill="#daebe8"/></g><path d="M220.142,797.075s.887-7.158-5.628-8.772-8.122,7.783-5.788,14.193,2.61,8.47,3.8,8.984,23.61-.617,23.878-11.066C236.6,792.916,228.426,790.589,220.142,797.075Z" fill="#e73555"/><path d="M233.077,801.476a.263.263,0,0,1-.137-.038.268.268,0,0,1-.093-.367,3.138,3.138,0,0,0-.09-3.586,5.6,5.6,0,0,0-1.426-1.439.268.268,0,0,1,.29-.45,6.078,6.078,0,0,1,1.582,1.592,3.685,3.685,0,0,1,.1,4.158A.267.267,0,0,1,233.077,801.476Z" fill="#daebe8"/><path d="M200.3,805.791s-3.578-.594-4.524,2.645,3.741,4.241,7.009,3.2,4.309-1.135,4.592-1.72.181-11.873-5.062-12.225C198.55,797.44,197.212,801.495,200.3,805.791Z" fill="#ec6469"/><path d="M199.9,800.207a.134.134,0,0,1-.078-.025.136.136,0,0,1-.032-.188c.013-.018,1.294-1.793,2.923-.727a.134.134,0,1,1-.147.225,1.577,1.577,0,0,0-1.8-.029,2.8,2.8,0,0,0-.753.687A.135.135,0,0,1,199.9,800.207Z" fill="#daebe8"/><path d="M202.976,779.757s-2.254-2.625-4.929-.833.142,5.393,3.17,6.632,3.848,1.806,4.413,1.551,7.4-8.577,3.776-12.044C206.808,772.576,203.347,774.724,202.976,779.757Z" fill="#e73555"/><path d="M208.616,776.628a.129.129,0,0,1-.123-.091,1.5,1.5,0,0,0-1.295-1.124,2.691,2.691,0,0,0-.978.041.128.128,0,1,1-.066-.248c.021-.006,2.045-.521,2.585,1.256a.129.129,0,0,1-.086.16A.12.12,0,0,1,208.616,776.628Z" fill="#daebe8"/><path d="M221.5,775.217s-3.583-.778-4.7,2.446,3.568,4.469,6.92,3.582,4.408-.932,4.723-1.51.772-11.982-4.506-12.6C220.149,766.7,218.6,770.725,221.5,775.217Z" fill="#e73555"/><path d="M221.384,769.557a.13.13,0,0,1-.083-.029.136.136,0,0,1-.024-.191c.014-.017,1.4-1.747,2.988-.589a.135.135,0,0,1,.03.19.137.137,0,0,1-.19.03,1.6,1.6,0,0,0-1.819-.119,2.834,2.834,0,0,0-.794.656A.137.137,0,0,1,221.384,769.557Z" fill="#daebe8"/><path d="M187.231,786.78a2.246,2.246,0,0,0-.291-2.927c-1.432-1.241-3.04.917-3.274,2.828s-.429,2.465-.2,2.746,6.017,2.87,7.423.276C191.9,787.842,190.146,786.21,187.231,786.78Z" fill="#ec6469"/><path d="M189.955,789.552a.075.075,0,0,1-.04-.139.886.886,0,0,0,.437-.914,1.568,1.568,0,0,0-.175-.544.075.075,0,0,1,.028-.1.074.074,0,0,1,.1.027c.006.011.613,1.08-.313,1.662A.071.071,0,0,1,189.955,789.552Z" fill="#daebe8"/><path d="M230.85,779.78l1.558,4.322a1.3,1.3,0,0,0,1.439.841l4.5-.763-4.815,1.668a.821.821,0,0,0-.544.882l.341,2.58-1.123-2.3a1.193,1.193,0,0,0-1.119-.669l-2.389.093,2.295-.813a.849.849,0,0,0,.558-.922Z" fill="#def1f8"/><path d="M201.459,774.026l-2.174,4.047a1.3,1.3,0,0,0,.336,1.633l3.576,2.838-4.459-2.466a.82.82,0,0,0-1.019.184l-1.692,1.978.962-2.373a1.193,1.193,0,0,0-.25-1.28l-1.665-1.715,2.138,1.164a.85.85,0,0,0,1.059-.2Z" fill="#def1f8"/><path d="M215.212,768.27l-1.4,2.6a.837.837,0,0,0,.216,1.05l2.3,1.826-2.868-1.587a.525.525,0,0,0-.655.119l-1.088,1.272.618-1.527a.766.766,0,0,0-.16-.823l-1.071-1.1,1.375.749a.548.548,0,0,0,.681-.13Z" fill="#def1f8"/><path d="M192.675,767.1l-1.4,2.6a.836.836,0,0,0,.217,1.05l2.3,1.826L190.924,771a.527.527,0,0,0-.655.119l-1.088,1.272.619-1.526a.768.768,0,0,0-.161-.823l-1.071-1.1,1.375.749a.546.546,0,0,0,.681-.129Z" fill="#def1f8"/><path d="M189.318,794.087l-1.4,2.6a.835.835,0,0,0,.216,1.05l2.3,1.826-2.868-1.586a.525.525,0,0,0-.655.118l-1.088,1.272.618-1.526a.766.766,0,0,0-.16-.823l-1.072-1.1,1.376.749a.546.546,0,0,0,.681-.129Z" fill="#def1f8"/><path d="M213.256,817c-6.347,0-12.436-.379-14.519-.559a23.811,23.811,0,0,1-6.867-1.8.2.2,0,0,1,.163-.355,23.4,23.4,0,0,0,6.737,1.764c3.484.3,18.194,1.159,26.506-.137,8.112-1.266,11.7-5.71,11.736-5.755a.2.2,0,0,1,.307.242,13.287,13.287,0,0,1-2.869,2.47,22.525,22.525,0,0,1-9.113,3.429A84.364,84.364,0,0,1,213.256,817Z" fill="#bce3f6"/><path d="M188.425,812.436a.191.191,0,0,1-.115-.038c-3.794-2.752-7.3-8.9-7.333-8.963a.2.2,0,0,1,.341-.193c.034.062,3.5,6.138,7.221,8.84a.2.2,0,0,1-.114.354Z" fill="#bce3f6"/></g><path d="M262.8,749.906a6.931,6.931,0,0,1,7.415-3.287c3.936,1.025,6.15,6.113,4.382,9.691-1.926,3.894-8.025,4.888-11.039,1.938A6.95,6.95,0,0,1,262.8,749.906Z" fill="#fdc331"/><path d="M244.96,726.226a3.466,3.466,0,0,1,3.708-1.643,3.6,3.6,0,0,1,2.191,4.845,3.671,3.671,0,0,1-5.52.969A3.476,3.476,0,0,1,244.96,726.226Z" fill="#fdc331"/></g></g></svg>