<svg xmlns="http://www.w3.org/2000/svg" width="200.001" height="183.857" viewBox="0 0 200.001 183.857"><g transform="translate(-534.132 -432.655)"><path d="M701.835,592.317c18.634-24.058,11.257-55.986,2.669-89.591-4.125-16.143-9.02-35.206-21.116-38.637-13.83-3.923-24.776,15.613-36.064,10.422-10.226-4.7-4.86-22.395-16.371-33.807C617.5,427.365,591.466,433,576.62,440.45c-29.365,14.737-38.2,48.24-40.335,58.209-7.046,32.926,3.515,71.1,27.048,89.221,3.044,2.343,9.89,5.093,23.284,11.05,8.5,3.781,26.463,11.771,36.318,14.63C644.169,619.722,682.074,617.831,701.835,592.317Z" fill="#e73555"/><path d="M677.121,546.874c-11.877,8.809-25.631-3.208-44.49,5.388-18.309,8.347-21.674,28.73-30.157,27.011-7.3-1.479-4.885-16.269-15.216-22.265-13-7.543-27.774,9.5-38.568,3.445-14.166-7.945-12.993-50.911,4.205-60.023,11.793-6.248,21.55,8.492,41.369,3.605,18.009-4.441,17.909-18.576,35.005-22.808,16.726-4.14,39.947,3.667,49.972,22.132C686.745,517.181,688.032,538.782,677.121,546.874Z" fill="#fdc331"/><path d="M596.927,512.464a40.176,40.176,0,0,1-4.9-10.544c-2.3-7.484-.921-19.484,3.3-25.31s9.447-8.281,13.748-5.71,1.63,7.8-.735,10.727-12.156,16.645-8.13,30.781" fill="none" stroke="#f99898" stroke-linecap="round" stroke-linejoin="round" stroke-width="1"/><path d="M607.722,472.089c-2.549,1.119-9.244,7.791-11.625,15.791-3.419,11.49,2.573,24.584,2.573,24.584" fill="none" stroke="#f99898" stroke-linecap="round" stroke-linejoin="round" stroke-width="1"/><line x1="5.654" y1="0.584" transform="translate(604.087 474.974)" fill="none" stroke="#f99898" stroke-linecap="round" stroke-linejoin="round" stroke-width="1"/><line x1="5.891" y1="0.414" transform="translate(601.139 478.41)" fill="none" stroke="#f99898" stroke-linecap="round" stroke-linejoin="round" stroke-width="1"/><line x1="6.082" y1="0.627" transform="translate(599.153 481.397)" fill="none" stroke="#f99898" stroke-linecap="round" stroke-linejoin="round" stroke-width="1"/><line x2="6.555" y2="0.126" transform="translate(597.221 484.847)" fill="none" stroke="#f99898" stroke-linecap="round" stroke-linejoin="round" stroke-width="1"/><line x2="6.15" transform="translate(596.009 488.183)" fill="none" stroke="#f99898" stroke-linecap="round" stroke-linejoin="round" stroke-width="1"/><line x2="5.533" transform="translate(595.288 492.276)" fill="none" stroke="#f99898" stroke-linecap="round" stroke-linejoin="round" stroke-width="1"/><line y1="0.286" x2="4.371" transform="translate(595.025 495.304)" fill="none" stroke="#f99898" stroke-linecap="round" stroke-linejoin="round" stroke-width="1"/><line y1="0.623" x2="3.381" transform="translate(595.288 499.132)" fill="none" stroke="#f99898" stroke-linecap="round" stroke-linejoin="round" stroke-width="1"/><line y1="0.851" x2="2.85" transform="translate(595.82 502.303)" fill="none" stroke="#f99898" stroke-linecap="round" stroke-linejoin="round" stroke-width="1"/><line x1="2.98" y1="1.145" transform="translate(592.575 500.531)" fill="none" stroke="#f99898" stroke-linecap="round" stroke-linejoin="round" stroke-width="1"/><line x1="3.1" y1="1.22" transform="translate(591.994 496.237)" fill="none" stroke="#f99898" stroke-linecap="round" stroke-linejoin="round" stroke-width="1"/><line x1="2.863" y1="1.348" transform="translate(592.231 492.229)" fill="none" stroke="#f99898" stroke-linecap="round" stroke-linejoin="round" stroke-width="1"/><line x1="2.852" y1="2" transform="translate(592.82 487.655)" fill="none" stroke="#f99898" stroke-linecap="round" stroke-linejoin="round" stroke-width="1"/><line x1="1.756" y1="3.196" transform="translate(600.822 473.342)" fill="none" stroke="#f99898" stroke-linecap="round" stroke-linejoin="round" stroke-width="1"/><line x1="2.295" y1="3.845" transform="translate(597.713 476.026)" fill="none" stroke="#f99898" stroke-linecap="round" stroke-linejoin="round" stroke-width="1"/><line x1="2.894" y1="3.331" transform="translate(595.288 479.549)" fill="none" stroke="#f99898" stroke-linecap="round" stroke-linejoin="round" stroke-width="1"/><line x1="2.969" y1="2.928" transform="translate(593.662 483.364)" fill="none" stroke="#f99898" stroke-linecap="round" stroke-linejoin="round" stroke-width="1"/><line x1="0.856" y1="1.999" transform="translate(604.971 471.343)" fill="none" stroke="#f99898" stroke-linecap="round" stroke-linejoin="round" stroke-width="1"/><path d="M605.541,512.6c4.567,0,13.282-.563,16.924-7.487s4.682-19.407,5.072-21.88-1.691-3.018-7.023-3.331-14.475,2.538-19.659,10.022S596.032,510.231,605.541,512.6Z" fill="#ffc7c6"/><path d="M625.456,481.977c-8.32,2.052-18.134,13.7-21.209,30.214" fill="none" stroke="#fff" stroke-linecap="round" stroke-miterlimit="10" stroke-width="1"/><line x1="7.729" y1="0.824" transform="translate(618.341 485.818)" fill="none" stroke="#fff" stroke-linecap="round" stroke-miterlimit="10" stroke-width="1"/><line x2="1.042" y2="5.841" transform="translate(614.835 482.269)" fill="none" stroke="#fff" stroke-linecap="round" stroke-miterlimit="10" stroke-width="1"/><line x2="2.965" y2="8.395" transform="translate(608.101 485.936)" fill="none" stroke="#fff" stroke-linecap="round" stroke-miterlimit="10" stroke-width="1"/><line x1="10.365" y1="0.725" transform="translate(613.265 491.174)" fill="none" stroke="#fff" stroke-linecap="round" stroke-miterlimit="10" stroke-width="1"/><line x2="4.164" y2="8.318" transform="translate(603.441 492.229)" fill="none" stroke="#fff" stroke-linecap="round" stroke-miterlimit="10" stroke-width="1"/><line x1="12.242" y1="1.159" transform="translate(609.303 497.781)" fill="none" stroke="#fff" stroke-linecap="round" stroke-miterlimit="10" stroke-width="1"/><line x1="12.285" y1="0.668" transform="translate(606.056 505.09)" fill="none" stroke="#fff" stroke-linecap="round" stroke-miterlimit="10" stroke-width="1"/><line x2="5.425" y2="9.164" transform="translate(600.058 497.808)" fill="none" stroke="#fff" stroke-linecap="round" stroke-miterlimit="10" stroke-width="1"/><path d="M659.262,581.648a282.121,282.121,0,0,0-50.885-20.861,277.9,277.9,0,0,0-53.705-10.478q1.012-11.856,2.024-23.712.839-9.805,1.675-19.611a4.046,4.046,0,0,1,4.446-3.69,321.389,321.389,0,0,1,58,11.7,326.1,326.1,0,0,1,58.834,24.12q-5.1,10.632-10.2,21.265Z" fill="#30abb3"/><path d="M557.883,541.638l1.38-14.788,1.38-14.789a7.4,7.4,0,0,0,5.117-1.335,6.185,6.185,0,0,0,2.559-4.285,319.2,319.2,0,0,1,51.847,10.952,323.256,323.256,0,0,1,49.545,19.429,6.421,6.421,0,0,0,.02,5.058,7.907,7.907,0,0,0,3.676,3.969l-6.258,13.327q-3.129,6.663-6.259,13.327a6.019,6.019,0,0,0-8.355,2.952,283.911,283.911,0,0,0-43.508-17.062,280.379,280.379,0,0,0-45.53-9.617,6.478,6.478,0,0,0-1.329-4.76A6.231,6.231,0,0,0,557.883,541.638Z" fill="#4fc3c9"/><path d="M633.274,543.265a16.156,16.156,0,0,1-8.17,9.257,16.678,16.678,0,0,1-12.279.955,17.564,17.564,0,0,1-9.834-7.781,17.142,17.142,0,0,1-2.1-12.427,14.862,14.862,0,0,1,7.508-9.959,16.961,16.961,0,0,1,13.2-1.169,17.891,17.891,0,0,1,10.5,8.483A15.627,15.627,0,0,1,633.274,543.265Z" fill="#50bfa5"/><path d="M612.754,550.492q.177-.711.353-1.42t.353-1.42a15.692,15.692,0,0,1-1.832-.729,14.55,14.55,0,0,1-1.6-.879,1.865,1.865,0,0,1-.794-1.071,1.779,1.779,0,0,1,.133-1.308l.027-.05.026-.05a1.713,1.713,0,0,1,1.116-.871,1.8,1.8,0,0,1,1.424.251,12,12,0,0,0,1.469.827,10.564,10.564,0,0,0,1.678.63,4.223,4.223,0,0,0,2.217.117,1.557,1.557,0,0,0,1.161-1.138,1.87,1.87,0,0,0-.395-1.665,8.729,8.729,0,0,0-2.176-1.852,12.586,12.586,0,0,1-3.512-3.141,4.66,4.66,0,0,1-.756-3.838,4.721,4.721,0,0,1,2.188-3.063,7.184,7.184,0,0,1,4.4-.849q.174-.711.349-1.421l.348-1.422,1.566.438q.781.222,1.564.447-.168.657-.335,1.313l-.335,1.313a16.275,16.275,0,0,1,1.541.6,12.78,12.78,0,0,1,1.239.639,1.946,1.946,0,0,1,.885,1.123,1.707,1.707,0,0,1-.16,1.351h0a1.727,1.727,0,0,1-1.143.809,1.963,1.963,0,0,1-1.441-.262,10.1,10.1,0,0,0-1.167-.624,10.649,10.649,0,0,0-1.486-.545,3.549,3.549,0,0,0-2.243-.071,1.384,1.384,0,0,0-.865.991,1.671,1.671,0,0,0,.557,1.54,16.153,16.153,0,0,0,2.527,2.081,9.8,9.8,0,0,1,3.345,3.416,4.9,4.9,0,0,1,.277,3.673,5.135,5.135,0,0,1-2.342,3.092,7.112,7.112,0,0,1-4.475.816l-.393,1.521q-.2.761-.394,1.52-.723-.208-1.448-.413T612.754,550.492Z" fill="#3c8f7c"/><path d="M595.9,532.94q-6.246-1.441-12.549-2.614T570.7,528.25l.294-2.28.294-2.28q6.438.915,12.83,2.1t12.724,2.651l-.47,2.247Z" fill="#50bfa5"/><path d="M660.832,556q-5.811-2.842-11.723-5.429t-11.91-4.915l.759-2.158.759-2.158q6.084,2.361,12.078,4.984t11.887,5.505q-.462,1.043-.925,2.086T660.832,556Z" fill="#50bfa5"/><path d="M674.528,527.388a248.085,248.085,0,0,0-49.144,15.774,257.856,257.856,0,0,0-45.462,25.822l-11.671-20.14L556.579,528.7a298.249,298.249,0,0,1,52.564-29.856A287.168,287.168,0,0,1,661.874,481.5a4.043,4.043,0,0,1,4.844,3.231L670.246,504Q672.386,515.694,674.528,527.388Z" fill="#30abb3"/><path d="M577.479,560.048q-3.6-6.318-7.193-12.635l-7.193-12.635a7.8,7.8,0,0,0,3.036-4.315,6.8,6.8,0,0,0-.49-5.034,294.908,294.908,0,0,1,44.353-24.264,285.456,285.456,0,0,1,47.36-16.06,6.215,6.215,0,0,0,2.823,4.008,6.622,6.622,0,0,0,4.917.818q1.391,7.289,2.78,14.576t2.78,14.575a5.814,5.814,0,0,0-3.765,2.792,6.8,6.8,0,0,0-.763,4.868,250.7,250.7,0,0,0-41.59,14.1,259.027,259.027,0,0,0-38.948,21.308,5.825,5.825,0,0,0-3.625-2.94A5.375,5.375,0,0,0,577.479,560.048Z" fill="#4fc3c9"/><path d="M634.033,513.4a18.087,18.087,0,0,1-.892,12.555,16.773,16.773,0,0,1-8.534,8.568,14.811,14.811,0,0,1-11.579.067,15.832,15.832,0,0,1-8.45-8.544,16.528,16.528,0,0,1,.012-12.692,17.114,17.114,0,0,1,9.092-9.321,15.081,15.081,0,0,1,12.458.069A14.753,14.753,0,0,1,634.033,513.4Z" fill="#30abb3"/><path d="M622.9,532.193l-.528-1.353-.528-1.354a13.753,13.753,0,0,1-1.756.586,12.5,12.5,0,0,1-1.671.32,1.573,1.573,0,0,1-1.181-.347,1.779,1.779,0,0,1-.628-1.125l-.008-.056-.009-.056a1.912,1.912,0,0,1,.341-1.4,1.683,1.683,0,0,1,1.19-.706,10.265,10.265,0,0,0,1.544-.276,9.443,9.443,0,0,0,1.588-.566,4.1,4.1,0,0,0,1.7-1.318,1.732,1.732,0,0,0,.224-1.642,1.7,1.7,0,0,0-1.215-1.073,7.316,7.316,0,0,0-2.635-.088,10.5,10.5,0,0,1-4.336-.265,4.27,4.27,0,0,1-2.689-2.57,5.239,5.239,0,0,1-.086-3.826,7.47,7.47,0,0,1,2.778-3.475l-.532-1.351q-.266-.676-.532-1.352.7-.326,1.4-.647t1.4-.64q.24.629.482,1.257l.481,1.257a14.485,14.485,0,0,1,1.47-.5,11.118,11.118,0,0,1,1.27-.28,1.63,1.63,0,0,1,1.276.331,1.712,1.712,0,0,1,.633,1.175h0a1.929,1.929,0,0,1-.395,1.37,1.83,1.83,0,0,1-1.209.709,8.724,8.724,0,0,0-1.208.245,9.493,9.493,0,0,0-1.4.512,3.467,3.467,0,0,0-1.694,1.37,1.541,1.541,0,0,0-.089,1.338,1.488,1.488,0,0,0,1.266.87,13.587,13.587,0,0,0,3.021.048A8.2,8.2,0,0,1,625,517.9a4.646,4.646,0,0,1,2.244,2.745,5.727,5.727,0,0,1-.012,3.948,7.376,7.376,0,0,1-2.85,3.494q.276.73.554,1.459l.553,1.459q-.649.3-1.3.593T622.9,532.193Z" fill="#4fc3c9"/><path d="M600.713,528.956q-5.41,2.826-10.715,5.9t-10.492,6.4q-.525-1-1.049-2l-1.049-2q5.26-3.367,10.639-6.486t10.864-5.984q.451,1.043.9,2.086Z" fill="#50bfa5"/><path d="M661.444,505.995q-5.868,1.437-11.668,3.139T638.255,512.8l-.638-2.2-.637-2.2q5.8-1.992,11.682-3.718t11.831-3.183q.238,1.124.476,2.246T661.444,505.995Z" fill="#30abb3"/><path d="M679.906,556.855a254.831,254.831,0,0,0-52.391,2.232,258.562,258.562,0,0,0-51.082,12.933l-6.879-22.586-6.879-22.587a298.871,298.871,0,0,1,59.062-14.954,294.58,294.58,0,0,1,56.54-2.8,4.044,4.044,0,0,1,3.832,4.253l-1,19.735Q680.508,544.969,679.906,556.855Z" fill="#30abb3"/><path d="M576.092,562.724q-2.094-7.068-4.187-14.136l-4.188-14.135a7.51,7.51,0,0,0,4.015-3.371,6.628,6.628,0,0,0,.686-5,296.264,296.264,0,0,1,49.621-11.72,292.632,292.632,0,0,1,50.69-2.982,6.41,6.41,0,0,0,1.865,4.628,7.059,7.059,0,0,0,4.684,2.1l-.639,14.843q-.319,7.422-.64,14.843a5.76,5.76,0,0,0-4.383,1.7,6.524,6.524,0,0,0-1.89,4.51,257.009,257.009,0,0,0-44.514,2.618,260.186,260.186,0,0,0-43.574,10.292,6.149,6.149,0,0,0-2.908-3.806A5.587,5.587,0,0,0,576.092,562.724Z" fill="#4fc3c9"/><path d="M643.021,532.576a17.41,17.41,0,0,1-3.808,11.914,16.35,16.35,0,0,1-10.455,6.029,15.638,15.638,0,0,1-11.495-3.005A16.6,16.6,0,0,1,610.876,537a16,16,0,0,1,2.969-12.28,16.668,16.668,0,0,1,11.184-6.609,15.928,15.928,0,0,1,12.334,3.37A15.347,15.347,0,0,1,643.021,532.576Z" fill="#30abb3"/><path d="M627.6,547.812q-.1-.725-.208-1.45t-.208-1.45a14.1,14.1,0,0,1-1.877.1,13.141,13.141,0,0,1-1.731-.134,1.68,1.68,0,0,1-1.09-.649,1.816,1.816,0,0,1-.361-1.255l.005-.057.005-.056a1.829,1.829,0,0,1,.664-1.267,1.688,1.688,0,0,1,1.345-.368,10.711,10.711,0,0,0,1.6.142,9.6,9.6,0,0,0,1.706-.127,4.043,4.043,0,0,0,1.994-.823,1.669,1.669,0,0,0,.605-1.531,1.791,1.791,0,0,0-.955-1.36,7.751,7.751,0,0,0-2.592-.784,11.169,11.169,0,0,1-4.237-1.406,4.488,4.488,0,0,1-2.067-3.2,5.085,5.085,0,0,1,.806-3.726,7.22,7.22,0,0,1,3.564-2.626l-.213-1.449q-.105-.724-.212-1.449c.512-.086,1.025-.172,1.538-.255s1.026-.167,1.539-.248q.093.672.185,1.345t.184,1.344a15,15,0,0,1,1.575-.1,11.726,11.726,0,0,1,1.324.066,1.74,1.74,0,0,1,1.541,1.964h0a1.851,1.851,0,0,1-2.074,1.586,9.013,9.013,0,0,0-1.254-.083,9.563,9.563,0,0,0-1.507.125,3.41,3.41,0,0,0-2,.876,1.486,1.486,0,0,0-.4,1.271,1.574,1.574,0,0,0,1.053,1.178,14.369,14.369,0,0,0,2.984.847,8.745,8.745,0,0,1,4.191,1.727,4.832,4.832,0,0,1,1.585,3.251,5.542,5.542,0,0,1-.932,3.818,7.125,7.125,0,0,1-3.639,2.626q.105.78.209,1.559t.209,1.559q-.713.113-1.425.229T627.6,547.812Z" fill="#4fc3c9"/><path d="M606.367,538.795q-6.023,1.3-12,2.87t-11.891,3.407l-.575-2.213q-.287-1.107-.574-2.213,6-1.864,12.058-3.455t12.164-2.91q.2,1.128.407,2.257T606.367,538.795Z" fill="#50bfa5"/><path d="M671.919,532.681q-6.152-.167-12.3-.057t-12.275.493l-.12-2.3q-.06-1.148-.12-2.3,6.216-.389,12.447-.5t12.47.058q-.026,1.151-.052,2.3T671.919,532.681Z" fill="#50bfa5"/><path d="M556.968,527.971a4.052,4.052,0,0,0-4.052,4.052v59.711H697.8V527.971H556.968Z" fill="#40bedb"/><path d="M697.8,575.455h-35.85a2.8,2.8,0,0,0-2.035.883,3.076,3.076,0,0,0-.843,2.131h0a3.076,3.076,0,0,0,.843,2.131,2.805,2.805,0,0,0,2.035.883H657.3a2.806,2.806,0,0,0-2.035.882,3.078,3.078,0,0,0-.843,2.131h0a3.078,3.078,0,0,0,.843,2.132,2.806,2.806,0,0,0,2.035.882h.8a2.809,2.809,0,0,0-2.035.883,3.076,3.076,0,0,0-.843,2.131,3.13,3.13,0,0,0,.242,1.21H697.8V575.455Z" fill="#40bedb"/><path d="M690.144,536.062H558.255V531.11H690.144v4.952Z" fill="#2ca5c6"/><path d="M615.844,595l-29.061,2.209-29.061,2.21a5.482,5.482,0,0,1-5.882-5.05l-1.085-14.277-1.086-14.278a5.482,5.482,0,0,1,5.05-5.881l29.062-2.21,29.061-2.21a5.48,5.48,0,0,1,5.881,5.05l1.086,14.278,1.086,14.277A5.482,5.482,0,0,1,615.844,595Z" fill="#def1f8"/><path d="M572.047,576.457l-8.5.647-8.5.647-.376-4.943-.376-4.943,8.5-.647,8.5-.647.376,4.943Z" fill="#2ca5c6"/><path d="M614.483,562.623l-15.078,1.147-15.078,1.146-.07-.923-.07-.923,15.078-1.147,15.078-1.146.07.923Z" fill="#2ca5c6"/><path d="M613.879,584.32l-27.749,2.11-27.749,2.11-.087-1.14-.087-1.14,27.749-2.11,27.749-2.11.087,1.14Z" fill="#2ca5c6"/><path d="M614.287,589.689l-27.749,2.11-27.749,2.11-.087-1.14-.087-1.14,27.749-2.11,27.749-2.11.087,1.14Z" fill="#2ca5c6"/><path d="M621.426,545.894h-61.5V544.25h61.5v1.644Z" fill="#2ca5c6"/><path d="M667.835,512.07a13.695,13.695,0,1,1-8.846-5.622A13.651,13.651,0,0,1,667.835,512.07Z" fill="#dba92a"/><path d="M666.032,513.336a11.493,11.493,0,1,1-7.424-4.718A11.454,11.454,0,0,1,666.032,513.336Z" fill="#fdc331"/><path d="M657.952,528.022l-.251-.926-.25-.927a9.453,9.453,0,0,1-1.265.193,8.783,8.783,0,0,1-1.182.023,1.168,1.168,0,0,1-1.107-1.151v-.075a1.168,1.168,0,0,1,.362-.861,1.147,1.147,0,0,1,.875-.319,7.233,7.233,0,0,0,1.079-.01,6.466,6.466,0,0,0,1.134-.2,2.673,2.673,0,0,0,1.268-.678,1.055,1.055,0,0,0,.277-1.037,1.2,1.2,0,0,0-.747-.81,5.481,5.481,0,0,0-1.778-.327,7.313,7.313,0,0,1-2.9-.652,2.99,2.99,0,0,1-1.575-1.967,3.305,3.305,0,0,1,.263-2.458,4.583,4.583,0,0,1,2.093-1.9l-.25-.926-.251-.926.955-.258.956-.258.232.857.232.858a9.585,9.585,0,0,1,1-.171,7.539,7.539,0,0,1,.851-.053,1.152,1.152,0,0,1,.819.336,1.166,1.166,0,0,1,.347.817h0a1.166,1.166,0,0,1-1.191,1.182,6.061,6.061,0,0,0-.817.036,6.38,6.38,0,0,0-.962.184,2.175,2.175,0,0,0-1.221.7.956.956,0,0,0-.16.848,1.06,1.06,0,0,0,.777.7,9.221,9.221,0,0,0,2.016.346,6.088,6.088,0,0,1,2.9.8,3.215,3.215,0,0,1,1.345,1.968,3.473,3.473,0,0,1-.27,2.55,4.629,4.629,0,0,1-2.224,1.995l.268.995.269.994-.955.258Z" fill="#dba92a"/><path d="M680.756,555.9a13.7,13.7,0,1,1-8.847-5.622A13.655,13.655,0,0,1,680.756,555.9Z" fill="#dba92a"/><path d="M678.953,557.168a11.493,11.493,0,1,1-7.424-4.718A11.458,11.458,0,0,1,678.953,557.168Z" fill="#fdc331"/><path d="M670.872,571.854l-.25-.927-.251-.926a9.4,9.4,0,0,1-1.264.193,8.764,8.764,0,0,1-1.182.023,1.168,1.168,0,0,1-1.107-1.151v-.075a1.164,1.164,0,0,1,.361-.861,1.15,1.15,0,0,1,.876-.319,7.226,7.226,0,0,0,1.079-.01,6.494,6.494,0,0,0,1.134-.2,2.682,2.682,0,0,0,1.268-.678,1.055,1.055,0,0,0,.277-1.037,1.2,1.2,0,0,0-.748-.81,5.469,5.469,0,0,0-1.778-.327,7.31,7.31,0,0,1-2.9-.652,2.987,2.987,0,0,1-1.575-1.967,3.309,3.309,0,0,1,.263-2.459,4.588,4.588,0,0,1,2.093-1.9l-.251-.926-.25-.926.955-.258.955-.259.232.858.232.858a9.556,9.556,0,0,1,1-.171,7.542,7.542,0,0,1,.851-.053,1.154,1.154,0,0,1,.819.336,1.171,1.171,0,0,1,.347.817h0a1.167,1.167,0,0,1-1.192,1.182,6.036,6.036,0,0,0-.816.036,6.381,6.381,0,0,0-.962.184,2.171,2.171,0,0,0-1.221.7.953.953,0,0,0-.16.848,1.058,1.058,0,0,0,.777.7,9.226,9.226,0,0,0,2.015.346,6.08,6.08,0,0,1,2.9.8,3.212,3.212,0,0,1,1.346,1.968,3.474,3.474,0,0,1-.27,2.55,4.636,4.636,0,0,1-2.225,1.995l.269.995.269.994-.955.258Z" fill="#fff"/><path d="M656.624,546.624a13.7,13.7,0,1,1-4.011-9.684A13.654,13.654,0,0,1,656.624,546.624Z" fill="#dba92a"/><path d="M654.421,546.624a11.492,11.492,0,1,1-3.366-8.127A11.456,11.456,0,0,1,654.421,546.624Z" fill="#fdc331"/><path d="M639.37,554l.327-.9.327-.9a9.625,9.625,0,0,1-1.146-.569,8.753,8.753,0,0,1-.98-.661,1.168,1.168,0,0,1-.245-1.578l.021-.03.021-.031a1.167,1.167,0,0,1,.791-.5,1.154,1.154,0,0,1,.9.241,7.02,7.02,0,0,0,.889.612,6.389,6.389,0,0,0,1.042.49,2.674,2.674,0,0,0,1.427.173,1.053,1.053,0,0,0,.822-.69,1.2,1.2,0,0,0-.146-1.092,5.446,5.446,0,0,0-1.268-1.289,7.316,7.316,0,0,1-2-2.2,2.989,2.989,0,0,1-.159-2.515,3.305,3.305,0,0,1,1.628-1.861,4.591,4.591,0,0,1,2.806-.355l.327-.9.327-.9.93.337.93.337-.3.836-.3.835a9.986,9.986,0,0,1,.914.432,7.561,7.561,0,0,1,.727.446,1.158,1.158,0,0,1,.478.746,1.172,1.172,0,0,1-.186.868h0a1.168,1.168,0,0,1-1.654.283,6.113,6.113,0,0,0-.689-.44,6.389,6.389,0,0,0-.893-.4,2.177,2.177,0,0,0-1.4-.132.955.955,0,0,0-.618.6,1.056,1.056,0,0,0,.235,1.017,9.216,9.216,0,0,0,1.451,1.442,6.081,6.081,0,0,1,1.913,2.315,3.217,3.217,0,0,1-.03,2.385,3.469,3.469,0,0,1-1.686,1.931,4.631,4.631,0,0,1-2.967.356l-.351.968-.351.968-.93-.337Z" fill="#dba92a"/><path d="M690.144,587.764H628.116V558.573a4.052,4.052,0,0,1,4.052-4.052h53.924a4.052,4.052,0,0,1,4.052,4.052v29.191Z" fill="#2ca5c6"/><path d="M659.07,578.469h0a3.076,3.076,0,0,0,.843,2.131,2.805,2.805,0,0,0,2.035.883H657.3a2.806,2.806,0,0,0-2.035.882,3.078,3.078,0,0,0-.843,2.131h0a3.078,3.078,0,0,0,.843,2.132,2.806,2.806,0,0,0,2.035.882h.8a2.758,2.758,0,0,0-.6.066,2.789,2.789,0,0,0-.557.188h33.2V575.455h-28.2a2.8,2.8,0,0,0-2.035.883A3.076,3.076,0,0,0,659.07,578.469Z" fill="#40bedb"/><path d="M698.162,593.538H661.139a2.69,2.69,0,0,1-2.689-2.69h0a2.69,2.69,0,0,1,2.689-2.69h37.023a2.69,2.69,0,0,1,2.69,2.69h0a2.69,2.69,0,0,1-2.69,2.69Z" fill="#dba92a"/><path d="M697.409,588.158H660.387a2.689,2.689,0,0,1-2.69-2.689h0a2.69,2.69,0,0,1,2.69-2.69h37.022a2.69,2.69,0,0,1,2.69,2.69h0a2.689,2.689,0,0,1-2.69,2.689Z" fill="#fdc331"/><path d="M701.754,582.779H664.731a2.69,2.69,0,0,1-2.69-2.69h0a2.689,2.689,0,0,1,2.69-2.689h37.023a2.687,2.687,0,0,1,2.689,2.689h0a2.689,2.689,0,0,1-2.689,2.69Z" fill="#dba92a"/><path d="M562.213,524.5l24.4,12.566,24.4,12.565a5.125,5.125,0,0,0,4.142.218,6.059,6.059,0,0,0,3.275-2.937l6.232-12.1,6.232-12.1a6.057,6.057,0,0,0,.489-4.372,5.126,5.126,0,0,0-2.584-3.245l-24.4-12.565L580,489.959a5.131,5.131,0,0,0-4.143-.218,6.057,6.057,0,0,0-3.274,2.937l-6.232,12.1-6.232,12.1a6.058,6.058,0,0,0-.489,4.372A5.126,5.126,0,0,0,562.213,524.5Z" fill="#def1f8"/><path d="M618.718,546.37l-29.16-15.014L560.4,516.341l1.891-3.672L564.179,509l29.16,15.014,29.16,15.014-1.891,3.672Z" fill="#2ca5c6"/><path d="M588.212,507.176l-6.426-3.316-6.426-3.316,1.839-3.564,1.839-3.564,6.426,3.316,6.426,3.316-1.839,3.564Z" fill="#2ca5c6"/><path d="M693.179,568.941s-.075.935-.12,2.022a16.179,16.179,0,0,0,.063,2.935c.066.326.28.824.437,1.317a1.831,1.831,0,0,1,.088,1.287,2.093,2.093,0,0,1-.483.613.971.971,0,0,1-.232.153l-4.321.069-4.321.068c-.236,0-.276-.069-.209-.177a1.8,1.8,0,0,1,.429-.388,9.149,9.149,0,0,1,1.042-.659c.451-.249,1.073-.559,2.065-1.031.065-.031.215-.12.37-.214l.4-.245a4.35,4.35,0,0,0,.639-.48,8.333,8.333,0,0,0,.6-.593,5,5,0,0,0,.57-2.242c.091-.909.105-1.733.105-1.733l1.44-.351Z" fill="#fb9390"/><path d="M686.424,519.206a4.265,4.265,0,0,0-1.768-.418c-.839.04-1.589.578-1.232,2.569s1.9,14.185,3.347,25.879,2.811,22.893,2.811,22.893l2.548.141,2.549.141s.163-3.733.308-7.734.272-8.271.2-9.343a28.235,28.235,0,0,0-.548-3.535c-.229-1.1-.44-1.927-.44-1.927l-.216-6.623-.216-6.624-2.405-8.178-2.4-8.178-1.267.469Z" fill="#1e1242"/><path d="M688.389,574.691a8.907,8.907,0,0,0,2.962.262,7,7,0,0,0,1.958-.452c.122.339.264.722.353,1.082a1.748,1.748,0,0,1,.042.941,1.944,1.944,0,0,1-.353.661.56.56,0,0,1-.394.215c-1.044.027-2.962.026-4.818.02s-3.65-.014-4.446,0a.257.257,0,0,1-.238-.146.248.248,0,0,1,.036-.274,13.236,13.236,0,0,1,2.533-1.288C687.178,575.2,688.3,574.742,688.389,574.691Z" fill="#1e1242"/><path d="M683.424,492.289s-.785-1.51-1.631-3.3a30.808,30.808,0,0,1-2-4.963c-.244-1.109-.788-4.457-1.253-7.617a64.317,64.317,0,0,1-.78-6.493c.071-.36.774-.972,1.418-1.572s1.228-1.184,1.063-1.49-.882-.459-1.631-.529a12.1,12.1,0,0,0-1.821-.031,5.61,5.61,0,0,0-1.157.267,3.688,3.688,0,0,0-1.095.537c-.251.207-.11,3.657.133,7.416s.588,7.826.747,9.268a37.4,37.4,0,0,0,2.229,6.96c1.015,2.579,1.991,4.8,1.991,4.8l1.892-1.627Z" fill="#f8c6a3"/><path d="M707.9,539.386s.647-.679,1.367-1.5a15.98,15.98,0,0,0,1.8-2.319c.154-.294.3-.815.491-1.3a1.825,1.825,0,0,1,.743-1.055,2.088,2.088,0,0,1,.76-.172.984.984,0,0,1,.277.027l3.4,2.67,3.4,2.669c.185.145.17.227.051.269a1.8,1.8,0,0,1-.578.031,9.163,9.163,0,0,1-1.225-.144c-.507-.092-1.185-.242-2.253-.5-.07-.017-.242-.042-.422-.067l-.465-.063a4.367,4.367,0,0,0-.8-.029,8.016,8.016,0,0,0-.837.085,4.989,4.989,0,0,0-1.855,1.381c-.643.649-1.173,1.28-1.173,1.28l-1.34-.635Z" fill="#fb9390"/><path d="M715.237,537.938a8.857,8.857,0,0,0-2.136-2.07,6.954,6.954,0,0,0-1.8-.882c.119-.34.244-.733.394-1.075a1.709,1.709,0,0,1,.548-.77,1.4,1.4,0,0,1,.687-.239.681.681,0,0,1,.438.134c.828.637,2.325,1.826,3.771,2.98s2.841,2.271,3.466,2.764a.259.259,0,0,1,.093.264.251.251,0,0,1-.2.19,13.255,13.255,0,0,1-2.779-.6C716.5,538.3,715.336,537.952,715.237,537.938Z" fill="#0b0754"/><path d="M707.955,490.449a8.14,8.14,0,0,0-3.629-3.778,7.081,7.081,0,0,0-5.016-.565,8.112,8.112,0,0,0-2.3-2.093,7.6,7.6,0,0,0-2.864-1.046,10.007,10.007,0,0,0-5.926.982,4.37,4.37,0,0,0-2.582,4.486,8.976,8.976,0,0,0-.626,4.744,6.145,6.145,0,0,0,2.174,4.043,5.634,5.634,0,0,0,2.057,4.931,7.646,7.646,0,0,0,5.767,1.754,8.706,8.706,0,0,0,3.517,2.842,7.374,7.374,0,0,0,4.366.544c.352-.068.8-.167,1.174-.244a3.9,3.9,0,0,1,.785-.117,5.448,5.448,0,0,0,2.935.949c1.77.093,4.03-.591,5.874-3.71a9.889,9.889,0,0,0,.72-9.159A7.438,7.438,0,0,0,707.955,490.449Z" fill="#363638"/><path d="M684.929,520.649s2.083-.926,4.182-1.8,4.214-1.693,4.28-1.482c.522,1.682,1.6,2.251,2.78,3.141a9.2,9.2,0,0,1,3.443,5.063c.4,1.24.813,5.987,1.121,10.423s.516,8.563.516,8.563.821-.682,2.23-1.959,3.4-3.149,5.75-5.531c.18-.183,1.152.565,2.079,1.358s1.81,1.633,1.81,1.633c-4.659,6.295-7.993,9.606-10.357,11.256s-3.758,1.638-4.536,1.285c-1.622-.735-4.146-6.249-6.262-11.578s-3.826-10.474-3.821-10.473a53.667,53.667,0,0,1-1.916-5.55C685.527,522.724,684.929,520.649,684.929,520.649Z" fill="#292669"/><path d="M698.74,497.4s3.01,0,6.343-.027,6.987-.063,8.276-.137c1.167-.068,4.064-.043,6.715-.006s5.054.086,5.235.065a11.2,11.2,0,0,0,1.563-2.008c.692-.964,1.39-1.868,1.589-1.651s-.134.72-.45,1.219-.614.994-.347,1.2a11.056,11.056,0,0,0,3.33-.047c1.493-.125,2.91-.247,2.872-.035-.071.4-.945.571-1.8.693s-1.692.192-1.69.384.879.138,1.785.116,1.841-.013,1.96.306-.724.383-1.614.4a6.043,6.043,0,0,0-1.9.139c-.072.142.765.343,1.575.583s1.593.518,1.415.814c-.1.161-.87.026-1.618-.093s-1.468-.225-1.461-.006.539.578,1.038.926.961.685.832.859-.545-.093-1.081-.407a4.028,4.028,0,0,0-1.806-.682,12.525,12.525,0,0,1-1.758-.268,5.215,5.215,0,0,0-2.306.147c-.484.133-2.571.425-5.318.75s-6.152.685-9.272.951c-3.2.274-6.107.454-8.217.565s-3.421.155-3.421.155l-.234-2.454Z" fill="#f8c6a3"/><path d="M680.885,505.911a12.191,12.191,0,0,1,.061-2.516c.087-.694.2-1.227.247-1.547-.293-1.005-.75-2.578-1.19-4.005a27.78,27.78,0,0,0-1.086-3.13,14.381,14.381,0,0,1,1.316-2.011c.792-1,1.853-2,2.926-1.99,0,0,.548,1.235,1.308,2.581a9.076,9.076,0,0,0,2.578,3.243c.013,0,.163.061.341.126a1.834,1.834,0,0,0,.512.128c.818-.005,2.656-.052,4.424-.1s3.463-.1,4-.105l-.3,4.056-.3,4.056c-2.071,4.06-2.827,7.156-2.867,9.434a6.1,6.1,0,0,0,1.422,4.525c.371.37-2.214,1.308-4.955,2.022s-5.639,1.2-5.894.678a47.375,47.375,0,0,1-1.374-6.721C681.531,511.417,681.046,507.866,680.885,505.911Z" fill="#92b5f9"/><path d="M693.413,496.893a20.263,20.263,0,0,1,4.739-.315c2.04,0,3.948.063,3.948.063s.266,1.329.425,2.817.21,3.137-.22,3.775c0,0-1.706.254-3.388.578s-3.339.717-3.242,1l-1.131-3.957Z" fill="#92b5f9"/><path d="M691.413,493.478s-.034.724-.05,1.6a22.966,22.966,0,0,0,.052,2.505,3.988,3.988,0,0,1-.889,2.478,3.725,3.725,0,0,1-2.909,1.609c-1.279.025-1.373-.654-1.119-1.488s.856-1.822.968-2.416.236-2.053.331-3.364.162-2.474.162-2.474l1.727.775Z" fill="#f8c6a3"/><path d="M687.959,491.928s-.015.27-.042.7-.065,1.009-.11,1.635a3.074,3.074,0,0,0,1.515,1.015,3.164,3.164,0,0,0,2.04-.146c.008-.449.021-.862.032-1.162s.019-.488.019-.488l-1.727-.775Z" fill="#ee9681"/><path d="M691.625,484.841a3.772,3.772,0,0,1,.826.4,4.164,4.164,0,0,1,1.436,1.484,6.137,6.137,0,0,1,.492,3.544,4.852,4.852,0,0,1-2.461,3.73,3.087,3.087,0,0,1-3.787-.27,4.538,4.538,0,0,1-1.336-3.518,8.436,8.436,0,0,1,1.012-3.946A3.36,3.36,0,0,1,691.625,484.841Z" fill="#f8c6a3"/><path d="M691.189,484.725a21.016,21.016,0,0,0,1,2.229c.6,1.146,1.4,2.353,2.213,2.6a1.991,1.991,0,0,1,1.335,1.487,3.662,3.662,0,0,1,.118,1.119,20.876,20.876,0,0,0-.034-2.6c-.108-1.377-.4-2.907-1.134-3.521a5.817,5.817,0,0,0-2.3-1.116A6.425,6.425,0,0,0,691.189,484.725Z" fill="#363638"/><path d="M693.683,490.381a1.667,1.667,0,0,0-.1.951.7.7,0,0,0,1.157.457,1.772,1.772,0,0,0,.676-1.712.7.7,0,0,0-1.157-.457A1.66,1.66,0,0,0,693.683,490.381Z" fill="#f8c6a3"/><path d="M674.087,468.131l1.816.077c.934.038,1.919.077,2.127.077a2.364,2.364,0,0,0,.965-.623c.353-.312.654-.623.654-.623l-2.781.546Z" fill="#ef7f7f"/><path d="M685.633,446.721a13.694,13.694,0,1,1-8.846-5.623A13.65,13.65,0,0,1,685.633,446.721Z" fill="#dba92a"/><path d="M683.83,447.986a11.492,11.492,0,1,1-7.423-4.717A11.457,11.457,0,0,1,683.83,447.986Z" fill="#fdc331"/><path d="M675.75,462.672l-.25-.926-.251-.926a9.429,9.429,0,0,1-1.265.193,8.767,8.767,0,0,1-1.182.022,1.166,1.166,0,0,1-1.107-1.151v-.074a1.168,1.168,0,0,1,.362-.861,1.153,1.153,0,0,1,.875-.32,7.1,7.1,0,0,0,1.08-.009,6.5,6.5,0,0,0,1.134-.2,2.682,2.682,0,0,0,1.268-.678,1.055,1.055,0,0,0,.276-1.037,1.2,1.2,0,0,0-.747-.81,5.421,5.421,0,0,0-1.778-.327,7.316,7.316,0,0,1-2.9-.652,2.99,2.99,0,0,1-1.575-1.967,3.3,3.3,0,0,1,.264-2.459,4.59,4.59,0,0,1,2.092-1.9l-.25-.926-.251-.926.956-.258.955-.259.232.858.232.858a9.862,9.862,0,0,1,1-.172,7.306,7.306,0,0,1,.851-.052,1.15,1.15,0,0,1,.82.336,1.167,1.167,0,0,1,.346.816h0a1.167,1.167,0,0,1-1.191,1.183,6.045,6.045,0,0,0-.817.036,6.364,6.364,0,0,0-.961.184,2.178,2.178,0,0,0-1.222.7.962.962,0,0,0-.16.849,1.057,1.057,0,0,0,.777.7,9.149,9.149,0,0,0,2.016.347,6.081,6.081,0,0,1,2.9.8,3.222,3.222,0,0,1,1.346,1.969,3.474,3.474,0,0,1-.271,2.55,4.629,4.629,0,0,1-2.224,1.995l.269.994.269.995-.956.258Z" fill="#dba92a"/><path d="M678.03,468.285l.728-.655.728-.654a4.012,4.012,0,0,1-.308-.431c-.136-.225-.237-.469-.094-.548.232-.129.547.055.8.3s.43.554.394.675a2.463,2.463,0,0,1-.489.6c-.223.224-.436.419-.436.419l-.659.146Z" fill="#fb9390"/><path d="M689.95,491.376h-.019c-.991-.068-1.017-.374-1.026-.489-.017-.2.338-2.137.551-3.276a.267.267,0,0,1,.525.1c-.233,1.247-.482,2.64-.534,3.046a2.562,2.562,0,0,0,.521.088.267.267,0,0,1-.018.533Z" fill="#ee9681"/><path d="M692.206,488.677a.408.408,0,1,0-.419.4A.408.408,0,0,0,692.206,488.677Z" fill="#363638"/><path d="M688.457,488.5a.408.408,0,1,0-.419.4A.407.407,0,0,0,688.457,488.5Z" fill="#363638"/><path d="M692.96,487.867a4.035,4.035,0,0,0-1.684-.455,1.053,1.053,0,0,1,.966-.3A.953.953,0,0,1,692.96,487.867Z" fill="#363638"/><path d="M688.884,487.268a3.971,3.971,0,0,0-1.669.392,1.035,1.035,0,0,1,.7-.707A.935.935,0,0,1,688.884,487.268Z" fill="#363638"/><path d="M689.56,492.455a4.913,4.913,0,0,0,2.138-.309,1.03,1.03,0,0,1-.956.9C689.708,493.17,689.56,492.455,689.56,492.455Z" fill="#e76266"/><path d="M635.991,571.658c-.813,3.624,4.5,8.752,8.543,8.075a4.5,4.5,0,0,0,1.266-.425c4.1-2.053,5.709-9.649,3.177-11.9a4.053,4.053,0,0,0-4.779-.151,4,4,0,0,0-1.38,2.235,4.735,4.735,0,0,0-3.853-.894A4.236,4.236,0,0,0,635.991,571.658Z" fill="#e73555"/><path d="M551.086,450.29c4.787-7.942,14.558-12.735,23.49-10.411,12.467,3.246,19.482,19.366,13.88,30.7-6.1,12.339-25.422,15.487-34.968,6.14C546.863,470.229,545.989,458.744,551.086,450.29Z" fill="#292669"/><path d="M563.5,470.2a7.62,7.62,0,0,1-3.188-2.463,5.418,5.418,0,0,1-1.057-2.81.671.671,0,0,1,.665-.665h6.073a1.154,1.154,0,0,1,.574.122,2.26,2.26,0,0,1,.453.362,1.9,1.9,0,0,0,.755.453,4.41,4.41,0,0,0,1.33.151,2.159,2.159,0,0,0,1.495-.453,1.481,1.481,0,0,0,.5-1.148q0-1.329-1.994-1.329H565.33a.828.828,0,0,1-.816-.817v-2.447a1.468,1.468,0,0,1,.182-.74,1.278,1.278,0,0,1,.423-.468l4.2-2.3h-7.946a.825.825,0,0,1-.816-.815V450.58a.828.828,0,0,1,.816-.816h15.47a.828.828,0,0,1,.816.816v3.838a1.406,1.406,0,0,1-.182.71,1.605,1.605,0,0,1-.423.5l-3.535,2.357v.091q5.439,1.3,5.439,6.224a5.6,5.6,0,0,1-1.269,3.626,8.136,8.136,0,0,1-3.52,2.432,14.17,14.17,0,0,1-5.091.861A13.323,13.323,0,0,1,563.5,470.2Z" fill="#fdc331"/></g></svg>