<svg xmlns="http://www.w3.org/2000/svg" xmlns:xlink="http://www.w3.org/1999/xlink" width="260" height="260" viewBox="0 0 260 260"><defs><clipPath id="a"><rect width="260" height="260" rx="40" transform="translate(-705.43 873.125)" fill="none"/></clipPath><clipPath id="b"><path d="M7.224,0h25.19a7.223,7.223,0,0,1,7.223,7.223V18.168a7.223,7.223,0,0,1-7.223,7.223H7.224A7.224,7.224,0,0,1,0,18.167V7.224A7.224,7.224,0,0,1,7.224,0Z" transform="translate(-650.284 936.762)" fill="none"/></clipPath><clipPath id="c"><path d="M7.224,0h25.19a7.223,7.223,0,0,1,7.223,7.223V18.168a7.223,7.223,0,0,1-7.223,7.223H7.224A7.224,7.224,0,0,1,0,18.167V7.224A7.224,7.224,0,0,1,7.224,0Z" transform="translate(-595.248 936.762)" fill="none"/></clipPath><clipPath id="d"><path d="M7.224,0h25.19a7.223,7.223,0,0,1,7.223,7.223V18.168a7.223,7.223,0,0,1-7.223,7.223H7.224A7.224,7.224,0,0,1,0,18.167V7.224A7.224,7.224,0,0,1,7.224,0Z" transform="translate(-540.212 936.762)" fill="none"/></clipPath></defs><g transform="translate(-967 -1032)"><g transform="translate(1672.43 158.875)"><g clip-path="url(#a)"><rect width="260" height="260" rx="40" transform="translate(-705.43 873.125)" fill="#292669"/><path d="M-483.038,1131.088c21.347-36.947,1.424-75.585-20.784-115.986-10.669-19.408-23.3-42.319-42.431-42.812-21.871-.564-32.915,28.082-51.318,25.066-16.67-2.731-13.5-27.2-33.961-38.141-23.914-12.785-61.48,2.881-81.731,17.262-40.055,28.442-44.063,74.354-44.511,87.854-1.477,44.591,24.963,90.231,65.346,105.891,5.223,2.025,16.273,3.342,38.053,6.662,13.82,2.106,43.03,6.558,58.633,7.043C-562.123,1184.971-505.677,1170.27-483.038,1131.088Z" fill="#e73555"/><path d="M-480.31,1059.782a94.6,94.6,0,0,0,18.169-20.48c10.246-15.329,15.222-43.334,9.622-59.328s-15.726-25.054-27.164-22.155-8.94,16.5-5.579,24.7,16.2,45.752-2.421,74.926" fill="none" stroke="#f99898" stroke-linecap="round" stroke-linejoin="round" stroke-width="1"/><path d="M-477.429,961.415c4.995,4.244,15.6,23.812,15.575,43.466-.036,28.228-22.387,53.726-22.387,53.726" fill="none" stroke="#f99898" stroke-linecap="round" stroke-linejoin="round" stroke-width="1"/><line x2="13.149" y2="2.496" transform="translate(-484.323 967.88)" fill="none" stroke="#f99898" stroke-linecap="round" stroke-linejoin="round" stroke-width="1"/><line x2="13.57" y2="3.04" transform="translate(-480.411 977.076)" fill="none" stroke="#f99898" stroke-linecap="round" stroke-linejoin="round" stroke-width="1"/><line x2="14.143" y2="2.689" transform="translate(-478.519 985.505)" fill="none" stroke="#f99898" stroke-linecap="round" stroke-linejoin="round" stroke-width="1"/><line x1="14.873" y1="4.136" transform="translate(-477.218 993.145)" fill="none" stroke="#f99898" stroke-linecap="round" stroke-linejoin="round" stroke-width="1"/><line x1="13.876" y1="4.149" transform="translate(-475.737 1001.476)" fill="none" stroke="#f99898" stroke-linecap="round" stroke-linejoin="round" stroke-width="1"/><line x1="12.483" y1="3.733" transform="translate(-475.479 1011.613)" fill="none" stroke="#f99898" stroke-linecap="round" stroke-linejoin="round" stroke-width="1"/><line x1="9.667" y1="3.594" transform="translate(-474.304 1019.406)" fill="none" stroke="#f99898" stroke-linecap="round" stroke-linejoin="round" stroke-width="1"/><line x1="7.208" y1="3.686" transform="translate(-475.248 1028.531)" fill="none" stroke="#f99898" stroke-linecap="round" stroke-linejoin="round" stroke-width="1"/><line x1="5.855" y1="3.841" transform="translate(-477.387 1035.684)" fill="none" stroke="#f99898" stroke-linecap="round" stroke-linejoin="round" stroke-width="1"/><line y1="0.573" x2="7.494" transform="translate(-469.936 1035.798)" fill="none" stroke="#f99898" stroke-linecap="round" stroke-linejoin="round" stroke-width="1"/><line y1="0.662" x2="7.817" transform="translate(-466.052 1026.504)" fill="none" stroke="#f99898" stroke-linecap="round" stroke-linejoin="round" stroke-width="1"/><line y1="1.111" x2="7.368" transform="translate(-463.434 1017.3)" fill="none" stroke="#f99898" stroke-linecap="round" stroke-linejoin="round" stroke-width="1"/><line y1="2.588" x2="7.784" transform="translate(-462.094 1006.583)" fill="none" stroke="#f99898" stroke-linecap="round" stroke-linejoin="round" stroke-width="1"/><line y1="6.026" x2="6.117" transform="translate(-468.824 968.896)" fill="none" stroke="#f99898" stroke-linecap="round" stroke-linejoin="round" stroke-width="1"/><line y1="7.126" x2="7.771" transform="translate(-465.275 977.048)" fill="none" stroke="#f99898" stroke-linecap="round" stroke-linejoin="round" stroke-width="1"/><line y1="5.562" x2="8.775" transform="translate(-463.185 986.633)" fill="none" stroke="#f99898" stroke-linecap="round" stroke-linejoin="round" stroke-width="1"/><line y1="4.603" x2="8.673" transform="translate(-461.988 996.335)" fill="none" stroke="#f99898" stroke-linecap="round" stroke-linejoin="round" stroke-width="1"/><line y1="3.932" x2="3.28" transform="translate(-474 961.588)" fill="none" stroke="#f99898" stroke-linecap="round" stroke-linejoin="round" stroke-width="1"/><path d="M-485.468,1066.36c4.062,1.092,11.6,4.764,20.229-.153s14.126-21.5,13.038-26.979c-.759-3.826-20.962-5.38-29.563.962S-493.9,1059.988-485.468,1066.36Z" fill="#ffc7c6"/><path d="M-455.866,1039.285c-8.173,1.357-25.274,10.439-30.807,23.755" fill="none" stroke="#fff" stroke-linecap="round" stroke-miterlimit="10" stroke-width="1"/><line x1="9.197" y1="2.943" transform="translate(-465.802 1042.856)" fill="none" stroke="#fff" stroke-linecap="round" stroke-miterlimit="10" stroke-width="1"/><line x1="1.743" y2="6.478" transform="translate(-470.268 1038.896)" fill="none" stroke="#fff" stroke-linecap="round" stroke-miterlimit="10" stroke-width="1"/><line x1="14.102" y1="5.469" transform="translate(-473.705 1047.704)" fill="none" stroke="#fff" stroke-linecap="round" stroke-miterlimit="10" stroke-width="1"/><line x1="2.062" y2="9.878" transform="translate(-478.453 1041.635)" fill="none" stroke="#fff" stroke-linecap="round" stroke-miterlimit="10" stroke-width="1"/><line x1="16.498" y1="6.243" transform="translate(-481.021 1054.289)" fill="none" stroke="#fff" stroke-linecap="round" stroke-miterlimit="10" stroke-width="1"/><path d="M-524.909,1112.873c-15.81,11.726-34.118-4.271-59.222,7.173-24.372,11.11-28.851,38.243-40.144,35.955-9.712-1.969-6.5-21.656-20.255-29.638-17.3-10.041-36.971,12.643-51.339,4.585-18.857-10.575-17.295-67.769,5.6-79.9,15.7-8.318,28.686,11.3,55.068,4.8,23.972-5.911,23.84-24.728,46.6-30.361,22.264-5.511,53.175,4.881,66.52,29.461C-512.1,1073.347-510.385,1102.1-524.909,1112.873Z" fill="#fdc331"/><path d="M-416.385,1123.883s-54.869-47.131-113.958-14.069c0,0,0-59.793-43.614-66.124s-82.3,28.138-72.455,65.42c0,0-90.745-17.586-107.627,25.324l337.654,2.814Z" fill="#ffc7c6"/><path d="M-300.9,1137.208c-34.1-64.939-96.707-35.506-96.707-35.506s-10.745-59.8-90.634-42.514c0,0-33.637,9.811-38.309,50.923,0,0-46.719-16.818-55.595,29.433Z" fill="#fff0f0"/><rect width="28.676" height="175.905" transform="translate(-644.804 946.991)" fill="#fff" opacity="0.9"/><path d="M0,0H22.551a0,0,0,0,1,0,0V0a8.083,8.083,0,0,1-8.083,8.083H8.083A8.083,8.083,0,0,1,0,0V0A0,0,0,0,1,0,0Z" transform="translate(-641.741 962.06)" fill="#dba92a"/><path d="M-619.132,1122.9H-641.8v-93.432l9.652,3.562,13.015-3.562Z" fill="#f9575c"/><path d="M-641.8,1029.463s9.86,2.946,15.705-.434,10.193.121,4.247,5C-627.968,1039.053-641.8,1029.463-641.8,1029.463Z" fill="#e73555"/><rect width="4.48" height="154.419" rx="2.24" transform="translate(-639.502 966.102)" fill="#fff" opacity="0.2" style="mix-blend-mode:lighten;isolation:isolate"/><g clip-path="url(#b)"><path d="M7.224,0h25.19a7.223,7.223,0,0,1,7.223,7.223V18.168a7.223,7.223,0,0,1-7.223,7.223H7.224A7.224,7.224,0,0,1,0,18.167V7.224A7.224,7.224,0,0,1,7.224,0Z" transform="translate(-650.284 936.762)" fill="#fdc331"/><rect width="4.556" height="25.299" transform="translate(-646.297 936.762)" fill="#dba92a"/><rect width="4.556" height="25.299" transform="translate(-637.261 936.762)" fill="#dba92a"/><rect width="4.556" height="25.299" transform="translate(-628.226 936.762)" fill="#dba92a"/><rect width="4.556" height="25.299" transform="translate(-619.19 936.762)" fill="#dba92a"/></g><rect width="28.676" height="175.905" transform="translate(-589.768 946.991)" fill="#fff" opacity="0.9"/><path d="M0,0H22.551a0,0,0,0,1,0,0V0a8.083,8.083,0,0,1-8.083,8.083H8.083A8.083,8.083,0,0,1,0,0V0A0,0,0,0,1,0,0Z" transform="translate(-586.706 962.06)" fill="#dba92a"/><path d="M-564.1,1122.9h-22.667v-93.432l9.652,3.562,13.015-3.562Z" fill="#f9575c"/><path d="M-586.763,1029.463s9.86,2.946,15.705-.434,10.193.121,4.247,5C-572.933,1039.053-586.763,1029.463-586.763,1029.463Z" fill="#e73555"/><rect width="4.48" height="154.419" rx="2.24" transform="translate(-584.466 966.102)" fill="#fff" opacity="0.2" style="mix-blend-mode:lighten;isolation:isolate"/><g clip-path="url(#c)"><path d="M7.224,0h25.19a7.223,7.223,0,0,1,7.223,7.223V18.168a7.223,7.223,0,0,1-7.223,7.223H7.224A7.224,7.224,0,0,1,0,18.167V7.224A7.224,7.224,0,0,1,7.224,0Z" transform="translate(-595.248 936.762)" fill="#fdc331"/><rect width="4.556" height="25.299" transform="translate(-591.261 936.762)" fill="#dba92a"/><rect width="4.556" height="25.299" transform="translate(-582.226 936.762)" fill="#dba92a"/><rect width="4.556" height="25.299" transform="translate(-573.19 936.762)" fill="#dba92a"/><rect width="4.556" height="25.299" transform="translate(-564.154 936.762)" fill="#dba92a"/></g><rect width="28.676" height="175.905" transform="translate(-534.732 946.991)" fill="#fff" opacity="0.9"/><path d="M0,0H22.551a0,0,0,0,1,0,0V0a8.083,8.083,0,0,1-8.083,8.083H8.083A8.083,8.083,0,0,1,0,0V0A0,0,0,0,1,0,0Z" transform="translate(-531.67 962.06)" fill="#dba92a"/><path d="M-509.061,1122.9h-22.667v-93.432l9.652,3.562,13.015-3.562Z" fill="#f9575c"/><path d="M-531.728,1029.463s9.86,2.946,15.706-.434,10.193.121,4.247,5C-517.9,1039.053-531.728,1029.463-531.728,1029.463Z" fill="#e73555"/><rect width="4.48" height="154.419" rx="2.24" transform="translate(-529.43 966.102)" fill="#fff" opacity="0.2" style="mix-blend-mode:lighten;isolation:isolate"/><g clip-path="url(#d)"><path d="M7.224,0h25.19a7.223,7.223,0,0,1,7.223,7.223V18.168a7.223,7.223,0,0,1-7.223,7.223H7.224A7.224,7.224,0,0,1,0,18.167V7.224A7.224,7.224,0,0,1,7.224,0Z" transform="translate(-540.212 936.762)" fill="#fdc331"/><rect width="4.556" height="25.299" transform="translate(-536.225 936.762)" fill="#dba92a"/><rect width="4.556" height="25.299" transform="translate(-527.19 936.762)" fill="#dba92a"/><rect width="4.556" height="25.299" transform="translate(-518.154 936.762)" fill="#dba92a"/><rect width="4.556" height="25.299" transform="translate(-509.118 936.762)" fill="#dba92a"/></g><path d="M-471.586,1006.722a4.521,4.521,0,0,0,4.521-4.521V990.693a4.521,4.521,0,0,0-4.521-4.521H-679.274a4.521,4.521,0,0,0-4.521,4.521V1002.2a4.521,4.521,0,0,0,4.521,4.521h15.207v113.8h-16.394a3.334,3.334,0,0,0-3.334,3.334v5.936a3.334,3.334,0,0,0,3.334,3.334H-470.4a3.334,3.334,0,0,0,3.333-3.334v-5.936a3.334,3.334,0,0,0-3.333-3.334h-16.394v-113.8Zm-23.152,113.8H-656.121v-113.8h161.383Z" fill="#1e8bba"/></g></g><g transform="translate(967 1032)" fill="none" stroke="#d1d1d1" stroke-width="3"><rect width="260" height="260" rx="40" stroke="none"/><rect x="1.5" y="1.5" width="257" height="257" rx="38.5" fill="none"/></g></g></svg>