<svg xmlns="http://www.w3.org/2000/svg" width="200" height="183.857" viewBox="0 0 200 183.857"><g transform="translate(-28.043 -432.655)"><path d="M89.906,442.219C41.59,463.613,17.347,523.877,33.252,544.783c6.134,8.062,18.159,9.331,23.727,22.537,4.909,11.644-1.258,18.2,1.453,25.756,8.894,24.784,105.169,37.48,136.548-.92,14.073-17.222,2.325-29.1,23.242-75.428,6.03-13.355,13.02-25.689,8.232-30.356-6.892-6.717-28.193,12.192-42.8,4.641-15.01-7.757-3.771-33.2-19.175-48.334C147.967,426.458,111.561,432.63,89.906,442.219Z" fill="#fdc331"/><path d="M215.317,568.6c-8.446,27.268-42.212,38.646-62.089,31.585-13.328-4.735-11.906-14.74-25.223-24.576-32.459-23.979-75.986,9.554-93.3-7.978-17.589-17.81,2.68-77.376,25.663-80.379,17.788-2.325,22.082,31.206,53.264,39.7,34.881,9.508,57.428-24.838,82.316-12.1C212.484,523.308,221.624,548.235,215.317,568.6Z" fill="#bce3f6"/><path d="M142.028,593.821c-24.638-.865-50.12-4.225-63.31-49.625C74.8,530.7,77.347,520.48,81.65,512.78a46.917,46.917,0,0,1,3.44-5.257l0,0q.681-.908,1.375-1.756a35.856,35.856,0,0,1,40.082-10.821,156.991,156.991,0,0,1,27.5,12.877c18.444,11.3,22.77,24.189,28.8,46.3.518,1.9,1.035,4.027,1.427,6.287.211,1.209.385,2.455.505,3.723C186.113,578.263,180.661,595.18,142.028,593.821Z" fill="#f9575c"/><path d="M184.778,564.127a29.054,29.054,0,0,1-3.537,6.862c-4.659,6.675-14.36,14.741-34.12,15.262q-1.3.035-2.575.033a68.779,68.779,0,0,1-20.291-2.769,49.614,49.614,0,0,1-16.986-8.964c-8.465-6.83-15.441-16.821-22.616-32.4a45.3,45.3,0,0,1-4.367-18.529A40.37,40.37,0,0,1,81.65,512.78a46.917,46.917,0,0,1,3.44-5.257c-.3.706-.6,1.444-.883,2.214-2.581,7.079-4.358,18.338,1.834,31.779,12.594,27.335,27.2,44.093,61.041,43.207,19.12-.5,28.448-8.222,32.9-14.61a26.836,26.836,0,0,0,4.286-9.709C184.484,561.613,184.658,562.859,184.778,564.127Z" fill="#e73555"/><path d="M149.534,480.345s15.468,20.988,19,31.44-5.035,17.881-5.035,17.881l-7.953,2.983S147.369,495.737,149.534,480.345Z" fill="#2ca5c6"/><path d="M148.17,539.131c-6.761,2.242-23.278,8.117-30.454,5.738a6.711,6.711,0,0,1-.856-.347,4.511,4.511,0,0,1-1.851-1.562c-2.813-4.285-5.6-22.25-4.35-32.813.157-1.319.233-2.752.259-4.256.036-2.214-.037-4.584-.131-6.97-.354-8.97-1.767-15.164,2.07-17.343a44.774,44.774,0,0,1,10.582-4.151c1.721-.412,4.538-1.274,6.513-1.234l8.555,1.554s7.382,1.231,9.086,2.489,2.574,6.792,5.651,11.863,3.745,10.155.807,15.722c-2.557,4.841-2.107,3-2.442,10.949C151.2,528.5,161.37,534.757,148.17,539.131Z" fill="#fff"/><path d="M129.127,471.722l11.529,1.647c7.486-.748,9.871-3.725,11.1-10.019a17.045,17.045,0,0,0-.4-8.035,10.1,10.1,0,0,0-1.815-5.759c-5.059-6.1-9.515-5.86-9.515-5.86-2.263-1.038-9.742-1.749-14.675,4.239l0,0c-.156.133-3.163,3.319-3.857,10.01C120.829,464.325,125.084,472.471,129.127,471.722Z" fill="#363638"/><g opacity="0.8"><path d="M125.462,493.524a53.425,53.425,0,0,1,21.1-.187l.286,8.177s-13.007-1.446-21.2.639Z" fill="#ccd3e6"/></g><path d="M140.7,473.267l-.9,6.077s-3.719,4.77-12.335-3.011c.981-2.474,2.483-5.652,2.1-8.092a13.357,13.357,0,0,0,1.712,1.265c.221.142.459.29.712.444C134.224,471.309,137.64,473.051,140.7,473.267Z" fill="#f8c6a3"/><path d="M140.7,473.267l-.423,2.844c-2.513-.965-6.86-3.061-9.006-6.6.221.142.459.29.712.444C134.224,471.309,137.64,473.051,140.7,473.267Z" fill="#ee9681"/><g opacity="0.8"><path d="M136.112,486.618c-.125,0-.252,0-.382-.01-5.065-.261-9.707-4.732-9.9-4.922a.347.347,0,0,1,.484-.5c.046.045,4.654,4.478,9.455,4.726,4.6.242,5.156-4.321,5.177-4.515a.347.347,0,0,1,.69.075C141.627,481.527,141.021,486.618,136.112,486.618Z" fill="#ccd3e6"/></g><g opacity="0.8"><path d="M121.756,527.549a.358.358,0,0,1-.094-.1.362.362,0,0,1,.122-.5,42.582,42.582,0,0,1,17.047-5.871,31.228,31.228,0,0,1,7.515-.081.361.361,0,0,1-.107.715,31.124,31.124,0,0,0-7.352.087,41.845,41.845,0,0,0-16.729,5.768A.361.361,0,0,1,121.756,527.549Z" fill="#ccd3e6"/></g><path d="M130.365,542.384a42.983,42.983,0,0,1-15.35-9.271c-.3-.274-.584-.546-.859-.813-1.947-1.891-3.32-.919-3.916-2.009-2.275-4.164-.983-20.5,0-26.5s-3.156-16.987-.929-20.916,9.9-5.3,9.9-5.3-1.086-1.267.975-2.715,7.544-.848,7.544-.848C127.991,499.975,131.67,524.09,130.365,542.384Z" fill="#2ca5c6"/><path d="M124.382,534.942a.339.339,0,0,1-.335-.287c-2.77-18.008-.031-51.878,0-52.218a.339.339,0,1,1,.676.056c-.028.339-2.76,34.13,0,52.058a.339.339,0,0,1-.284.387A.313.313,0,0,1,124.382,534.942Z" fill="#fff"/><path d="M156.73,531.051a18.684,18.684,0,0,1-10.245,10.785c-1-19.8-3.275-42.417-6.206-66.475,0,0,3.086-.543,4.374,1.222a4.911,4.911,0,0,1,.674,2.047,15.922,15.922,0,0,1,3.305,1.11c1.728.8,1.529,1.91,1.942,4.716s4.746,7.148,6.156,13.031-2.328,9.634-3.495,14.57S156.73,531.051,156.73,531.051Z" fill="#40bedb"/><path d="M149.8,534.115a.339.339,0,0,1-.339-.33,335.46,335.46,0,0,0-5.751-51.252.339.339,0,1,1,.665-.137,336.3,336.3,0,0,1,5.764,51.37.339.339,0,0,1-.329.349Z" fill="#fff"/><path d="M149.008,534.115a.339.339,0,0,1-.336-.3c-2.389-19.86-6.163-51.6-6.2-51.922a.339.339,0,0,1,.674-.08c.038.318,3.812,32.061,6.2,51.921a.338.338,0,0,1-.3.377A.281.281,0,0,1,149.008,534.115Z" fill="#fff"/><path d="M128.949,548.376a18.646,18.646,0,0,0,5.1,2.285c13.854,4.409,26.557-2.707,26.557-2.707.768-3.794.293-8.1-.985-9.684a1.39,1.39,0,0,0,.135-1.23L172.506,523.8c-7.251,6.008-16.22,7.975-23.2,12.194h0c-2.012,1.216-3.821,2.287-5.146,3.031a11.5,11.5,0,0,1-7.135.9,34.807,34.807,0,0,1-9.661-3.111s-15.878-7.2-18.855-6.957C106.189,530.045,118.645,543.051,128.949,548.376Z" fill="#cf7e7e"/><path d="M153.489,559.469s-4.087-1.174-5.342-2.5l-2.84,6.686,9.668,3.017S155.109,560.8,153.489,559.469Z" fill="#f8c6a3"/><path d="M176.821,578.791l-12.5-27.74a4.266,4.266,0,0,0-1.705.329c-2.425.884-5.832,3.319-8.029,4.75-.255.169-.5.323-.715.457a8.849,8.849,0,0,1-.927.517c-1.927.868-.912,1.908-.912,1.908,3.593,1.8,1.4,7.122,3.6,8.368,0,0,.933.541,3.907,1.852s5.968,4.465,8.739,7.053c3.575,3.341,5.82,3.734,7.107,3.429A2.377,2.377,0,0,0,176.821,578.791Z" fill="#fdc331"/><path d="M176.821,578.791l-12.5-27.74a4.266,4.266,0,0,0-1.705.329l12.765,28.334A2.377,2.377,0,0,0,176.821,578.791Z" fill="#dc7f21"/><path d="M165.6,553.882l-.371-.825a6.678,6.678,0,0,1-3.77,3.493,8.582,8.582,0,0,1-6.868-.42c-.255.169-.5.323-.715.457a9.32,9.32,0,0,0,7.847.638A7.383,7.383,0,0,0,165.6,553.882Z" fill="#dc7f21"/><path d="M160.961,568.024a.5.5,0,0,0-.95.3l.351,1.927a.5.5,0,0,0,.986-.18L161,568.14A.491.491,0,0,0,160.961,568.024Z" fill="#f3f2f2"/><path d="M158.743,566.952a.5.5,0,0,0-.95.3l.35,1.927a.5.5,0,1,0,.986-.18l-.35-1.927A.488.488,0,0,0,158.743,566.952Z" fill="#f3f2f2"/><path d="M162.749,569.3a.5.5,0,0,0-.95.3l.35,1.927a.5.5,0,0,0,.987-.18l-.351-1.926A.443.443,0,0,0,162.749,569.3Z" fill="#f3f2f2"/><path d="M164.5,570.6a.5.5,0,0,0-.95.3l.35,1.926a.5.5,0,0,0,.987-.179l-.351-1.927A.467.467,0,0,0,164.5,570.6Z" fill="#f3f2f2"/><path d="M166.245,572.085a.5.5,0,0,0-.95.3l.35,1.926a.5.5,0,0,0,.987-.179l-.351-1.927A.512.512,0,0,0,166.245,572.085Z" fill="#f3f2f2"/><path d="M167.932,573.791a.5.5,0,0,0-.95.3l.35,1.926a.5.5,0,0,0,.987-.179l-.351-1.927A.491.491,0,0,0,167.932,573.791Z" fill="#f3f2f2"/><path d="M108.5,529.86s-10.049-5.423-15.87-1.231c-10.645,7.665,7.417,22.412,28.078,29.614s27.369,6.219,27.369,6.219,4.489-1.235,2.9-8.511c0,0-11.909-4.527-18.106-9.271S122.45,536.125,108.5,529.86Z" fill="#f99898"/><path d="M150.174,558.067c-4.334-1.041-13.164-5.092-23.621-10.834-7.821-4.295-16.842-9.784-18.165-11.688-.715-1.028-.9-1.869-.536-2.5.538-.944,2.088-1.041,2.794-1.034a.315.315,0,0,1,.312.337h0a.312.312,0,0,1-.314.291c-.695,0-1.9.115-2.246.718-.285.5.117,1.271.506,1.83,1.067,1.535,8.617,6.369,17.951,11.495,8.038,4.414,18.423,9.562,23.465,10.774Z" fill="#ffc7c6"/><path d="M149.358,554.985c-.488,3.824-1.479,7.3-3.64,9.966,0,0,1.85,1.332,3.539.376,1.291-.73,3.779-6.7,2.831-9.891A3.07,3.07,0,0,0,149.358,554.985Z" fill="#ffc7c6"/><path d="M123.138,558.713s4.108-.793,5.271-2.2l3.28,6.481-9.444,3.657S121.61,560.147,123.138,558.713Z" fill="#f8c6a3"/><path d="M101.257,580.2l10.617-28.513a4.267,4.267,0,0,1,1.723.215c2.478.72,6.041,2.922,8.328,4.2.266.152.516.289.744.409a9.168,9.168,0,0,0,.96.454c1.981.737,1.156,1.295,1.156,1.295-3.9,1.831-1.045,7.748-3.147,9.137,0,0-.9.6-3.774,2.108s-5.657,4.855-8.249,7.621c-3.344,3.573-5.557,4.115-6.861,3.9A2.379,2.379,0,0,1,101.257,580.2Z" fill="#fdc331"/><path d="M101.257,580.2l10.617-28.513a4.267,4.267,0,0,1,1.723.215l-10.843,29.122A2.379,2.379,0,0,1,101.257,580.2Z" fill="#dc7f21"/><path d="M110.791,554.6l.315-.847a6.676,6.676,0,0,0,3.995,3.233,8.583,8.583,0,0,0,6.824-.878c.266.152.516.289.744.409a9.321,9.321,0,0,1-7.787,1.16A7.377,7.377,0,0,1,110.791,554.6Z" fill="#dc7f21"/><path d="M116.362,568.4a.5.5,0,0,1,.968.232l-.221,1.946a.5.5,0,1,1-1-.113l.22-1.946A.531.531,0,0,1,116.362,568.4Z" fill="#f3f2f2"/><path d="M118.5,567.182a.5.5,0,0,1,.968.231l-.221,1.946a.5.5,0,1,1-1-.113l.221-1.946A.509.509,0,0,1,118.5,567.182Z" fill="#f3f2f2"/><path d="M114.663,569.795a.5.5,0,0,1,.968.232l-.221,1.946a.5.5,0,0,1-1-.113l.221-1.946A.5.5,0,0,1,114.663,569.795Z" fill="#f3f2f2"/><path d="M113,571.206a.5.5,0,0,1,.968.232l-.221,1.945a.5.5,0,1,1-1-.113l.221-1.946A.51.51,0,0,1,113,571.206Z" fill="#f3f2f2"/><path d="M111.361,572.8a.5.5,0,0,1,.968.232l-.221,1.946a.5.5,0,1,1-1-.114l.221-1.945A.5.5,0,0,1,111.361,572.8Z" fill="#f3f2f2"/><path d="M109.792,574.619a.5.5,0,0,1,.968.232l-.221,1.946a.5.5,0,0,1-1-.114l.221-1.946A.462.462,0,0,1,109.792,574.619Z" fill="#f3f2f2"/><path d="M168.415,525.454s9.509-6.322,15.69-2.681c11.3,6.656-5.33,23-25.243,32.064s-26.683,8.7-26.683,8.7-4.584-.818-3.665-8.209c0,0,11.444-5.6,17.18-10.893S155.1,532.973,168.415,525.454Z" fill="#e68c8c"/><path d="M129.508,557.365c4.22-1.434,12.641-6.278,22.528-12.955,7.394-4.994,15.872-11.288,17.016-13.3.617-1.09.72-1.944.3-2.539-.623-.89-2.175-.845-2.877-.773a.315.315,0,0,0-.28.364h0a.315.315,0,0,0,.34.262c.691-.069,1.9-.061,2.3.508.33.472,0,1.277-.336,1.868-.922,1.627-8,7.134-16.821,13.094-7.6,5.133-17.468,11.212-22.378,12.881Z" fill="#ffc7c6"/><path d="M130.038,554.221c.837,3.764,2.142,7.134,4.538,9.59,0,0-1.719,1.5-3.49.7-1.352-.609-4.377-6.328-3.725-9.59A3.073,3.073,0,0,1,130.038,554.221Z" fill="#ffc7c6"/><path d="M128.753,524.055l-.764,10.911s-12.974-1.853-19.345-3.476A26.191,26.191,0,0,1,102.8,529.4c-3.516-1.869-6.433-5.122-6.217-11.463a29.022,29.022,0,0,1,1.259-7.123,147.25,147.25,0,0,1,12.4-29.149c9.992,4.276,9.152,11.393,9.152,11.393-2.851,7.6-9.152,23.793-9.152,23.793C113.9,521.313,128.753,524.055,128.753,524.055Z" fill="#40bedb"/><path d="M135.565,445.37s1.2-10.63-8.235-9.282c-6.164.88-9.978,9.233-4.342,13.026S135.565,445.37,135.565,445.37Z" fill="#363638"/><path d="M123.936,450.206a.3.3,0,0,1-.262-.443,13.632,13.632,0,0,1,7.532-6.5,12.319,12.319,0,0,1,4.377-.733.3.3,0,1,1-.036.6,12.922,12.922,0,0,0-11.349,6.928A.3.3,0,0,1,123.936,450.206Z" fill="#fdb205"/><path d="M130.032,469.322s-7.353-4.113-5.908-12.676,7.083-13.717,15.727-11.234C139.851,445.412,139.013,470.166,130.032,469.322Z" fill="#363638"/><path d="M150.479,453.577s.75,7.351-.589,8.415-2.653-1.843-2.653-1.843S149.063,453.657,150.479,453.577Z" fill="#363638"/><path d="M147.094,462.659s2.193-1.926,2.919.435-.748,6.7-3.478,5.547Z" fill="#ef6a3f"/><path d="M149.792,468.105a4.973,4.973,0,0,1-1,.71,5.475,5.475,0,0,1-5.337-.307s-2.763-3.6,1.321-9.935c0,0,3.746-.986,5.886,1.279a4.425,4.425,0,0,1,.643.873,5.051,5.051,0,0,1,.317.665A6.662,6.662,0,0,1,149.792,468.105Z" fill="#00b570"/><path d="M149.693,459.084a30.739,30.739,0,0,0,.46-3.062.463.463,0,0,1-.166.043,1.034,1.034,0,0,1-.687-.242c-.1,1.087-.256,2.075-.411,2.89Z" fill="#fff"/><path d="M149.792,468.105a4.973,4.973,0,0,1-1,.71,18.813,18.813,0,0,0,1.87-8.963,4.425,4.425,0,0,1,.643.873A19.327,19.327,0,0,1,149.792,468.105Z" fill="#007d55"/><path d="M148.96,462.929c-.1.629-.188,1.221-.281,1.78-.69,4.191-1.324,6.449-2.487,7.343-5.893,4.521-16.286-3.469-16.62-3.727l-.008-.007q-.051-.733-.074-1.447a37.357,37.357,0,0,1,1.276-11.1,8.455,8.455,0,0,1,6.662-7.506c3.756-.767,6.719,1.275,8.551,2.152,2.766,1.326,4.032,5.343,3.253,10.683C149.138,461.741,149.049,462.351,148.96,462.929Z" fill="#f8c6a3"/><path d="M143.692,467.813a5.306,5.306,0,0,1-4.627-3.188.3.3,0,0,1,.555-.226h0a4.517,4.517,0,0,0,5.036,2.72.3.3,0,0,1,.114.588A5.721,5.721,0,0,1,143.692,467.813Z" fill="#e76266"/><path d="M141.158,456.432a.824.824,0,0,0-.219-1.6c-1.526-.1-3.971-.061-4.176,1.168-.3,1.8,2.545,1.048,4.342.449Z" fill="#363638"/><path d="M145.652,456.961a.824.824,0,0,1,.846-1.376c1.436.525,3.658,1.546,3.35,2.753-.45,1.765-2.752-.067-4.155-1.339Z" fill="#363638"/><path d="M141.264,469.285a2.617,2.617,0,0,0,1.145.025.2.2,0,1,0-.093-.386h0a2.121,2.121,0,0,1-1.741-.435.2.2,0,1,0-.264.3A2.253,2.253,0,0,0,141.264,469.285Z" fill="#ee9681"/><path d="M140.827,461.142c-.1.678-.491,1.183-.871,1.126s-.606-.652-.5-1.331.491-1.184.871-1.127S140.928,460.463,140.827,461.142Z" fill="#363638"/><path d="M147.543,462.141c-.1.679-.491,1.184-.87,1.127s-.606-.653-.505-1.331.491-1.184.87-1.127S147.644,461.462,147.543,462.141Z" fill="#363638"/><path d="M132.191,465.9c-.044.071-1.244,2.008-2.619,2.425h0l-.006-.008q-.051-.732-.074-1.448A5.245,5.245,0,0,0,132.191,465.9Z" fill="#363638"/><path d="M131.649,461s-2.172-4.05-4.587-1.481c-1.99,2.117.16,8.863,3.82,7.06Z" fill="#ff9b79"/><path d="M130.6,465.472a.282.282,0,0,1-.24-.29,4.717,4.717,0,0,0-2.152-4.165.282.282,0,0,1,.284-.488,5.282,5.282,0,0,1,2.432,4.675.283.283,0,0,1-.293.271Z" fill="#363638"/><path d="M128.25,463.391a.283.283,0,0,1-.1-.523,2.717,2.717,0,0,1,2.051-.374.283.283,0,0,1-.219.521,2.244,2.244,0,0,0-1.544.339A.278.278,0,0,1,128.25,463.391Z" fill="#363638"/><path d="M138.379,464.709a4.128,4.128,0,1,1,5.33-2.384A4.133,4.133,0,0,1,138.379,464.709Zm2.731-7.15a3.526,3.526,0,1,0,2.036,4.551A3.53,3.53,0,0,0,141.11,457.559Z" fill="#fff"/><path d="M136.125,459.931a.3.3,0,0,1-.109-.027,6.12,6.12,0,0,0-4.351-.235.3.3,0,0,1-.216-.563,6.66,6.66,0,0,1,4.818.25.3.3,0,0,1-.142.575Z" fill="#fff"/><path d="M147.512,465.741a4.128,4.128,0,1,1,5.329-2.383A4.133,4.133,0,0,1,147.512,465.741Zm2.731-7.149a3.525,3.525,0,1,0,2.035,4.551A3.528,3.528,0,0,0,150.243,458.592Z" fill="#fff"/><path d="M143.514,460.576a.292.292,0,0,1-.115-.106.3.3,0,0,1,.1-.415,1.858,1.858,0,0,1,2.09.161.3.3,0,1,1-.367.478,1.263,1.263,0,0,0-1.4-.129A.3.3,0,0,1,143.514,460.576Z" fill="#fff"/><path d="M145.725,446.71a9.9,9.9,0,0,1,5.354,5.822c.55,1.632,1.011,3.785-1.283,3.507-6.259-.76-9.608-7.254-9.608-7.254s-1.219,5.985-6.135,5.254-4.759-4.439-1.965-6.536C134.365,445.794,140.163,444.2,145.725,446.71Z" fill="#363638"/><path d="M134.247,453.351s-2.8,3-1.794,6.234,1.071,5.823.025,7.559a19.707,19.707,0,0,0-1.516-5.983c-1.022-2.117-1.977-3.73-1.239-6.174C130.23,453.31,131.456,451.7,134.247,453.351Z" fill="#363638"/><path d="M129.7,468.007a6.449,6.449,0,0,1-5.087-.558,5.348,5.348,0,0,1-.562-.409,7.247,7.247,0,0,1-1.2-8.918,5.062,5.062,0,0,1,1.9-1.643,4.418,4.418,0,0,1,.628-.258c2.693-.883,5.613.732,5.613.732C134.046,465.36,129.7,468.007,129.7,468.007Z" fill="#00b570"/><path d="M137.328,471.682a14.037,14.037,0,0,1-9.153-6.077.367.367,0,0,1,.636-.365,13.865,13.865,0,0,0,11.012,6.022.367.367,0,0,1-.04.733A16.929,16.929,0,0,1,137.328,471.682Z" fill="#fff"/><path d="M141.845,471.9a1.174,1.174,0,1,1-.915-1.385A1.174,1.174,0,0,1,141.845,471.9Z" fill="#143131"/><path d="M124.615,467.449a5.348,5.348,0,0,1-.562-.409,15.094,15.094,0,0,0,.694-10.561,4.418,4.418,0,0,1,.628-.258A15.829,15.829,0,0,1,124.615,467.449Z" fill="#007d55"/><path d="M150.337,450.831a10.1,10.1,0,0,0-1.414-1.991,9.466,9.466,0,0,0-.9-2,8.526,8.526,0,0,0-6.239-3.827,9.907,9.907,0,0,0-7.841,1.787,11.067,11.067,0,0,0-1.807,1.759,15.521,15.521,0,0,0-1.857,2.9,24.058,24.058,0,0,0-2.165,7.121l-.831-.089c.037-.342.975-8.389,6.151-12.354a10.716,10.716,0,0,1,8.477-1.948,9.32,9.32,0,0,1,6.822,4.21A12.073,12.073,0,0,1,150.337,450.831Z" fill="#fff"/><path d="M118.826,542.738l-2.888-5.494a2.044,2.044,0,0,1,1.831-2.995l45.4.49-1.339,7.033Z" fill="#292669"/><path d="M161.049,541.191H120.416a1.559,1.559,0,0,1-1.579-1.775l2.77-25.1a2.034,2.034,0,0,1,1.972-1.775h40.632a1.558,1.558,0,0,1,1.579,1.775l-2.77,25.1A2.034,2.034,0,0,1,161.049,541.191Z" fill="#1e1242"/><path d="M119.811,542.274a.309.309,0,0,1-.043,0,.344.344,0,0,1-.3-.383L122.843,515a.343.343,0,0,1,.68.085l-3.372,26.89A.344.344,0,0,1,119.811,542.274Z" fill="#292669"/><path d="M139.578,527.311a3.576,3.576,0,0,0,3.318,3.88,3.691,3.691,0,0,0,3.879-3.421,3.577,3.577,0,0,0-3.317-3.881A3.693,3.693,0,0,0,139.578,527.311Z" fill="#def1f8"/><path d="M161.244,543.378H120.052a1.5,1.5,0,0,1-1.481-1.7l.392-2.87h44.209l-.447,3.275A1.494,1.494,0,0,1,161.244,543.378Z" fill="#1e1242"/><path d="M131.394,535.275l-.3,1.432h1.358l-.152,1.705h-1.571l-.329,1.557h-1.8l.33-1.557h-1.111l-.33,1.557H125.7l.329-1.557h-1.358l.152-1.705H126.4l.3-1.432h-1.358l.152-1.7h1.571l.329-1.557h1.8l-.33,1.557h1.111l.33-1.557h1.795l-.329,1.557h1.358l-.152,1.705Zm-1.8,0h-1.111l-.295,1.432H129.3Z" fill="#fdc331"/><path d="M172.442,495.594a11.207,11.207,0,1,0,11.207-11.207A11.207,11.207,0,0,0,172.442,495.594Z" fill="#e73555"/><path d="M177.918,504.76l-6.022,1.275,2.607-5.19Z" fill="#e73555"/><path d="M184.6,493.188c0-.525-.508-.8-1.135-.8a2,2,0,0,0-1.761,1.152l-3.015-1.507c.864-1.626,2.574-2.744,5.284-2.744,2.659,0,4.64,1.118,4.64,3.235,0,2.591-2.709,3.048-2.709,4.352h-3.489C182.419,494.831,184.6,494.221,184.6,493.188Zm-2.676,6.368a2.25,2.25,0,0,1,4.471,0,2.246,2.246,0,0,1-4.471,0Z" fill="#fff"/><path d="M144.078,458.955s.9,6.338.871,6.641-1.247.6-1.247.6" fill="none" stroke="#ee9681" stroke-linecap="round" stroke-miterlimit="10" stroke-width="1"/><path d="M85.727,571.008a50.9,50.9,0,0,0,2.3-14.556c.2-9.924-5.66-24.068-12.838-29.7s-14.4-6.8-18.744-2.172.73,10.077,4.63,12.818S81.689,553.454,81.7,572.084" fill="none" stroke="#f99898" stroke-linecap="round" stroke-linejoin="round" stroke-width="1"/><path d="M58.512,525.558c3.5.477,13.98,6.277,19.667,15.2,8.168,12.813,5.424,30.858,5.424,30.858" fill="none" stroke="#f99898" stroke-linecap="round" stroke-linejoin="round" stroke-width="1"/><line y1="2.68" x2="6.687" transform="translate(57.26 527.809)" fill="none" stroke="#f99898" stroke-linecap="round" stroke-linejoin="round" stroke-width="1"/><line y1="2.556" x2="7.036" transform="translate(61.7 530.97)" fill="none" stroke="#f99898" stroke-linecap="round" stroke-linejoin="round" stroke-width="1"/><line y1="2.881" x2="7.194" transform="translate(65.003 533.919)" fill="none" stroke="#f99898" stroke-linecap="round" stroke-linejoin="round" stroke-width="1"/><line x1="7.945" y2="2.436" transform="translate(67.808 537.452)" fill="none" stroke="#f99898" stroke-linecap="round" stroke-linejoin="round" stroke-width="1"/><line x1="7.496" y2="2.142" transform="translate(70.895 541.096)" fill="none" stroke="#f99898" stroke-linecap="round" stroke-linejoin="round" stroke-width="1"/><line x1="6.744" y2="1.927" transform="translate(73.952 545.833)" fill="none" stroke="#f99898" stroke-linecap="round" stroke-linejoin="round" stroke-width="1"/><line x1="5.427" y2="1.173" transform="translate(76.744 549.781)" fill="none" stroke="#f99898" stroke-linecap="round" stroke-linejoin="round" stroke-width="1"/><line x1="4.338" y2="0.418" transform="translate(78.962 554.949)" fill="none" stroke="#f99898" stroke-linecap="round" stroke-linejoin="round" stroke-width="1"/><line x1="3.769" y1="0.045" transform="translate(80.066 559.231)" fill="none" stroke="#f99898" stroke-linecap="round" stroke-linejoin="round" stroke-width="1"/><line y1="2.433" x2="3.233" transform="translate(83.644 554.949)" fill="none" stroke="#f99898" stroke-linecap="round" stroke-linejoin="round" stroke-width="1"/><line y1="2.567" x2="3.354" transform="translate(82.737 549.514)" fill="none" stroke="#f99898" stroke-linecap="round" stroke-linejoin="round" stroke-width="1"/><line y1="2.64" x2="3.02" transform="translate(81.386 544.711)" fill="none" stroke="#f99898" stroke-linecap="round" stroke-linejoin="round" stroke-width="1"/><line y1="3.431" x2="2.78" transform="translate(79.314 539.341)" fill="none" stroke="#f99898" stroke-linecap="round" stroke-linejoin="round" stroke-width="1"/><line y1="4.507" x2="1.027" transform="translate(66.332 524.683)" fill="none" stroke="#f99898" stroke-linecap="round" stroke-linejoin="round" stroke-width="1"/><line y1="5.485" x2="1.458" transform="translate(70.624 526.872)" fill="none" stroke="#f99898" stroke-linecap="round" stroke-linejoin="round" stroke-width="1"/><line y1="5.067" x2="2.367" transform="translate(73.897 530.322)" fill="none" stroke="#f99898" stroke-linecap="round" stroke-linejoin="round" stroke-width="1"/><line y1="4.602" x2="2.599" transform="translate(76.975 534.404)" fill="none" stroke="#f99898" stroke-linecap="round" stroke-linejoin="round" stroke-width="1"/><line y1="2.734" x2="0.348" transform="translate(61.258 523.691)" fill="none" stroke="#f99898" stroke-linecap="round" stroke-linejoin="round" stroke-width="1"/><path d="M88.8,578.409c-2.736.731-7.819,3.194-13.619-.128S65.7,563.785,66.44,560.1c.517-2.575,14.121-3.6,19.9.685S94.491,574.13,88.8,578.409Z" fill="#ffc7c6"/><path d="M68.908,560.143c5.5.924,17,7.06,20.712,16.033" fill="none" stroke="#fff" stroke-linecap="round" stroke-miterlimit="10" stroke-width="1"/><line y1="1.97" x2="6.196" transform="translate(69.397 562.56)" fill="none" stroke="#fff" stroke-linecap="round" stroke-miterlimit="10" stroke-width="1"/><line x2="1.165" y2="4.364" transform="translate(77.432 559.897)" fill="none" stroke="#fff" stroke-linecap="round" stroke-miterlimit="10" stroke-width="1"/><line y1="3.665" x2="9.501" transform="translate(71.407 565.834)" fill="none" stroke="#fff" stroke-linecap="round" stroke-miterlimit="10" stroke-width="1"/><line x2="1.376" y2="6.653" transform="translate(82.724 561.752)" fill="none" stroke="#fff" stroke-linecap="round" stroke-miterlimit="10" stroke-width="1"/><line y1="4.182" x2="11.116" transform="translate(74.71 570.277)" fill="none" stroke="#fff" stroke-linecap="round" stroke-miterlimit="10" stroke-width="1"/><path d="M49.511,450.29C54.3,442.348,64.069,437.555,73,439.879c12.467,3.246,19.482,19.366,13.88,30.7-6.1,12.339-25.422,15.487-34.968,6.14C45.288,470.229,44.414,458.744,49.511,450.29Z" fill="#e73555"/><path d="M64.1,472.168a.78.78,0,0,1-.242-.574V459.387l-3.384,2.6a.683.683,0,0,1-.454.15.862.862,0,0,1-.694-.392l-2.66-3.445a1.376,1.376,0,0,1-.12-.453.861.861,0,0,1,.1-.408.885.885,0,0,1,.287-.317l7.282-5.65a1.141,1.141,0,0,1,.665-.212h5.711a.828.828,0,0,1,.816.816v19.519a.826.826,0,0,1-.816.816H64.669A.78.78,0,0,1,64.1,472.168Z" fill="#fdc331"/></g></svg>