<svg xmlns="http://www.w3.org/2000/svg" xmlns:xlink="http://www.w3.org/1999/xlink" width="260" height="260" viewBox="0 0 260 260"><defs><clipPath id="a"><rect width="260" height="260" rx="40" transform="translate(-485.418 1149.357)" fill="none"/></clipPath></defs><g transform="translate(-139 -1032)"><g transform="translate(624.418 -117.357)"><g clip-path="url(#a)"><rect width="260" height="260" rx="40" transform="translate(-485.418 1149.357)" fill="#e73555"/><path d="M-399.8,1193.14c-20.815-5.249-47.325,17-60.178,36.005-23.343,34.52-11.89,73.515-3.5,102.1,5.4,18.4,11.814,40.121,27.655,44.031,18.112,4.471,32.447-17.792,47.231-11.877,13.392,5.359,6.365,25.522,21.44,38.527,17.621,15.2,51.713,8.781,71.156.29,38.458-16.794,50.03-54.976,52.824-66.336,9.228-37.523-4.6-81.032-35.423-101.677-5.175-3.466-15.493-10.378-30.493-12.593-24.852-3.67-34.253,9.73-52.094,5.024C-382.9,1220.905-381.042,1197.871-399.8,1193.14Z" fill="#fdc331"/><path d="M-486.461,1321.874c20.56-45.955,79.383-64.957,113.74-50.327,20.662,8.8,17.328,23.307,39.256,38.249,49.578,33.782,110.979-10.169,128.838,12.581,16.532,21.061-11.545,89.989-57.877,106.191-37.6,13.15-56.79-19.076-118.269-12.078-44.555,5.071-56.07,24.453-77.505,15.1C-488.185,1418.535-505.137,1363.618-486.461,1321.874Z" fill="#fff0f0"/><path d="M-273.363,1364.9l6.508,46.462h23.309c-1.677-30.023-4.729-77.78-8.124-98.093l-16.809,29.393Z" fill="#e73555"/><path d="M-294.524,1313.968c-5.763,25.9-11.211,69.137-14.436,97.4h26.094l10.2-46.462,4.183-22.238,16.809-29.393Z" fill="#f9575c"/><path d="M-285.958,1260.837a9.879,9.879,0,0,0-13.27-1.992l-41.545,25.162a10.635,10.635,0,0,0-3.009,14.469h0c3.315,5.25,7.5,6.326,12.463,2.6,4.4-3.3,43.183-23.587,46.367-25.986C-280.5,1271.741-282.478,1265.184-285.958,1260.837Z" fill="#2ca5c6"/><path d="M-300.632,1323.74l-29.613-36.535a8.858,8.858,0,0,0-12.814-.326h0c-3.622,3.608-2.7,10.616,1.134,14l33.914,29.3Z" fill="#2ca5c6"/><path d="M-282.963,1326.343l-8.784-4.886.952-1.933a1.738,1.738,0,0,0-.407-2.071,1.74,1.74,0,0,0-2.162-.116l-8.707,6.182-5.94,6.66c4.682,4.322,7.845,4.388,9.7,3.654.21.079.417.164.631.234l7.362,2.412a1.417,1.417,0,0,0,1.851-.594c.263-.476.378-1.251-1.027-2.032l1.4.781a1.475,1.475,0,0,0,1.941-.649c.343-.621-.018-1.472-.839-2.051l1.081.471a1.512,1.512,0,0,0,2.059-.814,1.568,1.568,0,0,0-.748-1.912l-1.552-.86,1.862.525a1.64,1.64,0,0,0,2.153-.984A1.7,1.7,0,0,0-282.963,1326.343Z" fill="#f8c6a3"/><path d="M-259.054,1260.781c2.793-4.02,7.783-4.876,11.457-1.965l35.8,25.245c4.081,3.235,5.214,9.636,2.563,14.475h0c-2.872,5.243-6.482,6.311-10.761,2.577-3.794-3.311-37.214-23.673-39.957-26.079C-263.786,1271.675-262.068,1265.122-259.054,1260.781Z" fill="#2ca5c6"/><path d="M-246.536,1323.714l25.642-36.476a6.949,6.949,0,0,1,11.059-.3h0c3.117,3.615,2.3,10.622-1.011,14l-29.338,29.228Z" fill="#2ca5c6"/><path d="M-261.791,1326.281l7.592-4.869-.818-1.934a1.939,1.939,0,0,1,.357-2.071,1.345,1.345,0,0,1,1.866-.111l7.5,6.2,5.111,6.672c-4.051,4.313-6.78,4.373-8.377,3.635-.181.078-.36.163-.545.233l-6.359,2.4a1.146,1.146,0,0,1-1.6-.6c-.226-.477-.324-1.252.891-2.03l-1.215.778a1.194,1.194,0,0,1-1.673-.653,1.806,1.806,0,0,1,.729-2.049l-.934.469a1.247,1.247,0,0,1-1.775-.818,1.683,1.683,0,0,1,.649-1.911l1.342-.857-1.608.522a1.37,1.37,0,0,1-1.856-.989A1.822,1.822,0,0,1-261.791,1326.281Z" fill="#f8c6a3"/><path d="M-296.63,1257.587s10.363-4.125,25.978-4.125,24.905,6.852,24.905,6.852l-5.923,52.957-42.854.7-7.084-38.092Z" fill="#40bedb"/><path d="M-288.539,1226.292s-9.8-14.968,2-16.694c7.049-1.03,9.082-3.241,17.7-6.259,9.973-3.491,23.691,7.671,8.9,18.736l-23.114-5.031Z" fill="#363638"/><circle cx="5.375" cy="5.375" r="5.375" transform="translate(-270.014 1229.568) rotate(-45)" fill="#f8c6a3"/><path d="M-267.615,1236.207l.265,18.464c.041,5.192-3.521,5.581-8.632,5.581h0c-4.362,0-6.577-1.576-7.118-5.9l.719-19.629Z" fill="#f8c6a3"/><path d="M-267.371,1252.762l-12.13-8.7,11.965-3.437Z" fill="#ee9681"/><path d="M-273.168,1245.607h1.041a12.577,12.577,0,0,0,12.57-12.99l-.425-12.906a13.11,13.11,0,0,0-13.1-12.68h0c-7.241,0-14.38,5.87-14.38,13.111l.621,12.452A13.694,13.694,0,0,0-273.168,1245.607Z" fill="#f8c6a3"/><path d="M-266.108,1233.7h-1.723a.407.407,0,0,1-.407-.407.407.407,0,0,1,.407-.407h1.238l-.777-4.424a.407.407,0,0,1,.33-.472.409.409,0,0,1,.472.331l.861,4.9a.406.406,0,0,1-.089.333A.407.407,0,0,1-266.108,1233.7Z" fill="#363638"/><path d="M-273.736,1222.66s2.9-.34,2.968.866c0,0,.024.817-2.508,1.064s-3.2.079-3.454-.681S-275.1,1222.713-273.736,1222.66Z" fill="#363638"/><path d="M-262.628,1222.594s-2.408-.172-2.568.967c0,0-.089.771,2.018.875s2.782-.192,2.96-.818C-260.015,1222.908-261.486,1222.574-262.628,1222.594Z" fill="#363638"/><path d="M-265.8,1235.55h-8.121s-.022,2.842,4.7,2.849A3.261,3.261,0,0,0-265.8,1235.55Z" fill="#fff"/><path d="M-274.566,1228.8a.407.407,0,0,1-.359-.214.408.408,0,0,1,.165-.552,3.586,3.586,0,0,1,3.771.029.408.408,0,0,1,.09.569.406.406,0,0,1-.568.091,2.789,2.789,0,0,0-2.906.028A.407.407,0,0,1-274.566,1228.8Z" fill="#363638"/><path d="M-264.366,1228.8a.408.408,0,0,1-.359-.214.407.407,0,0,1,.165-.552c2.17-1.171,3.317.03,3.365.082a.408.408,0,0,1-.023.576.407.407,0,0,1-.572-.019c-.041-.04-.8-.775-2.383.078A.407.407,0,0,1-264.366,1228.8Z" fill="#363638"/><path d="M-285.122,1229.617s8.254-5.249,5.3-12.636c0,0,13.379-6.455,19.527.271l1.647-8.6-10.565-4.273-16.545,6.528-4.27,6.377,1.435,8.23Z" fill="#363638"/><circle cx="5.375" cy="5.375" r="5.375" transform="translate(-295.564 1232.463) rotate(-67.383)" fill="#f8c6a3"/><path d="M-286.656,1231.574a.408.408,0,0,1-.408-.407,3.585,3.585,0,0,0-1-2.427,2.688,2.688,0,0,0-2.254-.455.4.4,0,0,1-.468-.336.407.407,0,0,1,.335-.468,3.448,3.448,0,0,1,2.917.64,4.355,4.355,0,0,1,1.283,3.046.408.408,0,0,1-.406.407Z" fill="#363638"/><path d="M-279.762,1260.619l4.306,3.98,4.783-5.463-4.783-.751Z" fill="#2ca5c6"/><path d="M-276.316,1263.782l-4.706,39.236,5.7,6.468,5.16-6.545-4.57-39.32Z" fill="#2ca5c6"/><path d="M-283.034,1252.532l7.578,5.853-5.058,6.214-7.456-9.4Z" fill="#2ca5c6"/><path d="M-267.371,1252.762l-8.085,5.623,5.058,6.214,7.692-9.4Z" fill="#2ca5c6"/><path d="M-332.75,1264.112a7.062,7.062,0,0,1,5.091-8.131,7.06,7.06,0,0,1,8.715,5.166,106.244,106.244,0,0,1,1.573,12.837l-14.535,4.436Z" fill="#ee4652"/><path d="M-331.906,1278.42l14.535-4.436L-315.45,1294a6.818,6.818,0,0,1-5.993,7.35l-.132.019h0a7.6,7.6,0,0,1-8.627-6.1Z" fill="#f8c6a3"/><path d="M-310.41,1350.268l-5.658-62.707s-2.648.629-6.217,1.2h0a6.333,6.333,0,0,0-5.177,7.648l9.317,53.994Z" fill="#f8c6a3"/><path d="M-320.15,1349.217a7.6,7.6,0,0,1,9.852-4.292,7.6,7.6,0,0,1,4.292,9.853,7.6,7.6,0,0,1-9.853,4.292A7.6,7.6,0,0,1-320.15,1349.217Z" fill="#f8c6a3"/><path d="M-308.863,1357.811s2.026,2.21,3.765-1.378,1.677-8.162-5.2-11.508Z" fill="#f8c6a3"/><path d="M-356.264,1222.434l29.873,6.771s11.1,15.74,5.359,38.251h-49.525s-4.042-9.063,4.908-21.609c5.5-7.709,9.385-23.413,9.385-23.413" fill="#363638"/><path d="M-339.12,1374.518l7.52,36.846h25.823c-1.489-12.159-3.711-28.035-7.005-47.691-8.756-52.238-14.337-64.792-14.337-64.792l-19.438-3.492-2.146,3.135,16.811.524Z" fill="#1e1242"/><path d="M-348.7,1298.524l-7.505-.234s-12.808,13.663-13.476,38.939c-.445,16.862.017,49.556.486,74.135h26.549l3.529-36.846,7.228-75.47Z" fill="#292669"/><path d="M-444.414,1264.115a77.128,77.128,0,0,0,7.748-20.93c3.252-14.676-1.247-37.423-10.23-47.919s-19.355-14.384-27.188-8.8-1.913,15.18,3.063,20.411,25.832,29.97,20.312,57.639" fill="none" stroke="#f99898" stroke-linecap="round" stroke-linejoin="round" stroke-width="1"/><path d="M-471.308,1188.532c5.05,1.747,18.892,13.478,24.684,28.417,8.317,21.456-1.125,47.436-1.125,47.436" fill="none" stroke="#f99898" stroke-linecap="round" stroke-linejoin="round" stroke-width="1"/><line y1="1.991" x2="10.728" transform="translate(-474.635 1193.49)" fill="none" stroke="#f99898" stroke-linecap="round" stroke-linejoin="round" stroke-width="1"/><line y1="1.703" x2="11.208" transform="translate(-468.944 1199.608)" fill="none" stroke="#f99898" stroke-linecap="round" stroke-linejoin="round" stroke-width="1"/><line y1="2.139" x2="11.54" transform="translate(-465.014 1205.017)" fill="none" stroke="#f99898" stroke-linecap="round" stroke-linejoin="round" stroke-width="1"/><line x1="12.522" y2="1.255" transform="translate(-461.767 1211.32)" fill="none" stroke="#f99898" stroke-linecap="round" stroke-linejoin="round" stroke-width="1"/><line x1="11.768" y2="0.95" transform="translate(-458.179 1217.516)" fill="none" stroke="#f99898" stroke-linecap="round" stroke-linejoin="round" stroke-width="1"/><line x1="10.587" y2="0.855" transform="translate(-454.985 1225.236)" fill="none" stroke="#f99898" stroke-linecap="round" stroke-linejoin="round" stroke-width="1"/><line x1="8.407" y2="0.128" transform="translate(-451.789 1231.537)" fill="none" stroke="#f99898" stroke-linecap="round" stroke-linejoin="round" stroke-width="1"/><line x1="6.566" y1="0.67" transform="translate(-449.808 1238.877)" fill="none" stroke="#f99898" stroke-linecap="round" stroke-linejoin="round" stroke-width="1"/><line x1="5.584" y1="1.187" transform="translate(-449.319 1244.943)" fill="none" stroke="#f99898" stroke-linecap="round" stroke-linejoin="round" stroke-width="1"/><line y1="2.651" x2="5.524" transform="translate(-443.455 1240.611)" fill="none" stroke="#f99898" stroke-linecap="round" stroke-linejoin="round" stroke-width="1"/><line y1="2.814" x2="5.743" transform="translate(-443.225 1232.306)" fill="none" stroke="#f99898" stroke-linecap="round" stroke-linejoin="round" stroke-width="1"/><line y1="3.023" x2="5.27" transform="translate(-443.825 1224.672)" fill="none" stroke="#f99898" stroke-linecap="round" stroke-linejoin="round" stroke-width="1"/><line y1="4.268" x2="5.149" transform="translate(-445.539 1216.012)" fill="none" stroke="#f99898" stroke-linecap="round" stroke-linejoin="round" stroke-width="1"/><line y1="6.386" x2="2.866" transform="translate(-460.777 1189.862)" fill="none" stroke="#f99898" stroke-linecap="round" stroke-linejoin="round" stroke-width="1"/><line y1="7.711" x2="3.797" transform="translate(-455.346 1194.518)" fill="none" stroke="#f99898" stroke-linecap="round" stroke-linejoin="round" stroke-width="1"/><line y1="6.82" x2="5.022" transform="translate(-451.387 1200.884)" fill="none" stroke="#f99898" stroke-linecap="round" stroke-linejoin="round" stroke-width="1"/><line y1="6.061" x2="5.228" transform="translate(-447.892 1207.932)" fill="none" stroke="#f99898" stroke-linecap="round" stroke-linejoin="round" stroke-width="1"/><line y1="3.957" x2="1.329" transform="translate(-467.489 1186.679)" fill="none" stroke="#f99898" stroke-linecap="round" stroke-linejoin="round" stroke-width="1"/><path d="M-442.047,1276.02c-4.279.272-12.561,2.417-20.185-4.24s-9.771-24.346-7.578-29.6c1.533-3.67,22.038-1.14,29.352,6.937S-432.33,1271.357-442.047,1276.02Z" fill="#ffc7c6"/><path d="M-466.157,1242.979c7.893,3.008,23.148,15.541,25.986,29.967" fill="none" stroke="#fff" stroke-linecap="round" stroke-miterlimit="10" stroke-width="1"/><line y1="1.082" x2="9.786" transform="translate(-466.736 1248.555)" fill="none" stroke="#fff" stroke-linecap="round" stroke-miterlimit="10" stroke-width="1"/><line x2="0.432" y2="6.826" transform="translate(-453.428 1245.148)" fill="none" stroke="#fff" stroke-linecap="round" stroke-miterlimit="10" stroke-width="1"/><line y1="2.616" x2="15.199" transform="translate(-465.23 1254.998)" fill="none" stroke="#fff" stroke-linecap="round" stroke-miterlimit="10" stroke-width="1"/><line x2="0.065" y2="10.289" transform="translate(-446.121 1249.476)" fill="none" stroke="#fff" stroke-linecap="round" stroke-miterlimit="10" stroke-width="1"/><line y1="2.904" x2="17.75" transform="translate(-461.8 1263.058)" fill="none" stroke="#fff" stroke-linecap="round" stroke-miterlimit="10" stroke-width="1"/><path d="M-341.561,1254.2l-18.487,2.586a3.817,3.817,0,0,0-3.23,4.445l6.406,37.652h29.753l7.761-36.166a5.673,5.673,0,0,0-4.97-6.64Z" fill="#f9575c"/><path d="M-376.105,1263.324l6.71,18.576s-20.759,6.986-25.322,9.772c-5.145,3.143-9.087,1.717-11.807-3.663h0a10.327,10.327,0,0,1,4.241-13.71Z" fill="#f9a9a3"/><path d="M-363.127,1257.884a9.592,9.592,0,0,1,12.644,3.148c2.964,4.522,4.268,11.043-.34,13.873-3.3,2.026-18.572,6.995-18.572,6.995l-6.71-18.576Z" fill="#ee4652"/><path d="M-367.14,1316.406l-25.26-38.046a8.6,8.6,0,0,0-12.357-1.5h0c-3.834,3.155-3.585,10.015-.194,13.641l30.086,31.445Z" fill="#f8c6a3"/><path d="M-350.3,1320.55l-8.041-5.533,1.1-1.781a1.689,1.689,0,0,0-.2-2.04,1.689,1.689,0,0,0-2.08-.311l-8.986,5.174-6.355,5.891c4.128,4.609,7.178,4.965,9.036,4.426.2.095.388.2.588.284l6.894,3.009a1.377,1.377,0,0,0,1.845-.4c.3-.436.481-1.175-.806-2.059l1.287.884a1.43,1.43,0,0,0,1.935-.448c.39-.569.119-1.425-.621-2.06l1,.555a1.467,1.467,0,0,0,2.065-.6,1.522,1.522,0,0,0-.546-1.917l-1.422-.974,1.752.679a1.593,1.593,0,0,0,2.172-.753A1.652,1.652,0,0,0-350.3,1320.55Z" fill="#f8c6a3"/><path d="M-330.781,1229.615a5.236,5.236,0,0,0,4.86,5.588,5.237,5.237,0,0,0,5.587-4.861,5.237,5.237,0,0,0-4.86-5.587A5.237,5.237,0,0,0-330.781,1229.615Z" fill="#f8c6a3"/><path d="M-338.642,1210.524c.664-1.162-.189-3.338-.189-3.338-6.549,0-12.2,2.1-15.456,8.084-4.788,8.8-1.311,22.421,9.957,26.563,10.814,3.976,5.055-30.2,5.055-30.2Z" fill="#363638"/><path d="M-332.467,1244.006l-.724,11.389c-.246,4-2.843,5.986-6.778,5.713h0c-3.358-.234-6.393-2.187-6.578-5.549l2-17.868Z" fill="#f8c6a3"/><path d="M-332.965,1253.5l-13.313-13.032,13.909,2.372Z" fill="#ee9681"/><path d="M-335.932,1245.846h0c6.728.02,12.284-5.278,12.485-10.772l.4-12.966a12.773,12.773,0,0,0-11.878-13.209h0c-5.169-.36-14.553,7.321-14.862,11.77l-.2,10.431C-350.154,1239.168-343.982,1245.286-335.932,1245.846Z" fill="#f8c6a3"/><path d="M-338.861,1207.2c.033-.005.061-.011.094-.015C-338.767,1207.187-338.806,1207.192-338.861,1207.2Z" fill="#f7de9e"/><path d="M-323.314,1219.009c.28-6.767-5.647-11-10.093-12.081a20.182,20.182,0,0,0-11.175.428c-4.3,1.443-8.949,4.65-5.781,11.7-2.076,1.026-3.924,2.2-3.924,2.2l7.74,9.267s.561-2.551,1.369-8c4.039-1.6,3.887-3.955,4.3-6.5A68.914,68.914,0,0,0-323.314,1219.009Z" fill="#363638"/><path d="M-356.277,1229.615a5.238,5.238,0,0,0,4.861,5.588,5.238,5.238,0,0,0,5.587-4.861,5.238,5.238,0,0,0-4.86-5.587A5.238,5.238,0,0,0-356.277,1229.615Z" fill="#f8c6a3"/><path d="M-349.336,1231.659s.264-3.787-3.4-3.443Z" fill="#363638"/><path d="M-332.122,1234.3a.4.4,0,0,1-.394-.38.393.393,0,0,1,.379-.407l1.345-.05-.363-3a.393.393,0,0,1,.343-.438.393.393,0,0,1,.439.343l.414,3.423a.392.392,0,0,1-.091.3.394.394,0,0,1-.285.138l-1.772.066Z" fill="#ee9681"/><path d="M-338.547,1223.379s3.02-.248,3.05.981c0,0,0,.833-2.637,1s-3.319-.028-3.56-.81S-339.963,1223.387-338.547,1223.379Z" fill="#363638"/><path d="M-326.386,1223.709s-2.492-.257-2.7.9c0,0-.118.782,2.064.959s2.892-.1,3.1-.732C-323.686,1224.118-325.2,1223.728-326.386,1223.709Z" fill="#20181f"/><path d="M-338.744,1228.618a1.135,1.135,0,0,0,1.1,1.171,1.134,1.134,0,0,0,1.172-1.1,1.135,1.135,0,0,0-1.1-1.171A1.134,1.134,0,0,0-338.744,1228.618Z" fill="#363638"/><path d="M-328.278,1228.618a1.135,1.135,0,0,0,1.1,1.171,1.134,1.134,0,0,0,1.172-1.1,1.135,1.135,0,0,0-1.1-1.171A1.134,1.134,0,0,0-328.278,1228.618Z" fill="#20181f"/><path d="M-332.855,1237.53a5.116,5.116,0,0,1-4.334-2.043.394.394,0,0,1,.09-.55.4.4,0,0,1,.55.091c1.771,2.472,5.25,1.534,5.285,1.523a.4.4,0,0,1,.485.273.394.394,0,0,1-.273.486A7.275,7.275,0,0,1-332.855,1237.53Z" fill="#e76266"/><rect width="2.533" height="0.891" transform="translate(-332.599 1227.533)" fill="#fff"/><rect width="3.177" height="0.891" transform="translate(-346.279 1227.533)" fill="#fff"/><path d="M-337.88,1233.546a5.673,5.673,0,0,1-5.667-5.667,5.673,5.673,0,0,1,5.667-5.667,5.673,5.673,0,0,1,5.667,5.667A5.673,5.673,0,0,1-337.88,1233.546Zm0-10.443a4.781,4.781,0,0,0-4.776,4.776,4.781,4.781,0,0,0,4.776,4.776,4.781,4.781,0,0,0,4.776-4.776A4.781,4.781,0,0,0-337.88,1223.1Z" fill="#fff"/><path d="M-325.178,1232.91a5.352,5.352,0,0,1-5.346-5.346,5.352,5.352,0,0,1,5.346-5.346,5.352,5.352,0,0,1,5.346,5.346A5.352,5.352,0,0,1-325.178,1232.91Zm0-9.814a4.473,4.473,0,0,0-4.467,4.468,4.472,4.472,0,0,0,4.467,4.468,4.472,4.472,0,0,0,4.467-4.468A4.473,4.473,0,0,0-325.178,1223.1Z" fill="#fff"/><path d="M-449.166,1259.058s20.931-7.737,39.425-8.362c0,0,9.842-.624,26.542,3.831a1.277,1.277,0,0,1,.937,1.376l-7.025,60.624-46.188,1.91Z" fill="#1e1242"/><path d="M-428.29,1314.563l47.918-20.93-30.571-4.737-18.018,6.9Z" fill="#292669"/><path d="M-455.947,1273.555c2.535,10.852,13.057,34.554,13.057,34.554a11.2,11.2,0,0,0,14.6,6.453h0a11.2,11.2,0,0,0,6.346-14.386l-13.11-34.534a11.171,11.171,0,0,0-15.26-6.115h0C-455.551,1262.029-457.268,1267.9-455.947,1273.555Z" fill="#292669"/><path d="M-394.041,1273.211c6.663,8.933,24.412,23.7,24.412,23.7a11.2,11.2,0,0,0,15.962.076h0c4.316-4.342,4.344-9.973.064-14.351l-24.453-25.036a11.17,11.17,0,0,0-16.431.5h0C-398.287,1262.488-397.512,1268.558-394.041,1273.211Z" fill="#292669"/><path d="M-385.878,1279.74s1.052-5.693,9.407-7.71l8.932,6.272-3.169,2.8Z" fill="#f8c6a3"/><path d="M-417.592,1278.3l-10.987,4.395,4.294,11.311,5.978-2.29Z" fill="#f8c6a3"/><path d="M-417.592,1278.3l60.851,3.628-3.732,18.305-57.835-8.518Z" fill="#292669"/><path d="M-419.346,1203.4c-3.174.211-13.926,2.745-10.328,13.373,4.351,12.854,6.5,14.492,6.5,14.492l-.364-19.113Z" fill="#4d2e3c"/><path d="M-398.368,1204.311s12.565,3.68,3.313,17.5L-407.8,1207.4Z" fill="#4d2e3c"/><path d="M-402.109,1226.157a5.369,5.369,0,0,0,5.163,5.531,5.311,5.311,0,0,0,5.341-5.312,5.369,5.369,0,0,0-5.163-5.532A5.312,5.312,0,0,0-402.109,1226.157Z" fill="#f8c6a3"/><path d="M-403.19,1237.239l.711,14.114c.249,4.767-2.5,6.915-7.044,7.1h0c-3.882.155-8.238-1.513-8.278-5.724l-.075-21.411Z" fill="#f8c6a3"/><path d="M-402.562,1249.149l-16.431-10.671c-.474-4.046,15.76-2.632,15.76-2.632Z" fill="#ee9681"/><path d="M-407.97,1243.028h0c7.389-.353,13.185-6.672,13.089-12.914l-.273-13.056a14.339,14.339,0,0,0-13.807-14.315h0c-7.756-.161-15.51,6.171-15.641,14.178l.336,10.172A16.275,16.275,0,0,0-407.97,1243.028Z" fill="#f8c6a3"/><path d="M-410.671,1216.854s3.988-.8,4.145.365c0,0,.085.788-2.314,1.213s-4.293.565-4.6-.151S-411.969,1217.005-410.671,1216.854Z" fill="#20181f"/><path d="M-399.143,1218.406s3.524.1,3.419,1.27c0,0,.448.8-1.986.676s-3.634-.36-3.77-1.126S-400.442,1218.264-399.143,1218.406Z" fill="#20181f"/><path d="M-405.15,1233.152a5.729,5.729,0,0,1-3.414-1.107c-.574-.437-.568-.656-.564-.761a.432.432,0,0,1,.428-.4.414.414,0,0,1,.376.268,4.857,4.857,0,0,0,4.706.936.418.418,0,0,1,.52.275.416.416,0,0,1-.275.52A6,6,0,0,1-405.15,1233.152Z" fill="#e76266"/><path d="M-399.717,1223.917a1.22,1.22,0,0,0,1.248,1.19,1.22,1.22,0,0,0,1.19-1.248,1.219,1.219,0,0,0-1.248-1.19A1.219,1.219,0,0,0-399.717,1223.917Z" fill="#20181f"/><path d="M-411.1,1224.544a1.221,1.221,0,0,0,1.142,1.293,1.22,1.22,0,0,0,1.293-1.142,1.22,1.22,0,0,0-1.142-1.293A1.221,1.221,0,0,0-411.1,1224.544Z" fill="#363638"/><path d="M-402.227,1230.241a.416.416,0,0,1-.365-.216.417.417,0,0,1,.166-.565l.988-.54a.077.077,0,0,0,0-.084l-1.7-3a.415.415,0,0,1,.157-.566.413.413,0,0,1,.566.157l1.69,2.983a.908.908,0,0,1-.185,1.163.382.382,0,0,1-.071.05l-1.045.571A.406.406,0,0,1-402.227,1230.241Zm1.044-.987h0Z" fill="#ee9681"/><path d="M-420.776,1226.213s-2.31-10.746,2.676-16.2c0,0,20.585,6.24,23.768-2.132,4.518-11.881-8.525-15.453-15.975-11.906a24.163,24.163,0,0,0-9.039,7.423s-14.04,3.045-6.436,18.512Z" fill="#4d2e3c"/><path d="M-431.071,1227.174a5.317,5.317,0,0,0,5.113,5.478,5.26,5.26,0,0,0,5.289-5.261,5.316,5.316,0,0,0-5.113-5.477A5.259,5.259,0,0,0-431.071,1227.174Z" fill="#f8c6a3"/><path d="M-424.116,1229.025a.417.417,0,0,1-.412-.358c-.018-.127-.471-3.128-3.12-3a.417.417,0,0,1-.435-.395.415.415,0,0,1,.4-.435c2.707-.149,3.8,2.371,3.984,3.713a.416.416,0,0,1-.354.468A.4.4,0,0,1-424.116,1229.025Z" fill="#ee9681"/><path d="M-417.592,1251.338l-5.494.821s6.627,5.5,19.559,9.333l4.442-10.154-7.662-.981Z" fill="#f8c6a3"/><path d="M-373.958,1411.364c-4.974-33.852-12.777-85.589-15.329-94.837l-13.41.557-6.931,60.648,7.537,33.632Z" fill="#2ca5c6"/><path d="M-435.279,1318.437c-4.881,19.338-7.45,62.626-8.7,92.927h30.034l5.05-39.324,6.2-54.956Z" fill="#40bedb"/><path d="M-402.7,1317.084Z" fill="none" stroke="#4d2e3c" stroke-miterlimit="10" stroke-width="1"/></g></g><g transform="translate(139 1032)" fill="none" stroke="#d1d1d1" stroke-width="3"><rect width="260" height="260" rx="40" stroke="none"/><rect x="1.5" y="1.5" width="257" height="257" rx="38.5" fill="none"/></g></g></svg>