<svg xmlns="http://www.w3.org/2000/svg" width="336.535" height="330.672" viewBox="0 0 336.535 330.672"><g transform="translate(-241.332 -1227.459)"><path d="M338.608,1251.609c-72.38,40.293-114.446,132.547-90.557,163.946,9.8,12.886,29.026,14.914,37.925,36.024,7.239,17.169-.131,27.72,2.323,41.17,8.666,47.51,132.584,90.066,176.249,49.8,22.744-20.975,3.7-45.963,31.229-85.168,28.57-40.689,69.55-42.921,68.845-64.586-.818-25.141-56.339-32.644-56.779-58.909-.391-23.372,43.333-31.637,42.584-53.231-.793-22.892-50.837-39.619-78.071-45.423C454.739,1231.476,396.912,1219.152,338.608,1251.609Z" transform="translate(0 -0.471)" fill="#fff0f0"/><g transform="translate(505.581 1326.86)"><path d="M574.589,1446.769a102.331,102.331,0,0,1-2.059-29.544c1.333-19.9,15.548-47.189,30.9-57.2s30.012-11.1,37.9-1.065S638.107,1379,629.82,1383.8s-44.074,28.53-47.366,65.822" transform="translate(-572.281 -1351.95)" fill="none" stroke="#f99898" stroke-linecap="round" stroke-linejoin="round" stroke-width="1"/><path d="M638.634,1362.723c-7.082.341-29.085,10.116-42.032,26.979-18.6,24.22-16.263,60.824-16.263,60.824" transform="translate(-573.886 -1354.121)" fill="none" stroke="#f99898" stroke-linecap="round" stroke-linejoin="round" stroke-width="1"/><line x1="12.918" y1="6.537" transform="translate(53.474 12.155)" fill="none" stroke="#f99898" stroke-linecap="round" stroke-linejoin="round" stroke-width="1"/><line x1="13.637" y1="6.349" transform="translate(43.333 17.644)" fill="none" stroke="#f99898" stroke-linecap="round" stroke-linejoin="round" stroke-width="1"/><line x1="13.897" y1="7.028" transform="translate(35.889 22.942)" fill="none" stroke="#f99898" stroke-linecap="round" stroke-linejoin="round" stroke-width="1"/><line x2="15.478" y2="6.269" transform="translate(28.152 29.391)" fill="none" stroke="#f99898" stroke-linecap="round" stroke-linejoin="round" stroke-width="1"/><line x2="14.631" y2="5.6" transform="translate(22.232 36.223)" fill="none" stroke="#f99898" stroke-linecap="round" stroke-linejoin="round" stroke-width="1"/><line x2="13.163" y2="5.038" transform="translate(16.789 45.303)" fill="none" stroke="#f99898" stroke-linecap="round" stroke-linejoin="round" stroke-width="1"/><line x2="10.658" y2="3.298" transform="translate(13.145 52.948)" fill="none" stroke="#f99898" stroke-linecap="round" stroke-linejoin="round" stroke-width="1"/><line x2="8.611" y2="1.596" transform="translate(9.98 63.095)" fill="none" stroke="#f99898" stroke-linecap="round" stroke-linejoin="round" stroke-width="1"/><line x2="7.553" y2="0.571" transform="translate(8.151 71.663)" fill="none" stroke="#f99898" stroke-linecap="round" stroke-linejoin="round" stroke-width="1"/><line x1="6.046" y1="5.436" transform="translate(2.818 62.469)" fill="none" stroke="#f99898" stroke-linecap="round" stroke-linejoin="round" stroke-width="1"/><line x1="6.264" y1="5.725" transform="translate(5.345 51.727)" fill="none" stroke="#f99898" stroke-linecap="round" stroke-linejoin="round" stroke-width="1"/><line x1="5.583" y1="5.815" transform="translate(9.56 42.406)" fill="none" stroke="#f99898" stroke-linecap="round" stroke-linejoin="round" stroke-width="1"/><line x1="4.965" y1="7.355" transform="translate(15.126 32.061)" fill="none" stroke="#f99898" stroke-linecap="round" stroke-linejoin="round" stroke-width="1"/><line x1="1.267" y1="9.202" transform="translate(47.192 5.299)" fill="none" stroke="#f99898" stroke-linecap="round" stroke-linejoin="round" stroke-width="1"/><line x1="1.959" y1="11.236" transform="translate(37.354 8.853)" fill="none" stroke="#f99898" stroke-linecap="round" stroke-linejoin="round" stroke-width="1"/><line x1="3.852" y1="10.558" transform="translate(28.377 15.027)" fill="none" stroke="#f99898" stroke-linecap="round" stroke-linejoin="round" stroke-width="1"/><line x1="4.397" y1="9.668" transform="translate(21.036 22.621)" fill="none" stroke="#f99898" stroke-linecap="round" stroke-linejoin="round" stroke-width="1"/><line x1="0.217" y1="5.534" transform="translate(58.883 4.322)" fill="none" stroke="#f99898" stroke-linecap="round" stroke-linejoin="round" stroke-width="1"/></g><g transform="translate(520.487 1398.523)"><path d="M596.355,1480.589c5.349,1.942,15.094,7.763,27.286,2.13s21.523-27.358,20.69-34.865c-.583-5.245-27.637-9.672-39.964-2.115S585.721,1471.026,596.355,1480.589Z" transform="translate(-590.949 -1441.702)" fill="#ffc7c6"/><path d="M640.434,1448.973c-11.174.885-35.275,11.155-44.269,28.467" transform="translate(-592 -1443.167)" fill="none" stroke="#fff" stroke-linecap="round" stroke-miterlimit="10" stroke-width="1"/><line x1="12.058" y1="5.028" transform="translate(34.628 9.472)" fill="none" stroke="#fff" stroke-linecap="round" stroke-miterlimit="10" stroke-width="1"/><line x1="3.097" y2="8.531" transform="translate(28.317 3.82)" fill="none" stroke="#fff" stroke-linecap="round" stroke-miterlimit="10" stroke-width="1"/><line x1="18.378" y1="9" transform="translate(23.415 15.096)" fill="none" stroke="#fff" stroke-linecap="round" stroke-miterlimit="10" stroke-width="1"/><line x1="3.92" y2="13.077" transform="translate(16.575 6.606)" fill="none" stroke="#fff" stroke-linecap="round" stroke-miterlimit="10" stroke-width="1"/><line x1="21.519" y1="10.319" transform="translate(12.792 23.129)" fill="none" stroke="#fff" stroke-linecap="round" stroke-miterlimit="10" stroke-width="1"/></g><path d="M539.4,1465.624c-13.5,43.588-67.473,61.776-99.246,50.488-21.305-7.57-19.033-23.56-40.318-39.284C347.953,1438.5,278.378,1492.1,250.7,1464.077c-23.144-23.435,10.11-91.342,41.022-128.484,14.765-17.741,28.679-34.46,52.5-42.225,65.012-21.195,135.031,46.742,164.223,86.343C527.56,1405.644,549.044,1434.5,539.4,1465.624Z" transform="translate(-0.329 -12.476)" fill="#e73555"/><path d="M358.44,1276.717c3.823-6.341,11.624-10.168,18.756-8.312,9.954,2.591,15.556,15.463,11.083,24.51-4.871,9.851-20.3,12.366-27.921,4.9C355.068,1292.637,354.37,1283.467,358.44,1276.717Z" transform="translate(-23.074 -8.158)" fill="#fdc331"/><path d="M330.685,1304.468a8.765,8.765,0,0,1,9.377-4.156c4.978,1.3,7.779,7.731,5.542,12.255-2.435,4.927-10.149,6.183-13.96,2.451C329,1312.428,328.65,1307.843,330.685,1304.468Z" transform="translate(-17.744 -14.635)" fill="#fdc331"/><g transform="translate(243.443 1227.459)"><ellipse cx="151.88" cy="12.165" rx="151.88" ry="12.165" transform="translate(0 262.809)" fill="#4fc3c9"/><g transform="translate(39.718 0)"><g transform="translate(42.136 211.073)"><path d="M474.094,1501.541l-14.6,42.019h59.712l-15.039-51.75Z" transform="translate(-369.267 -1491.81)" fill="#1e1242"/><path d="M510.149,1510.035l-5.3-18.225-26.916,8.708q-2.019,2-4.186,3.972l-10.871,31.295C475.19,1531.7,493.764,1523.858,510.149,1510.035Z" transform="translate(-369.949 -1491.81)" fill="#292669"/><rect width="168.519" height="15.038" rx="4.155" transform="translate(0 49.538)" fill="#292669"/></g><g transform="translate(0 33.612)"><path d="M449.9,1343.195s34.091,27.836,20.643,60.05-54.42,61.3-124.478,44.412l-9.7,12.2s54.734,37.219,108.215,16.264,94.766-95.391,52.23-178.585S449.9,1343.195,449.9,1343.195Z" transform="translate(-302.315 -1269.556)" fill="#1e1242"/><g transform="translate(0 112.978)"><g transform="translate(0 18.732)"><path d="M326.592,1498.035a3.318,3.318,0,0,1-4.692,0l-27.21-27.211a3.317,3.317,0,0,1,0-4.691l30.65-30.651a3.317,3.317,0,0,1,4.692,0l27.21,27.21a3.319,3.319,0,0,1,0,4.692Z" transform="translate(-293.719 -1434.511)" fill="#292669"/><path d="M358.761,1472.545l5.161-5.16a3.319,3.319,0,0,0,0-4.692l-27.21-27.21a3.317,3.317,0,0,0-4.692,0l-5.16,5.16Z" transform="translate(-300.399 -1434.511)" fill="#1e1242"/></g><rect width="7.077" height="90.009" rx="3.538" transform="translate(14.733 5.004) rotate(-45)" fill="#292669"/></g></g><g transform="translate(63.141)"><path d="M394.318,1390.861a2.746,2.746,0,0,1-3.885,0L373.6,1374.03a2.746,2.746,0,0,1,0-3.884l133.227-133.89a2.746,2.746,0,0,1,3.885,0l16.831,16.831a2.746,2.746,0,0,1,0,3.884Z" transform="translate(-372.798 -1229.07)" fill="#1e1242"/><path d="M555.214,1261.891l4.92-4.92a2.746,2.746,0,0,0,0-3.884L543.3,1236.256a2.746,2.746,0,0,0-3.885,0l-4.92,4.919Z" transform="translate(-405.387 -1229.07)" fill="#292669"/><rect width="8.789" height="39.184" rx="3.44" transform="matrix(0.707, -0.707, 0.707, 0.707, 128.399, 6.215)" fill="#1e1242"/><path d="M412.531,1389.084a6.634,6.634,0,0,1-9.383,0L379.066,1365a6.635,6.635,0,0,1,0-9.383L487.28,1247.4a6.633,6.633,0,0,1,9.383,0l24.082,24.082a6.635,6.635,0,0,1,0,9.383Z" transform="translate(-373.669 -1231.087)" fill="#292669"/><g transform="translate(83.43 59.01)"><circle cx="23.221" cy="23.221" r="23.221" transform="translate(0 3.127)" fill="#1e1242"/><circle cx="23.221" cy="23.221" r="23.221" transform="translate(1.877)" fill="#2ca5c6"/></g></g></g></g></g></svg>