<svg xmlns="http://www.w3.org/2000/svg" width="38.231" height="67.588" viewBox="0 0 38.231 67.588"><g transform="translate(-846.428 -254.718)"><path d="M847.139,257.084c.935,3.08,2.909,3.658,5.613,5.333,3.333,2.065,6.619,4.223,9.88,6.4,6.5,4.347,12.694,9.034,19.625,12.7,1.238.654,3.122-.791,2.117-2.116-4.691-6.185-10.52-10.924-16.905-15.274-3.5-2.383-7.082-4.585-10.784-6.64-2.847-1.58-5.062-3.445-8.343-2.518a1.746,1.746,0,0,0-1.2,2.119Z" fill="#e73555"/><g transform="translate(7.827 3)"><path d="M841.231,292.344c11.021.781,23.168.577,33.941-1.939,2.165-.505,2.259-4.029,0-4.475-11.1-2.188-23.617-1.268-34.651,1.165-3.089.681-2.157,5.045.71,5.249Z" fill="#e73555"/></g><path d="M849.011,322.069A74.57,74.57,0,0,0,877.634,304.2a1.842,1.842,0,0,0-1.778-3.055,117.374,117.374,0,0,0-30.1,13.218c-3.891,2.447-1.456,9.3,3.251,7.711Z" transform="translate(6.51)" fill="#e73555"/></g></svg>