<svg xmlns="http://www.w3.org/2000/svg" xmlns:xlink="http://www.w3.org/1999/xlink" width="250" height="74.436" viewBox="0 0 250 74.436"><defs><clipPath id="a"><path d="M186.191,701.814c-14.943,3.571-40.78,16.58-39.984,37.258.694,18.057,21.259,30.54,37.258,33.4,3.468.62,22.022,3.932,34.077-7.724,17.04-16.476,10.59-52.7-7.724-62.248C201.494,698.157,192.565,700.291,186.191,701.814Z" transform="translate(-146.189 -699.924)" fill="none"/></clipPath></defs><g transform="translate(-2269.865 -2185.782)"><rect width="224.365" height="56.614" rx="28.307" transform="translate(2295.5 2194.693)" fill="#ece768"/><text transform="translate(2361 2206)" fill="rgba(0,0,0,0.87)" font-size="16" font-family="Rubik-Bold, Rubik" font-weight="700"><tspan x="0" y="15">Ayudanos a </tspan><tspan x="0" y="31">seguir creciendo</tspan></text><g transform="translate(2123.675 1485.858)"><path d="M186.191,701.814c-14.943,3.571-40.78,16.58-39.984,37.258.694,18.057,21.259,30.54,37.258,33.4,3.468.62,22.022,3.932,34.077-7.724,17.04-16.476,10.59-52.7-7.724-62.248C201.494,698.157,192.565,700.291,186.191,701.814Z" transform="translate(0)" fill="#292669"/><path d="M227.449,766c0,16.386-26.872,36.474-47.709,28.852-19.856-7.263-25.06-36.336-21.81-38.394,2.5-1.584,8.76,13.638,21.789,14.872,17.491,1.657,28.363-23.68,39.778-19.643C224.84,753.576,227.449,760.892,227.449,766Z" transform="translate(-4.681 -22.156)" fill="#ffc7c6"/><g transform="translate(146.189 699.924)"><g clip-path="url(#a)"><g transform="translate(21.143 -4.142)"><g transform="translate(21.592 11.206)"><path d="M221.384,712.989s9.547,16.715,10.873,13.339C233.87,722.22,221.932,709.365,221.384,712.989Z" transform="translate(-221.384 -712.352)" fill="#2ca5c6"/></g><g transform="translate(21.933)"><path d="M232.656,717.176a6.272,6.272,0,0,0-.909-3.345,33.422,33.422,0,0,0-5.7-7.272,11.244,11.244,0,0,0-4.064-2.639L222,703.9c.17-.178,9.608-9.524,11.5-11.253,9.354-.356,10.973,7.582,17.344,8.209a13.936,13.936,0,0,1,9.568,5.064c-7.677,6.032-28.173,12.346-28.173,12.346a2.089,2.089,0,0,0,.135-.206,2.239,2.239,0,0,0,.275-.866Z" transform="translate(-221.983 -692.636)" fill="#40bedb"/></g><g transform="translate(0 12.216)"><g transform="translate(2.798 5.172)"><path d="M196.1,723.23s-7.179.12-7.646.8c-.9,1.31,2.717,1.31,2.717,1.31Z" transform="translate(-188.315 -723.23)" fill="#ee9681"/></g><g transform="translate(6.51)"><path d="M210.269,714.164c-2.23,1.175-3.858,1.869-5.394,2.652-3.789,1.934-10.378,6.871-10.014,10.6s5.031,7.915,6.407,6.849-1.489-6.275-.951-7.475,7.458-1.184,7.682-.251-4.714,4.807-3.094,6.545c0,0,.91.976,3.619-1.244,1.467-1.2,4.433-2.264,6.764-4.814a21.424,21.424,0,0,0,2.691-3.236C218.679,722.386,211.491,713.52,210.269,714.164Z" transform="translate(-194.847 -714.13)" fill="#f8c6a3"/></g><g transform="translate(2.042 3.383)"><path d="M200.219,720.082s-8.2,2.481-10.529,5.47-3.471,5.422-2.139,6.289,6.458-4.063,6.458-4.063Z" transform="translate(-186.984 -720.082)" fill="#f8c6a3"/></g><g transform="translate(0 1.489)"><path d="M202.481,716.75c-3.047.943-18.884,7.591-19.074,8.708-.366,2.164,5.607.083,5.607.083Z" transform="translate(-183.392 -716.75)" fill="#f8c6a3"/></g><g transform="translate(5.551 12.367)"><path d="M199.881,742.942s-2.89-2.712-5.716-.342.826,6.125,4.427,7.165,4.605,1.583,5.218,1.223,7.371-10.681,2.819-14.184C203.362,734.291,199.685,737.164,199.881,742.942Z" transform="translate(-193.158 -735.89)" fill="#e73555"/></g><g transform="translate(15.925 11.278)"><path d="M215.15,735.106s-4.071,4.48-3.716,6.3,3.931-.763,8.027-3.468S216.956,732.314,215.15,735.106Z" transform="translate(-211.412 -733.974)" fill="#f8c6a3"/></g><g transform="translate(6.293 8.258)"><path d="M194.7,733.8a.111.111,0,0,1-.107-.081,4.028,4.028,0,0,1,3.224-5.055.111.111,0,1,1,.057.214,3.807,3.807,0,0,0-3.067,4.781.111.111,0,0,1-.107.141Z" transform="translate(-194.464 -728.66)" fill="#ee9681"/></g><g transform="translate(3.156 6.57)"><path d="M189.056,730.168a.113.113,0,0,1-.058-.016.111.111,0,0,1-.036-.153c.061-.1,1.519-2.452,2.716-3.081a21.388,21.388,0,0,1,3.367-1.222.111.111,0,0,1,.059.214,21.62,21.62,0,0,0-3.323,1.2c-1.143.6-2.615,2.976-2.63,3A.111.111,0,0,1,189.056,730.168Z" transform="translate(-188.945 -725.691)" fill="#ee9681"/></g></g><g transform="translate(3.041 29.949)"><path d="M193.732,750.714l-1.442-2.389a.789.789,0,0,0-.957-.329l-2.59.99,2.669-1.567a.5.5,0,0,0,.219-.589l-.51-1.5.942,1.237a.726.726,0,0,0,.746.265l1.412-.34-1.27.757a.517.517,0,0,0-.223.616Z" transform="translate(-188.742 -745.333)" fill="#fff"/></g></g><g transform="translate(17.576 32.219)"><g transform="translate(0.8 0.749)" opacity="0.8"><path d="M209.878,762.122l0,0a.839.839,0,0,1-.248-.593v-2.163a1.429,1.429,0,0,0-1.458-1.429l-21.76.434a1.518,1.518,0,0,0-1.478,1.336s.318,1.711-.086,2.065c-3.463,3.033-6.322,7.871-6.322,12.837,0,6.727,3.587,11.545,8.1,14.813a52.578,52.578,0,0,0,9.879.838,59.38,59.38,0,0,0,11.193-.838c4.514-3.267,8.257-6.78,8.257-14.062C215.952,770.39,213.133,765.377,209.878,762.122Z" transform="translate(-178.524 -757.934)" fill="#acc9c5"/></g><g opacity="0.6"><path d="M210.031,761.051l0,0a.892.892,0,0,1-.261-.628v-2.29a1.507,1.507,0,0,0-1.53-1.513l-22.843.459a1.6,1.6,0,0,0-1.551,1.415s.334,1.812-.091,2.187c-3.636,3.211-6.637,8.335-6.637,13.594a18.21,18.21,0,0,0,5.627,13.24,10.3,10.3,0,0,0,6.108,2.934,65.694,65.694,0,0,0,7.139.4,76.441,76.441,0,0,0,8.514-.418,10.841,10.841,0,0,0,5.887-2.546,15.576,15.576,0,0,0,6.016-12.815C216.408,769.807,213.449,764.5,210.031,761.051Z" transform="translate(-177.116 -756.616)" fill="#bce3f6"/></g><g transform="translate(10.534 30.5)"><ellipse cx="8.903" cy="0.994" rx="8.903" ry="0.994" fill="#8bb2ac"/></g><g transform="translate(7.31 2.453)"><path d="M195.381,762.094c-1.914,0-3.755-.048-5.4-.166l.01-.133c9.191.657,24.424-.848,24.577-.863l.014.132C214.453,761.077,204.156,762.094,195.381,762.094Z" transform="translate(-189.978 -760.932)" fill="#8bb2ac"/></g><g transform="translate(7.315 3.763)"><path d="M200.9,763.886a79.821,79.821,0,0,1-10.915-.518l.023-.131c5.959,1.009,24.31.23,24.495.222l.006.134C214.4,763.6,207.577,763.886,200.9,763.886Z" transform="translate(-189.987 -763.236)" fill="#8bb2ac"/></g><g transform="translate(7.209 1.677)"><path d="M189.8,760.475v-.133c.214,0,21.459-.032,24.611-.776l.031.13C211.275,760.443,190.015,760.475,189.8,760.475Z" transform="translate(-189.8 -759.566)" fill="#8bb2ac"/></g><g transform="translate(3.551 18.514)" opacity="0.7"><path d="M188.944,794.721s-2.213-2.369-4.647-.587.344,5.044,3.228,6.086,3.674,1.54,4.193,1.279,6.59-8.321,3.064-11.424C192.251,787.848,189.094,789.995,188.944,794.721Z" transform="translate(-183.365 -789.192)" fill="#ec6469"/><g transform="translate(8.293 1.046)"><path d="M200.4,792.365a.121.121,0,0,1-.114-.08,1.411,1.411,0,0,0-1.263-1,2.524,2.524,0,0,0-.907.077.12.12,0,0,1-.072-.23c.019-.006,1.894-.567,2.469,1.075a.12.12,0,0,1-.074.153A.108.108,0,0,1,200.4,792.365Z" transform="translate(-197.956 -791.033)" fill="#daebe8"/></g></g><g transform="translate(17.389 17.905)"><path d="M214.777,793.209s.5-4.068-3.2-4.985-4.616,4.423-3.289,8.066,1.483,4.814,2.159,5.106,13.418-.351,13.571-6.289C224.127,790.846,219.485,789.523,214.777,793.209Z" transform="translate(-207.713 -788.12)" fill="#e73555"/><g transform="translate(13.353 4.225)"><path d="M232.27,798.919a.149.149,0,0,1-.078-.022.152.152,0,0,1-.053-.209,1.784,1.784,0,0,0-.051-2.038,3.183,3.183,0,0,0-.81-.818.152.152,0,0,1,.165-.256,3.456,3.456,0,0,1,.9.9,2.094,2.094,0,0,1,.059,2.363A.152.152,0,0,1,232.27,798.919Z" transform="translate(-231.208 -795.553)" fill="#daebe8"/></g></g><g transform="translate(10.534 23.339)"><path d="M198.292,802.291a2.275,2.275,0,0,0-2.571,1.5c-.538,1.841,2.126,2.41,3.983,1.82s2.449-.645,2.61-.978.1-6.748-2.877-6.948C197.3,797.544,196.538,799.849,198.292,802.291Z" transform="translate(-195.65 -797.682)" fill="#ec6469"/><g transform="translate(2.34 0.707)"><path d="M199.845,799.654a.076.076,0,0,1-.044-.014.077.077,0,0,1-.018-.107c.007-.01.735-1.019,1.661-.413a.076.076,0,1,1-.084.128.9.9,0,0,0-1.025-.016,1.592,1.592,0,0,0-.428.391A.077.077,0,0,1,199.845,799.654Z" transform="translate(-199.768 -798.926)" fill="#daebe8"/></g></g><g transform="translate(11.287 9.895)"><path d="M200.386,777.283a2.17,2.17,0,0,0-2.8-.473c-1.52,1.018.081,3.065,1.8,3.769s2.187,1.026,2.508.881,4.2-4.875,2.146-6.845C202.564,773.2,200.6,774.422,200.386,777.283Z" transform="translate(-196.976 -774.025)" fill="#e73555"/><g transform="translate(5.162 0.629)"><path d="M207.512,775.982a.074.074,0,0,1-.07-.052.855.855,0,0,0-.736-.639,1.531,1.531,0,0,0-.556.023.073.073,0,1,1-.038-.141c.012,0,1.162-.3,1.469.714a.073.073,0,0,1-.049.091A.066.066,0,0,1,207.512,775.982Z" transform="translate(-206.059 -775.132)" fill="#daebe8"/></g></g><g transform="translate(22.457 5.961)"><path d="M219.4,771.715a2.3,2.3,0,0,0-2.671,1.39c-.634,1.833,2.028,2.54,3.933,2.036s2.505-.53,2.684-.858.439-6.81-2.561-7.159C218.63,766.872,217.748,769.162,219.4,771.715Z" transform="translate(-216.631 -767.105)" fill="#e73555"/><g transform="translate(2.624 0.707)"><path d="M221.325,769.036a.074.074,0,0,1-.047-.016.077.077,0,0,1-.014-.109c.008-.01.793-.993,1.7-.335a.077.077,0,0,1,.017.108.078.078,0,0,1-.108.017.907.907,0,0,0-1.034-.068,1.611,1.611,0,0,0-.451.373A.078.078,0,0,1,221.325,769.036Z" transform="translate(-221.248 -768.349)" fill="#daebe8"/></g></g><g transform="translate(3.552 15.272)"><path d="M185.562,785.359a1.277,1.277,0,0,0-.165-1.664c-.814-.705-1.728.521-1.861,1.607s-.244,1.4-.111,1.561,3.42,1.631,4.219.157C188.217,785.962,187.219,785.035,185.562,785.359Z" transform="translate(-183.365 -783.487)" fill="#ec6469"/><g transform="translate(3.702 2.475)"><path d="M189.922,788.813a.043.043,0,0,1-.023-.079.5.5,0,0,0,.248-.519.891.891,0,0,0-.1-.309.043.043,0,0,1,.016-.058.042.042,0,0,1,.059.015c0,.006.348.614-.178.944A.04.04,0,0,1,189.922,788.813Z" transform="translate(-189.88 -787.841)" fill="#daebe8"/></g></g><g transform="translate(29.317 13.165)"><path d="M229.922,779.78l.885,2.456a.738.738,0,0,0,.818.478l2.559-.434-2.736.948a.466.466,0,0,0-.309.5l.194,1.466-.638-1.308a.678.678,0,0,0-.636-.38l-1.358.053,1.3-.462a.483.483,0,0,0,.317-.524Z" transform="translate(-228.7 -779.78)" fill="#def1f8"/></g><g transform="translate(10.206 9.895)"><path d="M198.7,774.026l-1.236,2.3a.739.739,0,0,0,.191.928l2.032,1.613-2.534-1.4a.466.466,0,0,0-.579.1l-.962,1.124.547-1.349a.678.678,0,0,0-.142-.727l-.946-.975,1.215.662a.483.483,0,0,0,.6-.114Z" transform="translate(-195.074 -774.026)" fill="#def1f8"/></g><g transform="translate(19.317 6.624)"><path d="M213.439,768.27l-.8,1.48a.476.476,0,0,0,.123.6l1.307,1.038-1.63-.9a.3.3,0,0,0-.372.068l-.618.723.351-.868a.435.435,0,0,0-.091-.468l-.609-.627.781.426a.311.311,0,0,0,.387-.074Z" transform="translate(-211.105 -768.27)" fill="#def1f8"/></g><g transform="translate(6.508 5.961)"><path d="M190.9,767.1l-.8,1.479a.475.475,0,0,0,.123.6l1.307,1.038-1.63-.9a.3.3,0,0,0-.372.068l-.618.723.352-.867a.436.436,0,0,0-.091-.468l-.609-.627.781.426a.31.31,0,0,0,.387-.073Z" transform="translate(-188.568 -767.105)" fill="#def1f8"/></g><g transform="translate(4.6 21.296)"><path d="M187.545,794.087l-.8,1.479a.475.475,0,0,0,.123.6l1.307,1.038-1.63-.9a.3.3,0,0,0-.372.067l-.618.723.351-.867a.435.435,0,0,0-.091-.468l-.609-.627.782.426a.31.31,0,0,0,.387-.073Z" transform="translate(-185.21 -794.087)" fill="#def1f8"/></g><g transform="translate(8.32 30.389)"><path d="M203.975,814.016c-3.607,0-7.068-.215-8.252-.318a13.532,13.532,0,0,1-3.9-1.022.111.111,0,0,1,.093-.2,13.3,13.3,0,0,0,3.829,1c1.98.171,10.34.659,15.064-.078a10.918,10.918,0,0,0,6.67-3.271.111.111,0,0,1,.174.138,7.551,7.551,0,0,1-1.631,1.4,12.8,12.8,0,0,1-5.179,1.949A47.944,47.944,0,0,1,203.975,814.016Z" transform="translate(-191.756 -810.087)" fill="#bce3f6"/></g><g transform="translate(2.18 26.443)"><path d="M185.2,808.425a.109.109,0,0,1-.065-.022,19.457,19.457,0,0,1-4.168-5.094.111.111,0,0,1,.194-.11,19.2,19.2,0,0,0,4.1,5.024.111.111,0,0,1-.065.2Z" transform="translate(-180.952 -803.143)" fill="#bce3f6"/></g></g></g></g><path d="M262.357,748.407a3.939,3.939,0,0,1,4.214-1.868,4.1,4.1,0,0,1,2.49,5.508,4.173,4.173,0,0,1-6.274,1.1A3.95,3.95,0,0,1,262.357,748.407Z" transform="translate(-49.892 -20.077)" fill="#fdc331"/><path d="M244.737,725.477a1.97,1.97,0,0,1,2.107-.934,2.048,2.048,0,0,1,1.245,2.754,2.087,2.087,0,0,1-3.137.551A1.976,1.976,0,0,1,244.737,725.477Z" transform="translate(-42.413 -10.604)" fill="#fdc331"/></g></g></svg>