<svg xmlns="http://www.w3.org/2000/svg" xmlns:xlink="http://www.w3.org/1999/xlink" width="444" height="466.565" viewBox="0 0 444 466.565"><defs><clipPath id="a"><path d="M469.408,368.681c.718,8.138,1.8,25.251-.957,31.833a10.775,10.775,0,0,1-8.976,6.822v9.693s-8.5,4.907-19.028-1.436l-.786-26s-2.026-18.1.786-20.91S454.09,356.354,469.408,368.681Z" fill="#f8c6a3"/></clipPath><clipPath id="b"><path d="M662.1,313.4c-2,7.055-3.77,18.824-.461,28.048,2.753,7.676,10.732,7.45,10.732,7.45l.067,9.14s4.048,7.532,15.477-.221l.719-30.649s4-10.206,1.366-12.991S677.186,301.936,662.1,313.4Z" fill="#f8c6a3"/></clipPath></defs><g transform="translate(-369.029 -223.353)"><path d="M473.307,272.14c-40.163,24.729-86.983,77.375-77.686,122.87,5.429,26.569,27.238,37.194,22.988,61.039-4.693,26.332-33.94,28.253-45.184,51.526-18.9,39.127,26.012,111.837,80.064,148.237,73.181,49.283,183.095,45.466,254.46-13.476,64.427-53.212,98.8-152.478,67.38-193.422-22.007-28.679-62.168-10.334-88.783-43.6-31.97-39.956,8.851-87.826-18.233-126.833C637.193,233.661,538.332,232.1,473.307,272.14Z" fill="#fdc331"/><path d="M593.246,383.638c-33.822-28.726-85.5-10.212-92.688,33.354q-.155.939-.3,1.9c-9.383,63.8,73.487,148.879,165.492,122.106S805.642,416.137,782.811,373.139s-66.138-31.911-112.452,15.988C644.193,416.189,614.3,401.521,593.246,383.638Z" fill="#292669"/><path d="M401.055,493.106c28.836-64.453,111.336-91.1,159.523-70.585,28.978,12.339,24.3,32.689,55.057,53.645,69.534,47.38,155.651-14.262,180.7,17.646,23.186,29.538-16.191,126.212-81.173,148.935-52.739,18.443-79.65-26.754-165.876-16.94-62.488,7.112-78.639,34.3-108.7,21.175C398.637,628.676,374.862,551.653,401.055,493.106Z" fill="#fff0f0"/><path d="M560.618,242.97c8.539-14.165,25.966-22.715,41.9-18.568,22.237,5.788,34.749,34.54,24.757,54.751-10.879,22.007-45.342,27.622-62.368,10.95C553.087,278.533,551.527,258.049,560.618,242.97Z" fill="#e73555"/><path d="M728.208,629.2s-8.063-11.315-13.56-29.172c-6.376-20.707-2.55-53.909,9.137-70.03s26.139-22.912,38.039-15.8,4.51,21.588-2.032,29.679-33.635,46.056-22.495,85.167" fill="none" stroke="#f99898" stroke-linecap="round" stroke-linejoin="round" stroke-width="1"/><path d="M758.077,517.486c-7.053,3.1-25.579,21.555-32.167,43.691-9.46,31.791,7.119,68.019,7.119,68.019" fill="none" stroke="#f99898" stroke-linecap="round" stroke-linejoin="round" stroke-width="1"/><line x1="15.643" y1="1.616" transform="translate(748.018 525.469)" fill="none" stroke="#f99898" stroke-linecap="round" stroke-linejoin="round" stroke-width="1"/><line x1="16.3" y1="1.146" transform="translate(739.862 534.974)" fill="none" stroke="#f99898" stroke-linecap="round" stroke-linejoin="round" stroke-width="1"/><line x1="16.827" y1="1.734" transform="translate(734.367 543.24)" fill="none" stroke="#f99898" stroke-linecap="round" stroke-linejoin="round" stroke-width="1"/><line x2="18.136" y2="0.35" transform="translate(729.022 552.786)" fill="none" stroke="#f99898" stroke-linecap="round" stroke-linejoin="round" stroke-width="1"/><line x2="17.017" transform="translate(725.669 562.016)" fill="none" stroke="#f99898" stroke-linecap="round" stroke-linejoin="round" stroke-width="1"/><line x2="15.31" transform="translate(723.673 573.341)" fill="none" stroke="#f99898" stroke-linecap="round" stroke-linejoin="round" stroke-width="1"/><line y1="0.792" x2="12.093" transform="translate(722.945 581.719)" fill="none" stroke="#f99898" stroke-linecap="round" stroke-linejoin="round" stroke-width="1"/><line y1="1.724" x2="9.356" transform="translate(723.673 592.311)" fill="none" stroke="#f99898" stroke-linecap="round" stroke-linejoin="round" stroke-width="1"/><line y1="2.354" x2="7.884" transform="translate(725.145 601.083)" fill="none" stroke="#f99898" stroke-linecap="round" stroke-linejoin="round" stroke-width="1"/><line x1="8.244" y1="3.167" transform="translate(716.165 596.18)" fill="none" stroke="#f99898" stroke-linecap="round" stroke-linejoin="round" stroke-width="1"/><line x1="8.578" y1="3.376" transform="translate(714.558 584.301)" fill="none" stroke="#f99898" stroke-linecap="round" stroke-linejoin="round" stroke-width="1"/><line x1="7.921" y1="3.731" transform="translate(715.214 573.209)" fill="none" stroke="#f99898" stroke-linecap="round" stroke-linejoin="round" stroke-width="1"/><line x1="7.892" y1="5.534" transform="translate(716.845 560.553)" fill="none" stroke="#f99898" stroke-linecap="round" stroke-linejoin="round" stroke-width="1"/><line x1="4.858" y1="8.843" transform="translate(738.983 520.952)" fill="none" stroke="#f99898" stroke-linecap="round" stroke-linejoin="round" stroke-width="1"/><line x1="6.35" y1="10.638" transform="translate(730.383 528.378)" fill="none" stroke="#f99898" stroke-linecap="round" stroke-linejoin="round" stroke-width="1"/><line x1="8.007" y1="9.215" transform="translate(723.673 538.127)" fill="none" stroke="#f99898" stroke-linecap="round" stroke-linejoin="round" stroke-width="1"/><line x1="8.215" y1="8.101" transform="translate(719.174 548.681)" fill="none" stroke="#f99898" stroke-linecap="round" stroke-linejoin="round" stroke-width="1"/><line x1="2.369" y1="5.53" transform="translate(750.465 515.422)" fill="none" stroke="#f99898" stroke-linecap="round" stroke-linejoin="round" stroke-width="1"/><path d="M752.042,629.568c12.637,0,36.748-1.557,46.825-20.716s12.955-53.7,14.035-60.54-4.679-8.348-19.433-9.215-40.05,7.022-54.393,27.729S725.731,623.02,752.042,629.568Z" fill="#ffc7c6"/><path d="M807.144,544.845c-23.021,5.676-50.176,37.915-58.682,83.6" fill="none" stroke="#fff" stroke-linecap="round" stroke-miterlimit="10" stroke-width="1"/><line x1="21.384" y1="2.28" transform="translate(787.458 555.472)" fill="none" stroke="#fff" stroke-linecap="round" stroke-miterlimit="10" stroke-width="1"/><line x2="2.882" y2="16.162" transform="translate(777.756 545.651)" fill="none" stroke="#fff" stroke-linecap="round" stroke-miterlimit="10" stroke-width="1"/><line x2="8.203" y2="23.229" transform="translate(759.124 555.799)" fill="none" stroke="#fff" stroke-linecap="round" stroke-miterlimit="10" stroke-width="1"/><line x1="28.678" y1="2.007" transform="translate(773.413 570.29)" fill="none" stroke="#fff" stroke-linecap="round" stroke-miterlimit="10" stroke-width="1"/><line x2="11.522" y2="23.015" transform="translate(746.232 573.209)" fill="none" stroke="#fff" stroke-linecap="round" stroke-miterlimit="10" stroke-width="1"/><line x1="33.872" y1="3.208" transform="translate(762.451 588.571)" fill="none" stroke="#fff" stroke-linecap="round" stroke-miterlimit="10" stroke-width="1"/><line x1="33.991" y1="1.847" transform="translate(753.467 608.794)" fill="none" stroke="#fff" stroke-linecap="round" stroke-miterlimit="10" stroke-width="1"/><line x2="15.01" y2="25.357" transform="translate(736.872 588.647)" fill="none" stroke="#fff" stroke-linecap="round" stroke-miterlimit="10" stroke-width="1"/><path d="M666.723,356.964c-8.493,2.776-11.7,36.058-17.234,42.342s-21.923,17.721-21.923,17.721l3.8,12.609s25.139-13.655,28.424-16.741,11.618-24.415,11.618-24.415Z" fill="#ee9681"/><path d="M614.072,422.114c-.017.084-.093.248-.442.4-2.5,1.1-5.148.612-7.873.319-2.75-.3-5-.444-7.519-.674-3.637-.332-3.314,4.794-1.654,7.1,2.355,3.275,6.5,4.96,10.3,5.894,7.79,1.914,17.548-.813,24.486-5.522,0,0-3.8-12.592-3.8-12.609a8.737,8.737,0,0,1-4.032,2.042,15.825,15.825,0,0,1-3.293-1.166" fill="#ee9681"/><path d="M426.8,627.91c-7.836,0-23.187,2.955-36.324-10.067s-15.007-45.531-10.4-54.857c3.219-6.516,40.323.467,52.73,16.042S445.066,620.528,426.8,627.91Z" fill="#ffc7c6"/><path d="M386.649,564.863c14.05,6.4,40.424,31.018,43.932,57.657" fill="none" stroke="#fff" stroke-linecap="round" stroke-miterlimit="10" stroke-width="1"/><line y1="0.843" x2="17.973" transform="translate(384.825 576.097)" fill="none" stroke="#fff" stroke-linecap="round" stroke-miterlimit="10" stroke-width="1"/><line y2="12.5" transform="translate(409.615 570.29)" fill="none" stroke="#fff" stroke-linecap="round" stroke-miterlimit="10" stroke-width="1"/><line y1="3.014" x2="28.021" transform="translate(386.649 588.647)" fill="none" stroke="#fff" stroke-linecap="round" stroke-miterlimit="10" stroke-width="1"/><line x1="1.071" y2="18.772" transform="translate(421.37 579.028)" fill="none" stroke="#fff" stroke-linecap="round" stroke-miterlimit="10" stroke-width="1"/><line y1="3.246" x2="32.707" transform="translate(391.941 604.038)" fill="none" stroke="#fff" stroke-linecap="round" stroke-miterlimit="10" stroke-width="1"/><path d="M576.134,622.2h0a1.94,1.94,0,0,0,1.939-1.94V332.082a1.94,1.94,0,0,0-1.939-1.94h0a1.94,1.94,0,0,0-1.94,1.94V620.256A1.94,1.94,0,0,0,576.134,622.2Z" fill="#bce3f6"/><path d="M607.1,346.642H546.262a1.939,1.939,0,0,1-1.939-1.939h0a1.939,1.939,0,0,1,1.939-1.94H607.3" fill="#bce3f6"/><path d="M540.595,620.765a1.942,1.942,0,0,0,1.942-1.942v-2.338l34.1-9.067a1.942,1.942,0,0,0-1-3.753L540.1,613.116a1.942,1.942,0,0,0-1.443,1.876v3.831A1.942,1.942,0,0,0,540.595,620.765Z" fill="#bce3f6"/><path d="M611.672,620.765a1.942,1.942,0,0,0,1.942-1.942v-3.831a1.942,1.942,0,0,0-1.442-1.876l-35.539-9.451a1.942,1.942,0,0,0-1,3.753l34.1,9.067v2.338A1.943,1.943,0,0,0,611.672,620.765Z" fill="#bce3f6"/><circle cx="5.458" cy="5.458" r="5.458" transform="translate(570.676 618.237)" fill="#517cc5"/><path d="M535.137,623.694a5.458,5.458,0,1,0,5.458-5.457A5.458,5.458,0,0,0,535.137,623.694Z" fill="#517cc5"/><path d="M617.31,623.694a5.457,5.457,0,1,1-5.458-5.457A5.457,5.457,0,0,1,617.31,623.694Z" fill="#517cc5"/><path d="M595.106,397.222l-.378,2.021a.947.947,0,0,1-1.062.765,1.312,1.312,0,0,0-1.545,1.066l-1.015,7.187a1.274,1.274,0,0,0,1.031,1.431l4.018.737a1.274,1.274,0,0,0,1.474-.98l1.545-7.062a1.273,1.273,0,0,0-1.007-1.523l-.36-.069a.947.947,0,0,1-.754-1.1l.243-1.305a1.2,1.2,0,0,1,1.517-.948q1.029.261,2.158.465a1.224,1.224,0,0,1,1.021,1.235l-.38,10.979a1.619,1.619,0,0,0,1.736,1.861,1.717,1.717,0,0,0,1.862-1.737l.366-10.574a1.21,1.21,0,0,1,1.237-1.175c.4.013.812.021,1.231.021a39.925,39.925,0,0,0,6.241-.467c.385-.06.9-.16,1.378-.258a1.213,1.213,0,0,1,1.548.83c.1.621.176,1.124.176,1.124a1.019,1.019,0,0,1-.805,1.156,1.41,1.41,0,0,0-1.184,1.634l1.544,7.654a1.371,1.371,0,0,0,1.559,1.083l4.339-.691a1.37,1.37,0,0,0,1.144-1.523l-.961-7.716a1.37,1.37,0,0,0-1.567-1.185l-.389.06a1.021,1.021,0,0,1-1.162-.851l-.251-1.605a1.228,1.228,0,0,1,.783-1.323c6.281-2.462,8.8-6.49,8.655-8.557-.221-3.1-1.551-23.263-2.437-30.8s-2.437-9.527-4.874-10.459-4.874-1.5-6.647-3.772-3.1-4.283-7.09-4.283-5.317,2.017-7.089,4.283-4.21,2.84-6.647,3.772-3.988,2.926-4.874,10.459-2.216,27.694-2.437,30.8c-.138,1.922,2.044,5.536,7.4,8.014A1.228,1.228,0,0,1,595.106,397.222Zm10.514-52.407a2.424,2.424,0,1,1,2.424,2.424A2.425,2.425,0,0,1,605.62,344.815Z" fill="#def1f8"/><path d="M591.938,363.355c.552-9.081.981-13.948,5.419-13.805s14.6.28,17.75,0,6.948-.041,7.664,2.393,1.51,10.957,1.647,14.59-10.105,4.817-18.8,4.941S591.938,363.355,591.938,363.355Z" fill="#bce3f6"/><path d="M624.418,366.53c.58,7.1,1.157,15.51,1.433,19.52l.141,1.984c-.135,1.625-4.764,7.372-17.948,7.372s-17.812-5.747-17.948-7.306l.142-2.05c.318-4.63,1.039-15.121,1.7-22.695,0,0,1.631-1.073,5.9,0s8.61,3.187,18.742,2.292C622.829,365.094,624.418,366.53,624.418,366.53Z" fill="#ec6469"/><line y1="7.961" x2="0.284" transform="translate(603.71 393.965)" fill="none" stroke="#ec6469" stroke-linecap="round" stroke-miterlimit="10" stroke-width="1"/><path d="M553.738,539.793c20.935-.626,36.274-13.484,44.676-32.064,9.589-21.205,11.6-45.584,12.365-68.556.462-13.884.238-27.781-.184-41.663" fill="none" stroke="#def1f8" stroke-linecap="round" stroke-miterlimit="10" stroke-width="2"/><path d="M610.449,393.544c.681,25.212,1.151,52.478-1.849,75.864-2.645,20.616-8.243,44.119-24.32,58.651-8.431,7.62-19.27,11.4-30.553,11.734" fill="none" stroke="#ec6469" stroke-linecap="round" stroke-miterlimit="10" stroke-width="1"/><path d="M590.1,388.1l.142-2.05c.044-.632.1-1.381.152-2.209-.465,6.606,9.7,8.477,19.531,5.895,9.352-2.454,7.587-9.928,6.546-24.081.038,0,.072-.005.11-.008,6.252-.553,7.841.883,7.841.883.58,7.1,1.157,15.51,1.433,19.52l.141,1.984c-.135,1.625-4.764,7.372-17.948,7.372S590.232,389.659,590.1,388.1Z" fill="#e73555"/><path d="M596.963,383.336a104.146,104.146,0,0,0,22.091-.008.631.631,0,0,0,.567-.625v-5.455a.629.629,0,0,0-.6-.627q-11.012-.54-22.021,0a.629.629,0,0,0-.6.627v5.462A.63.63,0,0,0,596.963,383.336Z" fill="#f0faff"/><path d="M597.47,351.964c6.844-.319,11.585-.365,11.677,1s-9.214,1.733-12.133,4.835-2.92,2.007-2.92,0S594.629,352.1,597.47,351.964Z" fill="#def1f8"/><path d="M620.241,417.9l-8.691-3.053a2,2,0,0,0-1.395-.136c-2.079.85-.291,3.437.7,4.344a31.291,31.291,0,0,1,3.059,2.775c.054.067.172.2.155.281" fill="#ee9681"/><path d="M540.936,464.7a9.185,9.185,0,0,0,7.849-3.073,19.763,19.763,0,0,0,2.444-4.83,3.953,3.953,0,0,1,.935-1.475,2,2,0,0,1,1.6-.446,1.162,1.162,0,0,1,.85.522,1.631,1.631,0,0,1,.06,1.058c-.544,3.256-.874,7.416-3.349,9.8a16.27,16.27,0,0,1-7.779,3.986" fill="#e76266"/><path d="M552.718,454.3a10.932,10.932,0,1,1-10.932-10.932A10.933,10.933,0,0,1,552.718,454.3Z" fill="#e73555"/><path d="M541.785,443.367a10.924,10.924,0,0,0-10.588,8.258,9.252,9.252,0,1,0,16.446-6.546A10.876,10.876,0,0,0,541.785,443.367Z" fill="#ec6469"/><path d="M487.984,467.614c-7.587,0-12.561,5.425-8.019,10.318,3.934,4.238,20.275,4.812,31.472,4.812s26.5.152,36.325-2.42,9.673-10.9,2.713-11.651S487.984,467.614,487.984,467.614Z" fill="#e73555"/><path d="M542.215,471.331c-1.787.269-3.885.483-6.362.641-8.491.539-13.9.327-27.377.371-11.725.039-18.044-.509-19.682-1.444-3.171-1.811-11.427-12.538-13.4-15.428-2.88-4.221-9.611-36.1-9.611-36.1l4.709-4.135c6.006,2.413,7.738,4.317,9.692,8.627,4.338,9.565,13.022,30.931,13.869,31.869a5.05,5.05,0,0,0,3.464,2.226c3.4.46,24.859,2.6,27.418,2.556,3.552-.064,2.464-.516,4.2-2.307a3.3,3.3,0,0,1,2.03-1.263,11.114,11.114,0,0,0,8.693,7.706" fill="#ee9681"/><path d="M466.974,414.021c4.182.493,9.989,2.429,12.616,6.3S490.964,445.9,490.964,445.9s-4.737,4.286-14.969,5.115Z" fill="#2ca5c6"/><path d="M500.363,458.974l-2.723,5.968,3.4.29,2.568-5.91Z" fill="#f0faff"/><path d="M542.215,471.331a10.136,10.136,0,0,0,7.158-4.91c1.973-3.347,3.142-8.016,2.017-9.829-1.389-2.239-1.938-.28-2.638,1.115s-2.861,8.106-11.169,6.282Z" fill="#ee9681"/><path d="M508.068,462.733c.863,25.874-20.457,48.155-46.8,46.185" fill="none" stroke="#def1f8" stroke-linecap="round" stroke-miterlimit="10" stroke-width="2"/><path d="M461.27,508.918c15.654.786,29.477-5.894,38.664-18.9a40.633,40.633,0,0,0,6.805-14.782,55.378,55.378,0,0,0,1.329-12.507l-11.658-1.214" fill="none" stroke="#ec6469" stroke-linecap="round" stroke-miterlimit="10" stroke-width="1"/><path d="M452.2,590.914v-.126a4.21,4.21,0,0,1,4.21-4.21h0a4.21,4.21,0,0,0,4.21-4.21v-.127a4.21,4.21,0,0,1,4.211-4.21h48.8a4.21,4.21,0,0,1,4.21,4.21v.127a4.21,4.21,0,0,0,4.21,4.21h0a4.21,4.21,0,0,1,4.21,4.21v.126a4.21,4.21,0,0,1-4.21,4.211h0a4.21,4.21,0,0,0-4.21,4.21v.126a4.21,4.21,0,0,0,4.21,4.21h0a4.21,4.21,0,0,1,4.21,4.21v.127a4.21,4.21,0,0,1-4.21,4.21h0a4.21,4.21,0,0,0-4.21,4.21v.126a4.21,4.21,0,0,1-4.21,4.211h-48.8a4.211,4.211,0,0,1-4.211-4.211v-.126a4.21,4.21,0,0,0-4.21-4.21h0a4.21,4.21,0,0,1-4.21-4.21v-.127a4.21,4.21,0,0,1,4.21-4.21h0a4.21,4.21,0,0,0,4.21-4.21v-.126a4.209,4.209,0,0,0-4.21-4.21h0A4.21,4.21,0,0,1,452.2,590.914Z" fill="#292669"/><path d="M522.054,603.671H456.409a4.21,4.21,0,0,0,4.21-4.21v-.126a4.209,4.209,0,0,0-4.21-4.21h65.645a4.21,4.21,0,0,0-4.21,4.21v.126A4.21,4.21,0,0,0,522.054,603.671Z" fill="#1e1242"/><path d="M456.409,586.578a4.21,4.21,0,0,0,4.21-4.21v-.127a4.209,4.209,0,0,1,4.182-4.207h48.861a4.209,4.209,0,0,1,4.182,4.207v.127a4.21,4.21,0,0,0,4.21,4.21c.01,0,.019,0,.028,0H456.409Z" fill="#1e1242"/><path d="M517.844,616.428v.126a4.21,4.21,0,0,1-4.21,4.211h-48.8a4.211,4.211,0,0,1-4.211-4.211v-.126a4.21,4.21,0,0,0-4.21-4.21h65.645A4.21,4.21,0,0,0,517.844,616.428Z" fill="#1e1242"/><path d="M456.123,619.962h66.218a9.936,9.936,0,0,1,9.412,6.752h0A1.846,1.846,0,0,1,530,629.152H448.459a1.846,1.846,0,0,1-1.749-2.438h0A9.937,9.937,0,0,1,456.123,619.962Z" fill="#bce3f6"/><path d="M455.122,625.807H507.67a2.923,2.923,0,0,0,2.922-2.923h0a2.922,2.922,0,0,0-2.922-2.922H455.122a2.923,2.923,0,0,0-2.923,2.922h0A2.923,2.923,0,0,0,455.122,625.807Z" fill="#def1f8"/><path d="M513.25,580.5c4.158-1.057,23.684-11.11,28.491-16.428l-1.834-20.7H480.728l-57.073,19.9Z" fill="#bce3f6"/><path d="M422.99,559.18c0,8.264-.879,16.957,1.556,19.192s20.746,5.643,39.78,5.643,48.1-.482,50.422-4.7,1.113-31.728,1.113-31.728Z" fill="#def1f8"/><path d="M422.886,565.578c.046-2.082.1-4.254.1-6.4l18.709-2.2,39.029-13.611h55.024l4.418,20.7s-15.895-4.646-22.261-6.495-10.889,1.675-36.969,6.495A198.778,198.778,0,0,1,422.886,565.578Z" fill="#90c8ee"/><path d="M378.276,427.167c4.985-5.985,47.867-21.127,63.873-17.144s32.99,92.131,32.99,92.131-37.41,42.3-62.015,43.758C413.126,544.638,378.276,427.167,378.276,427.167Z" fill="#f9575c"/><path d="M380.684,425.551h0a17.954,17.954,0,0,1,21.864,11.3,538,538,0,0,1,23.269,88.827A17.874,17.874,0,0,1,414.681,545.3l-1.557.61a4.759,4.759,0,0,1-6.339-3.215L377.4,431.339A4.76,4.76,0,0,1,380.684,425.551Z" fill="#e73555"/><path d="M509.455,554.358c4.851-1.575,7.637-3.09,13.227-8.3s30.615-31.428,33.943-34.755.752-18.241-16.129-18.7-59.61.068-73.586,6.857-46.223,40.346-48.981,46.153S509.455,554.358,509.455,554.358Z" fill="#e73555"/><path d="M417.929,545.613c.7-1.466,3.274-4.7,6.959-8.826,15.158-6.192,29.924-6.936,45.373-8.052,17.4-1.258,36.679-2.1,41.081,5.609,3.326,5.823,4.882,12.209,4.7,17.061a27.714,27.714,0,0,1-6.588,2.953S415.171,551.419,417.929,545.613Z" fill="#f9575c"/><path d="M414.014,559.448c-1.653-5.09,1.131-13.08,7.126-17.008s17.722-7.2,41.586-9.11,36.87-2.136,42.288,1.523,6.508,12.276,7.054,14.786-1.091,4.418-4.5,5.509a218.61,218.61,0,0,1-42.4,7.781c-20.864,1.667-36.179,1.363-43.73.011C416.686,562.088,414.46,560.82,414.014,559.448Z" fill="#e73555"/><path d="M572.8,583.766c7.7,3.243,26.233-6.056,34.852-9.931,8.511-3.827,23.466-11.529,25.891-14.991s4.579-14.742-3.638-22.342-37.067-25.2-59.412-25.764-52.484,19.875-55.082,25.764-2.917,9.857-2.065,14.282Z" fill="#f9575c"/><path d="M513.349,550.784c-.278-1.572-.142-7.36,2.722-11.4s9.956-8.673,26.048-.627,29.73,17.381,34.5,22.192,4.364,13.266,2.864,17.9-3.682,5.728-6.683,4.91-51.988-25.807-54.822-27.821C514.912,553.765,513.639,552.419,513.349,550.784Z" fill="#e73555"/><path d="M622.341,535.983l-7.232-6.332-11.49,9.4,6.687,5.366a19.152,19.152,0,0,0,8.182-3.681C622.2,537.735,622.341,535.983,622.341,535.983Z" fill="#ee9681"/><path d="M615.109,529.651l.908.795s-2.705,8.184-9.625,10.827l-2.773-2.226Z" fill="#e76266"/><path d="M608.7,541.368c.421-1.058,2.986,1.126,5.06.9s3.856-.624,4.717-2.478c1.023-2.2.085-3.7-1.168-5.129a4.065,4.065,0,0,1,.47-5.951,2.145,2.145,0,0,1,.937-.4c1.973-.266,2.6,1.531,6.7,1.637,4.6.119,8.454-1.576,12.771-2.635,5.184-1.27,7.737-4.3,10.644-4.414,2.646-.1,4.111.771,5.875,6.206-.742,3.655-4.159,7.125-8.418,9.668-3.875,2.312-9.514,4.684-12.835,6.282s-8.427,8.411-15.734,9.432A48.973,48.973,0,0,1,608.7,541.368Z" fill="#1e1242"/><path d="M497.483,479.077s51.312-2.58,56.214-2.58,7.741.942,11.354,4.213,50.058,48.941,50.058,48.941-2.581,6.967-11.87,11.353l-58.831-44.639L484.995,497.9Z" fill="#1e1242"/><path d="M606.392,539.39l6.665,5.208c.088,8.331-3.8,12.234-9.813,11.311l-7.769-6.392Z" fill="#f8c6a3"/><path d="M606.392,539.39l.731.571s-1.889,7.84-7.932,12.613l-3.716-3.057Z" fill="#ee9681"/><path d="M442.442,506.271c2.346,9.545,7.206,19.013,23.016,19.848s45.328-6.126,55.91-7.518,14.759.557,20.329,3.62,53.745,30.353,53.745,30.353,6.216-3.438,10.95-13.184c0,0-47.43-44.181-54.392-47.523s-10.3-3.62-22-5.012-32.518-2.785-32.518-2.785Z" fill="#292669"/><path d="M601.31,554.4c.2-1.12,3.15.515,5.139-.116s3.657-1.372,4.135-3.36c.568-2.362-.648-3.646-2.158-4.8a4.066,4.066,0,0,1-.712-5.927,2.126,2.126,0,0,1,.84-.572c1.882-.65,2.846.989,6.895.282,4.528-.79,7.976-3.214,12-5.1,4.832-2.268,6.737-5.741,9.564-6.427,2.574-.625,4.182-.056,6.984,4.925-.006,3.728-2.671,7.8-6.345,11.138-3.342,3.032-8.4,6.469-11.343,8.691s-6.6,9.908-13.563,12.351A48.96,48.96,0,0,1,601.31,554.4Z" fill="#292669"/><path d="M459.475,412.279c3.3.7,12.707,2.232,16.767,6.56,2.036,2.171,21.241,68,21.241,68s-8.594,19.434-55.041,19.434L432.05,471.8l-3.776-53.471,12.045-6.966S456.177,411.576,459.475,412.279Z" fill="#40bedb"/><path d="M497.483,486.837s-1.021-3.5-2.614-8.9c-14.833,6.33-48.84,8.215-55.249-16,0,0-6.459,6.389-7.935,4.7l.365,5.168,10.392,34.468C488.889,506.271,497.483,486.837,497.483,486.837Z" fill="#2ca5c6"/><path d="M436.6,391.98l.337,3.948a2.709,2.709,0,0,0,2.987,2.463h0l-.228-7.529Z" fill="#363638"/><path d="M469.408,368.681c.718,8.138,1.8,25.251-.957,31.833a10.775,10.775,0,0,1-8.976,6.822v9.693s-8.5,4.907-19.028-1.436l-.786-26s-2.026-18.1.786-20.91S454.09,356.354,469.408,368.681Z" fill="#f8c6a3"/><g clip-path="url(#a)"><path d="M460.052,408.052c-5.921.73-15.964-1.367-17.61-12.416" fill="none" stroke="#ee9681" stroke-linecap="round" stroke-miterlimit="10" stroke-width="1"/></g><circle cx="4.872" cy="4.872" r="4.872" transform="translate(432.698 382.235)" fill="#f8c6a3"/><path d="M439.122,382.944l.243,3.17h2.98v-6.345a.1.1,0,0,1,.046-.086,5.358,5.358,0,0,0,2.421-4.2c.118-2.878-.646-7.461,1.528-7.695s8.4,5.169,14.862,4.523,9.282-4.054,10.457-6.286,1-4.935,0-4.935a34.746,34.746,0,0,0-5.052,1.117,14.471,14.471,0,0,0,1.762-4.113c.294-1.762-1-1.41-3.7-.587s-13.1,2.174-18.152,3.113-7.637,2.115-9.458,4.289-1.314,11.366-.841,17.52A3.274,3.274,0,0,1,439.122,382.944Z" fill="#363638"/><circle cx="1.414" cy="1.414" r="1.414" transform="translate(452.543 382.427)" fill="#363638"/><circle cx="1.414" cy="1.414" r="1.414" transform="translate(464.145 381.856)" fill="#363638"/><path d="M449.2,380.192a17.05,17.05,0,0,1,7.363-1.353,4.7,4.7,0,0,0-4.024-.936A4.111,4.111,0,0,0,449.2,380.192Z" fill="#363638"/><path d="M442.345,381.261c.1,5.846,2.364,13.848,6.126,14.744s9.08-1.223,12.326-1.371c3.279-.149,8.985.819,9.151-1.642,0,0,.542,6.2-1.295,10.135s-5.512,5.25-10.236,5.775-16.358-.257-18.59-13.821l-.109-3.6-.353-5.363Z" fill="#363638"/><path d="M460.183,400.346a17.052,17.052,0,0,1-7.231-1.94,3.8,3.8,0,0,0,3.034,3.015A4.371,4.371,0,0,0,460.183,400.346Z" fill="#ee9681"/><path d="M463.015,378.127a17.052,17.052,0,0,1,7.478.376,4.7,4.7,0,0,0-3.7-1.836A4.113,4.113,0,0,0,463.015,378.127Z" fill="#363638"/><path d="M460.87,378.839s1.976,13.835,1.9,14.5-2.723,1.3-2.723,1.3" fill="none" stroke="#ee9681" stroke-linecap="round" stroke-miterlimit="10" stroke-width="1"/><path d="M439.945,555.666c-6.455,0-14.345-.162-23.885-4.2a4.062,4.062,0,0,1-2.633-4.821,3.824,3.824,0,0,1,4.821-2.633c10.092,3.5,19.444,4.019,25.484,2.868,4.491-.855,7.011-3.014,8.2-7.2,2.164-7.629,2.8-15.316,2.051-24.925a3.884,3.884,0,1,1,7.745-.6c.819,10.565.1,19.091-2.323,27.645-2.115,7.449-5.432,12.008-13.988,13.421A41.568,41.568,0,0,1,439.945,555.666Z" fill="#bce3f6"/><path d="M453.984,514.754c.146,1.88.239,3.663.278,5.409,2.362.066,4.943.125,7.758.17-.039-1.993-.125-4.035-.291-6.179-.005-.066-.026-.126-.034-.191l-7.673-.082A3.9,3.9,0,0,0,453.984,514.754Z" fill="#90c8ee"/><path d="M435.058,510.09a6.277,6.277,0,0,0,5.257,5.65c3.859.888,12.032,1.367,23.745,1.286A142.515,142.515,0,0,0,486,515.513c3.783-.6,4.232-5.169,4.232-5.169Z" fill="#def1f8"/><path d="M436.816,496.9c-7.587,0-12.56,5.426-8.018,10.319,3.933,4.237,20.274,4.812,31.471,4.812s26.5.151,36.325-2.421,9.673-10.894,2.713-11.651S436.816,496.9,436.816,496.9Z" fill="#fe6061"/><path d="M435.036,497.018c-4.93,1.64-6.731,4.315,3.908,6.367,9.345,1.8,55.329,2.933,65.093-2.248Z" fill="#e73555"/><path d="M484.549,488.929c-.836-.075-4.513-.384-5.543-.5-2.772-.308-27.558-4.157-30.329-4.619s-3.849-.924-4-1.694-5.222-34.588-5.222-34.588l-22.7,7.439s5.9,33.923,6.981,37.772,2.925,6.159,4.99,6.774,12.446,3.026,27.841,3.062c10.552.025,17.055-.769,23.829.184,2.4.338,3.709,1.707,7.481,2.608,2.964.708,6.513-.03,9.488-.338,3.692-.383,7.146-.642,10.729.529,2.172.71,4.363,1.342,6.392-.139a2.2,2.2,0,0,0,1.029-1.6c.038-1.274-1.274-3.153-1.979-4.145a27.362,27.362,0,0,0-3.244-3.628,16.736,16.736,0,0,0-7.418-4.483C500.78,490.984,487.32,489.178,484.549,488.929Z" fill="#f8c6a3"/><path d="M439.452,447.53l1.53,10.767s-7.1,7.5-22.386,6.9l-1.841-10.228Z" fill="#ee9681"/><path d="M428.274,418.332c-4.9,2.457-11.62,6.977-13.006,16.214s1.487,27.659,1.487,27.659a53,53,0,0,0,13.548-.77,27.055,27.055,0,0,0,11.1-4.839s-1.277-9.7-2.447-18.01C437.293,426.791,434.689,419.872,428.274,418.332Z" fill="#2ca5c6"/><path d="M593.354,342.763h4.485a1.94,1.94,0,0,1,1.94,1.94h0a1.94,1.94,0,0,1-1.94,1.939h-4.485" fill="#bce3f6"/><path d="M711.084,589.026l5.932,14.868s-.433,6.553-5.236,7.276-9.545-9.1-9.545-9.1l-4.023-8.052Z" fill="#ee9681"/><path d="M698.212,594.019l2.485,4.975a18.012,18.012,0,0,0,7.286-1.821c4.381-1.942,4.8-3.879,4.8-3.879l-1.7-4.268Z" fill="#e76266"/><path d="M717.054,602.319c-1.046-.279-.834,2.919-2.184,4.375s-2.664,2.592-4.568,2.2c-2.264-.469-2.876-2.036-3.255-3.8a3.868,3.868,0,0,0-4.812-3.017,2.034,2.034,0,0,0-.833.491c-1.323,1.357-.3,2.851-2.553,6.049a24.5,24.5,0,0,1-9.26,8.259c-3.248,1.6-6,.457-9.293,2.985-1.822,1.4-1.952,5.043-1.345,7.679,3.212,1.507,12.015,1.626,15.254.909,4.192-.928,8.516-3.492,11.621-5.122s12.188-2.593,17.114-7.594A30.257,30.257,0,0,0,717.054,602.319Z" fill="#add9ea"/><path d="M709.228,435.228s-13.986,81.493-13.422,85.724,16.981,69.223,16.981,69.223c-3.355,3.673-10.232,6.929-14.575,6.005,0,0-28.693-57.883-29.957-69.9-1.738-16.528,0-92.312,0-92.312Z" fill="#2ca5c6"/><path d="M676.091,598.334l-1.645,15.648s-2.633,6.016-7.4,5.064-5.886-11.8-5.886-11.8l.45-8.912Z" fill="#f8c6a3"/><path d="M676.091,598.334l-.558,5.657a19.094,19.094,0,0,1-14.169-.732l.249-4.925Z" fill="#ee9681"/><path d="M659.794,434.839s-2.633,74.518-2.731,85.218,3.563,79.976,3.563,79.976,5.98,3.282,15.945-.3c-.274-1.885,10.073-69.723,11.132-76.837s19.7-86.644,19.7-86.644Z" fill="#40bedb"/><path d="M675.017,612.513c-.889-.617-1.776,2.463-3.54,3.374s-3.386,1.532-5.044.514c-1.969-1.21-2.013-2.892-1.769-4.682a3.868,3.868,0,0,0-3.5-4.473,2.023,2.023,0,0,0-.95.179c-1.705.827-1.254,2.578-4.457,4.822-3.582,2.51-7.427,3.533-11.514,4.623-5.076,1.352-9.079.942-11.576,2.136-2.073.99-3.731,3.391-2.273,8.629,2.508,2.508,8.732,2.8,13.447,2.581,4.289-.2,10.008-1.285,13.482-1.763s11.1,2.241,17.437-.789A46.6,46.6,0,0,0,675.017,612.513Z" fill="#bce3f6"/><path d="M705.559,366.535a8.811,8.811,0,0,0-5.308-8.5,83.557,83.557,0,0,0-14.721-4.456c-5.361-1.052-14.677.275-19.708,2.266s-5.85,4.245-9.308,10.46c-3.047,5.475-5.039,9.1-5.532,14.791-.681,7.864,5.277,14.85,5.277,14.85a99.543,99.543,0,0,1,1.792,11.581c.059,1.682-4.561,14.015-5.139,17.322-.671,3.84-12.763,42.921-12.273,70.322,8.136,7.524,30.719,10.086,47.733,8.711l3.186-27.716,4.628,25.789c8.843-1.686,16.121-4.4,19.488-7.791,0,0,.888-52.2-13.488-83.589-3.158-6.894.629-23.525,2.214-29.708a24.517,24.517,0,0,0,.75-5.017Z" fill="#40bedb"/><path d="M704.4,380.87c.2-.777.354-1.563.478-2.354-.126.277-16.3,35.9-23.56,40.562-7.286,4.678-27.471,2.622-27.471,2.622l-1.86,6.848s16.678,7.032,32.644,6.035c10.438-.652,19.384,14.167,20.253,39.547.743,21.707-4.72,26.423-6.318,27.335,7.755-1.7,14.049-4.213,17.108-7.3,0,0,.888-52.2-13.488-83.589C699.028,403.684,702.815,387.053,704.4,380.87Z" fill="#40bedb"/><path d="M687.893,444.832l18.28-.875s2.545,22.455.3,24c-3.582,2.462-12.759,2.556-16.649,1.332C687.051,468.415,687.893,444.832,687.893,444.832Z" fill="#40bedb"/><path d="M706.473,467.955c.532-.366.793-1.915.885-4.055h0c-1.17,3.719-7.231,3.781-12.886,3.6-4.267-.138-5.539-7.552-6.682-12.409-.32,5.273.52,13.721,2.034,14.2C693.714,470.512,702.891,470.418,706.473,467.955Z" fill="#40bedb"/><path d="M687.94,356.654s3.484.486,3.614,2.358c.181,2.613-5.418,10.947-20.751,22.751-1.239-.475-6.547-22.584-.558-24.82Z" fill="#40bedb"/><path d="M705.559,366.535a8.811,8.811,0,0,0-5.308-8.5,83.557,83.557,0,0,0-14.721-4.456c-5.361-1.052-14.677.275-19.708,2.266s-5.85,4.245-9.308,10.46c-3.047,5.475-5.039,9.1-5.532,14.791-.681,7.864,5.277,14.85,5.277,14.85a99.543,99.543,0,0,1,1.792,11.581c.059,1.682-4.561,14.015-5.139,17.322-.671,3.84-12.763,42.921-12.273,70.322,8.136,7.524,30.719,10.086,47.733,8.711l3.186-27.716,4.628,25.789c8.843-1.686,16.121-4.4,19.488-7.791,0,0,.888-52.2-13.488-83.589-3.158-6.894.629-23.525,2.214-29.708a24.517,24.517,0,0,0,.75-5.017Z" fill="#def1f8"/><path d="M704.4,380.87c.2-.777.354-1.563.478-2.354-.126.277-16.3,35.9-23.56,40.562-7.286,4.678-27.471,2.622-27.471,2.622l-1.86,6.848s16.678,7.032,32.644,6.035c10.438-.652,19.384,14.167,20.253,39.547.743,21.707-4.72,26.423-6.318,27.335,7.755-1.7,14.049-4.213,17.108-7.3,0,0,.888-52.2-13.488-83.589C699.028,403.684,702.815,387.053,704.4,380.87Z" fill="#bce3f6"/><path d="M687.893,444.832l18.28-.875s2.545,22.455.3,24c-3.582,2.462-12.759,2.556-16.649,1.332C687.051,468.415,687.893,444.832,687.893,444.832Z" fill="#def1f8"/><path d="M706.473,467.955c.532-.366.793-1.915.885-4.055h0c-1.17,3.719-7.231,3.781-12.886,3.6-4.267-.138-5.539-7.552-6.682-12.409-.32,5.273.52,13.721,2.034,14.2C693.714,470.512,702.891,470.418,706.473,467.955Z" fill="#bce3f6"/><path d="M687.94,356.654s3.484.486,3.614,2.358c.181,2.613-5.418,10.947-20.751,22.751-1.239-.475-6.547-22.584-.558-24.82Z" fill="#40bedb"/><path d="M684.079,386.673s-9.35,23.257-9.721,23.9-1.863.741-4.5.325-21.179-4.63-26.224-6.4c-2.5-.88-5.862-2.042-7.067-4.913s-2.286-4.79-3.585-7.729c-1.431-3.24-1.263-6.951-2.526-6.893-1.556.071-4.124,2.372-3.661,6.541.2,1.831.35,3.27.45,4.309a1.8,1.8,0,0,1-1.9,1.966,44.009,44.009,0,0,1-4.894-.505c-5.222-.837-14.626-2.742-14.626-2.742s-3.7.45-.589,3.345c2.762,2.572,7.119,2.9,8.88,5.493s5.513,5.235,14.083,8.708,16.063,6.472,29.971,11.07,19.34,4.479,21.389,4.544,4.938-2.559,7.068-5.709S699.423,396.9,699.423,396.9Z" fill="#f8c6a3"/><path d="M699.82,358.092c5.862,1.14,9.469,6.994,8.918,15.239s-9.331,32.289-9.331,32.289a46.88,46.88,0,0,1-11.563-3.229,23.937,23.937,0,0,1-8.677-6.284s6.412-16.773,9-23.732C691.832,362.5,693.985,358.208,699.82,358.092Z" fill="#def1f8"/><path d="M688.242,343.773c2.334-.386,4.608-2.441,6.822-8.211s6.6-20.37,1.448-26.833c-5.616-7.038-11.359-8.074-20.028-5.553v40.6Z" fill="#363638"/><path d="M662.1,313.4c-2,7.055-3.77,18.824-.461,28.048,2.753,7.676,10.732,7.45,10.732,7.45l.067,9.14s4.048,7.532,15.477-.221l.719-30.649s4-10.206,1.366-12.991S677.186,301.936,662.1,313.4Z" fill="#f8c6a3"/><g clip-path="url(#b)"><path d="M669.92,349.645c6.217.366,13.486-2.091,16.51-12.546" fill="none" stroke="#ee9681" stroke-linecap="round" stroke-miterlimit="10" stroke-width="1"/></g><path d="M695.062,330.86a4.7,4.7,0,1,0-4.824,4.563A4.7,4.7,0,0,0,695.062,330.86Z" fill="#f8c6a3"/><path d="M668.468,324.039s-1.883,10.067-1.83,10.707,2.6.816,2.6.816" fill="none" stroke="#ee9681" stroke-linecap="round" stroke-miterlimit="10" stroke-width="1"/><path d="M676.78,327.435a1.363,1.363,0,1,0-1.4,1.324A1.363,1.363,0,0,0,676.78,327.435Z" fill="#363638"/><path d="M664.255,326.846a1.363,1.363,0,1,0-1.4,1.324A1.362,1.362,0,0,0,664.255,326.846Z" fill="#363638"/><path d="M679.3,324.729a13.489,13.489,0,0,0-5.625-1.519,3.515,3.515,0,0,1,3.227-.99A3.183,3.183,0,0,1,679.3,324.729Z" fill="#363638"/><path d="M665.681,322.728a13.254,13.254,0,0,0-5.576,1.311,3.457,3.457,0,0,1,2.331-2.363A3.128,3.128,0,0,1,665.681,322.728Z" fill="#363638"/><path d="M667.939,340.059a16.423,16.423,0,0,0,7.141-1.035,3.44,3.44,0,0,1-3.194,3.01C668.435,342.445,667.939,340.059,667.939,340.059Z" fill="#e76266"/><path d="M689.63,326.034l-.883,5.467c-2.3-.3-3.184-1.017-3.074-3.33l.325-2.726a14.809,14.809,0,0,1-6.145-3.492c-4.417-4.491-1.433-14.913-1.433-14.913s2.841-1.708,9.306,3.076S691.616,323.68,689.63,326.034Z" fill="#363638"/><path d="M677.824,309.831s-3.23,11.709-17.187,10.888c0,0-.755,4.832-.778,6.225,0,0-3.316-1.183-5.276-6.831-2.045-5.9.341-12.716,5.083-16.5,8.538-6.821,19.288-3.192,21.652.754l-1.8,4.229Z" fill="#363638"/><path d="M673.1,369.2c-2.464-1.6-3.653-7.376-2.852-12.26l3.072-1.311,14.623,1.022s1.34.366,1.479,1.506C689.59,359.57,681.822,367.372,673.1,369.2Z" fill="#f8c6a3"/><path d="M452.01,280.525c3.825-5.891-2.556-11.879,2.192-18.994,3.658-5.481,11.388-7.837,17.533-7.67,16.41.444,22.7,18.91,33.969,16.437,4.654-1.022,3.9-4.243,11.654-10.3,7.951-6.206,23.363-14.233,32.689-9.153,9.041,4.925,6.578,19.018,12.638,20.18,7.35,1.409,12.392-19.05,21.916-18.994,9.745.058,22.025,21.577,16.072,33.239-4.006,7.848-14.994,8.735-40.179,10.228-77.623,4.6-81.474,2.594-116.624,4.634-23.355,1.355-43.853,3.529-44.823-.616-.633-2.7,7.35-6.76,9.862-8.036C429.681,280.929,446.4,289.162,452.01,280.525Z" fill="#f3f2f2"/></g></svg>