<svg xmlns="http://www.w3.org/2000/svg" width="552.526" height="412.924" viewBox="0 0 552.526 412.924"><g transform="translate(-1560.662 -739.192)"><line x1="4.509" y1="7.581" transform="translate(2056.545 1069.985)" fill="none" stroke="#f99898" stroke-linecap="round" stroke-linejoin="round" stroke-width="1"/><line x1="3.171" y1="6.939" transform="translate(2050.423 1075.341)" fill="none" stroke="#f99898" stroke-linecap="round" stroke-linejoin="round" stroke-width="1"/><line x2="7.244" y2="3.819" transform="translate(2067.265 1080.296)" fill="none" stroke="#f99898" stroke-linecap="round" stroke-linejoin="round" stroke-width="1"/><line x2="7.593" y2="3.924" transform="translate(2065.819 1074.06)" fill="none" stroke="#f99898" stroke-linecap="round" stroke-linejoin="round" stroke-width="1"/><line x2="7.44" y2="3.249" transform="translate(2073.312 1067.504)" fill="none" stroke="#f99898" stroke-linecap="round" stroke-linejoin="round" stroke-width="1"/><path d="M1785.255,805.865c-18.659-67.687-102.742-89.491-150.928-38.905q-1.038,1.089-2.075,2.216c-69.083,75.1-36.448,260.157,107.728,307.061s294.138-38.748,302.561-115.315S1984.45,860.3,1881.226,881.7C1822.906,893.8,1796.87,848,1785.255,805.865Z" transform="translate(7.869)" fill="#fdc331"/><path d="M1854.174,804.022c-19.29,3.141-24.636,20.231-9.742,32.355,4.922,4.007,11.953,7.337,21.969,9,38.152,6.33,58.4-10.551,43.106-32.436C1900.068,799.429,1873.29,800.909,1854.174,804.022Z" transform="translate(58.885 13.42)" fill="#fdc331"/><path d="M1939.01,853.292c9.271,1.934,15.99-5.634,12.555-14.4a18.416,18.416,0,0,0-7.342-8.487c-15.128-10.094-28.334-5.338-27.221,8.376C1917.69,847.249,1929.823,851.374,1939.01,853.292Z" transform="translate(76.231 18.361)" fill="#fdc331"/><path d="M1889.207,1046.229c-34.42,16.961-69.628-20.208-94.637-2.191-21.288,15.336-5.076,48.972-23.613,64.2-30.366,24.943-134.213-15.737-142.05-68.995-8.539-58.04,95.9-138.074,188.17-129.505,33.914,3.15,96.485,21.087,105.017,65.354C1927.094,1001.036,1913.216,1034.4,1889.207,1046.229Z" transform="translate(14.497 36.356)" fill="#bce3f6"/><path d="M1751.89,771.83c7.341,5.984,16.789,2.357,17.771-7a18.416,18.416,0,0,0-2.613-10.912c-8.785-15.924-22.7-17.779-28.022-5.09C1735.741,756.653,1744.615,765.9,1751.89,771.83Z" transform="translate(38.014 0.276)" fill="#fdc331"/><g transform="translate(1560.662 943.43)"><line x1="6.831" y1="8.922" transform="translate(507.486 118.686)" fill="none" stroke="#f99898" stroke-linecap="round" stroke-linejoin="round" stroke-width="1"/><line x2="8.681" y2="2.128" transform="translate(524.684 116.329)" fill="none" stroke="#f99898" stroke-linecap="round" stroke-linejoin="round" stroke-width="1"/><path d="M1615.821,919.772c-9.473-17.1-27.364-16.353-33.745,1.762-2.109,5.987-2.867,13.729-1.048,23.716,6.931,38.049,29.659,51.4,45.092,29.615C1635.647,961.417,1625.208,936.714,1615.821,919.772Z" transform="translate(-1556.523 -907.432)" fill="#f99898"/><g transform="translate(58.082 20.064)"><path d="M1649.439,1043.137l-3.692-.146-1.959-.079-5.548-.221s-51.277-87.049-19.154-115.435c9.889-8.739,27.177-1.493,23.355,38.672C1638.9,1003.161,1649.439,1043.137,1649.439,1043.137Z" transform="translate(-1608.507 -923.96)" fill="#fff0f0"/><g transform="translate(16.781 25.681)"><path d="M1642.789,1038.465l-1.959-.079c-8.952-21.09-13.47-43.748-15.714-59.651a275.129,275.129,0,0,1-2.786-32.73.886.886,0,0,1,1.771-.015,273.6,273.6,0,0,0,2.775,32.526C1629.132,994.5,1633.7,1017.34,1642.789,1038.465Z" transform="translate(-1622.33 -945.114)" fill="#ffc7c6"/></g></g><g transform="translate(0 8.684)"><path d="M1669.864,1062.582l-5.016,1.862-2.661.987-7.536,2.795s-117.021-87.746-89.914-143.575c8.344-17.187,35.482-17.139,52.755,38.661C1633.505,1015.037,1669.864,1062.582,1669.864,1062.582Z" transform="translate(-1560.662 -914.586)" fill="#ffc7c6"/><g transform="translate(25.226 35.926)"><path d="M1660.4,1058.112l-2.661.987c-23.712-23.2-42.376-50.953-54.234-70.953a398.178,398.178,0,0,1-21.961-42.183,1.282,1.282,0,0,1,2.359-1.005,396.006,396.006,0,0,0,21.831,41.917C1617.655,1006.973,1636.485,1034.95,1660.4,1058.112Z" transform="translate(-1581.441 -944.18)" fill="#f99898"/></g></g><g transform="translate(434.646 24.548)"><path d="M1955.8,1049.636a103.074,103.074,0,0,0,28.636-8.35c18.342-8.194,39.175-31.136,43.289-49.134s.028-32.23-12.2-36.19S1997.71,966,1996.058,975.5s-11.6,51.591-45.695,67.7" transform="translate(-1911.924 -921.744)" fill="none" stroke="#f99898" stroke-linecap="round" stroke-linejoin="round" stroke-width="1"/><path d="M2015.081,959.65c2.145,6.812.575,31.01-10.849,49.122-16.407,26.012-51.811,36.563-51.811,36.563" transform="translate(-1911.484 -920.807)" fill="none" stroke="#f99898" stroke-linecap="round" stroke-linejoin="round" stroke-width="1"/><line x2="10.679" y2="9.929" transform="translate(93.488 40.805)" fill="none" stroke="#f99898" stroke-linecap="round" stroke-linejoin="round" stroke-width="1"/><line x2="10.752" y2="10.675" transform="translate(91.761 51.556)" fill="none" stroke="#f99898" stroke-linecap="round" stroke-linejoin="round" stroke-width="1"/><line x2="11.484" y2="10.684" transform="translate(88.617 60.428)" fill="none" stroke="#f99898" stroke-linecap="round" stroke-linejoin="round" stroke-width="1"/><line x1="11.317" y1="12.442" transform="translate(85.386 68.228)" fill="none" stroke="#f99898" stroke-linecap="round" stroke-linejoin="round" stroke-width="1"/><line x1="10.39" y1="11.875" transform="translate(81.919 76.77)" fill="none" stroke="#f99898" stroke-linecap="round" stroke-linejoin="round" stroke-width="1"/><line x1="9.348" y1="10.683" transform="translate(76.277 86.269)" fill="none" stroke="#f99898" stroke-linecap="round" stroke-linejoin="round" stroke-width="1"/><line y1="2.009" x2="9.137" transform="translate(103.698 54.282)" fill="none" stroke="#f99898" stroke-linecap="round" stroke-linejoin="round" stroke-width="1"/><line y1="2.064" x2="11.3" transform="translate(101.604 64.818)" fill="none" stroke="#f99898" stroke-linecap="round" stroke-linejoin="round" stroke-width="1"/><line y1="0.039" x2="11.319" transform="translate(98.879 75.452)" fill="none" stroke="#f99898" stroke-linecap="round" stroke-linejoin="round" stroke-width="1"/><line x2="10.669" y2="0.786" transform="translate(94.911 84.249)" fill="none" stroke="#f99898" stroke-linecap="round" stroke-linejoin="round" stroke-width="1"/><line y1="1.723" x2="5.305" transform="translate(104.378 42.893)" fill="none" stroke="#f99898" stroke-linecap="round" stroke-linejoin="round" stroke-width="1"/><path d="M1967.762,950c-1.776,9.3,5.9,15.892,14.609,12.307a18.427,18.427,0,0,0,8.361-7.485c9.833-15.3,4.853-28.42-8.84-27.074C1973.441,928.58,1969.524,940.782,1967.762,950Z" transform="translate(-1908.256 -927.654)" fill="#fff0f0"/><g transform="translate(0 20.063)"><path d="M1977.76,1061.215a26.936,26.936,0,0,0-.68-5.275c-3.872-16.675,6.66-19.821,20.546-25.085s15.534-20.909,5.7-33.907,7.835-23.45,1.329-43.015-29.1-6.552-34.043,11.485c-3.551,12.969-21.615,10.163-28.305,26.982-5.81,14.6,13.665,28.085-8.828,34.778-7.184,2.135-11.155,7.324-13.234,13.395a28.6,28.6,0,0,0,.81,20.642Z" transform="translate(-1918.699 -944.18)" fill="#ffc7c6"/><g transform="translate(27.897 28.793)"><path d="M1945.332,1056.14l37.047-86.052a1.562,1.562,0,0,0-.933-2.073,1.731,1.731,0,0,0-2.2.879l-37.562,87.247Z" transform="translate(-1941.679 -967.898)" fill="#f99898"/></g></g></g></g><path d="M1681,797.118s.846-17.9-10.037-21.332c-16.947-5.352-21.663,3.437-24.279,9.244-3.352,7.443-1.923,22.042,8.188,23.453C1669.968,810.588,1680.069,802.117,1681,797.118Z" transform="translate(18.059 7.474)" fill="#363638"/><path d="M1692.256,854.486a18.611,18.611,0,0,0,18.219-14.793c1.3-6.208,2.568-11.706,2.568-14.795v-.079c.079-.976.123-1.952.13-2.914.115-14.121-8.589-39.909-39.208-35.81,0,0-25.4,2.9-28.3,27.726,0,0-1.2,11.454-2,19.749l-.044.437a18.607,18.607,0,0,0,18.521,20.478Z" transform="translate(17.729 9.943)" fill="#363638"/><g transform="translate(1726.762 893.94)"><path d="M1717.059,866.665s5.414,42.891,11.6,64.909c0,0,8.787-4.092,20.287-9.649,12.47-6.024,30.4-17.014,30.4-17.014l4.531,10.914s-46.307,43.7-61.645,46.178-24.74-52.447-24.74-52.447Z" transform="translate(-1697.486 -866.665)" fill="#292669"/><path d="M1764.183,903.426s-1.272-6.093,1.455-10.217,6.878-11.845,11.754-13.457c4.078-1.349-1.94,5.536-2.118,9.9a68.679,68.679,0,0,0,10.441-2.183c3.848-1.249,11.464-2.809,14.995-3.5a.973.973,0,0,1,.844,1.675c-1.2,1.044-3.721,2.356-8.925,3.61,0,0,12.684-2.4,14-.459s-14.6,4.654-14.6,4.654,12.346-.731,12.668,1.205c.2,1.18-12.6,3.881-12.6,3.881s11.674.312,8.85,2.155c-.822.538-23.421,3.08-31.289,12.37C1769.663,913.061,1764.372,907.59,1764.183,903.426Z" transform="translate(-1683.278 -863.902)" fill="#ffa681"/></g><g transform="translate(1595.34 798.047)"><path d="M1662.139,867.564s-25.906,7.641-48.216,12.674c0,0-.579-9.675-1.163-22.434-.634-13.833.506-34.83.506-34.83l-11.755,1.207s-16.414,61.523-11.294,76.191,70.138-5.879,70.138-5.879Z" transform="translate(-1589.228 -780.121)" fill="#292669"/><path d="M1611.134,831.971s5.964-1.78,8.3-6.14,8.769-13.14,4.8-16.391c-1.451-1.187-2.5,3.992-6.253,6.226a68.533,68.533,0,0,1-3.047-10.223c-.732-3.979-2.983-11.42-4.051-14.857a.973.973,0,0,0-1.874.055c-.346,1.556-.3,4.395,1.07,9.569,0,0-3.922-12.3-6.256-12.533s2.85,15.053,2.85,15.053-5.231-11.207-7.087-10.569c-1.13.388,2.578,12.925,2.578,12.925s-5.828-10.118-6.106-6.759c-.081.98,8.432,22.068,4,33.407C1600.052,831.734,1607.382,833.787,1611.134,831.971Z" transform="translate(-1587.768 -787.674)" fill="#f8c6a3"/></g><g transform="translate(1645.056 879.341)"><g transform="translate(4.886)"><path d="M1729.63,1035.329l.206.917c-20.174,13.658-95.63,4.333-95.63,4.333.13-1.584.3-3.239.518-4.952.234-1.91.527-3.886.863-5.929.912-5.493,2.135-11.432,3.507-17.544.441-1.923.882-3.876,1.348-5.838,1.363-5.833,2.812-11.749,4.183-17.51.475-1.981.941-3.934,1.391-5.877.629-2.7,1.224-5.349,1.794-7.92.744-3.421,1.406-6.707,1.962-9.8.375-2.082.7-4.078.951-5.973.288-2.005.484-3.9.6-5.656-1.2-4.432-2.318-8.774-3.358-12.987-.518-2.144-1.027-4.24-1.526-6.312-1.55-6.634-2.912-12.948-4.1-18.863-.422-2.15-.839-4.242-1.219-6.28-1.318-6.976-2.384-13.289-3.243-18.8-.332-2.2-.643-4.246-.917-6.179-.3-2.116-.561-4.073-.787-5.849-1.012-7.809-1.362-12.238-1.362-12.238.177-.143.364-.273.556-.412a40.981,40.981,0,0,1,9.844-4.515c4.2-1.44,8.841-2.691,12.933-3.68.619-.149,1.229-.293,1.823-.432,5.378-1.256,9.4-1.986,9.4-1.986,18.3,3.834,23.517,1.368,23.517,1.368l9.3,2.744,1.094.384,6.778,2.38.274.1,12.157,4.279,8.107,2.845-3.147,14.512L1726.079,890l-4.144,19.1-1.362,6.314-4.126,19.035-1.357,6.251-3.416,15.774.681,3.013,1.334,5.848,2.116,9.3,1.923,8.41,1.325,5.828,3.982,17.534,1.329,5.8,3.948,17.333Z" transform="translate(-1634.206 -854.551)" fill="#1e1242"/><path d="M1698.742,859.633c-1.948,11.437-7.493,22.943-19.022,24.185-13.927,1.507-21.147-15.963-24.289-26.694,5.378-1.256,10.951-2.485,10.951-2.485,18.3,3.834,21.828,1.5,21.828,1.5l9.438,3.113Z" transform="translate(-1629.665 -854.639)" fill="#f8c6a3"/><g transform="translate(30.508 0.51)"><path d="M1677.469,874.121c-14.6,0-18.086-18.025-18.119-18.212a.719.719,0,0,1,1.415-.261c.134.725,3.444,17.734,17.553,17.013,12.346-.624,13.073-14.327,13.1-14.911a.72.72,0,0,1,1.438.061c-.007.155-.8,15.6-14.464,16.288Q1677.923,874.121,1677.469,874.121Z" transform="translate(-1659.337 -855.059)" fill="#fff"/></g><path d="M1653.961,867.3a3.562,3.562,0,1,1-3.563-3.563A3.563,3.563,0,0,1,1653.961,867.3Z" transform="translate(-1631.504 -852.693)" fill="#292669"/><path d="M1648.083,881.615a3.563,3.563,0,1,1-3.563-3.563A3.563,3.563,0,0,1,1648.083,881.615Z" transform="translate(-1632.762 -849.629)" fill="#292669"/><path d="M1666.822,888.385a3.563,3.563,0,1,1-3.563-3.563A3.563,3.563,0,0,1,1666.822,888.385Z" transform="translate(-1628.752 -848.181)" fill="#292669"/><path d="M1653.708,896.157a3.563,3.563,0,1,1-4.63-1.986A3.563,3.563,0,0,1,1653.708,896.157Z" transform="translate(-1631.504 -846.235)" fill="#292669"/><path d="M1679.192,901.81a3.562,3.562,0,1,1-3.562-3.562A3.563,3.563,0,0,1,1679.192,901.81Z" transform="translate(-1626.105 -845.308)" fill="#292669"/><path d="M1697.91,907.858a3.562,3.562,0,1,1-3.563-3.563A3.563,3.563,0,0,1,1697.91,907.858Z" transform="translate(-1622.1 -844.014)" fill="#292669"/><path d="M1701.676,870.23a3.562,3.562,0,1,1-3.562-3.563A3.563,3.563,0,0,1,1701.676,870.23Z" transform="translate(-1621.294 -852.065)" fill="#292669"/><path d="M1680.38,920.552a3.563,3.563,0,1,1-3.563-3.563A3.563,3.563,0,0,1,1680.38,920.552Z" transform="translate(-1625.851 -841.298)" fill="#292669"/><path d="M1662.3,929.652a3.562,3.562,0,1,1-3.563-3.563A3.563,3.563,0,0,1,1662.3,929.652Z" transform="translate(-1629.72 -839.351)" fill="#292669"/><path d="M1660.193,913.079a3.563,3.563,0,1,1-3.563-3.563A3.563,3.563,0,0,1,1660.193,913.079Z" transform="translate(-1630.17 -842.897)" fill="#292669"/><path d="M1689.106,889.152a3.563,3.563,0,1,1-3.563-3.563A3.563,3.563,0,0,1,1689.106,889.152Z" transform="translate(-1623.984 -848.017)" fill="#292669"/><path d="M1705.332,885.45a3.562,3.562,0,1,1-3.562-3.563A3.563,3.563,0,0,1,1705.332,885.45Z" transform="translate(-1620.512 -848.809)" fill="#292669"/><path d="M1694.975,925.407a3.562,3.562,0,1,1-3.562-3.563A3.562,3.562,0,0,1,1694.975,925.407Z" transform="translate(-1622.728 -840.259)" fill="#292669"/><path d="M1695.763,948.628a3.563,3.563,0,1,1-3.563-3.563A3.564,3.564,0,0,1,1695.763,948.628Z" transform="translate(-1622.56 -835.291)" fill="#292669"/><path d="M1680.78,938.706a3.563,3.563,0,1,1-4.63-1.986A3.565,3.565,0,0,1,1680.78,938.706Z" transform="translate(-1625.711 -837.131)" fill="#292669"/><path d="M1660.8,947.306a3.563,3.563,0,1,1-4.63-1.987A3.563,3.563,0,0,1,1660.8,947.306Z" transform="translate(-1629.986 -835.291)" fill="#292669"/></g><path d="M1738.04,1048.324l-.738-4.439-2.875-17.219-.986-5.9-2.744-16.459-4.99.225-66.15,3-24.489,1.1-1.574,12.8-.737,5.963-2.174,17.682-.4,3.24Z" transform="translate(-1630.181 -822.614)" fill="#9c78ed"/><g transform="translate(0 120.072)"><path d="M1738.036,1059.185l-.676-4.011-.056-.421-.477-2.835-.477-2.807-1.936-11.591-.562-3.424-.42-2.469-.057-.365-2.5-15.015-.169-1.067-.224-.926-.2-.813-1.122-4.968-2.218-9.71-.646-2.779-1.094-4.856-1.32-5.81-.9-3.984-.644-2.779L1719.9,967.8l-.9-3.93-.42-1.908-.2-.869-1.712-7.55c-26.887,7.942-55.374,3.227-68,.392-.561,2.554-1.179,5.22-1.8,7.915q-.209.883-.42,1.767l-.674,2.779c-.085.449-.2.87-.31,1.32-1.038,4.407-2.133,8.9-3.2,13.358-.225.926-.421,1.853-.646,2.751-.112.477-.224.926-.336,1.4-.449,1.964-.9,3.93-1.347,5.838-.561,2.554-1.095,5.051-1.6,7.522-.2.926-.392,1.825-.561,2.722-.505,2.5-.954,4.94-1.348,7.3-.336,2.049-.618,4.014-.841,5.951-.085.589-.141,1.179-.225,1.74-.085.954-.2,1.88-.281,2.807,0,.14-.028.253-.028.393l-1.571,12.8-.252,1.992-.338,2.779-.14,1.179-1.741,14-.336,2.807-.113.9-.388,3.226Z" transform="translate(-1630.181 -953.548)" fill="#e73555"/></g></g><g transform="translate(1665.892 807.701)"><g transform="translate(5.013)"><g transform="translate(45.373 25.995)"><path d="M1692.521,819.813s4.374-5.541,7.626-.959-1.346,18.115-9.309,14.812Z" transform="translate(-1688.424 -817.04)" fill="#f8c6a3"/><g transform="translate(3.481 4.851)"><path d="M1692.39,828.628a.669.669,0,0,0,.647-.467c1.234-4.177,5.79-5.871,5.836-5.888a.632.632,0,0,0,.39-.824.684.684,0,0,0-.867-.371c-.212.076-5.233,1.928-6.654,6.739a.635.635,0,0,0,.466.788A.673.673,0,0,0,1692.39,828.628Z" transform="translate(-1691.716 -821.036)" fill="#ee9681"/></g><g transform="translate(5.844 7.363)"><path d="M1696.571,826.082a.706.706,0,0,0,.364-.1.622.622,0,0,0,.2-.884,6.072,6.072,0,0,0-2.526-1.935.687.687,0,0,0-.889.323.625.625,0,0,0,.34.844,4.817,4.817,0,0,1,1.944,1.46A.683.683,0,0,0,1696.571,826.082Z" transform="translate(-1693.663 -823.105)" fill="#ee9681"/></g><g transform="translate(0 14.168)"><path d="M1690.977,831.081a4.717,4.717,0,1,0,4.554-1.474.854.854,0,0,1,.171-.9,5.652,5.652,0,1,1-6.853,5.522,5.6,5.6,0,0,1,1.264-3.541C1690.4,830.821,1690.688,830.952,1690.977,831.081Z" transform="translate(-1688.849 -828.71)" fill="#fff"/></g></g><path d="M1664.452,842.644v16.6s7.716,5.953,13.736,6.47,8.092-6.572,8.092-6.572v-15.45Z" transform="translate(-1648.697 -785.566)" fill="#f8c6a3"/><path d="M1664.452,843.984v6.622c4.039,4.482,11.211,6.071,21.826,4.5l0-10.077Z" transform="translate(-1648.697 -785.279)" fill="#ee9681"/><path d="M1703.226,830.3c-.192,1.6-.417,3.234-.707,4.858-1.906,10.8-8.734,22.456-17.357,24.413-18.619,4.226-26.351-10.4-29.327-21.185-.329-1.2.288-2.572.028-3.99-.618-3.361-1.975-7.181-2.285-10.948-.212-2.61-.363-5.185-.472-7.511a15.252,15.252,0,0,1,9.436-14.945c8.56-3.4,21.557-6.1,33.867,1.122a15.382,15.382,0,0,1,7.5,13.008A115.2,115.2,0,0,1,1703.226,830.3Z" transform="translate(-1651.128 -795.216)" fill="#f8c6a3"/><g transform="translate(27.384 31.491)"><path d="M1675.133,833.509a.723.723,0,0,1-.119-1.436l2.484-.418-3.421-9.112a.722.722,0,1,1,1.352-.508l4.039,10.757-4.215.708A.8.8,0,0,1,1675.133,833.509Z" transform="translate(-1674.031 -821.567)" fill="#ee9681"/></g><path d="M1682.278,821.981c0,1.593.821,2.884,1.834,2.884s1.833-1.292,1.833-2.884-.82-2.886-1.833-2.886S1682.278,820.387,1682.278,821.981Z" transform="translate(-1644.882 -790.604)" fill="#363638"/><path d="M1665.579,821.981c0,1.593.821,2.884,1.834,2.884s1.834-1.292,1.834-2.884-.822-2.886-1.834-2.886S1665.579,820.387,1665.579,821.981Z" transform="translate(-1648.456 -790.604)" fill="#363638"/><path d="M1689.822,815.356a35.22,35.22,0,0,0-7.631-.649c-.836.029-1.505.659-1.39,1.324l0,.017a1.176,1.176,0,0,0,1.329.838c2.164-.164,7.825-.129,10.461.657a1.366,1.366,0,0,0-.553-1.142A4.436,4.436,0,0,0,1689.822,815.356Z" transform="translate(-1645.201 -791.547)" fill="#363638"/><path d="M1664.428,815.659a35.253,35.253,0,0,1,7.622-.755c.837.018,1.514.638,1.408,1.306l0,.016a1.174,1.174,0,0,1-1.317.857c-2.167-.133-7.826-.022-10.451.8a1.364,1.364,0,0,1,.539-1.148A4.417,4.417,0,0,1,1664.428,815.659Z" transform="translate(-1649.292 -791.503)" fill="#363638"/><path d="M1685.2,834.951c-.536,2.535-2.317,7.2-8.321,7.2s-7.7-4.263-8.283-7.2Z" transform="translate(-1647.809 -787.212)" fill="#fff"/><g transform="translate(25.364 57.013)"><path d="M1676.164,844.875a7.1,7.1,0,0,0,3.326-.972.709.709,0,0,0-.744-1.208h0a5.7,5.7,0,0,1-2.582.762,6.046,6.046,0,0,1-2.723-.765.709.709,0,0,0-.733,1.214A7.423,7.423,0,0,0,1676.164,844.875Z" transform="translate(-1672.367 -842.59)" fill="#ee9681"/></g><path d="M1704.326,829.013c-.174.145-.341.094-.5-.189-2.46-4.336-.148-12.985-7.426-16.3a15.427,15.427,0,0,1-7.533-7.715c-1.267,2.169-4.568,4.159-4.568,4.159a131.121,131.121,0,0,1-17.071,8.311,28.748,28.748,0,0,0-5.717,2.876l.154.044s-2.408,3.914-.647,10-.5,16.112-4.417,18.427c.069-.17,3-7.108,1.346-12.767-.955-3.244-.947-8.407-1.854-11.5-1-.691-3.321-1.855-4.106-2.322-.225-2.661-.385-5.284-.5-7.655a15.527,15.527,0,0,1,9.948-15.235c9.021-3.469,22.722-6.215,35.7,1.144a15.6,15.6,0,0,1,7.911,13.259A113.958,113.958,0,0,1,1704.326,829.013Z" transform="translate(-1651.474 -795.626)" fill="#363638"/></g><g transform="translate(0 25.39)"><path d="M1656.874,819.875s-5.085-6.171-8.086-1.721,1.43,18.089,8.777,14.882Z" transform="translate(-1647.239 -816.541)" fill="#f8c6a3"/><g transform="translate(0 13.265)"><path d="M1657.184,830.917a4.718,4.718,0,1,1-4.061-2.535,1.087,1.087,0,0,0,.052-.912,5.675,5.675,0,1,0,4.941,3.278C1657.806,830.805,1657.5,830.862,1657.184,830.917Z" transform="translate(-1647.344 -827.468)" fill="#fff"/></g><g transform="translate(2.152 4.561)"><path d="M1655.5,827.672a.623.623,0,0,1-.6-.454c-1.138-4.057-5.342-5.7-5.384-5.718a.621.621,0,0,1,.441-1.162c.2.074,4.828,1.872,6.139,6.544a.621.621,0,0,1-.43.766A.674.674,0,0,1,1655.5,827.672Z" transform="translate(-1649.117 -820.298)" fill="#ee9681"/></g><g transform="translate(3.67 7)"><path d="M1650.987,825.2a.62.62,0,0,1-.521-.957,5.659,5.659,0,0,1,2.331-1.879.621.621,0,0,1,.506,1.134,4.481,4.481,0,0,0-1.793,1.418A.622.622,0,0,1,1650.987,825.2Z" transform="translate(-1650.368 -822.307)" fill="#ee9681"/></g></g></g><path d="M1887.811,932.733c-11.833,8.5-30.348,14.322-30.348,14.322l-3.791-13.634-2.958-10.638-2.087-7.5-21.22-.016c1.15,3.977,2.337,8.04,3.529,12.041,1.531,5.161,3.058,10.214,4.51,14.872,2.048,6.558,3.937,12.324,5.459,16.444.355.961.77,2.008,1.232,3.125,2.836,7.661,5.125,15.971,15.952,10.757,9.53-4.589,22.453-10.951,28.912-15.176Z" transform="translate(57.075 37.675)" fill="#f8c6a3"/><g transform="translate(1883.11 890.565)"><path d="M1830.313,925.987c1.531,5.159,3.057,10.214,4.51,14.872a30.165,30.165,0,0,0,18.228-8.762l-2.958-10.638Z" transform="translate(-1825.413 -851.566)" fill="#ee9681"/><path d="M1826.672,863.885s22.137,52.794,31.658,69.9c0,0-13.343,11.345-26.34,11.654C1831.99,945.438,1824.5,887.475,1826.672,863.885Z" transform="translate(-1826.277 -863.885)" fill="#e73555"/></g><g transform="translate(1788.058 1070.252)"><path d="M1791.595,1046.738c.223-3.7.432-7.212.624-10.472.784-13.327,1.288-22.423,1.288-22.423l-5.22-.233-2.942-.133-35.483-1.576s-.646,10.173-1.407,25.112c-.155,3.058-.317,6.315-.477,9.725Z" transform="translate(-1747.978 -1011.901)" fill="#292669"/><path d="M1788.2,1013.61l5.22.233s-.5,9.1-1.288,22.423a316.989,316.989,0,0,1-43.763.746c.761-14.939,1.407-25.112,1.407-25.112l35.483,1.576Z" transform="translate(-1747.894 -1011.901)" fill="#1e1242"/><g transform="translate(35.498 1.578)"><path d="M1780.168,1046.46c.823-14.236,1.5-26.431,1.865-33.127l-2.943-.132c-.368,6.725-1.045,18.976-1.871,33.259Z" transform="translate(-1777.219 -1013.201)" fill="#7846d1"/></g></g><g transform="translate(1841.198 1070.252)"><path d="M1793.664,1046.738h43.618c-.161-3.41-.322-6.667-.478-9.725-.76-14.939-1.407-25.112-1.407-25.112l-35.483,1.576-2.941.133-5.22.233s.505,9.1,1.288,22.423C1793.232,1039.526,1793.442,1043.043,1793.664,1046.738Z" transform="translate(-1791.752 -1011.901)" fill="#9c78ed"/><path d="M1796.972,1013.61l-5.22.233s.505,9.1,1.288,22.423a316.991,316.991,0,0,0,43.764.746c-.76-14.939-1.407-25.112-1.407-25.112l-35.483,1.576Z" transform="translate(-1791.752 -1011.901)" fill="#7846d1"/><g transform="translate(5.218 1.578)"><path d="M1800.865,1046.46c-.825-14.283-1.5-26.534-1.872-33.259l-2.943.132c.367,6.7,1.043,18.89,1.866,33.127Z" transform="translate(-1796.05 -1013.201)" fill="#7846d1"/></g></g><g transform="translate(1782.238 869.314)"><path d="M1743.187,1022.017c0,.732,0,1.452,0,2.162.017,12.977.08,23.034.144,27.971a207.6,207.6,0,0,0,37.608,6.6l1.7.127c.3.022.609.042.913.059.672.048,1.351.09,2.018.123.748.047,1.49.085,2.242.123a199.992,199.992,0,0,0,25.6-.459c1.724-.145,3.438-.31,5.162-.5l.33-.033c.438-.047.876-.1,1.32-.154l.795-.1a210.228,210.228,0,0,0,29.775-5.8c.027-2.241.038-5.567.038-9.758,0-.779,0-1.579-.005-2.418v0c-.006-5.995-.042-13.457-.107-21.892-.006-.721-.011-1.447-.016-2.183-.048-5.616-.107-11.632-.182-17.9-.011-.726-.016-1.452-.027-2.183-.08-6.433-.176-13.116-.288-19.9-.069-4.142-.144-8.322-.229-12.508-.086-4.238-.176-8.482-.278-12.7-.022-.918-.042-1.835-.069-2.754-.973-39.88-2.654-76.537-5.435-80.626-1.927-2.829-6.341-6.155-11.54-9.507q-.954-.61-1.939-1.228c-2.214-1.383-20.284-7.521-22.58-8.872l-19.1-1.334c-.118.069-18.38,6.229-18.5,6.293-.785.448-1.581.9-2.365,1.356-6.763,3.9-13.436,8.012-17.28,11.552a18.6,18.6,0,0,0-1.49,1.505,10.634,10.634,0,0,0-.891,1.142,6.008,6.008,0,0,0-.668,1.675c-2.311,8.4-3.523,41.4-4.126,77.3q-.064,3.86-.118,7.756-.024,1.706-.047,3.422c-.016.784-.027,1.575-.033,2.36l-.016,1.179q-.04,2.932-.063,5.84-.025,2.154-.048,4.3C1743.224,990.143,1743.171,1007.706,1743.187,1022.017Z" transform="translate(-1743.184 -846.379)" fill="#f9575c"/></g><g transform="translate(1744.653 890.935)"><g transform="translate(0 14.279)"><path d="M1715.657,1066.969c-.47,5.1,5.739,2.333,3.982-8s3.224-19.681,5.37-19.382-1.779,11.279.133,15.235,4.371-3.732,6.827-8.392c2.546-4.841,2.4-15.405,1.239-22.943s12.507-53.338,12.577-66.608l1.665-5.627,6.1-20.6,9.544-32.258s-5.716-24.417-15.357-22.319c0,0-5.1,17.008-10.559,36.187-.924,3.256-1.858,6.576-2.781,9.885-3.886,13.906-7.537,27.636-9.235,35.782-4.484,21.507-4.831,66.214-4.831,66.214s-7.91,16.425-8.1,23.733C1712.033,1055.674,1716.121,1061.871,1715.657,1066.969Z" transform="translate(-1712.223 -875.952)" fill="#f8c6a3"/><path d="M1730.486,915.751l13.057,29.1,6.1-20.6-16.372-18.389C1732.344,909.122,1731.41,912.442,1730.486,915.751Z" transform="translate(-1708.316 -869.551)" fill="#ee9681"/></g><path d="M1729.953,916c5.728,9.821,11.552,19.59,17.354,29.374,1.911-6.4,3.892-12.544,5.749-18.191.005-.016.011-.027.016-.043.742-2.258,1.468-4.437,2.162-6.518a.668.668,0,0,1,.038-.107c.24-.732.475-1.452.715-2.157v0c2.77-8.375,4.917-15.033,5.53-18.914,1.656-10.446-2.855-30.913-9.208-34.948h0c-.165.368-.666-.768-.965-.075-1.116,2.578-6.07,8.947-8.521,15.15-.314.789-.635,1.612-.965,2.45C1738.308,891.142,1733.967,903.008,1729.953,916Z" transform="translate(-1708.43 -864.189)" fill="#f9575c"/></g><g transform="translate(1778.708 875.609)"><g transform="translate(44.582 2.157)"><path d="M1790.505,863.987c8.271,0,14.1-7.546,14.346-7.867a1.119,1.119,0,0,0-.145-1.5.955.955,0,0,0-1.4.155c-.075.1-5.5,7.079-12.8,7.079-7.206,0-11.6-7.9-11.644-7.979a.964.964,0,0,0-1.364-.386,1.109,1.109,0,0,0-.362,1.458C1777.335,855.314,1782.136,863.987,1790.505,863.987Z" transform="translate(-1777 -853.342)" fill="#ee4652"/></g><g transform="translate(88.443 75.331)"><path d="M1817.745,923.4a.95.95,0,0,0,.454-.116,1.113,1.113,0,0,0,.443-1.446l-3.607-7.624a.976.976,0,0,0-1.352-.473,1.112,1.112,0,0,0-.443,1.447l3.607,7.622A1,1,0,0,0,1817.745,923.4Z" transform="translate(-1813.13 -913.619)" fill="#ee4652"/></g><g transform="translate(100.099 68.363)"><path d="M1823.207,918.379a.967.967,0,0,0,.443.158,1.028,1.028,0,0,0,1.092-.977l.706-8.509a1.056,1.056,0,0,0-.913-1.168,1.028,1.028,0,0,0-1.091.977l-.708,8.51A1.1,1.1,0,0,0,1823.207,918.379Z" transform="translate(-1822.732 -907.879)" fill="#ee4652"/></g><g transform="translate(80.188 55.086)"><path d="M1807.339,907.525a1.029,1.029,0,0,0,.992-.9l1.3-8.429a1.072,1.072,0,0,0-.829-1.238,1.017,1.017,0,0,0-1.157.887l-1.3,8.429a1.073,1.073,0,0,0,.829,1.238A.976.976,0,0,0,1807.339,907.525Z" transform="translate(-1806.33 -896.942)" fill="#ee4652"/></g><g transform="translate(43.716 59.302)"><path d="M1781.363,909.919a.954.954,0,0,0,.512-.151,1.12,1.12,0,0,0,.353-1.475l-4.069-7.351a.971.971,0,0,0-1.379-.379,1.12,1.12,0,0,0-.353,1.475l4.069,7.352A1,1,0,0,0,1781.363,909.919Z" transform="translate(-1776.286 -900.415)" fill="#ee4652"/></g><g transform="translate(87.592 29.065)"><path d="M1813.438,882.3a.947.947,0,0,0,.545-.172l6.707-4.639a1.121,1.121,0,0,0,.3-1.488.969.969,0,0,0-1.391-.321l-6.707,4.64a1.123,1.123,0,0,0-.3,1.488A1,1,0,0,0,1813.438,882.3Z" transform="translate(-1812.429 -875.508)" fill="#ee4652"/></g><g transform="translate(54.106 94.567)"><path d="M1789.461,939.24a.953.953,0,0,0,.454-.117,1.112,1.112,0,0,0,.443-1.446l-3.607-7.622a.977.977,0,0,0-1.353-.475,1.114,1.114,0,0,0-.443,1.447l3.607,7.622A1,1,0,0,0,1789.461,939.24Z" transform="translate(-1784.846 -929.464)" fill="#ee4652"/></g><g transform="translate(66.793 34.906)"><path d="M1803.073,887.006a.991.991,0,0,0,.854-.506,1.121,1.121,0,0,0-.319-1.483l-6.77-4.533a.97.97,0,0,0-1.388.341,1.122,1.122,0,0,0,.319,1.483l6.77,4.533A.954.954,0,0,0,1803.073,887.006Z" transform="translate(-1795.296 -880.319)" fill="#ee4652"/></g><g transform="translate(90.669 3.913)"><path d="M1814.967,860.772a1.094,1.094,0,0,0,.116.583,1,1,0,0,0,.818.566,1.032,1.032,0,0,0,1.073-1l.319-4.906q-.95-.608-1.936-1.227Z" transform="translate(-1814.964 -854.788)" fill="#ee4652"/></g><g transform="translate(91.921 49.98)"><path d="M1823.772,899.423a.991.991,0,0,0,.853-.506,1.121,1.121,0,0,0-.318-1.483l-6.772-4.533a.968.968,0,0,0-1.386.341,1.121,1.121,0,0,0,.318,1.484l6.77,4.533A.955.955,0,0,0,1823.772,899.423Z" transform="translate(-1815.995 -892.736)" fill="#ee4652"/></g><g transform="translate(40.836 11.049)"><path d="M1778.782,869.087a.958.958,0,0,0,.554-.177,1.124,1.124,0,0,0,.286-1.492l-3.86-6.266a.967.967,0,0,0-1.4-.306,1.123,1.123,0,0,0-.286,1.491l3.86,6.267A.989.989,0,0,0,1778.782,869.087Z" transform="translate(-1773.914 -860.667)" fill="#ee4652"/></g><g transform="translate(41.237 119.4)"><path d="M1775.25,958.236a.97.97,0,0,0,.726-.331l5.532-6.162a1.13,1.13,0,0,0-.029-1.522.96.96,0,0,0-1.423.032l-5.532,6.162a1.131,1.131,0,0,0,.029,1.522A.972.972,0,0,0,1775.25,958.236Z" transform="translate(-1774.244 -949.92)" fill="#ee4652"/></g><g transform="translate(61.565 118.119)"><path d="M1792,957.181a.974.974,0,0,0,.726-.331l5.532-6.163a1.129,1.129,0,0,0-.029-1.521.96.96,0,0,0-1.423.031l-5.532,6.162a1.128,1.128,0,0,0,.029,1.522A.967.967,0,0,0,1792,957.181Z" transform="translate(-1790.99 -948.865)" fill="#ee4652"/></g><g transform="translate(71.784 158.933)"><path d="M1804.811,991.643a1.15,1.15,0,0,0-.035-.844l-3.454-7.7a.979.979,0,0,0-1.342-.506,1.111,1.111,0,0,0-.472,1.436l3.454,7.7a.978.978,0,0,0,1.343.505A1.052,1.052,0,0,0,1804.811,991.643Z" transform="translate(-1799.407 -982.485)" fill="#ee4652"/></g><g transform="translate(13.448 184.351)"><path d="M1756.755,1012.581a1.141,1.141,0,0,0-.034-.843l-3.454-7.7a.978.978,0,0,0-1.343-.5,1.109,1.109,0,0,0-.472,1.435l3.454,7.7a.978.978,0,0,0,1.343.505A1.043,1.043,0,0,0,1756.755,1012.581Z" transform="translate(-1751.354 -1003.424)" fill="#ee4652"/></g><g transform="translate(43.901 200.351)"><path d="M1776.439,1022.52c.674.049,1.348.091,2.017.124l.7-4.8a1.067,1.067,0,0,0-.838-1.227,1.016,1.016,0,0,0-1.148.9Z" transform="translate(-1776.439 -1016.603)" fill="#ee4652"/></g><g transform="translate(34.284 181.366)"><path d="M1770.1,1011.364a1.083,1.083,0,0,0,.418-.716l1.237-8.441a1.069,1.069,0,0,0-.839-1.23,1.018,1.018,0,0,0-1.15.9l-1.236,8.441a1.068,1.068,0,0,0,.838,1.23A.953.953,0,0,0,1770.1,1011.364Z" transform="translate(-1768.517 -1000.964)" fill="#ee4652"/></g><g transform="translate(79.426 111.647)"><path d="M1810.712,953.081a.951.951,0,0,0,.5-.146,1.115,1.115,0,0,0,.367-1.47l-4-7.394a.972.972,0,0,0-1.376-.392,1.119,1.119,0,0,0-.366,1.471l4,7.393A1,1,0,0,0,1810.712,953.081Z" transform="translate(-1805.703 -943.534)" fill="#ee4652"/></g><g transform="translate(71.68 92.966)"><path d="M1800.328,937.892a1,1,0,0,0,.9-.583l3.661-7.592a1.115,1.115,0,0,0-.433-1.451.975.975,0,0,0-1.356.464l-3.661,7.592a1.113,1.113,0,0,0,.432,1.45A.943.943,0,0,0,1800.328,937.892Z" transform="translate(-1799.322 -928.145)" fill="#ee4652"/></g><g transform="translate(104.269 95.274)"><path d="M1826.405,936.372a1.03,1.03,0,0,0,.379.3.962.962,0,0,0,1.038-.171l4.118-3.7c-.021-.918-.04-1.836-.064-2.755l-5.351,4.8A1.133,1.133,0,0,0,1826.405,936.372Z" transform="translate(-1826.167 -930.046)" fill="#ee4652"/></g><g transform="translate(71.732 12.42)"><path d="M1800.37,871.542a1,1,0,0,0,.9-.584l3.661-7.591a1.114,1.114,0,0,0-.432-1.451.975.975,0,0,0-1.356.464l-3.662,7.591a1.114,1.114,0,0,0,.433,1.451A.947.947,0,0,0,1800.37,871.542Z" transform="translate(-1799.365 -861.796)" fill="#ee4652"/></g><g transform="translate(46.745 39.439)"><path d="M1781.3,894.594a.939.939,0,0,0,.192-.02,1.075,1.075,0,0,0,.8-1.261l-1.515-8.387a1.012,1.012,0,0,0-1.179-.853,1.075,1.075,0,0,0-.8,1.261l1.515,8.387A1.027,1.027,0,0,0,1781.3,894.594Z" transform="translate(-1778.782 -884.053)" fill="#ee4652"/></g><g transform="translate(59.813 46.805)"><path d="M1792.068,900.66a.945.945,0,0,0,.192-.019,1.074,1.074,0,0,0,.8-1.26l-1.515-8.388a1.013,1.013,0,0,0-1.179-.852,1.074,1.074,0,0,0-.8,1.26l1.515,8.388A1.026,1.026,0,0,0,1792.068,900.66Z" transform="translate(-1789.547 -890.12)" fill="#ee4652"/></g><g transform="translate(51.966 20.305)"><path d="M1784.089,877.657a.993.993,0,0,0,.851-.5l4.28-7.212a1.122,1.122,0,0,0-.31-1.486.97.97,0,0,0-1.389.331L1783.24,876a1.122,1.122,0,0,0,.31,1.486A.962.962,0,0,0,1784.089,877.657Z" transform="translate(-1783.083 -868.291)" fill="#ee4652"/></g><g transform="translate(87.058 94.524)"><path d="M1817.172,938.952a1.138,1.138,0,0,0,.173-1.2l-3.44-7.71a.978.978,0,0,0-1.342-.507,1.109,1.109,0,0,0-.476,1.435l3.44,7.71a.978.978,0,0,0,1.343.508A1.026,1.026,0,0,0,1817.172,938.952Z" transform="translate(-1811.989 -929.428)" fill="#ee4652"/></g><g transform="translate(65.338 71.568)"><path d="M1795.1,920.628a1.01,1.01,0,0,0,.938-.685l2.911-7.955a1.1,1.1,0,0,0-.572-1.395.985.985,0,0,0-1.3.611l-2.911,7.955a1.1,1.1,0,0,0,.571,1.394A.944.944,0,0,0,1795.1,920.628Z" transform="translate(-1794.097 -910.519)" fill="#ee4652"/></g><g transform="translate(29.746 121.038)"><path d="M1769.393,961.045a.95.95,0,0,0,.454-.117,1.111,1.111,0,0,0,.443-1.446l-3.607-7.623a.976.976,0,0,0-1.352-.475,1.112,1.112,0,0,0-.443,1.447l3.607,7.623A1,1,0,0,0,1769.393,961.045Z" transform="translate(-1764.779 -951.269)" fill="#ee4652"/></g><g transform="translate(87.368 180.58)"><path d="M1812.245,1005.335a1.131,1.131,0,0,0,.113.484.976.976,0,0,0,1.356.46l7.093-3.93a1.114,1.114,0,0,0,.43-1.452.976.976,0,0,0-1.356-.46l-7.093,3.93A1.089,1.089,0,0,0,1812.245,1005.335Z" transform="translate(-1812.245 -1000.317)" fill="#ee4652"/></g><g transform="translate(106.623 187.302)"><path d="M1828.106,1009.036a1.125,1.125,0,0,0,.109.486.977.977,0,0,0,1.358.459l3.084-1.708c0-.779,0-1.581-.005-2.418l-4,2.215A1.086,1.086,0,0,0,1828.106,1009.036Z" transform="translate(-1828.106 -1005.854)" fill="#ee4652"/></g><g transform="translate(76.725 198.451)"><path d="M1803.574,1016.573l2.426,5.541c.439-.047.879-.1,1.323-.154l.792-.1-2.719-6.2a.976.976,0,0,0-1.338-.518A1.105,1.105,0,0,0,1803.574,1016.573Z" transform="translate(-1803.477 -1015.038)" fill="#ee4652"/></g><g transform="translate(20.263 100.793)"><path d="M1757.976,945.175a1.029,1.029,0,0,0,.992-.9l1.3-8.43a1.07,1.07,0,0,0-.829-1.237,1.015,1.015,0,0,0-1.157.886l-1.3,8.429a1.071,1.071,0,0,0,.829,1.238A.965.965,0,0,0,1757.976,945.175Z" transform="translate(-1756.968 -934.593)" fill="#ee4652"/></g><g transform="translate(15.364 39.679)"><path d="M1758.009,893.754a.95.95,0,0,0,.511-.149,1.119,1.119,0,0,0,.353-1.475l-4.069-7.35a.969.969,0,0,0-1.378-.379,1.118,1.118,0,0,0-.353,1.475l4.069,7.351A.991.991,0,0,0,1758.009,893.754Z" transform="translate(-1752.932 -884.25)" fill="#ee4652"/></g><g transform="translate(32.516 72.27)"><path d="M1768.069,917.889a.956.956,0,0,0,.545-.172l6.707-4.639a1.122,1.122,0,0,0,.3-1.49.969.969,0,0,0-1.391-.319l-6.707,4.64a1.123,1.123,0,0,0-.3,1.488A.994.994,0,0,0,1768.069,917.889Z" transform="translate(-1767.061 -911.097)" fill="#ee4652"/></g><g transform="translate(99.925 119.4)"><path d="M1827.2,959.695a.948.948,0,0,0,.454-.115,1.113,1.113,0,0,0,.443-1.447l-3.607-7.623a.975.975,0,0,0-1.352-.473,1.111,1.111,0,0,0-.443,1.446l3.607,7.622A1,1,0,0,0,1827.2,959.695Z" transform="translate(-1822.588 -949.92)" fill="#ee4652"/></g><g transform="translate(14.32 83.956)"><path d="M1759.848,927.41a1,1,0,0,0,.854-.506,1.123,1.123,0,0,0-.319-1.483l-6.77-4.533a.969.969,0,0,0-1.388.341,1.121,1.121,0,0,0,.319,1.483l6.77,4.533A.95.95,0,0,0,1759.848,927.41Z" transform="translate(-1752.072 -920.723)" fill="#ee4652"/></g><g transform="translate(35.908 91.313)"><path d="M1772.273,936.9a.962.962,0,0,0,.948.249,1.089,1.089,0,0,0,.708-1.322l-2.1-8.244a1,1,0,0,0-1.235-.756,1.088,1.088,0,0,0-.708,1.322l2.1,8.243A1.1,1.1,0,0,0,1772.273,936.9Z" transform="translate(-1769.855 -926.784)" fill="#ee4652"/></g><g transform="translate(9.752 12.907)"><path d="M1748.309,863.7l1.752,2.841a1,1,0,0,0,.844.479.924.924,0,0,0,.549-.176,1.123,1.123,0,0,0,.29-1.489l-1.947-3.16A19.576,19.576,0,0,0,1748.309,863.7Z" transform="translate(-1748.309 -862.197)" fill="#ee4652"/></g><g transform="translate(2.096 30.705)"><path d="M1742,879.308l1.862,3.022a.969.969,0,0,0,1.4.31,1.129,1.129,0,0,0,.284-1.494l-2.64-4.287C1742.612,877.647,1742.312,878.47,1742,879.308Z" transform="translate(-1742.002 -876.858)" fill="#ee4652"/></g><g transform="translate(88.148 147.474)"><path d="M1813.895,981.362a.97.97,0,0,0,.726-.331l5.532-6.162a1.131,1.131,0,0,0-.029-1.522.959.959,0,0,0-1.423.031l-5.532,6.162a1.128,1.128,0,0,0,.029,1.522A.967.967,0,0,0,1813.895,981.362Z" transform="translate(-1812.888 -973.046)" fill="#ee4652"/></g><g transform="translate(51.34 169.019)"><path d="M1783.573,999.109a.971.971,0,0,0,.726-.33l5.532-6.163a1.127,1.127,0,0,0-.029-1.521.959.959,0,0,0-1.423.03l-5.532,6.163a1.13,1.13,0,0,0,.029,1.521A.967.967,0,0,0,1783.573,999.109Z" transform="translate(-1782.567 -990.793)" fill="#ee4652"/></g><g transform="translate(39.331 158.547)"><path d="M1775.46,992.4a1.117,1.117,0,0,0,.216-.812l-1-8.476a1.023,1.023,0,0,0-1.124-.934,1.062,1.062,0,0,0-.873,1.2l1,8.476a1.021,1.021,0,0,0,1.124.934A.985.985,0,0,0,1775.46,992.4Z" transform="translate(-1772.675 -982.167)" fill="#ee4652"/></g><g transform="translate(62.076 184.351)"><path d="M1792.417,1011.74a.974.974,0,0,0,.726-.331l5.532-6.163a1.128,1.128,0,0,0-.029-1.521.96.96,0,0,0-1.423.03l-5.532,6.163a1.129,1.129,0,0,0,.029,1.521A.967.967,0,0,0,1792.417,1011.74Z" transform="translate(-1791.41 -1003.424)" fill="#ee4652"/></g><g transform="translate(3.531 169.345)"><path d="M1743.187,991.062c-.005.731,0,1.452,0,2.162l6.245.56a1.026,1.026,0,0,0,1.088-.982,1.057,1.057,0,0,0-.919-1.163Z" transform="translate(-1743.184 -991.062)" fill="#ee4652"/></g><g transform="translate(75.654 134.515)"><path d="M1803.6,970.687a.97.97,0,0,0,.726-.331l5.532-6.162a1.131,1.131,0,0,0-.029-1.522.96.96,0,0,0-1.423.031l-5.532,6.162a1.131,1.131,0,0,0,.029,1.522A.968.968,0,0,0,1803.6,970.687Z" transform="translate(-1802.595 -962.371)" fill="#ee4652"/></g><g transform="translate(50.043 139.005)"><path d="M1781.5,967.217a1.1,1.1,0,0,0,.357.753l6.115,5.5a.959.959,0,0,0,1.417-.131,1.127,1.127,0,0,0-.123-1.516l-6.114-5.5a.962.962,0,0,0-1.418.131A1.118,1.118,0,0,0,1781.5,967.217Z" transform="translate(-1781.498 -966.07)" fill="#ee4652"/></g><g transform="translate(15.907 160.849)"><path d="M1758.388,993.611a.955.955,0,0,0,.5-.146,1.118,1.118,0,0,0,.367-1.47l-4-7.394a.972.972,0,0,0-1.375-.392,1.117,1.117,0,0,0-.367,1.471l4,7.393A1,1,0,0,0,1758.388,993.611Z" transform="translate(-1753.379 -984.064)" fill="#ee4652"/></g><g transform="translate(12.983 138.673)"><path d="M1751.976,975.542a1,1,0,0,0,.9-.583l3.661-7.592a1.113,1.113,0,0,0-.432-1.449.975.975,0,0,0-1.356.462l-3.662,7.592a1.114,1.114,0,0,0,.433,1.451A.945.945,0,0,0,1751.976,975.542Z" transform="translate(-1750.971 -965.796)" fill="#ee4652"/></g><g transform="translate(23.906 52.472)"><path d="M1760.974,904.534a1,1,0,0,0,.9-.583l3.661-7.592a1.111,1.111,0,0,0-.432-1.449.976.976,0,0,0-1.356.462l-3.662,7.592a1.115,1.115,0,0,0,.433,1.451A.948.948,0,0,0,1760.974,904.534Z" transform="translate(-1759.969 -894.789)" fill="#ee4652"/></g><g transform="translate(18.394 19.816)"><path d="M1757.948,878.429a.953.953,0,0,0,.192-.02,1.074,1.074,0,0,0,.8-1.26l-1.514-8.389a1.012,1.012,0,0,0-1.18-.852,1.074,1.074,0,0,0-.8,1.26l1.514,8.389A1.027,1.027,0,0,0,1757.948,878.429Z" transform="translate(-1755.428 -867.889)" fill="#ee4652"/></g><g transform="translate(0 48.761)"><path d="M1742.8,902.273a.942.942,0,0,0,.192-.021,1.076,1.076,0,0,0,.8-1.26l-1.515-8.388a1.012,1.012,0,0,0-1.179-.852,1.074,1.074,0,0,0-.8,1.26l1.514,8.389A1.027,1.027,0,0,0,1742.8,902.273Z" transform="translate(-1740.276 -891.732)" fill="#ee4652"/></g><g transform="translate(31.462 27.181)"><path d="M1768.712,884.5a.929.929,0,0,0,.192-.019,1.074,1.074,0,0,0,.8-1.26l-1.514-8.388a1.015,1.015,0,0,0-1.18-.853,1.077,1.077,0,0,0-.8,1.261l1.515,8.387A1.026,1.026,0,0,0,1768.712,884.5Z" transform="translate(-1766.192 -873.955)" fill="#ee4652"/></g><g transform="translate(27.208)"><path d="M1763.465,860.069a.947.947,0,0,0,.558-.033,1.054,1.054,0,0,0,.649-.769l1.691-7.7c-.783.448-1.577.9-2.365,1.356l-1.283,5.85A1.081,1.081,0,0,0,1763.465,860.069Z" transform="translate(-1762.688 -851.565)" fill="#ee4652"/></g><g transform="translate(3.95 62.905)"><path d="M1744.536,912.748a.989.989,0,0,0,.85-.5l4.282-7.212a1.122,1.122,0,0,0-.311-1.486.967.967,0,0,0-1.389.331l-4.282,7.212a1.122,1.122,0,0,0,.311,1.486A.952.952,0,0,0,1744.536,912.748Z" transform="translate(-1743.53 -903.383)" fill="#ee4652"/></g><g transform="translate(28.361 140.229)"><path d="M1768.821,976.6a1.138,1.138,0,0,0,.174-1.2l-3.44-7.71a.978.978,0,0,0-1.342-.507,1.108,1.108,0,0,0-.475,1.435l3.439,7.71a.979.979,0,0,0,1.343.508A1.023,1.023,0,0,0,1768.821,976.6Z" transform="translate(-1763.638 -967.078)" fill="#ee4652"/></g><g transform="translate(103.499 162.099)"><path d="M1826.376,987.236l6.723,1.164c0-.721-.01-1.447-.021-2.184l-6.378-1.11a1.016,1.016,0,0,0-1.153.891A1.071,1.071,0,0,0,1826.376,987.236Z" transform="translate(-1825.533 -985.093)" fill="#ee4652"/></g><g transform="translate(105.546 142.405)"><path d="M1828.061,971.009l4.476.774c-.01-.726-.015-1.452-.024-2.183l-4.127-.716a1.016,1.016,0,0,0-1.153.892A1.064,1.064,0,0,0,1828.061,971.009Z" transform="translate(-1827.219 -968.87)" fill="#ee4652"/></g><g transform="translate(6.641 117.274)"><path d="M1746.753,958.278a1.011,1.011,0,0,0,.938-.685l2.911-7.955a1.1,1.1,0,0,0-.571-1.395.986.986,0,0,0-1.3.61l-2.911,7.955a1.1,1.1,0,0,0,.571,1.395A.955.955,0,0,0,1746.753,958.278Z" transform="translate(-1745.747 -948.169)" fill="#ee4652"/></g></g><g transform="translate(1782.657 944.218)"><path d="M1743.529,941.758c1.89-7.809,4.266-16.489,6.62-23.967l.016-.042c.726-2.312,1.452-4.505,2.162-6.518a.636.636,0,0,1,.037-.107c.219-.635.443-1.249.662-1.848a1.089,1.089,0,0,0,.053-.309v0a.888.888,0,0,0-1.724-.294c-2.413,6.576-5.264,16.046-7.709,25.334Q1743.583,937.862,1743.529,941.758Z" transform="translate(-1743.529 -908.081)" fill="#ee4652"/></g><g transform="translate(1805.405 781.433)"><path d="M1768.177,819.673s-7.008-7.724-4.363-16.711,9.882-8.887,9.882-8.887,4.222-9.558,11.412-9.873,13.969-13.085,20.513-9.617-.709,11.036-.709,11.036,11.21-11.824,14.906-8.356-5.131,12.77-5.131,12.77,9.419-6.621,12.514-4.1-7.382,13.4-7.382,13.4,6.779,12.219-.044,17.7Z" transform="translate(-1762.064 -773.988)" fill="#363638"/><g transform="translate(53.359 45.281)"><path d="M1807.946,814.278s4.482-5.975,7.815-1.033-1.379,19.535-9.539,15.973Z" transform="translate(-1806.222 -811.288)" fill="#f8c6a3"/><g transform="translate(1.092 5.232)"><path d="M1807.812,823.785a.692.692,0,0,0,.664-.5c1.264-4.506,5.932-6.333,5.98-6.351a.689.689,0,0,0-.489-1.289c-.219.083-5.362,2.078-6.819,7.268a.689.689,0,0,0,.477.85A.662.662,0,0,0,1807.812,823.785Z" transform="translate(-1807.122 -815.597)" fill="#ee9681"/></g><g transform="translate(3.514 7.941)"><path d="M1812.1,821.039a.681.681,0,0,0,.374-.11.691.691,0,0,0,.206-.953,6.294,6.294,0,0,0-2.588-2.085.689.689,0,1,0-.563,1.258,5,5,0,0,1,1.992,1.574A.687.687,0,0,0,1812.1,821.039Z" transform="translate(-1809.117 -817.829)" fill="#ee9681"/></g></g><g transform="translate(0 45.281)"><path d="M1771.163,814.278s-4.482-5.975-7.814-1.033,1.378,19.535,9.538,15.973Z" transform="translate(-1762.268 -811.288)" fill="#f8c6a3"/><g transform="translate(1.75 5.232)"><path d="M1770.8,823.785a.692.692,0,0,1-.664-.5c-1.264-4.506-5.932-6.333-5.979-6.351a.689.689,0,0,1,.488-1.289c.219.083,5.363,2.078,6.819,7.268a.688.688,0,0,1-.477.85A.662.662,0,0,1,1770.8,823.785Z" transform="translate(-1763.709 -815.597)" fill="#ee9681"/></g><g transform="translate(3.437 7.941)"><path d="M1765.788,821.039a.69.69,0,0,1-.579-1.064,6.276,6.276,0,0,1,2.587-2.085.689.689,0,0,1,.563,1.258,4.978,4.978,0,0,0-1.991,1.574A.69.69,0,0,1,1765.788,821.039Z" transform="translate(-1765.099 -817.829)" fill="#ee9681"/></g></g><path d="M1779.53,836.255v14.514s4.329,7.392,10.183,7.9,11.045-6.365,11.045-6.365V837.276Z" transform="translate(-1758.574 -760.664)" fill="#f8c6a3"/><path d="M1779.53,836.255v6.44c3.928,4.358,10.9,5.447,21.227,3.924v-9.343Z" transform="translate(-1758.574 -760.664)" fill="#ee9681"/><path d="M1767.655,809.036a135.106,135.106,0,0,0,1.817,17.711v.016a.232.232,0,0,0,.01.052l.006.011c.256,1.329.544,2.581.859,3.706.188.659.392,1.35.623,2.058,3.324,10.428,11.025,25.521,30.381,18.616,8.151-2.905,12.4-11.324,14.559-20.454.125-.545.246-1.084.351-1.6.073-.345.141-.68.2-1.01l.094-.487c.015-.084.026-.141.03-.178a.128.128,0,0,0,.006-.032,100.032,100.032,0,0,0,1.377-19.192,14.643,14.643,0,0,0-7.428-12.455c-12.193-6.916-25.067-4.335-33.543-1.078A14.58,14.58,0,0,0,1767.655,809.036Z" transform="translate(-1761.118 -770.257)" fill="#f8c6a3"/><path d="M1768.472,820.689l0,.017a.279.279,0,0,0,.011.053l0,.011c.131.472.835,3.057,1.535,5.965,3.441,10.793,11.41,26.415,31.443,19.268,8.436-3.007,12.83-11.72,15.068-21.169.13-.563.255-1.122.363-1.658.076-.358.147-.7.211-1.045l.1-.505c.016-.086.027-.146.032-.183a.137.137,0,0,0,.006-.033l-2.948-.6a22.472,22.472,0,0,1-3.339,7.754c-2.492-5.971-15.138-2-15.138-2l-.059.021a7.835,7.835,0,0,1-4.779-.021s-12.5-4.14-15.085,1.555a79.556,79.556,0,0,1-4.346-7.645l-3.077.216Zm24.9,8.578c14.3-1.929,12.051,5.77,12.051,5.77a24,24,0,0,1-4.016,3.051,16.47,16.47,0,0,1-8.42,2.292c-2.193-.092-2.8.358-8.344-2.644a14,14,0,0,1-2.943-2.232h0v0C1781.459,833.992,1779.037,826.8,1793.374,829.267Z" transform="translate(-1760.94 -764.041)" fill="#363638"/><path d="M1778.312,814.693c0,1.549.8,2.8,1.783,2.8s1.783-1.255,1.783-2.8-.8-2.805-1.783-2.805S1778.312,813.142,1778.312,814.693Z" transform="translate(-1758.834 -765.878)" fill="#363638"/><path d="M1796.678,814.693c0,1.549.8,2.8,1.783,2.8s1.783-1.255,1.783-2.8-.8-2.805-1.783-2.805S1796.678,813.142,1796.678,814.693Z" transform="translate(-1754.905 -765.878)" fill="#363638"/><path d="M1774.611,806.661s7.37-2.914,13.045-.461l-.568,3.155s-8.329-.7-12.525,1A5.476,5.476,0,0,1,1774.611,806.661Z" transform="translate(-1759.7 -767.305)" fill="#363638"/><path d="M1805.732,806.673s-7.425-2.934-13.141-.464l.572,3.179s8.391-.71,12.618,1A5.511,5.511,0,0,0,1805.732,806.673Z" transform="translate(-1755.779 -767.305)" fill="#363638"/><g transform="translate(28.826 47.863)"><path d="M1788.936,826.9a7.362,7.362,0,0,1-2.5-.526.69.69,0,0,1,.522-1.277c.623.253,2.117.649,2.765.261a.747.747,0,0,0,.339-.642c.25-2.407-.41-10.478-.416-10.559a.689.689,0,0,1,1.374-.114c.028.338.676,8.282.414,10.815a2.106,2.106,0,0,1-1,1.684A2.9,2.9,0,0,1,1788.936,826.9Z" transform="translate(-1786.013 -813.414)" fill="#ee9681"/></g><path d="M1798.52,828.852c-.523,2.633-2.263,7.479-8.124,7.479s-7.523-4.429-8.09-7.479Z" transform="translate(-1757.98 -762.248)" fill="#fff"/><path d="M1766.928,808.763a141.289,141.289,0,0,0,1.883,18.333l3.082-.217s-.747-4.762-1.093-7.865-.93-8.9,1.718-9.627,1.091-7.334,4.766-10.2,11.9-3.664,17.316-.327,11.527-.253,14.023.327,5.9,4.021,4.978,7.24,1.834,5.172,2.5,8.5-1.469,12.294-1.469,12.294l2.945.592a103.448,103.448,0,0,0,1.426-19.858,15.15,15.15,0,0,0-7.688-12.894c-12.625-7.158-25.946-4.489-34.717-1.117A15.1,15.1,0,0,0,1766.928,808.763Z" transform="translate(-1761.274 -770.447)" fill="#363638"/></g><g transform="translate(1856.324 867.098)"><g transform="translate(0 103.311)"><path d="M1885.831,934.308c-1.874,17.1-13.035,55.287-20.765,62.767-10.06,9.74-43.171,30.245-60.419,40.758-3.112,1.9,11.5,14.526,11.5,14.526s45.793-19.583,63.283-35.022c4.947-4.368,14.991-18.143,26.332-44.384,3.438-7.956,11.769-24,11.337-34.462C1916.605,926.45,1897.477,928.433,1885.831,934.308Z" transform="translate(-1804.212 -929.655)" fill="#2ca5c6"/></g><path d="M1846.578,1014.38s-12.454,4.73-16.868,9.931-10.248,9.617-8.829,11.667,7.882-3.942,7.882-3.942,1.773,6.586,8.041,7.3,18.129-11.553,18.129-11.553Z" transform="translate(-1800.692 -808.216)" fill="#f8c6a3"/><g transform="translate(63.815)"><g transform="translate(0 85.737)"><path d="M1961.794,985.136c0,1.082-.006,2.362-.026,3.812s-.049,3.056-.094,4.818c-.034,1.208-.072,2.485-.117,3.825q-.06,1.693-.132,3.512-.08,1.859-.174,3.835c-.867,17.9-2.963,42.624-7.574,62.44h-96.9c3.231-14.4,8.176-37.121,12.1-66.6q.246-1.857.489-3.755t.476-3.828c.085-.685.167-1.375.249-2.066q.1-.856.2-1.7.269-2.384.489-4.685c.123-1.281.236-2.538.344-3.78,1.662-19.818,1.074-34.669,3.462-43.565,2.781-10.354,35.208-22.225,35.208-22.225l20.316,1.062s19.369,6.325,29.724,15.415,1.7,36.227,1.948,51.633C1961.788,983.819,1961.79,984.437,1961.794,985.136Z" transform="translate(-1856.779 -915.179)" fill="#40bedb"/><g transform="translate(13.997 65.79)"><path d="M1959.3,977.352a226.319,226.319,0,0,1-27.018,1.492,401.091,401.091,0,0,1-63.974-5.691c.123-1.281.236-2.538.344-3.78,7.8,1.38,52.944,8.847,90.674,4.168C1959.33,974.622,1959.321,975.9,1959.3,977.352Z" transform="translate(-1868.309 -969.373)" fill="#bce3f6"/></g><g transform="translate(13.064 74.255)"><path d="M1959.371,980.679c-.034,1.208-.072,2.485-.117,3.825a226.942,226.942,0,0,1-26.807,1.463,400.779,400.779,0,0,1-64.907-5.855c.085-.685.167-1.375.249-2.066q.1-.856.2-1.7C1872.475,977.167,1919.941,985.541,1959.371,980.679Z" transform="translate(-1867.54 -976.346)" fill="#bce3f6"/></g><g transform="translate(12.098 81.848)"><path d="M1959.292,986.678q-.08,1.859-.174,3.835a224.044,224.044,0,0,1-27.971,1.607,400.974,400.974,0,0,1-64.4-5.764q.246-1.857.489-3.755C1874.228,983.847,1920.859,991.707,1959.292,986.678Z" transform="translate(-1866.745 -982.601)" fill="#bce3f6"/></g><g transform="translate(57.238 7.105)"><path d="M1905.561,933.416c10.1,0,19.421-10.736,19.824-11.207a.712.712,0,1,0-1.081-.927c-.1.113-9.857,11.358-19.613,10.681a.712.712,0,0,0-.1,1.421C1904.915,933.406,1905.239,933.416,1905.561,933.416Z" transform="translate(-1903.929 -921.032)" fill="#2ca5c6"/></g><g transform="translate(29.293 89.642)"><path d="M1919.244,1039.619a.713.713,0,0,0,.081-1.422c-26.094-3-36.9-48.169-37.009-48.625a.713.713,0,0,0-1.389.323c.443,1.9,11.153,46.6,38.234,49.719A.666.666,0,0,0,1919.244,1039.619Z" transform="translate(-1880.909 -989.021)" fill="#2ca5c6"/></g><g transform="translate(40.234 103.351)"><path d="M1906.925,1023.535a.712.712,0,0,0,.375-1.318c-13.879-8.557-15.942-21.169-15.961-21.3a.713.713,0,0,0-1.409.213c.081.542,2.155,13.377,16.622,22.3A.716.716,0,0,0,1906.925,1023.535Z" transform="translate(-1889.922 -1000.314)" fill="#2ca5c6"/></g></g><g transform="translate(30.098)"><circle cx="28.585" cy="28.585" r="28.585" transform="translate(6.657 10.201)" fill="#363638"/><path d="M1888.7,878.215s-8.095-2.235-7.028-10.092c.91-6.687,8.764-2.352,8.073-7.578s-2.225-9.978,4.535-11.284c5.913-1.144,6.013,2.91,13.779-2.971,9.173-6.945,16.221,9.139,24.408,9.622,12.077.713,13.6,7.542,14.789,13.006s-3.461,9.3-3.461,9.3Z" transform="translate(-1881.572 -844.554)" fill="#363638"/><g transform="translate(2.473 43.763)"><path d="M1892.6,883.626s-4.528-6.038-7.894-1.045,1.394,19.737,9.636,16.137Z" transform="translate(-1883.61 -880.603)" fill="#f8c6a3"/><g transform="translate(1.768 5.286)"><path d="M1892.226,893.23a.7.7,0,0,1-.67-.509c-1.278-4.552-5.993-6.4-6.042-6.416a.7.7,0,0,1,.494-1.3c.219.084,5.418,2.1,6.889,7.342a.7.7,0,0,1-.483.859A.675.675,0,0,1,1892.226,893.23Z" transform="translate(-1885.066 -884.957)" fill="#ee9681"/></g><g transform="translate(3.471 8.022)"><path d="M1887.166,890.455a.7.7,0,0,1-.586-1.074,6.36,6.36,0,0,1,2.615-2.107.7.7,0,1,1,.569,1.271,5.037,5.037,0,0,0-2.012,1.591A.7.7,0,0,1,1887.166,890.455Z" transform="translate(-1886.469 -887.212)" fill="#ee9681"/></g></g><path d="M1921.844,905.827v14.663s-6.028,6.462-11.942,6.971-9.5-6.5-9.5-6.5v-14.1Z" transform="translate(-1877.544 -831.443)" fill="#f8c6a3"/><path d="M1921.844,905.827v6.505c-3.967,4.4-11.016,5.5-21.443,3.964v-9.439Z" transform="translate(-1877.544 -831.443)" fill="#ee9681"/><path d="M1940.076,878.053a142.779,142.779,0,0,1-1.9,18.522c-.272,1.421-.578,2.759-.919,3.956-3.086,10.806-10.8,29.334-32.413,21.616-9.543-3.406-13.967-14.037-15.938-24.848a104.638,104.638,0,0,1-1.442-20.062,15.314,15.314,0,0,1,7.767-13.026c12.755-7.23,26.213-4.535,35.074-1.129A15.26,15.26,0,0,1,1940.076,878.053Z" transform="translate(-1880.317 -841.326)" fill="#f8c6a3"/><g transform="translate(8.005 43.516)"><g transform="translate(25.831 0.526)"><path d="M1909.444,883.874v1.157a8.652,8.652,0,0,0,8.63,8.663h.282a7.806,7.806,0,0,0,5.371-2.376,8.506,8.506,0,0,0,2.493-6.077v-1.367a3.085,3.085,0,0,0-.891-2.149,3.027,3.027,0,0,0-2.149-.892h-10.7a3.031,3.031,0,0,0-2.742,1.734,2.943,2.943,0,0,0-.294,1.227A.443.443,0,0,0,1909.444,883.874Zm1.263,0a1.78,1.78,0,0,1,1.778-1.78h10.7a1.778,1.778,0,0,1,1.779,1.78v1.367a7.229,7.229,0,0,1-2.115,5.173,6.588,6.588,0,0,1-4.512,2.019h-.258a7.386,7.386,0,0,1-7.367-7.4Z" transform="translate(-1909.444 -880.833)" fill="#363638"/></g><g transform="translate(4.416 0.526)"><path d="M1891.8,883.874v1.157a8.652,8.652,0,0,0,8.63,8.663h.287a7.8,7.8,0,0,0,5.365-2.376,8.51,8.51,0,0,0,2.5-6.077v-1.367a.25.25,0,0,0,0-.06,2.915,2.915,0,0,0-.256-1.164,3.036,3.036,0,0,0-2.78-1.817h-10.7a3.05,3.05,0,0,0-2.338,1.1,3,3,0,0,0-.585,1.128A2.806,2.806,0,0,0,1891.8,883.874Zm1.262,0a1.78,1.78,0,0,1,1.779-1.78h10.7a1.78,1.78,0,0,1,1.779,1.78v1.367a7.242,7.242,0,0,1-2.115,5.173,6.584,6.584,0,0,1-4.512,2.019h-.261a7.394,7.394,0,0,1-7.368-7.4Z" transform="translate(-1891.804 -880.833)" fill="#363638"/></g><g transform="translate(41.893)"><path d="M1931.012,880.416a15.09,15.09,0,0,0-7.253,1.4c-.285.138-1.05.636-1.084.657l.6,1.071c.008,0,.845-.5,1.172-.656a13.22,13.22,0,0,1,6.563-1.216Z" transform="translate(-1922.675 -880.4)" fill="#363638"/></g><g transform="translate(19.841 1.787)"><path d="M1911.347,883.7l.416-1.192a12.928,12.928,0,0,0-3.791-.635,8.521,8.521,0,0,0-3.461.663l.551,1.135a7.434,7.434,0,0,1,2.91-.537A11.763,11.763,0,0,1,1911.347,883.7Z" transform="translate(-1904.51 -881.872)" fill="#363638"/></g><g transform="translate(0 0.32)"><path d="M1888.166,880.664v1.264a16.321,16.321,0,0,1,5.06,1.4l.556-1.13A17.06,17.06,0,0,0,1888.166,880.664Z" transform="translate(-1888.166 -880.664)" fill="#363638"/></g></g><path d="M1900.6,885.169c0,1.565-.807,2.835-1.8,2.835s-1.8-1.27-1.8-2.835.807-2.835,1.8-2.835S1900.6,883.6,1900.6,885.169Z" transform="translate(-1878.273 -836.47)" fill="#363638"/><path d="M1917.976,885.169c0,1.565-.807,2.835-1.8,2.835s-1.8-1.27-1.8-2.835.808-2.835,1.8-2.835S1917.976,883.6,1917.976,885.169Z" transform="translate(-1874.554 -836.47)" fill="#363638"/><path d="M1893.683,877.759s7.5-2.965,13.275-.47l-.482,2.68a24.35,24.35,0,0,0-12.379.889C1893.715,879.621,1893.2,879.029,1893.683,877.759Z" transform="translate(-1879.023 -837.763)" fill="#363638"/><path d="M1924.26,877.759s-7.5-2.965-13.275-.47l.482,2.68a24.351,24.351,0,0,1,12.379.889C1924.228,879.621,1924.748,879.029,1924.26,877.759Z" transform="translate(-1875.279 -837.763)" fill="#363638"/><g transform="translate(29.586 46.949)"><path d="M1908.534,896.855a7.453,7.453,0,0,0,2.521-.531.7.7,0,0,0-.527-1.29c-.629.255-2.139.655-2.793.265a.761.761,0,0,1-.344-.649c-.251-2.433.415-10.586.421-10.668a.7.7,0,0,0-1.387-.114c-.029.341-.684,8.367-.419,10.926a2.126,2.126,0,0,0,1.012,1.7A2.944,2.944,0,0,0,1908.534,896.855Z" transform="translate(-1905.943 -883.228)" fill="#ee9681"/></g><path d="M1900.964,897.366c.569,2.865,2.461,8.135,8.836,8.135s8.181-4.816,8.8-8.135Z" transform="translate(-1877.423 -833.253)" fill="#fff"/><g transform="translate(28.693 73.639)"><path d="M1908.806,907.459a7.275,7.275,0,0,0,3.4-.953.7.7,0,1,0-.722-1.191,5.929,5.929,0,0,1-2.673.75,5.664,5.664,0,0,1-2.536-.748.7.7,0,0,0-.731,1.186A6.957,6.957,0,0,0,1908.806,907.459Z" transform="translate(-1905.208 -905.213)" fill="#ee9681"/></g><path d="M1891.06,892.759c-.526-2.873-1.047-6.581-.668-8.482.679-3.363,3.464-5.342,2.535-8.583-.929-3.257,2.5-6.741,5.027-7.32s8.419.671,14.225-2.084c5.542-2.636,15.175-.75,16.745,2.805,1.9,4.306-.686,4.714,4.5,9.369,2.064,1.856-.386,6.677-.736,9.811a20.934,20.934,0,0,0-.124,3.7l.022.787h6.2c.683-4.862,1.074-10.224,1.288-14.708a15.26,15.26,0,0,0-9.776-14.967c-8.862-3.406-22.315-6.106-35.076,1.128a15.3,15.3,0,0,0-7.762,13.025,111.225,111.225,0,0,0,.752,15.523Z" transform="translate(-1880.316 -841.326)" fill="#363638"/><g transform="translate(55.721 43.738)"><path d="M1927.474,890.958a26.091,26.091,0,0,1,.379-4.844c.388-2.185,1.022-4.169,3.258-5.079,1.8-.733,3.721-.748,5.089,1.281,3.366,4.992-.384,20.527-8.627,16.928Z" transform="translate(-1927.473 -880.583)" fill="#f8c6a3"/><g transform="translate(0.862 4.745)"><path d="M1929.015,893.882a.7.7,0,0,0,.558-.63c.362-4.714,4.625-7.448,4.668-7.474a.7.7,0,0,0-.738-1.181c-.2.125-4.9,3.12-5.318,8.549a.7.7,0,0,0,.831.737Z" transform="translate(-1928.182 -884.491)" fill="#ee9681"/></g><g transform="translate(2.45 8.214)"><path d="M1932.954,890.09a.7.7,0,0,0,.364-1.168,6.365,6.365,0,0,0-2.977-1.555.7.7,0,1,0-.309,1.358,5.042,5.042,0,0,1,2.285,1.165A.7.7,0,0,0,1932.954,890.09Z" transform="translate(-1929.491 -887.349)" fill="#ee9681"/></g></g></g></g><g transform="translate(42.754 99.034)"><path d="M1959.422,926.132c-10.182,15.432-49.145,68.78-57.937,74.978-11.444,8.068-42.642,19.539-60.553,31.5-6.087,4.063,8.292,15.564,8.292,15.564s43.661-12.274,63.327-24.827c5.562-3.551,28.7-26.728,43.448-47.284,5.054-7.041,13.275-16.822,14.463-27.224C1971.83,936.866,1968.069,930.459,1959.422,926.132Z" transform="translate(-1839.431 -926.132)" fill="#2ca5c6"/></g></g><g transform="translate(1793.543 1005.689)"><path d="M2.313,0H124.681a2.314,2.314,0,0,1,2.314,2.314V12.975a2.313,2.313,0,0,1-2.313,2.313H2.313A2.313,2.313,0,0,1,0,12.975V2.313A2.313,2.313,0,0,1,2.313,0Z" transform="translate(24.116 84.058)" fill="#1e1242"/><path d="M1776.639,1058.063l-23.871-89.4a7.909,7.909,0,0,1,7.641-9.948h52.526a7.907,7.907,0,0,1,7.613,5.77l26.286,93.574Z" transform="translate(-1752.496 -958.717)" fill="#292669"/><path d="M1809.9,964.491l26.065,92.8h6l-26.066-92.8a7.918,7.918,0,0,0-7.616-5.774h-6A7.92,7.92,0,0,1,1809.9,964.491Z" transform="translate(-1741.844 -958.717)" fill="#1e1242"/><path d="M1801.246,1004.815c1.364,5.9-2.309,10.677-8.206,10.677s-11.783-4.779-13.146-10.677,2.309-10.675,8.205-10.675S1799.881,998.918,1801.246,1004.815Z" transform="translate(-1746.695 -951.138)" fill="#def1f8"/></g><path d="M7.509,0H483.483a7.506,7.506,0,0,1,7.506,7.506v4.085a7.506,7.506,0,0,1-7.506,7.506H7.506A7.506,7.506,0,0,1,0,11.591V7.509A7.509,7.509,0,0,1,7.509,0Z" transform="translate(1587.821 1105.052)" fill="#e73555"/><path d="M2074.024,1049.679v.437h-490.99v-.437a9.112,9.112,0,0,1,9.113-9.112h472.761A9.115,9.115,0,0,1,2074.024,1049.679Z" transform="translate(4.787 64.485)" fill="#f9575c"/></g></svg>