<svg xmlns="http://www.w3.org/2000/svg" xmlns:xlink="http://www.w3.org/1999/xlink" width="260" height="260" viewBox="0 0 260 260"><defs><clipPath id="a"><rect width="260" height="260" rx="40" transform="translate(-176.18 883.22)" fill="none"/></clipPath><clipPath id="b"><path d="M-25.008,946.285a12.127,12.127,0,0,0-9.771,9.406c-1.092,4.885-1.609,10.682-.225,15.7,1.692,6.134,7.913,6.427,7.913,6.427l-.484,7.116s2.708,6.1,12.055.736l2.359-23.8s3.712-7.707,1.826-10.028C-12.773,950.067-17.394,945.024-25.008,946.285Z" fill="#f8c6a3"/></clipPath></defs><g transform="translate(-553 -1032)"><g transform="translate(729.181 148.78)"><g clip-path="url(#a)"><rect width="260" height="260" rx="40" transform="translate(-176.18 883.22)" fill="#fdc331"/><path d="M20.314,956.658c-34.064-40.4-98.7-46.8-114.323-25.677-6.023,8.145-3.874,20.044-14.994,29.086-9.8,7.972-17.827,3.887-24.32,8.6-21.3,15.477-6.541,111.457,39.107,130.832,20.473,8.69,28.585-5.913,78.919,1.2,14.509,2.05,28.306,5.308,31.446-.595,4.519-8.5-19.6-23.653-16.438-39.794,3.246-16.581,30.816-12.913,41.035-31.938C51.7,1007.986,35.581,974.764,20.314,956.658Z" fill="#e73555"/><path d="M48.1,1143.219c.659-.874-28.263-175.524-148.388-165.516-60.459,5.036-82.583,82.581-46.553,165.516Z" fill="#fff0f0"/><path d="M3.108,1142.963a140.218,140.218,0,0,1-1.463-54.284c4.091-22.648,13.169-24.764,18.807-21.72,9.953,5.374-8.457,55.481-7.963,76" fill="none" stroke="#f99898" stroke-linecap="round" stroke-linejoin="round" stroke-width="1"/><path d="M17.06,1068.72c-9.215,31.558-9.742,68.41-9.192,74.243" fill="none" stroke="#f99898" stroke-linecap="round" stroke-linejoin="round" stroke-width="1"/><line x2="4.807" y2="6.45" transform="translate(9.262 1073.961)" fill="none" stroke="#f99898" stroke-linecap="round" stroke-linejoin="round" stroke-width="1"/><line x2="5.721" y2="6.735" transform="translate(5.944 1083.922)" fill="none" stroke="#f99898" stroke-linecap="round" stroke-linejoin="round" stroke-width="1"/><line x2="6.76" y2="6.993" transform="translate(3.607 1094.386)" fill="none" stroke="#f99898" stroke-linecap="round" stroke-linejoin="round" stroke-width="1"/><line x2="5.747" y2="5.383" transform="translate(3.057 1106.505)" fill="none" stroke="#f99898" stroke-linecap="round" stroke-linejoin="round" stroke-width="1"/><line x2="4.661" y2="4.442" transform="translate(3.057 1117.596)" fill="none" stroke="#f99898" stroke-linecap="round" stroke-linejoin="round" stroke-width="1"/><line y1="3.894" x2="8.366" transform="translate(11.131 1092.202)" fill="none" stroke="#f99898" stroke-linecap="round" stroke-linejoin="round" stroke-width="1"/><line y1="2.653" x2="7.051" transform="translate(9.721 1103.851)" fill="none" stroke="#f99898" stroke-linecap="round" stroke-linejoin="round" stroke-width="1"/><line y1="2.886" x2="6.689" transform="translate(8.625 1114.709)" fill="none" stroke="#f99898" stroke-linecap="round" stroke-linejoin="round" stroke-width="1"/><line y1="3.299" x2="7.36" transform="translate(13.092 1081.723)" fill="none" stroke="#f99898" stroke-linecap="round" stroke-linejoin="round" stroke-width="1"/><path d="M9.262,1143.086s1.14-22.145,11.891-48.7,27.461-47.676,41.7-45.061,12.373,15.377,2.344,28.638c-9.378,12.4-29.307,32.91-41.976,65.123Z" fill="#ffc7c6"/><path d="M62.877,1055.359c-26.867,22.961-42.726,62.13-46.641,87.866" fill="none" stroke="#fff" stroke-linecap="round" stroke-linejoin="round" stroke-width="1"/><line x1="13.625" y2="0.76" transform="translate(52.853 1064.43)" fill="none" stroke="#fff" stroke-linecap="round" stroke-linejoin="round" stroke-width="1"/><line x1="15.055" y2="0.838" transform="translate(45.375 1073.542)" fill="none" stroke="#fff" stroke-linecap="round" stroke-linejoin="round" stroke-width="1"/><line x1="16.754" y2="1.006" transform="translate(37.912 1084.518)" fill="none" stroke="#fff" stroke-linecap="round" stroke-linejoin="round" stroke-width="1"/><line x1="13.396" y2="0.952" transform="translate(32.893 1094.386)" fill="none" stroke="#fff" stroke-linecap="round" stroke-linejoin="round" stroke-width="1"/><line x1="10.621" transform="translate(27.803 1105.783)" fill="none" stroke="#fff" stroke-linecap="round" stroke-linejoin="round" stroke-width="1"/><line x1="9.424" y2="0.341" transform="translate(23.469 1115.472)" fill="none" stroke="#fff" stroke-linecap="round" stroke-linejoin="round" stroke-width="1"/><line x2="4.201" y2="8.248" transform="translate(44.547 1060.473)" fill="none" stroke="#fff" stroke-linecap="round" stroke-linejoin="round" stroke-width="1"/><line x2="4.485" y2="8.809" transform="translate(36.01 1071.601)" fill="none" stroke="#fff" stroke-linecap="round" stroke-linejoin="round" stroke-width="1"/><line x2="4.131" y2="8.389" transform="translate(29.912 1083.048)" fill="none" stroke="#fff" stroke-linecap="round" stroke-linejoin="round" stroke-width="1"/><line x2="4.649" y2="9.275" transform="translate(24.801 1092.104)" fill="none" stroke="#fff" stroke-linecap="round" stroke-linejoin="round" stroke-width="1"/><line x2="5.101" y2="6.207" transform="translate(15.522 1118.137)" fill="none" stroke="#fff" stroke-linecap="round" stroke-linejoin="round" stroke-width="1"/><line x2="4.649" y2="8.06" transform="translate(20.242 1103.851)" fill="none" stroke="#fff" stroke-linecap="round" stroke-linejoin="round" stroke-width="1"/><path d="M-40.03,1022.183c4.958.461,9.573,3.725,6.111,7.454-3,3.23-15.452,4.077-23.986,4.077s-20.2.116-27.684-1.845-7.372-8.3-2.067-8.879S-40.03,1022.183-40.03,1022.183Z" fill="#4ab5d5"/><path d="M68.861,1137.917h0a1.478,1.478,0,0,0,1.478-1.478V916.811a1.478,1.478,0,0,0-1.478-1.478h0a1.478,1.478,0,0,0-1.478,1.478v219.628A1.478,1.478,0,0,0,68.861,1137.917Z" fill="#bce3f6"/><path d="M45.039,927.908h46.1a1.478,1.478,0,0,0,1.478-1.478h0a1.478,1.478,0,0,0-1.478-1.478H44.617" fill="#bce3f6"/><path d="M41.776,1136.826a1.481,1.481,0,0,0,1.48-1.48v-1.781l25.985-6.911a1.48,1.48,0,1,0-.761-2.86L41.4,1131a1.479,1.479,0,0,0-1.1,1.43v2.919A1.48,1.48,0,0,0,41.776,1136.826Z" fill="#bce3f6"/><path d="M95.946,1136.826a1.48,1.48,0,0,0,1.48-1.48v-2.919a1.479,1.479,0,0,0-1.1-1.43l-27.086-7.2a1.48,1.48,0,1,0-.761,2.86l25.986,6.911v1.781A1.481,1.481,0,0,0,95.946,1136.826Z" fill="#bce3f6"/><path d="M64.7,1139.059a4.16,4.16,0,1,0,4.16-4.159A4.16,4.16,0,0,0,64.7,1139.059Z" fill="#517cc5"/><path d="M37.616,1139.059a4.16,4.16,0,1,0,4.16-4.159A4.16,4.16,0,0,0,37.616,1139.059Z" fill="#517cc5"/><path d="M100.243,1139.059a4.159,4.159,0,1,1-4.16-4.159A4.161,4.161,0,0,1,100.243,1139.059Z" fill="#517cc5"/><path d="M-5.072,1129.659c-.074.545-.809,8.711-1.113,12.1a1.6,1.6,0,0,1-1.6,1.459h-5.63a1.607,1.607,0,0,1-1.6-1.451l-1.184-12.109Z" fill="#bce3f6"/><path d="M-15.588,1135.894l-.61-6.235H-5.072c-.039.287-.262,2.7-.509,5.4-1.12.221-2.3.362-3.373.474C-10.135,1135.66-12.469,1135.782-15.588,1135.894Z" fill="#90c8ee"/><path d="M-70.883,1129.659c-.075.545-.809,8.711-1.113,12.1a1.6,1.6,0,0,1-1.6,1.459h-5.63a1.607,1.607,0,0,1-1.6-1.451l-1.184-12.109Z" fill="#bce3f6"/><path d="M-81.573,1134.116l-.436-4.457h11.126c-.045.325-.324,3.364-.607,6.482a46.021,46.021,0,0,1-6.969-.6A14.2,14.2,0,0,1-81.573,1134.116Z" fill="#90c8ee"/><path d="M-97.231,1120.869c-.075.546-.809,8.711-1.113,12.1a1.6,1.6,0,0,1-1.6,1.459h-5.63a1.606,1.606,0,0,1-1.6-1.45l-1.184-12.11Z" fill="#bce3f6"/><path d="M-97.231,1120.869c-.075.546-.5,5.321-.809,8.711-.065.726-7.989-1.565-9.792-3.339l-.525-5.372Z" fill="#90c8ee"/><path d="M1.523,1083.956s1.277-4.08-1.4-5.294-10.3,12.6-33.042,12.147-39.216-13.55-50.341-9.812-26.577,12.129-26.577,12.129l1.477,5.712,29.939-9.379s19.24,11.068,36.258,12.04S-5.34,1097.025,1.523,1083.956Z" fill="#1e8bba"/><path d="M-20.781,975.524a353.111,353.111,0,0,1,36.232,8.621c7.427,2.025,5.666,12.4,3.449,26.275s-8.7,50.6-14.919,64.388c-6.481,14.362-21.586,19.1-37.459,19.561-13.253.386-36.868-9.046-40.631-10.238-5.134-1.627-10.7.763-17.839,2.98s-22.064,8.225-22.064,8.225l-8.622,2.92s-4.293,2.523-10.7,0-27.342-17.057-27.342-17.057,22.131-25.537,38.04-35.557,48.669-7.225,59.905-6.526,16.362-26.1,19.857-38.218S-30.929,973.617-20.781,975.524Z" fill="#4fc3c9"/><path d="M-79.925,1064.943l-36.795-21.227c15.9-2.674,46.051-5.094,53.991-4.6,2.318.145,2.536.932,4.373-.9l45,31.373s-7.427,10.917-30.317,4.089C-54.88,1070.338-70.293,1063.933-79.925,1064.943Z" fill="#2ca5c6"/><path d="M-125.242,1087.813s5.168-6.7,17.555-13.005,23.783-10.281,30.547-9.626,30.29,7.906,38.818,9.626,21.731,3.028,27.348-10.063,15.73-62.73,17.617-71.128c2.4-10.685,7.62-9.073,7.62-9.073a26.3,26.3,0,0,1,2.807.281c5.5,3.081,3.866,12.85,1.83,25.595-2.217,13.877-8.7,50.6-14.919,64.388-6.481,14.362-21.586,19.1-37.459,19.561-13.253.386-36.869-9.046-40.631-10.238-5.134-1.627-10.7.763-17.839,2.98s-22.064,8.225-22.064,8.225l-8.622,2.92a7.841,7.841,0,0,1-1.427.582Z" fill="#2ca5c6"/><path d="M14.263,984.544c-4.892-.408-8.135-.38-11.055,16.723s-12.656,55.633-15.017,61.322c-3.9,9.386-12.622,15.644-31.862,9.178s-34.257-10.638-44.686-6.258-30.592,13.558-34.277,16.061-4.727,5.214-5.144,10.22-.974,8.76,5.144,6.466c-2.541-8.8,5.43-14.039,11.333-17.312,5.94-3.292,23.562-11.628,28.044-12.723,7.43-1.815,15.218-.592,34.629,5.841,20.391,6.758,32.434,5.471,38.645-6.258,6.517-12.306,11.94-43.816,15.486-60.279C8.8,992.239,9.215,985.257,14.263,984.544Z" fill="#40bedb"/><path d="M1.523,1083.956c.565,1.292.564,4.37.564,8.459s-1.269,34.259-1.833,36.8-4.926,3.173-8.318,3.525c-7.646.793-63.443,1.55-69.506,0s-30.452-8.26-31.157-10.489,0-23.63,0-24.9.282-2.256,3.243-3.1,22.7-7.9,24.813-8.318a14.389,14.389,0,0,1,8.4,1.005c3.418,1.41,18.8,8.093,35.916,9.146,19.655,1.208,26.8-4.7,31.816-8.318C.213,1084.328,1.168,1083.146,1.523,1083.956Z" fill="#2ca5c6"/><path d="M-105.484,1094.248c2.96-.846,22.7-7.9,24.813-8.318a15.431,15.431,0,0,1,2.253-.26v46.773c-7.781-1.75-29.633-8.058-30.309-10.195-.705-2.23-.631-24.046-.631-25.315S-108.445,1095.094-105.484,1094.248Z" fill="#1e8bba"/><path d="M-9.365,947.689s8.469-1.764,10.678,7.474c2.56,10.707-3.477,14.879-1.391,20.2,2.167,5.526,8.555,5.122,6.788,13.915C5.377,995.911-3.7,997.558-9.8,994.642c-8.466-4.051-8.039-13.851-6.832-20.706C-15.436,967.176-9.365,947.689-9.365,947.689Z" fill="#363638"/><path d="M-9.365,947.689s2.425,1.575,3.252,5.745c0,0,3.3-1.575.44-4.825C-7.893,946.085-9.365,947.689-9.365,947.689Z" fill="#40bedb"/><path d="M-137.644,1060.57c-1.931,1.806-6.3,6.572-11.445,9.814-1.766,1.113-9.989,3.832-13.787,4.341s-7.08-.207-9.94-.435-4.277,1.116-3.572,4.246,6.363,5.687,10.765,6.119,11.027-.444,15.541,1.1a17.034,17.034,0,0,0,6.255.867,2.4,2.4,0,0,0,1.716-.836,12.067,12.067,0,0,0,2.511-5.237,24.058,24.058,0,0,0,.476-4.365c.08-2.059,2.261-3.667,4.085-4.965a35.36,35.36,0,0,1,3.889-2.3Z" fill="#ee9681"/><path d="M-139.537,1077.6c-4.032,2.309-19.168,1.886-22.966,1.269s-5.719-2.855-4.649-4.012v0c-2.055-.116-3.938-.429-5.664-.566-2.86-.227-4.277,1.116-3.572,4.246s6.363,5.687,10.765,6.119,11.027-.444,15.541,1.1a17.034,17.034,0,0,0,6.255.867,2.4,2.4,0,0,0,1.716-.836,12.067,12.067,0,0,0,2.511-5.237,20.252,20.252,0,0,0,.41-3.1A3.066,3.066,0,0,0-139.537,1077.6Z" fill="#1e1242"/><path d="M-49,1029.856s-47.911-.264-50.72-.264-4.815.128-10.433,4.745-28.223,26.42-28.223,26.42a9.882,9.882,0,0,0,7.223,8.159l34.512-23.407,67.373,4.591s-1.834-8.6-8.762-14.152A44.865,44.865,0,0,0-49,1029.856Z" fill="#1e1242"/><path d="M-133.2,1065.621s-7.641,5.251-9.56,6.073-10.232-1.414-13.7-3.037-5.847-4-8.131-5.733-4.2-1.371-5.3,1.644,2.284,8.222,5.756,10.963,9.521,5.582,12.486,9.319a16.994,16.994,0,0,0,4.8,4.107,2.4,2.4,0,0,0,1.9.224,12.071,12.071,0,0,0,4.941-3.052c2.924-2.924,3.77-5.847,6.819-7.948a66.273,66.273,0,0,1,7.159-4.112Z" fill="#f8c6a3"/><path d="M-138.373,1083.683c-4.64-.234-17.152-8.764-20.014-11.335s-3.272-5.492-1.746-5.887v0c-1.666-1.208-3.083-2.488-4.462-3.535-2.284-1.736-4.2-1.371-5.3,1.644s2.284,8.222,5.756,10.963,9.521,5.582,12.486,9.319a16.994,16.994,0,0,0,4.8,4.107,2.4,2.4,0,0,0,1.9.224,12.071,12.071,0,0,0,4.941-3.052,20.243,20.243,0,0,0,2.018-2.385A3.078,3.078,0,0,0-138.373,1083.683Z" fill="#292669"/><path d="M-14.17,1035.948s-.06,16.009-7.6,24.014-21.179,6.162-34.048,3.816-37.036-8.343-38.171-7.774-2.681,4.757-7.54,7.941-25.134,10.892-25.134,10.892-6.469-4.069-6.971-9.264c0,0,26.073-20.391,29.759-23.493s7.54-4.34,13.74-4.14,52.679-.086,52.679-.086Z" fill="#292669"/><path d="M-90.7,1018.593c-.156.088-.31.178-.462.268a4.45,4.45,0,0,0-.832.6,5,5,0,0,0-.584.735,7.61,7.61,0,0,0-1.7,4.924,7.5,7.5,0,0,0,1.187,2.989,2.476,2.476,0,0,0,.753.907.873.873,0,0,0,1.092-.072,1.3,1.3,0,0,0,.172-1c-.13-1.276-.5-2.484.512-3.49a6.471,6.471,0,0,1,3.623-1.508c.807-.089,1.39-.076,1.194.833-.125.585-.377,1.134-.532,1.711-.278,1.036-.338,2.683,1.2,2.678a.535.535,0,0,0,.358-.1.677.677,0,0,0,.157-.262,14.784,14.784,0,0,1,2.195-3.706,3.241,3.241,0,0,1,2.833-1.306c.87,0,28.87,1.438,30.119.725,2.416-1.38,6.907-9.6,8.41-11.807,2.195-3.217,8.047-27.267,8.047-27.267l-1.632.459a10.767,10.767,0,0,0-6.4,4.964c-4.016,6.924-12.868,21.575-13.514,22.29a3.844,3.844,0,0,1-2.64,1.7c-2.6.351-16.231,1.7-18.327,1.931-2.547.277-3.509.058-6.053.365C-83.765,1016.419-88.71,1017.467-90.7,1018.593Z" fill="#ee9681"/><path d="M-30.656,983.058c-4.953-.465-8.724,2.3-12.046,7.674-2.424,3.921-8.648,15.425-8.648,15.425s4.329,6.376,11.219,7.507Z" fill="#517cc5"/><path d="M-3.235,991.82c-1.86-2.925-8.47-6.03-12.142-7.588s-10.53-2.011-14.425-1.345-4.819,2.154-8.225,6.075c-3,3.454-4.97,5.745-6.179,9.738-1.669,5.518,1.538,11.406,1.538,11.406a72.64,72.64,0,0,1-.462,8.546c-.21,1.211-4.734,8.886-6.145,10.89-1.014,1.438,3.607,7.687,11.818,9.753,14.417,3.629,23.287-3.347,23.287-3.347Z" fill="#5b8cd3"/><path d="M-9.117,1015.556c-.907,1.564-6.648.842-6.648.842-4.992,14.027-18.907,17.939-32.879,12.2,0,0-.328.517-.631.948-1.014,1.438,3.607,7.687,11.818,9.753,14.417,3.629,23.287-3.347,23.287-3.347Z" fill="#517cc5"/><path d="M-14.515,975.533h0c1.882,0,3.862-1.709,4.815-3.672a61.442,61.442,0,0,0,3.422-10.205c3.668-14.637-10.767-21.218-20.315-19.041-10.456,2.385-13.354,14.233-9.09,18.741Z" fill="#363638"/><path d="M-25.008,946.285a12.127,12.127,0,0,0-9.771,9.406c-1.092,4.885-1.609,10.682-.225,15.7,1.692,6.134,7.913,6.427,7.913,6.427l-.484,7.116s2.708,6.1,12.055.736l2.359-23.8s3.712-7.707,1.826-10.028C-12.773,950.067-17.394,945.024-25.008,946.285Z" fill="#f8c6a3"/><g clip-path="url(#b)"><path d="M-29.04,978.256c4.816.65,10.616-.835,13.583-8.792" fill="none" stroke="#ee9681" stroke-linecap="round" stroke-miterlimit="10" stroke-width="1"/></g><path d="M-8.418,965.7a3.665,3.665,0,0,0-3.268-4.022,3.664,3.664,0,0,0-4.021,3.268,3.663,3.663,0,0,0,3.267,4.021A3.664,3.664,0,0,0-8.418,965.7Z" fill="#f8c6a3"/><path d="M-29.265,959.01s-1.458,6.959-1.454,7.46,1.977.788,1.977.788" fill="none" stroke="#ee9681" stroke-linecap="round" stroke-miterlimit="10" stroke-width="1"/><path d="M-23.082,961.466a1.064,1.064,0,0,0-.948-1.168,1.064,1.064,0,0,0-1.168.949,1.064,1.064,0,0,0,.949,1.167A1.064,1.064,0,0,0-23.082,961.466Z" fill="#363638"/><path d="M-32.109,961.038a1.063,1.063,0,0,0-.948-1.167,1.064,1.064,0,0,0-1.168.948,1.065,1.065,0,0,0,.949,1.168A1.065,1.065,0,0,0-32.109,961.038Z" fill="#363638"/><path d="M-20.965,959.509A10.513,10.513,0,0,0-25.252,958a2.744,2.744,0,0,1,2.569-.581A2.485,2.485,0,0,1-20.965,959.509Z" fill="#363638"/><path d="M-30.758,957.918a10.346,10.346,0,0,0-4.416.693,2.7,2.7,0,0,1,1.952-1.7A2.442,2.442,0,0,1-30.758,957.918Z" fill="#363638"/><path d="M-30.019,970.681a12.826,12.826,0,0,0,5.617-.386,2.682,2.682,0,0,1-2.661,2.154C-29.773,972.566-30.019,970.681-30.019,970.681Z" fill="#e76266"/><path d="M-12.422,961.87l-.8,4.42h0a3.467,3.467,0,0,1-2.742-3.821l.232-4.148a16.27,16.27,0,0,1-5.472-2.328,15.081,15.081,0,0,1-6.011-9.161s6.6-5.02,14.771,1.239C-7.456,951.887-10.738,960.155-12.422,961.87Z" fill="#363638"/><path d="M-29.731,946.592c-.044.172-1.418,7.773,4.994,9.726,0,0-1.922-4.74-1.145-7.664-.115-.344.916-2.806-.573-3.092S-29.731,946.592-29.731,946.592Z" fill="#363638"/><path d="M-15.43,984.767a1.784,1.784,0,0,1,1.062,1.259c.1.736-8.858,9.7-15.329,7.815-5.582-1.627-1.572-8.308.481-9.887a6.876,6.876,0,0,1,2.468-.84Z" fill="#f8c6a3"/><path d="M-16.61,1087.212c4.919,0,10.933-.123,18.2-3.2a3.1,3.1,0,0,0,2.007-3.674,2.914,2.914,0,0,0-3.674-2.006c-7.691,2.665-14.819,3.063-19.422,2.186-3.423-.653-5.344-2.3-6.251-5.491a52.2,52.2,0,0,1-1.563-19,2.96,2.96,0,0,0-2.722-3.18,2.97,2.97,0,0,0-3.181,2.722,57.84,57.84,0,0,0,1.771,21.07c1.611,5.677,4.14,9.152,10.661,10.228A31.619,31.619,0,0,0-16.61,1087.212Z" fill="#bce3f6"/><path d="M-27.31,1056.032c-.111,1.432-.17,2.8-.2,4.126-1.8.049-3.78.091-5.925.126.029-1.519.095-3.076.221-4.71,0-.05.02-.095.027-.145l5.847-.062A2.882,2.882,0,0,1-27.31,1056.032Z" fill="#90c8ee"/><path d="M-12.886,1052.477a4.782,4.782,0,0,1-4.006,4.306c-2.941.677-9.17,1.042-18.1.981a108.546,108.546,0,0,1-16.721-1.154c-2.883-.461-3.225-3.939-3.225-3.939Z" fill="#def1f8"/><path d="M-14.226,1042.426c5.783,0,9.573,4.135,6.112,7.864-3,3.23-15.452,3.668-23.986,3.668s-20.2.115-27.684-1.845-7.372-8.3-2.068-8.879S-14.226,1042.426-14.226,1042.426Z" fill="#4ccfe5"/><path d="M-12.869,1042.514c3.757,1.251,5.058,4.115-3.051,5.679-7.122,1.374-32.526,3.213-49.536-2.539Z" fill="#2ca5c6"/><path d="M-65.314,1033.09a8.019,8.019,0,0,0,8.019,8.019,8.019,8.019,0,0,0,8.019-8.019,8.019,8.019,0,0,0-8.019-8.019A8.019,8.019,0,0,0-65.314,1033.09Z" fill="#e73555"/><path d="M-57.295,1025.071a8.014,8.014,0,0,1,7.767,6.057,6.786,6.786,0,0,1-6.76,6.221,6.79,6.79,0,0,1-6.79-6.789,6.757,6.757,0,0,1,1.487-4.233A7.971,7.971,0,0,1-57.295,1025.071Z" fill="#ec6469"/><path d="M-59.5,1029.871c-.825.654-.992,2.077-.448,3.542s1.758,3.851,1.381,4.479,1.926,1.563,2.637.572S-59.5,1029.871-59.5,1029.871Z" fill="#e73555"/><path d="M-16.965,1016.84s-2.869,15.1-2.968,15.6-2.059.944-4.866,1.59c-1.758.405-18.852,2.834-20.631,3.032s-2.966.494-4.35-1.088-3.658-2.57-5.24-4.053-3.163-3.361-3.954-2.669-1.186,1.582,0,4.152,2.666,4.152,1.679,5.437a3.763,3.763,0,0,1-5.47-.068,8.987,8.987,0,0,1-2.549-5.877s-1.569.508-1.569,3.375,1.384,5.932,3.065,7.217,4.646,2.175,10.874,2.57,11.666.716,21.552.692a74.413,74.413,0,0,0,19.26-2.2c1.331-.377,3.058-2.425,3.659-4.921,1.261-5.244,6.859-38.48,6.859-38.48Z" fill="#f8c6a3"/><path d="M-8.522,987.574c3.148,1.578,7.829,3.734,7.619,10.673-.169,5.558-3.281,24.245-3.281,24.245a21.5,21.5,0,0,1-6.523-.582,17.356,17.356,0,0,1-7.127-3.107s1.941-12.888,2.693-18.223C-14.074,993.006-12.641,988.563-8.522,987.574Z" fill="#517cc5"/><path d="M35.177,966.457,34.889,968a.722.722,0,0,1-.809.583,1,1,0,0,0-1.178.812l-.773,5.478a.971.971,0,0,0,.786,1.091l3.062.562a.972.972,0,0,0,1.123-.748l1.178-5.381a.971.971,0,0,0-.768-1.162l-.274-.052a.722.722,0,0,1-.575-.842l.186-.994A.917.917,0,0,1,38,966.621q.783.2,1.644.355a.933.933,0,0,1,.779.941l-.29,8.367a1.234,1.234,0,0,0,1.323,1.419,1.309,1.309,0,0,0,1.419-1.324l.279-8.059a.922.922,0,0,1,.943-.9c.307.01.618.016.938.016a30.516,30.516,0,0,0,4.757-.356c.293-.046.684-.122,1.049-.2a.926.926,0,0,1,1.181.633l.133.856a.776.776,0,0,1-.613.881,1.075,1.075,0,0,0-.9,1.246l1.178,5.833a1.043,1.043,0,0,0,1.187.825l3.307-.526a1.046,1.046,0,0,0,.873-1.161l-.733-5.881a1.045,1.045,0,0,0-1.195-.9l-.3.046a.778.778,0,0,1-.885-.649l-.191-1.223a.934.934,0,0,1,.6-1.008c4.787-1.876,6.709-4.946,6.6-6.521-.168-2.364-1.182-17.73-1.857-23.471s-1.857-7.261-3.715-7.971-3.715-1.148-5.065-2.875-2.364-3.264-5.4-3.264-4.052,1.537-5.4,3.264-3.209,2.165-5.066,2.875-3.039,2.23-3.715,7.971S29.166,956.972,29,959.336c-.1,1.464,1.558,4.219,5.638,6.107A.935.935,0,0,1,35.177,966.457Zm8.013-39.941a1.848,1.848,0,1,1,1.848,1.847A1.848,1.848,0,0,1,43.19,926.516Z" fill="#def1f8"/><path d="M32.763,940.645c.42-6.92.748-10.63,4.13-10.521s11.128.214,13.528,0,5.295-.031,5.841,1.824a77.029,77.029,0,0,1,1.255,11.12c.1,2.768-7.7,3.67-14.327,3.765S32.763,940.645,32.763,940.645Z" fill="#bce3f6"/><path d="M57.517,943.066c.442,5.411.882,11.82,1.092,14.876l.107,1.512c-.1,1.239-3.63,5.619-13.678,5.619s-13.575-4.38-13.679-5.569l.109-1.562c.242-3.528.791-11.524,1.3-17.3,0,0,1.243-.817,4.495,0s6.562,2.43,14.283,1.747C56.306,941.971,57.517,943.066,57.517,943.066Z" fill="#ec6469"/><line y1="6.068" x2="0.217" transform="translate(41.734 963.974)" fill="none" stroke="#ec6469" stroke-linecap="round" stroke-miterlimit="10" stroke-width="1"/><path d="M-32.271,1038.22c-.383,4.518,1.334,36.916,34.478,36.916,45.193,0,46.177-62.348,44.775-108.46" fill="none" stroke="#def1f8" stroke-linecap="round" stroke-miterlimit="10" stroke-width="2"/><path d="M46.871,963.654c2.053,47.948.9,111.482-44.664,111.482-33.144,0-34.861-32.4-34.478-36.916l10.2-1.141" fill="none" stroke="#ec6469" stroke-linecap="round" stroke-miterlimit="10" stroke-width="1"/><path d="M31.359,959.5l.109-1.562c.033-.481.072-1.052.115-1.683-.354,5.034,7.392,6.46,14.885,4.493,7.128-1.871,5.783-7.567,4.989-18.354l.084-.006c4.765-.421,5.976.674,5.976.674.442,5.411.882,11.82,1.092,14.876l.107,1.512c-.1,1.239-3.63,5.619-13.678,5.619S31.463,960.693,31.359,959.5Z" fill="#e73555"/><path d="M-26.685,1034.92l2.367,5.188-2.955.252-2.233-5.138Z" fill="#f0faff"/><path d="M36.592,955.874a79.415,79.415,0,0,0,16.837-.007.48.48,0,0,0,.432-.476v-4.157a.48.48,0,0,0-.454-.478q-8.393-.411-16.783,0a.479.479,0,0,0-.454.478V955.4A.48.48,0,0,0,36.592,955.874Z" fill="#f0faff"/><path d="M36.979,931.964c5.216-.243,8.83-.278,8.9.765s-7.022,1.321-9.247,3.685-2.224,1.53-2.224,0S34.814,932.065,36.979,931.964Z" fill="#def1f8"/><path d="M45.039,924.952H41.621a1.478,1.478,0,0,0-1.478,1.478h0a1.478,1.478,0,0,0,1.478,1.478h3.418" fill="#bce3f6"/></g></g><g transform="translate(553 1032)" fill="none" stroke="#d1d1d1" stroke-width="3"><rect width="260" height="260" rx="40" stroke="none"/><rect x="1.5" y="1.5" width="257" height="257" rx="38.5" fill="none"/></g></g></svg>