<svg xmlns="http://www.w3.org/2000/svg" width="381.482" height="320.303" viewBox="0 0 381.482 320.303"><g transform="translate(-1699.22 -1209.56)"><path d="M1814.823,1210.684c-29.975-7.559-68.151,24.48-86.66,51.849-33.615,49.711-17.123,105.867-5.035,147.031,7.78,26.494,17.012,57.777,39.825,63.407,26.083,6.438,46.725-25.622,68.015-17.1,19.286,7.717,9.167,36.754,30.876,55.482,25.376,21.892,74.47,12.645,102.471.418,55.381-24.186,72.046-79.17,76.07-95.53,13.289-54.036-6.63-116.692-51.012-146.422-7.452-4.992-22.311-14.945-43.912-18.135-35.788-5.285-49.326,14.011-75.019,7.235C1839.169,1250.668,1841.841,1217.5,1814.823,1210.684Z" transform="translate(0.547)" fill="#292669"/><g transform="translate(1772.676 1241.159)"><path d="M1772.7,1329.542a93.169,93.169,0,0,1-4.212-26.635c-.371-18.157,10.358-44.038,23.49-54.34s26.343-12.448,34.3-3.974-1.336,18.438-8.472,23.453-37.714,29.376-37.741,63.465" transform="translate(-1768.479 -1239.353)" fill="none" stroke="#f99898" stroke-linecap="round" stroke-linejoin="round" stroke-width="1"/><path d="M1822.08,1245.98c-6.4.872-25.58,11.484-35.986,27.809-14.946,23.445-9.925,56.463-9.925,56.463" transform="translate(-1768.062 -1238.952)" fill="none" stroke="#f99898" stroke-linecap="round" stroke-linejoin="round" stroke-width="1"/><line x1="12.236" y1="4.904" transform="translate(44.073 11.147)" fill="none" stroke="#f99898" stroke-linecap="round" stroke-linejoin="round" stroke-width="1"/><line x1="12.874" y1="4.677" transform="translate(35.31 16.93)" fill="none" stroke="#f99898" stroke-linecap="round" stroke-linejoin="round" stroke-width="1"/><line x1="13.163" y1="5.272" transform="translate(28.978 22.327)" fill="none" stroke="#f99898" stroke-linecap="round" stroke-linejoin="round" stroke-width="1"/><line x2="14.537" y2="4.458" transform="translate(22.472 28.79)" fill="none" stroke="#f99898" stroke-linecap="round" stroke-linejoin="round" stroke-width="1"/><line x2="13.716" y2="3.918" transform="translate(17.644 35.458)" fill="none" stroke="#f99898" stroke-linecap="round" stroke-linejoin="round" stroke-width="1"/><line x2="12.34" y2="3.525" transform="translate(13.428 44.126)" fill="none" stroke="#f99898" stroke-linecap="round" stroke-linejoin="round" stroke-width="1"/><line x2="9.929" y2="2.146" transform="translate(10.729 51.349)" fill="none" stroke="#f99898" stroke-linecap="round" stroke-linejoin="round" stroke-width="1"/><line x2="7.937" y2="0.765" transform="translate(8.663 60.805)" fill="none" stroke="#f99898" stroke-linecap="round" stroke-linejoin="round" stroke-width="1"/><line y1="0.082" x2="6.897" transform="translate(7.684 68.641)" fill="none" stroke="#f99898" stroke-linecap="round" stroke-linejoin="round" stroke-width="1"/><line x1="5.916" y1="4.451" transform="translate(2.117 60.805)" fill="none" stroke="#f99898" stroke-linecap="round" stroke-linejoin="round" stroke-width="1"/><line x1="6.136" y1="4.696" transform="translate(3.557 50.861)" fill="none" stroke="#f99898" stroke-linecap="round" stroke-linejoin="round" stroke-width="1"/><line x1="5.525" y1="4.831" transform="translate(6.64 42.072)" fill="none" stroke="#f99898" stroke-linecap="round" stroke-linejoin="round" stroke-width="1"/><line x1="5.087" y1="6.278" transform="translate(10.868 32.247)" fill="none" stroke="#f99898" stroke-linecap="round" stroke-linejoin="round" stroke-width="1"/><line x1="1.88" y1="8.246" transform="translate(37.83 5.426)" fill="none" stroke="#f99898" stroke-linecap="round" stroke-linejoin="round" stroke-width="1"/><line x1="2.669" y1="10.036" transform="translate(29.189 9.431)" fill="none" stroke="#f99898" stroke-linecap="round" stroke-linejoin="round" stroke-width="1"/><line x1="4.332" y1="9.271" transform="translate(21.536 15.744)" fill="none" stroke="#f99898" stroke-linecap="round" stroke-linejoin="round" stroke-width="1"/><line x1="4.756" y1="8.421" transform="translate(15.48 23.214)" fill="none" stroke="#f99898" stroke-linecap="round" stroke-linejoin="round" stroke-width="1"/><line x1="0.636" y1="5.003" transform="translate(48.358 3.612)" fill="none" stroke="#f99898" stroke-linecap="round" stroke-linejoin="round" stroke-width="1"/></g><g transform="translate(1723.441 1273.057)"><path d="M1774.066,1328.188c-8.91-.612-21.66-3.258-31.4-12.688-5.952-5.761-2.335-5.878-16.982-32.2-2.614-4.7-4.521-7.916-3.183-10.5,3.286-6.338,22.524-1.84,23.411-1.626,7.73,1.866,20.913,5.048,28.539,17.485C1785.5,1306.681,1774.558,1327.294,1774.066,1328.188Z" transform="translate(-1722.058 -1269.429)" fill="#ffc7c6"/><path d="M1731.347,1273.958a71.483,71.483,0,0,1,39.357,50.413" transform="translate(-1721.495 -1269.155)" fill="none" stroke="#fff" stroke-linecap="round" stroke-miterlimit="10" stroke-width="1"/><path d="M1733.727,1286.168l13.24-2.545" transform="translate(-1721.351 -1268.569)" fill="none" stroke="#fff" stroke-linecap="round" stroke-miterlimit="10" stroke-width="1"/><path d="M1749.814,1278.078q-.379,4.306-.759,8.612" transform="translate(-1720.422 -1268.905)" fill="none" stroke="#fff" stroke-linecap="round" stroke-miterlimit="10" stroke-width="1"/><path d="M1760.412,1282.619l-3.462,13.4" transform="translate(-1719.944 -1268.63)" fill="none" stroke="#fff" stroke-linecap="round" stroke-miterlimit="10" stroke-width="1"/><line y1="2.581" x2="16.159" transform="translate(16.936 22.924)" fill="none" stroke="#fff" stroke-linecap="round" stroke-miterlimit="10" stroke-width="1"/><path d="M1768.253,1291.314q-2.808,7.054-5.617,14.107" transform="translate(-1719.599 -1268.103)" fill="none" stroke="#fff" stroke-linecap="round" stroke-miterlimit="10" stroke-width="1"/><line y1="3.524" x2="19.044" transform="translate(21.187 32.738)" fill="none" stroke="#fff" stroke-linecap="round" stroke-miterlimit="10" stroke-width="1"/><path d="M1747.669,1313.437l18.733-2.695" transform="translate(-1720.506 -1266.926)" fill="none" stroke="#fff" stroke-linecap="round" stroke-miterlimit="10" stroke-width="1"/><path d="M1774.1,1299.124l-7.607,15.815" transform="translate(-1719.365 -1267.63)" fill="none" stroke="#fff" stroke-linecap="round" stroke-miterlimit="10" stroke-width="1"/></g><path d="M1774.84,1355.708c-26.49-23.528-68.073-9.664-74.577,24.985-.093.5-.183,1-.269,1.508-8.618,50.765,56.027,120.141,129.943,100.4s113.871-97.193,96.407-131.918-52.23-26.642-90.045,10.775C1814.933,1382.592,1791.331,1370.355,1774.84,1355.708Z" transform="translate(0 7.21)" fill="#fdc331"/><path d="M2040.316,1298.42c-47.491-56.32-137.615-65.249-159.39-35.8-8.4,11.356-5.4,27.947-20.905,40.553-13.669,11.115-24.854,5.42-33.907,12-29.7,21.578-9.12,155.394,54.523,182.408,28.544,12.115,39.854-8.244,110.03,1.672,20.228,2.857,39.465,7.4,43.842-.829,6.3-11.846-27.322-32.978-22.917-55.482,4.524-23.118,42.963-18,57.211-44.529C2084.072,1369.983,2061.6,1323.663,2040.316,1298.42Z" transform="translate(6.88 2.217)" fill="#e73555"/><path d="M2048.006,1449.159c-36.807,49.048-119.049,43.248-162.762,16.529-22.254-13.6-19.191-23.256-40.224-32.053-49.56-20.73-89.888,23.117-118.786,4.4-22.57-14.619-26.964-60.146-12.927-90.974,29.986-65.855,143.871-64.179,180.736-63.637,52.774.778,128.5,1.891,159.327,55.67C2072.141,1371.843,2071.03,1418.477,2048.006,1449.159Z" transform="translate(0.367 4.468)" fill="#fff0f0"/><g transform="translate(1759.056 1354.493)"><path d="M1850.241,1377.147c0-17.042-21.175-30.934-47.3-30.934s-47.295,13.894-47.295,30.934c0,.442-.005,1.659-.005,1.813,0,18.08,18.508,32.724,47.3,32.724,28.965,0,47.3-14.636,47.3-32.721v-1.815" transform="translate(-1755.638 -1346.213)" fill="#253e8b"/><path d="M1848.327,1377.03c0,16.068-20.363,29.093-45.477,29.093s-45.477-13.025-45.477-29.093,20.363-29.1,45.477-29.1,45.477,13.026,45.477,29.1" transform="translate(-1755.533 -1346.109)" fill="#00aeef"/><path d="M1786.028,1367.314c-.023.045-.476.517-.183.892.719.917,2.936,1.442,5.177.938,1.333-.3,3.045-1.657,4.7-2.975a18.824,18.824,0,0,1,5.369-3.423,6.147,6.147,0,0,1,3.915-.106,12.022,12.022,0,0,1,3.569,2.089c3.111,2.34,15.622,13.257,17.784,15.149a108,108,0,0,1,20-6.436c-.913-5.605-4.325-10.736-9.5-14.936-7.212,3.029-16.015,4.609-24.629.4a23.855,23.855,0,0,0-9.3-2.121c-6.837.157-9.8,3.117-12.929,6.247l-3.968,4.276" transform="translate(-1753.814 -1345.572)" fill="#fff"/><path d="M1827.552,1381.023c-.146-.13-14.713-12.877-18.01-15.355a8.085,8.085,0,0,0-4.089-1.94,5.531,5.531,0,0,0-1.943.186,17.611,17.611,0,0,0-5.325,3.173c-1.844,1.469-3.585,2.853-5.2,3.215a8.418,8.418,0,0,1-5.727-.859,2.537,2.537,0,0,1-.954-1.044,1.753,1.753,0,0,1,.487-1.9l4.019-4.349c.469-.466.936-.932,1.419-1.392a26.525,26.525,0,0,0-3.662.824,15.947,15.947,0,0,1-4.274.8,39.783,39.783,0,0,1-4.362-.684,64.8,64.8,0,0,1-11.6-4.191c-5.715,4.255-9.536,9.574-10.641,15.431.822.219,2.145.612,2.7.735,12.93,2.874,16.956,5.833,17.688,6.457a4.279,4.279,0,0,1,6.041-.358,4.383,4.383,0,0,1,.668.751,4.891,4.891,0,0,1,3.085-1.088,5.822,5.822,0,0,1,1.85.325,4.26,4.26,0,0,1,2.6,2.351,4.326,4.326,0,0,1,1.8-.38,5.413,5.413,0,0,1,2.15.473c2.384,1.023,2.758,3.364,2.539,5.128a4.862,4.862,0,0,1,.514-.027,5.135,5.135,0,0,1,5.127,5.129,5.059,5.059,0,0,1-.615,2.419,8.115,8.115,0,0,0,4.454,1.192,2.838,2.838,0,0,0,2.084-.908c.128-.18.264-.393.138-.545l-3.648-4.053s-.6-.57-.4-.788.578.1.838.318c1.858,1.552,4.126,3.891,4.126,3.891.037.027.189.318,1.028.474a3.792,3.792,0,0,0,2.881-.673,4.338,4.338,0,0,0,.636-.649c-.014.011-.027.03-.041.035a1.944,1.944,0,0,0-.106-2.4l-4.261-4.782s-.607-.564-.4-.79c.187-.2.578.106.848.318,1.346,1.129,3.252,3.04,5.082,4.828a3.46,3.46,0,0,0,4.085-.141,2.925,2.925,0,0,0,1.511-2.669,3.044,3.044,0,0,0-.9-1.778l-5.819-5.85s-.614-.525-.4-.79c.178-.224.578.1.838.318,1.853,1.552,6.872,6.151,6.872,6.151a3.527,3.527,0,0,0,3.948-.079,2.642,2.642,0,0,0,1.3-2.087,3.088,3.088,0,0,0-.98-2.372" transform="translate(-1755.513 -1345.529)" fill="#fff"/><path d="M1798.161,1387.156a12.941,12.941,0,0,0-2.015.448c-.071-.049.053-.41.138-.62s1.273-3.781-1.621-5.025a3.418,3.418,0,0,0-4.038.6c-.123.128-.176.117-.192-.045a3.2,3.2,0,0,0-2.243-2.97,4.389,4.389,0,0,0-4.94,1.762,3.158,3.158,0,1,0-.94,2.692c.018.016.027.044.016.106a4.177,4.177,0,0,0,2.608,4.8,3.116,3.116,0,0,0,3.061-.474c.25-.178.293-.106.255.134-.106.735.03,2.3,2.234,3.2a2.83,2.83,0,0,0,3.316-.614c.282-.258.359-.219.372.18a3.992,3.992,0,1,0,3.989-4.17" transform="translate(-1754.346 -1344.252)" fill="#fff"/><path d="M1799.344,1396.265a3.679,3.679,0,0,1-3.7-3.534c0-.171-.022-.623-.4-.623a.707.707,0,0,0-.453.237,2.6,2.6,0,0,1-1.815.822,3.186,3.186,0,0,1-1.2-.26c-2.114-.855-2.142-2.3-2.058-2.888a.533.533,0,0,0-.074-.444l-.131-.115h-.13a.64.64,0,0,0-.367.15,3.092,3.092,0,0,1-1.793.637,2.769,2.769,0,0,1-1-.2,3.874,3.874,0,0,1-2.421-4.493.389.389,0,0,0-.123-.367l-.2-.162-.183.176a2.887,2.887,0,1,1,.857-2.443l.1.774.424-.655a4.008,4.008,0,0,1,4.613-1.642,2.918,2.918,0,0,1,2.044,2.717c.03.375.3.393.351.393a.463.463,0,0,0,.333-.176,2.919,2.919,0,0,1,2.121-.894,4.082,4.082,0,0,1,1.591.356c2.718,1.167,1.485,4.618,1.472,4.655-.234.573-.245.825-.024.971l.106.051h.08a1.873,1.873,0,0,0,.524-.138,4.7,4.7,0,0,1,1.451-.318h0a3.706,3.706,0,0,1,0,7.412Zm28.79-16.64c-4.487-3.915-14.856-12.93-17.664-15.04a12.353,12.353,0,0,0-3.659-2.13,6.073,6.073,0,0,0-1.8-.279,7.548,7.548,0,0,0-2.281.383,18.8,18.8,0,0,0-5.374,3.4l-.09.071c-1.629,1.3-3.311,2.635-4.586,2.92a7.683,7.683,0,0,1-1.7.19,4.35,4.35,0,0,1-3.191-1.025c-.08-.106-.03-.266.157-.5l.026-.032,3.947-4.254c3.09-3.093,6.009-6.009,12.727-6.164.106,0,.224-.005.335-.005a23.84,23.84,0,0,1,8.834,2.091,27.355,27.355,0,0,0,12.043,2.888,31.442,31.442,0,0,0,13.222-3.167c-.513-.432-1.049-.849-1.6-1.264a29.137,29.137,0,0,1-11.609,2.638,25.639,25.639,0,0,1-11.272-2.712,25.382,25.382,0,0,0-9.619-2.273c-.125,0-.253,0-.378.005a16.7,16.7,0,0,0-10.965,3.893,21.647,21.647,0,0,0-5.469,1,14.9,14.9,0,0,1-3.856.742c-.5,0-1.384-.046-1.465-.049a74.951,74.951,0,0,1-13.864-3.84c-.564.4-1.107.811-1.636,1.232,5.778,2.369,12.81,4.2,15.03,4.348.617.042,1.273.111,1.932.111a16.422,16.422,0,0,0,4.349-.806c.836-.238,1.76-.492,2.733-.679-.261.255-.52.513-.779.771l-4.008,4.339a2.013,2.013,0,0,0-.551,2.217,2.8,2.8,0,0,0,1.061,1.167,8.339,8.339,0,0,0,4.256,1.081,7.772,7.772,0,0,0,1.7-.178c1.68-.378,3.443-1.783,5.312-3.268a17.661,17.661,0,0,1,5.223-3.125,6.056,6.056,0,0,1,1.453-.2,3.055,3.055,0,0,1,.379.023,7.829,7.829,0,0,1,3.95,1.884c3.288,2.472,17.858,15.216,18,15.344a2.817,2.817,0,0,1,.874,2.14,2.333,2.333,0,0,1-1.167,1.86,3.541,3.541,0,0,1-1.909.594,3.158,3.158,0,0,1-1.691-.487c-.053-.045-5.043-4.62-6.88-6.159a1.556,1.556,0,0,0-.865-.46.478.478,0,0,0-.38.181c-.287.358.034.849.418,1.174l5.833,5.858a2.787,2.787,0,0,1,.8,1.581,2.651,2.651,0,0,1-1.379,2.417,3.76,3.76,0,0,1-2.065.683,3,3,0,0,1-1.664-.506l-.836-.825c-1.527-1.5-3.106-3.058-4.261-4.022a1.555,1.555,0,0,0-.87-.45.5.5,0,0,0-.367.154c-.13.146-.224.41.106.849a2.7,2.7,0,0,0,.293.327l4.256,4.78a1.635,1.635,0,0,1,.1,2.038l-.152.189a4.1,4.1,0,0,1-.395.384,3.4,3.4,0,0,1-2.078.66,3.079,3.079,0,0,1-.575-.051,1.437,1.437,0,0,1-.841-.353l-.051-.053c-.231-.24-2.377-2.431-4.151-3.911a1.471,1.471,0,0,0-.825-.444.508.508,0,0,0-.386.173c-.351.383.176.954.4,1.166l3.63,4a.912.912,0,0,1-.138.245c-.13.178-.57.621-1.887.785a3.466,3.466,0,0,1-.482.03,8.3,8.3,0,0,1-3.551-1.053,5.41,5.41,0,0,0-4.9-7.719h-.193a4.809,4.809,0,0,0-2.747-5.081,5.722,5.722,0,0,0-2.262-.5,4.631,4.631,0,0,0-1.658.3,4.564,4.564,0,0,0-2.651-2.248,6.015,6.015,0,0,0-1.943-.344,5.13,5.13,0,0,0-3.027.969,4.563,4.563,0,0,0-6.788-.381c-1.13-.862-5.61-3.712-17.606-6.432-.58-.13-1.91-.513-2.729-.751a19.6,19.6,0,0,0-.31,1.967s2.212.53,2.652.628c12.251,2.72,16.3,5.549,16.983,6.083a4.59,4.59,0,0,0,5.076,6.278,5.36,5.36,0,0,0,3.457,4.007,4.579,4.579,0,0,0,1.637.318,4.209,4.209,0,0,0,1.046-.13,5.327,5.327,0,0,0,4.65,3.036,4.01,4.01,0,0,0,1.4-.25,5.408,5.408,0,0,0,8.882,1.714,10.152,10.152,0,0,0,4.58,1.368,5.682,5.682,0,0,0,.695-.046,4.191,4.191,0,0,0,3.109-1.52,2.334,2.334,0,0,0,.192-.312,5.175,5.175,0,0,0,1.467.231,4.942,4.942,0,0,0,2.962-1.061,4.07,4.07,0,0,0,1.746-2.539.147.147,0,0,1,.009-.037,4.831,4.831,0,0,0,.989.106,5.492,5.492,0,0,0,3.042-.966,4.392,4.392,0,0,0,2.185-3.909,4.73,4.73,0,0,0,1,.106,5.234,5.234,0,0,0,2.85-.876,4.159,4.159,0,0,0,1.98-3.225,4.325,4.325,0,0,0-.628-2.6,117.861,117.861,0,0,1,18.9-5.917,19.668,19.668,0,0,0-.264-1.962,108.5,108.5,0,0,0-19.9,6.47" transform="translate(-1755.529 -1345.659)" fill="#253e8b"/><path d="M1993.6,1369.25a4.685,4.685,0,0,1-6.6.53,4.741,4.741,0,0,1-.529-.53,9.394,9.394,0,0,1,0-9.368,4.7,4.7,0,0,1,7.133,0A9.43,9.43,0,0,1,1993.6,1369.25Zm4.232-12.272q-2.563-3.206-7.777-3.207t-7.771,3.207a12.543,12.543,0,0,0,0,15.2q2.558,3.155,7.771,3.16t7.777-3.16a12.555,12.555,0,0,0,0-15.2" transform="translate(-1742.061 -1345.755)" fill="#253e8b"/><path d="M1953.839,1366.746a4.246,4.246,0,0,1-1.52,3.668,5.54,5.54,0,0,1-3.2,1.009,2.909,2.909,0,0,1-1.862-.607,2.354,2.354,0,0,1-.764-1.968,2.426,2.426,0,0,1,1.252-2.251,7.965,7.965,0,0,1,2.439-.721l1.208-.224a8.9,8.9,0,0,0,1.421-.367,5.341,5.341,0,0,0,1.028-.511Zm2.691-11.56a13,13,0,0,0-5.939-1.32q-5.143,0-7.256,2.68a7.8,7.8,0,0,0-1.5,4.375h5.121a3.832,3.832,0,0,1,.755-1.86,3.382,3.382,0,0,1,2.7-.931,5.493,5.493,0,0,1,2.579.476,1.78,1.78,0,0,1,.876,1.719,1.591,1.591,0,0,1-1.144,1.509,8.407,8.407,0,0,1-2.121.465l-1.815.224a12.908,12.908,0,0,0-4.687,1.3,5.77,5.77,0,0,0-2.906,5.416,5.585,5.585,0,0,0,1.8,4.454,7.187,7.187,0,0,0,4.581,1.576c11.581.516,11.454-6.1,11.561-7.481v-7.618q0-3.665-2.6-4.99" transform="translate(-1744.396 -1345.75)" fill="#253e8b"/><path d="M1931.343,1358.4a3.456,3.456,0,0,1,2.925,1.227,4.549,4.549,0,0,1,.8,2.044h5.715q-.471-4.324-3.027-6.037a11.651,11.651,0,0,0-6.568-1.707,9.6,9.6,0,0,0-7.4,2.9q-2.684,2.9-2.683,8.1a11.3,11.3,0,0,0,2.432,7.51q2.428,2.891,7.577,2.893t7.777-3.47a8.6,8.6,0,0,0,1.839-4.561h-5.693a4.822,4.822,0,0,1-1,2.6,3.418,3.418,0,0,1-2.784,1,3.719,3.719,0,0,1-3.766-2.525,9.639,9.639,0,0,1-.548-3.569,10.522,10.522,0,0,1,.548-3.74,3.842,3.842,0,0,1,3.862-2.651" transform="translate(-1745.613 -1345.747)" fill="#253e8b"/><path d="M1920.291,1353.927c-11.735,0-11.04,10.394-11.04,10.394v10.553h5.323v-9.9a8.114,8.114,0,0,1,.613-3.606q1.093-2.074,4.288-2.079c.159,0,.37.008.631.021s.554.035.891.074v-5.417c-.238-.016-.388-.021-.455-.03a2.132,2.132,0,0,0-.25-.01" transform="translate(-1746.331 -1345.746)" fill="#253e8b"/><path d="M1894.86,1359.441a4.208,4.208,0,0,1,3.156-1.155,4.629,4.629,0,0,1,3.137,1.091,4.412,4.412,0,0,1,1.408,3.193h-9.11A5.467,5.467,0,0,1,1894.86,1359.441Zm7.157,9.914a3.879,3.879,0,0,1-.728.807,4.535,4.535,0,0,1-2.975.806,5.034,5.034,0,0,1-2.835-.681,4.79,4.79,0,0,1-2.156-4.226h14.734a26.743,26.743,0,0,0-.178-4.013,9.968,9.968,0,0,0-1.611-4.182,8.255,8.255,0,0,0-3.5-2.994,11.517,11.517,0,0,0-4.754-.945,9.754,9.754,0,0,0-7.228,2.8q-2.787,2.806-2.789,8.061,0,5.613,3.09,8.1a11.035,11.035,0,0,0,7.125,2.491,9.83,9.83,0,0,0,7.61-2.952,7.171,7.171,0,0,0,1.847-3.076h-5.651" transform="translate(-1747.618 -1345.746)" fill="#253e8b"/><path d="M1887.64,1374.871h-4.865v-12.248a3.416,3.416,0,0,0-3.029-3.763,3.375,3.375,0,0,0-.548-.016,3.583,3.583,0,0,0-3.691,3.474c0,.1,0,.2,0,.3v12.249h-4.867v-12.249c0-1.118-.333-3.779-3.539-3.779a3.565,3.565,0,0,0-3.693,3.432,3.424,3.424,0,0,0,0,.347v12.249h-4.866V1362.74c0-5.057,3.354-8.881,8.555-8.881a7.492,7.492,0,0,1,6.045,2.824,7.752,7.752,0,0,1,6.045-2.824c5.309,0,8.442,3.671,8.442,8.881v12.131" transform="translate(-1749.402 -1345.75)" fill="#253e8b"/><path d="M1972.962,1369.651a3.9,3.9,0,0,1-3.415,1.672,3.731,3.731,0,0,1-3.348-1.68,8.575,8.575,0,0,1-1.1-4.625,8.105,8.105,0,0,1,1.083-4.349,3.715,3.715,0,0,1,3.4-1.754,4.046,4.046,0,0,1,2.675.963c1.248,1.061,1.874,2.97,1.874,5.448A7.38,7.38,0,0,1,1972.962,1369.651Zm6.388-21.753s-5.365-.573-5.365,3.736v5.7a6.41,6.41,0,0,0-2.318-2.236,6.528,6.528,0,0,0-3.269-.809,7.756,7.756,0,0,0-6.372,2.97c-1.591,1.98-2.382,4.833-2.382,8.285a11.021,11.021,0,0,0,2.419,7.361c1.615,1.909,4.783,2.747,7.594,2.747,9.8,0,9.69-8.411,9.69-8.411l.005-19.349" transform="translate(-1743.278 -1346.112)" fill="#253e8b"/><path d="M1904.439,1392.571a7.814,7.814,0,0,0-1.176-4.634,3.912,3.912,0,0,0-3.366-1.624,3.85,3.85,0,0,0-3.288,1.624,7.845,7.845,0,0,0-1.091,4.634,6.926,6.926,0,0,0,1.174,4.4,3.894,3.894,0,0,0,3.364,1.624,3.747,3.747,0,0,0,3.209-1.624,7.342,7.342,0,0,0,1.176-4.4m-8.924,14.409a2.5,2.5,0,0,1-.788,1.853,2.56,2.56,0,0,1-1.876.774h-2.661V1391.1c0-3.6,1.211-5.85,3.207-7.375,1.319-1.006,3.288-1.968,6.967-1.968a9.348,9.348,0,0,1,6.971,2.882,11.383,11.383,0,0,1,2.5,7.7,12.484,12.484,0,0,1-2.345,7.881,7.369,7.369,0,0,1-6.031,2.932,8.066,8.066,0,0,1-3.442-.691,5.831,5.831,0,0,1-2.505-2.4v6.917" transform="translate(-1747.485 -1344.059)" fill="#00aeef"/><path d="M1934.017,1392.58q0,5.326,3.076,5.905t4.536-1.432a5.765,5.765,0,0,0,1-2.659,11.288,11.288,0,0,0,.037-3.588,7.121,7.121,0,0,0-1.273-3.167,3.374,3.374,0,0,0-2.92-1.389,3.552,3.552,0,0,0-3.537,1.927,10.054,10.054,0,0,0-.923,4.4m8.767,8.873v-1.307a5.88,5.88,0,0,1-3.732,2.7,7.584,7.584,0,0,1-4.646-.388,8.6,8.6,0,0,1-3.963-3.431,11.837,11.837,0,0,1-1.65-6.6,12.754,12.754,0,0,1,2.188-7.752c1.46-1.981,3.808-2.886,7.037-2.97a9.77,9.77,0,0,1,6.843,2.008c1.98,1.5,3.151,3.808,3.151,7.409V1402c.008,3.463-2.409,9.882-9.994,9.339-4.7-.34-7.309-2.271-8.764-6.637h5.615a4.291,4.291,0,0,0,4.415,1.964,4.216,4.216,0,0,0,2.313-1.5,6.315,6.315,0,0,0,1.19-3.712" transform="translate(-1745.147 -1344.065)" fill="#00aeef"/><path d="M1922.681,1394.717a4.26,4.26,0,0,1-1.517,3.667,5.551,5.551,0,0,1-3.2,1,2.9,2.9,0,0,1-1.862-.6,2.349,2.349,0,0,1-.767-1.967,2.419,2.419,0,0,1,1.254-2.249,7.9,7.9,0,0,1,2.439-.724l1.208-.224a8.665,8.665,0,0,0,1.421-.367,5.32,5.32,0,0,0,1.028-.508Zm2.691-11.56a13,13,0,0,0-5.939-1.32q-5.148,0-7.259,2.68a7.781,7.781,0,0,0-1.5,4.375h5.124a3.8,3.8,0,0,1,.753-1.862,3.377,3.377,0,0,1,2.693-.929,5.509,5.509,0,0,1,2.579.474,1.791,1.791,0,0,1,.878,1.721,1.6,1.6,0,0,1-1.144,1.509,8.357,8.357,0,0,1-2.121.466l-1.815.221a13.018,13.018,0,0,0-4.687,1.3,5.775,5.775,0,0,0-2.91,5.418,5.589,5.589,0,0,0,1.8,4.455,7.176,7.176,0,0,0,4.581,1.576c11.574.517,11.447-6.106,11.554-7.481v-7.619q0-3.665-2.6-4.985" transform="translate(-1746.284 -1344.055)" fill="#00aeef"/><path d="M1962.705,1397.11a4.679,4.679,0,0,1-6.595.539,4.611,4.611,0,0,1-.538-.539,9.368,9.368,0,0,1,0-9.363,4.7,4.7,0,0,1,6.633-.5,4.838,4.838,0,0,1,.5.5,9.441,9.441,0,0,1,0,9.363m4.232-12.267q-2.563-3.209-7.779-3.207t-7.771,3.207a12.539,12.539,0,0,0,0,15.2q2.558,3.155,7.771,3.159t7.779-3.159a12.573,12.573,0,0,0,0-15.2" transform="translate(-1743.933 -1344.067)" fill="#00aeef"/></g><path d="M1854.747,1241.915c6.412,5.229,14.667,2.061,15.525-6.118a16.1,16.1,0,0,0-2.281-9.535c-7.677-13.911-19.832-15.531-24.482-4.447C1840.639,1228.656,1848.391,1236.734,1854.747,1241.915Z" transform="translate(8.705 0.301)" fill="#fdc331"/><path d="M1886.752,1261.161c4.287.894,7.394-2.6,5.806-6.658a8.52,8.52,0,0,0-3.4-3.924c-7-4.668-13.1-2.468-12.588,3.873C1876.892,1258.367,1882.5,1260.275,1886.752,1261.161Z" transform="translate(10.744 2.334)" fill="#fdc331"/><g transform="translate(1879.317 1512.704)"><ellipse cx="7.971" cy="8.579" rx="7.971" ry="8.579" fill="#fdc331"/></g></g></svg>