<svg xmlns="http://www.w3.org/2000/svg" width="200" height="183.839" viewBox="0 0 200 183.839"><g transform="translate(-264.3 -432.655)"><path d="M326.5,433.311C309,428.9,286.723,447.6,275.921,463.571c-19.618,29.012-9.993,61.785-2.938,85.809,4.541,15.462,9.929,33.719,23.242,37.006,15.223,3.757,27.27-14.954,39.7-9.982,11.255,4.5,5.35,21.45,18.019,32.38,14.81,12.776,43.463,7.38,59.8.243,32.321-14.115,42.047-46.2,44.395-55.752,7.756-31.536-3.869-68.1-29.771-85.454-4.349-2.913-13.021-8.722-25.628-10.584-20.886-3.084-28.788,8.178-43.782,4.223C340.706,456.646,342.265,437.286,326.5,433.311Z" fill="#292669"/><path d="M307.687,504.873a54.38,54.38,0,0,1-2.459-15.544c-.216-10.6,6.045-25.7,13.709-31.714s15.374-7.265,20.016-2.319-.779,10.761-4.944,13.687S312,486.128,311.983,506.022" fill="none" stroke="#f99898" stroke-linecap="round" stroke-linejoin="round" stroke-width="1"/><path d="M336.748,456.34c-3.733.508-14.928,6.7-21,16.229-8.723,13.683-5.792,32.952-5.792,32.952" fill="none" stroke="#f99898" stroke-linecap="round" stroke-linejoin="round" stroke-width="1"/><line x1="7.141" y1="2.862" transform="translate(330.944 458.743)" fill="none" stroke="#f99898" stroke-linecap="round" stroke-linejoin="round" stroke-width="1"/><line x1="7.513" y1="2.729" transform="translate(325.83 462.118)" fill="none" stroke="#f99898" stroke-linecap="round" stroke-linejoin="round" stroke-width="1"/><line x1="7.682" y1="3.077" transform="translate(322.135 465.268)" fill="none" stroke="#f99898" stroke-linecap="round" stroke-linejoin="round" stroke-width="1"/><line x2="8.484" y2="2.602" transform="translate(318.338 469.04)" fill="none" stroke="#f99898" stroke-linecap="round" stroke-linejoin="round" stroke-width="1"/><line x2="8.005" y2="2.287" transform="translate(315.52 472.931)" fill="none" stroke="#f99898" stroke-linecap="round" stroke-linejoin="round" stroke-width="1"/><line x2="7.202" y2="2.057" transform="translate(313.06 477.99)" fill="none" stroke="#f99898" stroke-linecap="round" stroke-linejoin="round" stroke-width="1"/><line x2="5.795" y2="1.253" transform="translate(311.485 482.206)" fill="none" stroke="#f99898" stroke-linecap="round" stroke-linejoin="round" stroke-width="1"/><line x2="4.632" y2="0.446" transform="translate(310.279 487.724)" fill="none" stroke="#f99898" stroke-linecap="round" stroke-linejoin="round" stroke-width="1"/><line y1="0.048" x2="4.025" transform="translate(309.707 492.297)" fill="none" stroke="#f99898" stroke-linecap="round" stroke-linejoin="round" stroke-width="1"/><line x1="3.452" y1="2.598" transform="translate(306.459 487.725)" fill="none" stroke="#f99898" stroke-linecap="round" stroke-linejoin="round" stroke-width="1"/><line x1="3.581" y1="2.741" transform="translate(307.299 481.921)" fill="none" stroke="#f99898" stroke-linecap="round" stroke-linejoin="round" stroke-width="1"/><line x1="3.225" y1="2.82" transform="translate(309.098 476.791)" fill="none" stroke="#f99898" stroke-linecap="round" stroke-linejoin="round" stroke-width="1"/><line x1="2.969" y1="3.664" transform="translate(311.566 471.057)" fill="none" stroke="#f99898" stroke-linecap="round" stroke-linejoin="round" stroke-width="1"/><line x1="1.097" y1="4.812" transform="translate(327.301 455.404)" fill="none" stroke="#f99898" stroke-linecap="round" stroke-linejoin="round" stroke-width="1"/><line x1="1.557" y1="5.857" transform="translate(322.258 457.742)" fill="none" stroke="#f99898" stroke-linecap="round" stroke-linejoin="round" stroke-width="1"/><line x1="2.528" y1="5.411" transform="translate(317.792 461.426)" fill="none" stroke="#f99898" stroke-linecap="round" stroke-linejoin="round" stroke-width="1"/><line x1="2.775" y1="4.915" transform="translate(314.257 465.786)" fill="none" stroke="#f99898" stroke-linecap="round" stroke-linejoin="round" stroke-width="1"/><line x1="0.371" y1="2.92" transform="translate(333.445 454.346)" fill="none" stroke="#f99898" stroke-linecap="round" stroke-linejoin="round" stroke-width="1"/><path d="M304.07,510.267c-5.2-.358-12.641-1.9-18.328-7.406-3.474-3.362-1.362-3.43-9.91-18.793-1.527-2.743-2.639-4.62-1.859-6.125,1.919-3.7,13.146-1.074,13.664-.949,4.511,1.089,12.205,2.946,16.656,10.2C310.742,497.714,304.358,509.745,304.07,510.267Z" fill="#ffc7c6"/><path d="M279.467,478.777a41.727,41.727,0,0,1,22.97,29.422" fill="none" stroke="#fff" stroke-linecap="round" stroke-miterlimit="10" stroke-width="1"/><path d="M280.94,486.245l7.727-1.485" fill="none" stroke="#fff" stroke-linecap="round" stroke-miterlimit="10" stroke-width="1"/><path d="M290.871,481.327l-.443,5.027" fill="none" stroke="#fff" stroke-linecap="round" stroke-miterlimit="10" stroke-width="1"/><path d="M297.335,484.138q-1.011,3.909-2.02,7.819" fill="none" stroke="#fff" stroke-linecap="round" stroke-miterlimit="10" stroke-width="1"/><line y1="1.506" x2="9.431" transform="translate(283.601 489.353)" fill="none" stroke="#fff" stroke-linecap="round" stroke-miterlimit="10" stroke-width="1"/><path d="M302.112,489.52q-1.638,4.118-3.278,8.233" fill="none" stroke="#fff" stroke-linecap="round" stroke-miterlimit="10" stroke-width="1"/><line y1="2.057" x2="11.114" transform="translate(286.082 495.08)" fill="none" stroke="#fff" stroke-linecap="round" stroke-miterlimit="10" stroke-width="1"/><path d="M289.57,503.118l10.933-1.572" fill="none" stroke="#fff" stroke-linecap="round" stroke-miterlimit="10" stroke-width="1"/><path d="M305.663,494.354l-4.44,9.23" fill="none" stroke="#fff" stroke-linecap="round" stroke-miterlimit="10" stroke-width="1"/><path d="M436.493,561.7c-15.329,11.365-33.08-4.14-57.421,6.952-22.625,10.31-18.84,28.973-38.923,34.851-20.063,5.872-47.726-5.764-56-22.182-5.756-11.417,2.192-16.559-1.9-35.4-4.94-22.754-18.971-26.51-16.492-36.3C271.049,488.71,339.9,486.6,374.895,488.36c33.1,1.662,52.538,2.918,64.335,17.193C452.986,522.2,451.445,550.614,436.493,561.7Z" fill="#bce3f6"/><path d="M291.739,598.842c2.522-25.437,8.832-88.615,10.21-97.85,1.732-11.606,15.954-9.044,15.954-9.044l3.045,117.45h-19.83a9.346,9.346,0,0,1-6.992-3.163A9.694,9.694,0,0,1,291.739,598.842Z" fill="#dba92a"/><path d="M452.17,612.358a11.214,11.214,0,0,0,10.975-11.45l-2.023-95.349a9.88,9.88,0,0,0-9.585-9.667l-138.388-4.105a7.284,7.284,0,0,0-7.5,7.3l.332,109.325a6.915,6.915,0,0,0,7.062,6.894Z" fill="#fdc331"/><path d="M461.089,604.354a3.257,3.257,0,0,0,3.17-3.763c-2.042-12.983-8.453-57.642-6.4-94.722a3.013,3.013,0,0,0-2.909-3.183l-139.012-4.435a3.468,3.468,0,0,0-3.576,3.334c-.591,15.589-2.793,79.785.088,102.606a2.747,2.747,0,0,0,2.77,2.4Z" fill="#ccd3e6"/><path d="M457.577,602.894a3.135,3.135,0,0,0,3.051-3.621c-1.965-12.494-8.135-55.472-6.156-91.156a2.9,2.9,0,0,0-2.8-3.063l-133.778-4.267a3.334,3.334,0,0,0-3.44,3.207c-.569,15-2.688,76.782.084,98.743a2.643,2.643,0,0,0,2.665,2.309Z" fill="#f9575c"/><path d="M375.354,527.725l.2,9.634a2.634,2.634,0,0,1-2.619,2.69l-9.882.056a2.635,2.635,0,0,1-2.649-2.578l-.215-10.129a2.635,2.635,0,0,1,2.751-2.688l9.892.439A2.633,2.633,0,0,1,375.354,527.725Z" fill="#def1f8"/><path d="M409.9,539.968l-9.882.056a2.635,2.635,0,0,1-2.649-2.578l-.183-8.615a2.635,2.635,0,0,1,2.729-2.689l9.89.356a2.634,2.634,0,0,1,2.54,2.576l.174,8.2A2.634,2.634,0,0,1,409.9,539.968Z" fill="#def1f8"/><path d="M401.246,582.884l9.4-.092a2.876,2.876,0,0,1,2.9,2.814l.187,8.8a2.875,2.875,0,0,1-2.753,2.933l-9.394.4a2.875,2.875,0,0,1-3-2.811l-.193-9.11A2.874,2.874,0,0,1,401.246,582.884Z" fill="#def1f8"/><path d="M417.061,594.2l-.182-8.607a2.824,2.824,0,0,1,2.8-2.885l9.5-.092a2.825,2.825,0,0,1,2.852,2.765l.176,8.3a2.826,2.826,0,0,1-2.705,2.883l-9.492.4A2.826,2.826,0,0,1,417.061,594.2Z" fill="#def1f8"/><path d="M416.237,555.339l-.15-7.065a3.041,3.041,0,0,1,3.046-3.1l9.07.016a3.041,3.041,0,0,1,3.035,2.976l.143,6.753a3.04,3.04,0,0,1-2.94,3.1l-9.064.3A3.042,3.042,0,0,1,416.237,555.339Z" fill="#fdc331"/><path d="M416.673,575.872l-.23-10.807a2.827,2.827,0,0,1,2.733-2.884l9.277-.3a3.039,3.039,0,0,1,3.139,2.974l.231,10.9A2.826,2.826,0,0,1,429,578.637h-9.5A2.826,2.826,0,0,1,416.673,575.872Z" fill="#def1f8"/><path d="M391.424,540.073l-9.883.055a2.633,2.633,0,0,1-2.648-2.578l-.2-9.384a2.634,2.634,0,0,1,2.728-2.688l9.891.355a2.635,2.635,0,0,1,2.539,2.577l.19,8.973A2.634,2.634,0,0,1,391.424,540.073Z" fill="#def1f8"/><path d="M398.188,575.826l-.214-10.108a2.875,2.875,0,0,1,2.78-2.934l9.4-.307a2.875,2.875,0,0,1,2.968,2.812l.221,10.414a2.876,2.876,0,0,1-2.874,2.936h-9.4A2.875,2.875,0,0,1,398.188,575.826Z" fill="#def1f8"/><path d="M381.284,545.1l10.792.02a2.18,2.18,0,0,1,2.176,2.134l.206,9.719a2.18,2.18,0,0,1-2.109,2.225l-10.783.353a2.181,2.181,0,0,1-2.252-2.133l-.214-10.091A2.181,2.181,0,0,1,381.284,545.1Z" fill="#fdc331"/><path d="M375.779,547.768l.2,9.256a2.74,2.74,0,0,1-2.65,2.8l-9.665.316a2.739,2.739,0,0,1-2.829-2.68l-.2-9.59a2.741,2.741,0,0,1,2.745-2.8l9.672.018A2.739,2.739,0,0,1,375.779,547.768Z" fill="#def1f8"/><path d="M410.82,558.594l-10.784.353a2.18,2.18,0,0,1-2.251-2.133l-.2-9.454a2.18,2.18,0,0,1,2.184-2.226l10.792.019a2.18,2.18,0,0,1,2.176,2.134l.193,9.081A2.181,2.181,0,0,1,410.82,558.594Z" fill="#fdc331"/><path d="M382.283,563.389l9.4-.308a2.875,2.875,0,0,1,2.968,2.812l.208,9.812a2.875,2.875,0,0,1-2.873,2.936h-9.4a2.874,2.874,0,0,1-2.874-2.814l-.2-9.505A2.874,2.874,0,0,1,382.283,563.389Z" fill="#def1f8"/><path d="M363.488,564l10.053-.329a2.545,2.545,0,0,1,2.629,2.49l.209,9.878a2.547,2.547,0,0,1-2.545,2.6h-10.06a2.547,2.547,0,0,1-2.546-2.492l-.2-9.55A2.545,2.545,0,0,1,363.488,564Z" fill="#def1f8"/><path d="M427,539.744l-7.5.042a3.653,3.653,0,0,1-3.673-3.575l-.131-6.188a3.254,3.254,0,0,1,3.37-3.321l8.347.3a3.575,3.575,0,0,1,3.446,3.5l.11,5.168A3.993,3.993,0,0,1,427,539.744Z" fill="#def1f8"/><path d="M435.363,585.628a3.04,3.04,0,0,1,3.011-3.1l3.267-.032c2.483-.024,4.514,1.617,4.557,3.684l.127,5.982c.044,2.05-1.884,3.768-4.345,3.872l-3.507.149a2.826,2.826,0,0,1-2.945-2.763Z" fill="#def1f8"/><path d="M330.3,583.572l6.426-.063a2.877,2.877,0,0,1,2.9,2.816l.238,11.209a2.877,2.877,0,0,1-2.755,2.935l-6.4.271c-2.551.108-4.69-1.555-4.735-3.68l-.2-9.611C325.733,585.341,327.768,583.6,330.3,583.572Z" fill="#def1f8"/><path d="M441.381,578.635h-3.189a3.041,3.041,0,0,1-3.04-2.977l-.233-10.986a3.039,3.039,0,0,1,2.94-3.1l3.21-.1c2.531-.083,4.639,1.573,4.683,3.681l.2,9.612C446,576.883,443.934,578.635,441.381,578.635Z" fill="#def1f8"/><path d="M441.113,557.6l-4.015.132a2.3,2.3,0,0,1-2.374-2.25l-.169-7.935a2.3,2.3,0,0,1,2.3-2.348l4.055.007c2.459,0,4.451,1.638,4.494,3.685l.1,4.835C445.554,555.795,443.6,557.521,441.113,557.6Z" fill="#def1f8"/><path d="M329.274,523.477l6.444.232a2.74,2.74,0,0,1,2.641,2.68l.235,11.071a2.741,2.741,0,0,1-2.724,2.8l-6.635.037c-2.475.014-4.492-1.624-4.536-3.684l-.2-9.261C324.456,525.162,326.647,523.383,329.274,523.477Z" fill="#def1f8"/><path d="M382.767,583.063l9.4-.091a2.874,2.874,0,0,1,2.9,2.813l.2,9.406a2.875,2.875,0,0,1-2.753,2.933l-9.394.4a2.874,2.874,0,0,1-2.995-2.811L379.921,586A2.874,2.874,0,0,1,382.767,583.063Z" fill="#def1f8"/><path d="M329.545,545.007l6.531.012a2.74,2.74,0,0,1,2.735,2.682l.223,10.532a2.74,2.74,0,0,1-2.65,2.8l-6.557.215c-2.531.083-4.638-1.574-4.683-3.682l-.184-8.679C324.914,546.756,326.988,545,329.545,545.007Z" fill="#def1f8"/><path d="M329.783,565.107l6.817-.223a2.545,2.545,0,0,1,2.628,2.49l.184,8.673a2.545,2.545,0,0,1-2.544,2.6h-6.85c-2.463,0-4.462-1.634-4.505-3.684l-.127-5.982C325.342,566.914,327.3,565.188,329.783,565.107Z" fill="#def1f8"/><path d="M357.7,566.77l.2,9.275a2.546,2.546,0,0,1-2.545,2.6H345.29a2.545,2.545,0,0,1-2.545-2.492l-.19-8.947a2.546,2.546,0,0,1,2.462-2.6l10.054-.329A2.547,2.547,0,0,1,357.7,566.77Z" fill="#def1f8"/><path d="M345.81,583.421l9.4-.091a2.876,2.876,0,0,1,2.9,2.816l.225,10.606a2.878,2.878,0,0,1-2.755,2.936l-9.389.4a2.877,2.877,0,0,1-3-2.814l-.232-10.912A2.878,2.878,0,0,1,345.81,583.421Z" fill="#def1f8"/><path d="M440.585,539.667l-3.932.022a2.3,2.3,0,0,1-2.312-2.25l-.165-7.762a2.3,2.3,0,0,1,2.382-2.346l4.164.149c2.384.086,4.267,1.694,4.309,3.681l.1,4.629C445.174,537.905,443.126,539.653,440.585,539.667Z" fill="#def1f8"/><path d="M364.29,583.242l9.237-.09a3.037,3.037,0,0,1,3.066,2.973l.209,9.845a2.878,2.878,0,0,1-2.755,2.936l-9.389.4a2.877,2.877,0,0,1-3-2.813l-.219-10.31A2.878,2.878,0,0,1,364.29,583.242Z" fill="#def1f8"/><path d="M356.857,527.054l.218,10.3a2.739,2.739,0,0,1-2.724,2.8l-9.67.055a2.74,2.74,0,0,1-2.755-2.682l-.227-10.7a2.739,2.739,0,0,1,2.838-2.8l9.678.347A2.741,2.741,0,0,1,356.857,527.054Z" fill="#def1f8"/><path d="M357.3,547.734l.21,9.9a2.742,2.742,0,0,1-2.65,2.8l-9.665.316a2.741,2.741,0,0,1-2.829-2.681l-.217-10.228a2.74,2.74,0,0,1,2.745-2.8l9.671.017A2.74,2.74,0,0,1,357.3,547.734Z" fill="#def1f8"/><path d="M441.657,519.134l-.445,3.263a2.143,2.143,0,0,1-2.078,1.852l-.154,0a2.143,2.143,0,0,1-2.188-2.1l-.071-3.34a2.144,2.144,0,0,1,2.377-2.176l.67.074A2.143,2.143,0,0,1,441.657,519.134Z" fill="#def1f8"/><path d="M426.514,518.294l-.445,3.263a2.145,2.145,0,0,1-2.078,1.853l-.154,0a2.143,2.143,0,0,1-2.188-2.1l-.071-3.34a2.143,2.143,0,0,1,2.377-2.175l.67.073A2.143,2.143,0,0,1,426.514,518.294Z" fill="#def1f8"/><path d="M407.882,518.551l-.445,3.262a2.142,2.142,0,0,1-2.078,1.853l-.154,0a2.143,2.143,0,0,1-2.188-2.1l-.071-3.339a2.143,2.143,0,0,1,2.377-2.176l.67.074A2.142,2.142,0,0,1,407.882,518.551Z" fill="#def1f8"/><path d="M389.73,517.738,389.285,521a2.143,2.143,0,0,1-2.078,1.853l-.155,0a2.142,2.142,0,0,1-2.188-2.1l-.07-3.339a2.142,2.142,0,0,1,2.377-2.176l.67.074A2.143,2.143,0,0,1,389.73,517.738Z" fill="#def1f8"/><path d="M371.085,515.367l-.445,3.262a2.143,2.143,0,0,1-2.078,1.853l-.154,0a2.143,2.143,0,0,1-2.188-2.1l-.071-3.339a2.144,2.144,0,0,1,2.377-2.176l.67.074A2.143,2.143,0,0,1,371.085,515.367Z" fill="#def1f8"/><path d="M351.334,515.786l-.445,3.262a2.143,2.143,0,0,1-2.078,1.853l-.154,0a2.141,2.141,0,0,1-2.188-2.1l-.071-3.339a2.143,2.143,0,0,1,2.377-2.176l.67.074A2.143,2.143,0,0,1,351.334,515.786Z" fill="#def1f8"/><path d="M334.663,515.437l-.446,3.262a2.142,2.142,0,0,1-2.078,1.853l-.154,0a2.143,2.143,0,0,1-2.188-2.1l-.071-3.339a2.143,2.143,0,0,1,2.377-2.176l.671.074A2.143,2.143,0,0,1,334.663,515.437Z" fill="#def1f8"/><circle cx="3.751" cy="3.751" r="3.751" transform="translate(434.176 506.342)" fill="#dba92a"/><circle cx="3.751" cy="3.751" r="3.751" transform="translate(403.444 506.053)" fill="#dba92a"/><circle cx="3.751" cy="3.751" r="3.751" transform="translate(372.424 505.043)" fill="#dba92a"/><circle cx="3.751" cy="3.751" r="3.751" transform="matrix(0.98, -0.201, 0.201, 0.98, 341.015, 504.431)" fill="#dba92a"/><path d="M342.59,481.361c6.312,1.377,5.717,17.983,5.209,24.724a3.038,3.038,0,0,1-3.032,2.81,1.558,1.558,0,0,1-1.547-1.726c.546-5.1,1.706-19.769-2.941-20.554,0,0-3.333-.59-3.894,5.867h-3.606S334.655,479.63,342.59,481.361Z" fill="#f9575c"/><path d="M373.322,482.215c6.312,1.377,5.716,17.988,5.208,24.73a3.04,3.04,0,0,1-3.031,2.813,1.557,1.557,0,0,1-1.547-1.724c.545-5.1,1.705-19.781-2.941-20.565,0,0-3.333-.461-3.894,5.855h-3.606S365.387,480.483,373.322,482.215Z" fill="#f9575c"/><path d="M404.054,483.073c6.311,1.377,5.716,17.992,5.208,24.734a3.043,3.043,0,0,1-3.032,2.815,1.555,1.555,0,0,1-1.546-1.723c.545-5.1,1.705-19.788-2.942-20.573,0,0-3.331-.375-3.892,5.973l-3.607-.125S396.118,481.341,404.054,483.073Z" fill="#f9575c"/><path d="M434.785,484.065c6.312,1.377,5.717,18,5.209,24.743a3.047,3.047,0,0,1-3.032,2.819,1.552,1.552,0,0,1-1.547-1.719c.546-5.1,1.706-19.8-2.941-20.59,0,0-3.333-.486-3.894,5.83h-3.606S426.85,482.334,434.785,484.065Z" fill="#f9575c"/><path d="M419.274,558.7a3.426,3.426,0,0,1-3.423-3.354l-.15-7.066a3.427,3.427,0,0,1,3.426-3.5h.006l9.071.016a3.448,3.448,0,0,1,3.42,3.355l.144,6.752a3.441,3.441,0,0,1-3.315,3.5l-9.064.3Zm-.147-13.147a2.654,2.654,0,0,0-2.653,2.711l.15,7.065a2.654,2.654,0,0,0,2.74,2.6l9.064-.3a2.665,2.665,0,0,0,2.567-2.709l-.144-6.752a2.669,2.669,0,0,0-2.648-2.6l-9.071-.017Z" fill="#e73555"/><path d="M381.491,559.939a2.566,2.566,0,0,1-2.563-2.512l-.214-10.092a2.565,2.565,0,0,1,2.566-2.621h.005l10.792.019a2.582,2.582,0,0,1,2.561,2.513l.207,9.719a2.577,2.577,0,0,1-2.483,2.62l-10.784.353Zm-.211-14.452a1.795,1.795,0,0,0-1.793,1.832l.214,10.091a1.795,1.795,0,0,0,1.852,1.755l10.784-.353a1.8,1.8,0,0,0,1.735-1.831l-.207-9.719a1.8,1.8,0,0,0-1.79-1.755l-10.792-.02Z" fill="#e73555"/><path d="M399.962,559.335a2.566,2.566,0,0,1-2.563-2.513l-.2-9.453a2.568,2.568,0,0,1,2.566-2.622h.005l10.792.019a2.582,2.582,0,0,1,2.561,2.513l.193,9.081a2.575,2.575,0,0,1-2.482,2.62l-10.784.353Zm-.2-13.815a1.795,1.795,0,0,0-1.793,1.832l.2,9.454a1.781,1.781,0,0,0,.559,1.264,1.8,1.8,0,0,0,1.292.49l10.785-.352a1.8,1.8,0,0,0,1.734-1.831l-.193-9.081a1.8,1.8,0,0,0-1.79-1.756l-10.792-.02Z" fill="#e73555"/><path d="M326.5,433.311C309,428.9,286.723,447.6,275.921,463.571c-19.618,29.012-9.993,61.785-2.938,85.809,4.541,15.462,9.929,33.719,23.242,37.006,15.223,3.757,27.27-14.954,39.7-9.982,11.255,4.5,5.35,21.45,18.019,32.38,14.81,12.776,43.463,7.38,59.8.243,32.321-14.115,42.047-46.2,44.395-55.752,7.756-31.536-3.869-68.1-29.771-85.454-4.349-2.913-13.021-8.722-25.628-10.584-20.886-3.084-28.788,8.178-43.782,4.223C340.706,456.646,342.265,437.286,326.5,433.311Z" fill="#292669"/><path d="M307.687,504.873a54.38,54.38,0,0,1-2.459-15.544c-.216-10.6,6.045-25.7,13.709-31.714s15.374-7.265,20.016-2.319-.779,10.761-4.944,13.687S312,486.128,311.983,506.022" fill="none" stroke="#f99898" stroke-linecap="round" stroke-linejoin="round" stroke-width="1"/><path d="M336.748,456.34c-3.733.508-14.928,6.7-21,16.229-8.723,13.683-5.792,32.952-5.792,32.952" fill="none" stroke="#f99898" stroke-linecap="round" stroke-linejoin="round" stroke-width="1"/><line x1="7.141" y1="2.862" transform="translate(330.944 458.743)" fill="none" stroke="#f99898" stroke-linecap="round" stroke-linejoin="round" stroke-width="1"/><line x1="7.513" y1="2.729" transform="translate(325.83 462.118)" fill="none" stroke="#f99898" stroke-linecap="round" stroke-linejoin="round" stroke-width="1"/><line x1="7.682" y1="3.077" transform="translate(322.135 465.268)" fill="none" stroke="#f99898" stroke-linecap="round" stroke-linejoin="round" stroke-width="1"/><line x2="8.484" y2="2.602" transform="translate(318.338 469.04)" fill="none" stroke="#f99898" stroke-linecap="round" stroke-linejoin="round" stroke-width="1"/><line x2="8.005" y2="2.287" transform="translate(315.52 472.931)" fill="none" stroke="#f99898" stroke-linecap="round" stroke-linejoin="round" stroke-width="1"/><line x2="7.202" y2="2.057" transform="translate(313.06 477.99)" fill="none" stroke="#f99898" stroke-linecap="round" stroke-linejoin="round" stroke-width="1"/><line x2="5.795" y2="1.253" transform="translate(311.485 482.206)" fill="none" stroke="#f99898" stroke-linecap="round" stroke-linejoin="round" stroke-width="1"/><line x2="4.632" y2="0.446" transform="translate(310.279 487.724)" fill="none" stroke="#f99898" stroke-linecap="round" stroke-linejoin="round" stroke-width="1"/><line y1="0.048" x2="4.025" transform="translate(309.707 492.297)" fill="none" stroke="#f99898" stroke-linecap="round" stroke-linejoin="round" stroke-width="1"/><line x1="3.452" y1="2.598" transform="translate(306.459 487.725)" fill="none" stroke="#f99898" stroke-linecap="round" stroke-linejoin="round" stroke-width="1"/><line x1="3.581" y1="2.741" transform="translate(307.299 481.921)" fill="none" stroke="#f99898" stroke-linecap="round" stroke-linejoin="round" stroke-width="1"/><line x1="3.225" y1="2.82" transform="translate(309.098 476.791)" fill="none" stroke="#f99898" stroke-linecap="round" stroke-linejoin="round" stroke-width="1"/><line x1="2.969" y1="3.664" transform="translate(311.566 471.057)" fill="none" stroke="#f99898" stroke-linecap="round" stroke-linejoin="round" stroke-width="1"/><line x1="1.097" y1="4.812" transform="translate(327.301 455.404)" fill="none" stroke="#f99898" stroke-linecap="round" stroke-linejoin="round" stroke-width="1"/><line x1="1.557" y1="5.857" transform="translate(322.258 457.742)" fill="none" stroke="#f99898" stroke-linecap="round" stroke-linejoin="round" stroke-width="1"/><line x1="2.528" y1="5.411" transform="translate(317.792 461.426)" fill="none" stroke="#f99898" stroke-linecap="round" stroke-linejoin="round" stroke-width="1"/><line x1="2.775" y1="4.915" transform="translate(314.257 465.786)" fill="none" stroke="#f99898" stroke-linecap="round" stroke-linejoin="round" stroke-width="1"/><line x1="0.371" y1="2.92" transform="translate(333.445 454.346)" fill="none" stroke="#f99898" stroke-linecap="round" stroke-linejoin="round" stroke-width="1"/><path d="M304.07,510.267c-5.2-.358-12.641-1.9-18.328-7.406-3.474-3.362-1.362-3.43-9.91-18.793-1.527-2.743-2.639-4.62-1.859-6.125,1.919-3.7,13.146-1.074,13.664-.949,4.511,1.089,12.205,2.946,16.656,10.2C310.742,497.714,304.358,509.745,304.07,510.267Z" fill="#ffc7c6"/><path d="M279.467,478.777a41.727,41.727,0,0,1,22.97,29.422" fill="none" stroke="#fff" stroke-linecap="round" stroke-miterlimit="10" stroke-width="1"/><path d="M280.94,486.245l7.727-1.485" fill="none" stroke="#fff" stroke-linecap="round" stroke-miterlimit="10" stroke-width="1"/><path d="M290.871,481.327l-.443,5.027" fill="none" stroke="#fff" stroke-linecap="round" stroke-miterlimit="10" stroke-width="1"/><path d="M297.335,484.138q-1.011,3.909-2.02,7.819" fill="none" stroke="#fff" stroke-linecap="round" stroke-miterlimit="10" stroke-width="1"/><line y1="1.506" x2="9.431" transform="translate(283.601 489.353)" fill="none" stroke="#fff" stroke-linecap="round" stroke-miterlimit="10" stroke-width="1"/><path d="M302.112,489.52q-1.638,4.118-3.278,8.233" fill="none" stroke="#fff" stroke-linecap="round" stroke-miterlimit="10" stroke-width="1"/><line y1="2.057" x2="11.114" transform="translate(286.082 495.08)" fill="none" stroke="#fff" stroke-linecap="round" stroke-miterlimit="10" stroke-width="1"/><path d="M289.57,503.118l10.933-1.572" fill="none" stroke="#fff" stroke-linecap="round" stroke-miterlimit="10" stroke-width="1"/><path d="M305.663,494.354l-4.44,9.23" fill="none" stroke="#fff" stroke-linecap="round" stroke-miterlimit="10" stroke-width="1"/><path d="M436.493,561.7c-15.329,11.365-33.08-4.14-57.421,6.952-22.625,10.31-18.84,28.973-38.923,34.851-20.063,5.872-47.726-5.764-56-22.182-5.756-11.417,2.192-16.559-1.9-35.4-4.94-22.754-18.971-26.51-16.492-36.3C271.049,488.71,339.9,486.6,374.895,488.36c33.1,1.662,52.538,2.918,64.335,17.193C452.986,522.2,451.445,550.614,436.493,561.7Z" fill="#bce3f6"/><path d="M291.739,598.842c2.522-25.437,8.832-88.615,10.21-97.85,1.732-11.606,15.954-9.044,15.954-9.044l3.045,117.45h-19.83a9.346,9.346,0,0,1-6.992-3.163A9.694,9.694,0,0,1,291.739,598.842Z" fill="#dba92a"/><path d="M452.17,612.358a11.214,11.214,0,0,0,10.975-11.45l-2.023-95.349a9.88,9.88,0,0,0-9.585-9.667l-138.388-4.105a7.284,7.284,0,0,0-7.5,7.3l.332,109.325a6.915,6.915,0,0,0,7.062,6.894Z" fill="#fdc331"/><path d="M461.089,604.354a3.257,3.257,0,0,0,3.17-3.763c-2.042-12.983-8.453-57.642-6.4-94.722a3.013,3.013,0,0,0-2.909-3.183l-139.012-4.435a3.468,3.468,0,0,0-3.576,3.334c-.591,15.589-2.793,79.785.088,102.606a2.747,2.747,0,0,0,2.77,2.4Z" fill="#ccd3e6"/><path d="M457.577,602.894a3.135,3.135,0,0,0,3.051-3.621c-1.965-12.494-8.135-55.472-6.156-91.156a2.9,2.9,0,0,0-2.8-3.063l-133.778-4.267a3.334,3.334,0,0,0-3.44,3.207c-.569,15-2.688,76.782.084,98.743a2.643,2.643,0,0,0,2.665,2.309Z" fill="#e73555"/><path d="M375.354,527.725l.2,9.634a2.634,2.634,0,0,1-2.619,2.69l-9.882.056a2.635,2.635,0,0,1-2.649-2.578l-.215-10.129a2.635,2.635,0,0,1,2.751-2.688l9.892.439A2.633,2.633,0,0,1,375.354,527.725Z" fill="#def1f8"/><path d="M409.9,539.968l-9.882.056a2.635,2.635,0,0,1-2.649-2.578l-.183-8.615a2.635,2.635,0,0,1,2.729-2.689l9.89.356a2.634,2.634,0,0,1,2.54,2.576l.174,8.2A2.634,2.634,0,0,1,409.9,539.968Z" fill="#def1f8"/><path d="M401.246,582.884l9.4-.092a2.876,2.876,0,0,1,2.9,2.814l.187,8.8a2.875,2.875,0,0,1-2.753,2.933l-9.394.4a2.875,2.875,0,0,1-3-2.811l-.193-9.11A2.874,2.874,0,0,1,401.246,582.884Z" fill="#def1f8"/><path d="M417.061,594.2l-.182-8.607a2.824,2.824,0,0,1,2.8-2.885l9.5-.092a2.825,2.825,0,0,1,2.852,2.765l.176,8.3a2.826,2.826,0,0,1-2.705,2.883l-9.492.4A2.826,2.826,0,0,1,417.061,594.2Z" fill="#def1f8"/><path d="M416.237,555.339l-.15-7.065a3.041,3.041,0,0,1,3.046-3.1l9.07.016a3.041,3.041,0,0,1,3.035,2.976l.143,6.753a3.04,3.04,0,0,1-2.94,3.1l-9.064.3A3.042,3.042,0,0,1,416.237,555.339Z" fill="#fdc331"/><path d="M416.673,575.872l-.23-10.807a2.827,2.827,0,0,1,2.733-2.884l9.277-.3a3.039,3.039,0,0,1,3.139,2.974l.231,10.9A2.826,2.826,0,0,1,429,578.637h-9.5A2.826,2.826,0,0,1,416.673,575.872Z" fill="#def1f8"/><path d="M391.424,540.073l-9.883.055a2.633,2.633,0,0,1-2.648-2.578l-.2-9.384a2.634,2.634,0,0,1,2.728-2.688l9.891.355a2.635,2.635,0,0,1,2.539,2.577l.19,8.973A2.634,2.634,0,0,1,391.424,540.073Z" fill="#def1f8"/><path d="M398.188,575.826l-.214-10.108a2.875,2.875,0,0,1,2.78-2.934l9.4-.307a2.875,2.875,0,0,1,2.968,2.812l.221,10.414a2.876,2.876,0,0,1-2.874,2.936h-9.4A2.875,2.875,0,0,1,398.188,575.826Z" fill="#def1f8"/><path d="M381.284,545.1l10.792.02a2.18,2.18,0,0,1,2.176,2.134l.206,9.719a2.18,2.18,0,0,1-2.109,2.225l-10.783.353a2.181,2.181,0,0,1-2.252-2.133l-.214-10.091A2.181,2.181,0,0,1,381.284,545.1Z" fill="#fdc331"/><path d="M375.779,547.768l.2,9.256a2.74,2.74,0,0,1-2.65,2.8l-9.665.316a2.739,2.739,0,0,1-2.829-2.68l-.2-9.59a2.741,2.741,0,0,1,2.745-2.8l9.672.018A2.739,2.739,0,0,1,375.779,547.768Z" fill="#def1f8"/><path d="M410.82,558.594l-10.784.353a2.18,2.18,0,0,1-2.251-2.133l-.2-9.454a2.18,2.18,0,0,1,2.184-2.226l10.792.019a2.18,2.18,0,0,1,2.176,2.134l.193,9.081A2.181,2.181,0,0,1,410.82,558.594Z" fill="#fdc331"/><path d="M382.283,563.389l9.4-.308a2.875,2.875,0,0,1,2.968,2.812l.208,9.812a2.875,2.875,0,0,1-2.873,2.936h-9.4a2.874,2.874,0,0,1-2.874-2.814l-.2-9.505A2.874,2.874,0,0,1,382.283,563.389Z" fill="#def1f8"/><path d="M363.488,564l10.053-.329a2.545,2.545,0,0,1,2.629,2.49l.209,9.878a2.547,2.547,0,0,1-2.545,2.6h-10.06a2.547,2.547,0,0,1-2.546-2.492l-.2-9.55A2.545,2.545,0,0,1,363.488,564Z" fill="#def1f8"/><path d="M427,539.744l-7.5.042a3.653,3.653,0,0,1-3.673-3.575l-.131-6.188a3.254,3.254,0,0,1,3.37-3.321l8.347.3a3.575,3.575,0,0,1,3.446,3.5l.11,5.168A3.993,3.993,0,0,1,427,539.744Z" fill="#def1f8"/><path d="M435.363,585.628a3.04,3.04,0,0,1,3.011-3.1l3.267-.032c2.483-.024,4.514,1.617,4.557,3.684l.127,5.982c.044,2.05-1.884,3.768-4.345,3.872l-3.507.149a2.826,2.826,0,0,1-2.945-2.763Z" fill="#def1f8"/><path d="M330.3,583.572l6.426-.063a2.877,2.877,0,0,1,2.9,2.816l.238,11.209a2.877,2.877,0,0,1-2.755,2.935l-6.4.271c-2.551.108-4.69-1.555-4.735-3.68l-.2-9.611C325.733,585.341,327.768,583.6,330.3,583.572Z" fill="#def1f8"/><path d="M441.381,578.635h-3.189a3.041,3.041,0,0,1-3.04-2.977l-.233-10.986a3.039,3.039,0,0,1,2.94-3.1l3.21-.1c2.531-.083,4.639,1.573,4.683,3.681l.2,9.612C446,576.883,443.934,578.635,441.381,578.635Z" fill="#def1f8"/><path d="M441.113,557.6l-4.015.132a2.3,2.3,0,0,1-2.374-2.25l-.169-7.935a2.3,2.3,0,0,1,2.3-2.348l4.055.007c2.459,0,4.451,1.638,4.494,3.685l.1,4.835C445.554,555.795,443.6,557.521,441.113,557.6Z" fill="#def1f8"/><path d="M329.274,523.477l6.444.232a2.74,2.74,0,0,1,2.641,2.68l.235,11.071a2.741,2.741,0,0,1-2.724,2.8l-6.635.037c-2.475.014-4.492-1.624-4.536-3.684l-.2-9.261C324.456,525.162,326.647,523.383,329.274,523.477Z" fill="#def1f8"/><path d="M382.767,583.063l9.4-.091a2.874,2.874,0,0,1,2.9,2.813l.2,9.406a2.875,2.875,0,0,1-2.753,2.933l-9.394.4a2.874,2.874,0,0,1-2.995-2.811L379.921,586A2.874,2.874,0,0,1,382.767,583.063Z" fill="#def1f8"/><path d="M329.545,545.007l6.531.012a2.74,2.74,0,0,1,2.735,2.682l.223,10.532a2.74,2.74,0,0,1-2.65,2.8l-6.557.215c-2.531.083-4.638-1.574-4.683-3.682l-.184-8.679C324.914,546.756,326.988,545,329.545,545.007Z" fill="#def1f8"/><path d="M329.783,565.107l6.817-.223a2.545,2.545,0,0,1,2.628,2.49l.184,8.673a2.545,2.545,0,0,1-2.544,2.6h-6.85c-2.463,0-4.462-1.634-4.505-3.684l-.127-5.982C325.342,566.914,327.3,565.188,329.783,565.107Z" fill="#def1f8"/><path d="M357.7,566.77l.2,9.275a2.546,2.546,0,0,1-2.545,2.6H345.29a2.545,2.545,0,0,1-2.545-2.492l-.19-8.947a2.546,2.546,0,0,1,2.462-2.6l10.054-.329A2.547,2.547,0,0,1,357.7,566.77Z" fill="#def1f8"/><path d="M345.81,583.421l9.4-.091a2.876,2.876,0,0,1,2.9,2.816l.225,10.606a2.878,2.878,0,0,1-2.755,2.936l-9.389.4a2.877,2.877,0,0,1-3-2.814l-.232-10.912A2.878,2.878,0,0,1,345.81,583.421Z" fill="#def1f8"/><path d="M440.585,539.667l-3.932.022a2.3,2.3,0,0,1-2.312-2.25l-.165-7.762a2.3,2.3,0,0,1,2.382-2.346l4.164.149c2.384.086,4.267,1.694,4.309,3.681l.1,4.629C445.174,537.905,443.126,539.653,440.585,539.667Z" fill="#def1f8"/><path d="M364.29,583.242l9.237-.09a3.037,3.037,0,0,1,3.066,2.973l.209,9.845a2.878,2.878,0,0,1-2.755,2.936l-9.389.4a2.877,2.877,0,0,1-3-2.813l-.219-10.31A2.878,2.878,0,0,1,364.29,583.242Z" fill="#def1f8"/><path d="M356.857,527.054l.218,10.3a2.739,2.739,0,0,1-2.724,2.8l-9.67.055a2.74,2.74,0,0,1-2.755-2.682l-.227-10.7a2.739,2.739,0,0,1,2.838-2.8l9.678.347A2.741,2.741,0,0,1,356.857,527.054Z" fill="#def1f8"/><path d="M357.3,547.734l.21,9.9a2.742,2.742,0,0,1-2.65,2.8l-9.665.316a2.741,2.741,0,0,1-2.829-2.681l-.217-10.228a2.74,2.74,0,0,1,2.745-2.8l9.671.017A2.74,2.74,0,0,1,357.3,547.734Z" fill="#def1f8"/><path d="M441.657,519.134l-.445,3.263a2.143,2.143,0,0,1-2.078,1.852l-.154,0a2.143,2.143,0,0,1-2.188-2.1l-.071-3.34a2.144,2.144,0,0,1,2.377-2.176l.67.074A2.143,2.143,0,0,1,441.657,519.134Z" fill="#def1f8"/><path d="M426.514,518.294l-.445,3.263a2.145,2.145,0,0,1-2.078,1.853l-.154,0a2.143,2.143,0,0,1-2.188-2.1l-.071-3.34a2.143,2.143,0,0,1,2.377-2.175l.67.073A2.143,2.143,0,0,1,426.514,518.294Z" fill="#def1f8"/><path d="M407.882,518.551l-.445,3.262a2.142,2.142,0,0,1-2.078,1.853l-.154,0a2.143,2.143,0,0,1-2.188-2.1l-.071-3.339a2.143,2.143,0,0,1,2.377-2.176l.67.074A2.142,2.142,0,0,1,407.882,518.551Z" fill="#def1f8"/><path d="M389.73,517.738,389.285,521a2.143,2.143,0,0,1-2.078,1.853l-.155,0a2.142,2.142,0,0,1-2.188-2.1l-.07-3.339a2.142,2.142,0,0,1,2.377-2.176l.67.074A2.143,2.143,0,0,1,389.73,517.738Z" fill="#def1f8"/><path d="M371.085,515.367l-.445,3.262a2.143,2.143,0,0,1-2.078,1.853l-.154,0a2.143,2.143,0,0,1-2.188-2.1l-.071-3.339a2.144,2.144,0,0,1,2.377-2.176l.67.074A2.143,2.143,0,0,1,371.085,515.367Z" fill="#def1f8"/><path d="M351.334,515.786l-.445,3.262a2.143,2.143,0,0,1-2.078,1.853l-.154,0a2.141,2.141,0,0,1-2.188-2.1l-.071-3.339a2.143,2.143,0,0,1,2.377-2.176l.67.074A2.143,2.143,0,0,1,351.334,515.786Z" fill="#def1f8"/><path d="M334.663,515.437l-.446,3.262a2.142,2.142,0,0,1-2.078,1.853l-.154,0a2.143,2.143,0,0,1-2.188-2.1l-.071-3.339a2.143,2.143,0,0,1,2.377-2.176l.671.074A2.143,2.143,0,0,1,334.663,515.437Z" fill="#def1f8"/><circle cx="3.751" cy="3.751" r="3.751" transform="translate(434.176 506.342)" fill="#dba92a"/><circle cx="3.751" cy="3.751" r="3.751" transform="translate(403.444 506.053)" fill="#dba92a"/><circle cx="3.751" cy="3.751" r="3.751" transform="translate(372.424 505.043)" fill="#dba92a"/><circle cx="3.751" cy="3.751" r="3.751" transform="matrix(0.98, -0.201, 0.201, 0.98, 341.015, 504.431)" fill="#dba92a"/><path d="M342.59,481.361c6.312,1.377,5.717,17.983,5.209,24.724a3.038,3.038,0,0,1-3.032,2.81,1.558,1.558,0,0,1-1.547-1.726c.546-5.1,1.706-19.769-2.941-20.554,0,0-3.333-.59-3.894,5.867h-3.606S334.655,479.63,342.59,481.361Z" fill="#e73555"/><path d="M373.322,482.215c6.312,1.377,5.716,17.988,5.208,24.73a3.04,3.04,0,0,1-3.031,2.813,1.557,1.557,0,0,1-1.547-1.724c.545-5.1,1.705-19.781-2.941-20.565,0,0-3.333-.461-3.894,5.855h-3.606S365.387,480.483,373.322,482.215Z" fill="#e73555"/><path d="M404.054,483.073c6.311,1.377,5.716,17.992,5.208,24.734a3.043,3.043,0,0,1-3.032,2.815,1.555,1.555,0,0,1-1.546-1.723c.545-5.1,1.705-19.788-2.942-20.573,0,0-3.331-.375-3.892,5.973l-3.607-.125S396.118,481.341,404.054,483.073Z" fill="#e73555"/><path d="M434.785,484.065c6.312,1.377,5.717,18,5.209,24.743a3.047,3.047,0,0,1-3.032,2.819,1.552,1.552,0,0,1-1.547-1.719c.546-5.1,1.706-19.8-2.941-20.59,0,0-3.333-.486-3.894,5.83h-3.606S426.85,482.334,434.785,484.065Z" fill="#e73555"/><path d="M419.274,558.7a3.426,3.426,0,0,1-3.423-3.354l-.15-7.066a3.427,3.427,0,0,1,3.426-3.5h.006l9.071.016a3.448,3.448,0,0,1,3.42,3.355l.144,6.752a3.441,3.441,0,0,1-3.315,3.5l-9.064.3Zm-.147-13.147a2.654,2.654,0,0,0-2.653,2.711l.15,7.065a2.654,2.654,0,0,0,2.74,2.6l9.064-.3a2.665,2.665,0,0,0,2.567-2.709l-.144-6.752a2.669,2.669,0,0,0-2.648-2.6l-9.071-.017Z" fill="#e73555"/><path d="M381.491,559.939a2.566,2.566,0,0,1-2.563-2.512l-.214-10.092a2.565,2.565,0,0,1,2.566-2.621h.005l10.792.019a2.582,2.582,0,0,1,2.561,2.513l.207,9.719a2.577,2.577,0,0,1-2.483,2.62l-10.784.353Zm-.211-14.452a1.795,1.795,0,0,0-1.793,1.832l.214,10.091a1.795,1.795,0,0,0,1.852,1.755l10.784-.353a1.8,1.8,0,0,0,1.735-1.831l-.207-9.719a1.8,1.8,0,0,0-1.79-1.755l-10.792-.02Z" fill="#e73555"/><path d="M399.962,559.335a2.566,2.566,0,0,1-2.563-2.513l-.2-9.453a2.568,2.568,0,0,1,2.566-2.622h.005l10.792.019a2.582,2.582,0,0,1,2.561,2.513l.193,9.081a2.575,2.575,0,0,1-2.482,2.62l-10.784.353Zm-.2-13.815a1.795,1.795,0,0,0-1.793,1.832l.2,9.454a1.781,1.781,0,0,0,.559,1.264,1.8,1.8,0,0,0,1.292.49l10.785-.352a1.8,1.8,0,0,0,1.734-1.831l-.193-9.081a1.8,1.8,0,0,0-1.79-1.756l-10.792-.02Z" fill="#e73555"/><path d="M371.729,450.29c4.787-7.942,14.558-12.735,23.489-10.411,12.468,3.246,19.483,19.366,13.881,30.7-6.1,12.339-25.422,15.487-34.968,6.14C367.506,470.229,366.632,458.744,371.729,450.29Z" fill="#fdc331"/><path d="M380.474,471.584a.78.78,0,0,1-.242-.574v-3.142a1.879,1.879,0,0,1,.755-1.632l.333-.241,1.148-.817q3.384-2.447,5-3.7a19.377,19.377,0,0,0,2.523-2.265,2.892,2.892,0,0,0,.907-1.8,1.7,1.7,0,0,0-.2-.892q-.2-.318-.891-.317a1.445,1.445,0,0,0-.906.257,1.358,1.358,0,0,0-.438.5c-.071.161-.177.422-.318.785a.962.962,0,0,1-.453.544,1.692,1.692,0,0,1-.755.151h-5.681a.673.673,0,0,1-.665-.665,6.823,6.823,0,0,1,1.239-3.943,7.924,7.924,0,0,1,3.279-2.644,11.2,11.2,0,0,1,4.668-.936,10.883,10.883,0,0,1,6.6,1.8,5.839,5.839,0,0,1,2.432,4.97,6.43,6.43,0,0,1-1.617,4.245,24.972,24.972,0,0,1-4.909,4.186l-.212.15h6.375a.825.825,0,0,1,.816.817v4.592a.825.825,0,0,1-.816.816h-17.4A.78.78,0,0,1,380.474,471.584Z" fill="#e73555"/></g></svg>