<svg xmlns="http://www.w3.org/2000/svg" xmlns:xlink="http://www.w3.org/1999/xlink" width="452.738" height="111.333" viewBox="0 0 452.738 111.333"><defs><clipPath id="a"><path d="M206.02,702.75c-22.35,5.342-60.993,24.8-59.8,55.726,1.039,27.008,31.8,45.677,55.726,49.95,5.187.927,32.937,5.881,50.969-11.553,25.487-24.643,15.839-78.826-11.553-93.1C228.908,697.28,215.552,700.472,206.02,702.75Z" transform="translate(-146.189 -699.924)" fill="none"/></clipPath></defs><g transform="translate(-2186.492 -2012.334)"><rect width="295.5" height="80.614" rx="40.307" transform="translate(2295.5 2027.693)" fill="#ece768"/><text transform="translate(2376 2043)" fill="rgba(0,0,0,0.87)" font-size="22" font-family="Rubik-Bold, Rubik" font-weight="700"><tspan x="0" y="21">Ayudanos a </tspan><tspan x="0" y="43">seguir creciendo</tspan></text><g transform="translate(1340.064 1779.489)"><path d="M847.139,257.084c.935,3.08,2.909,3.658,5.613,5.333,3.333,2.065,6.619,4.223,9.88,6.4,6.5,4.347,12.694,9.034,19.625,12.7,1.238.654,3.122-.791,2.117-2.116-4.691-6.185-10.52-10.924-16.905-15.274-3.5-2.383-7.082-4.585-10.784-6.64-2.847-1.58-5.062-3.445-8.343-2.518a1.746,1.746,0,0,0-1.2,2.119Z" fill="#e73555"/><g transform="translate(7.827 3)"><path d="M841.231,292.344c11.021.781,23.168.577,33.941-1.939,2.165-.505,2.259-4.029,0-4.475-11.1-2.188-23.617-1.268-34.651,1.165-3.089.681-2.157,5.045.71,5.249Z" fill="#e73555"/></g><path d="M849.011,322.069A74.57,74.57,0,0,0,877.634,304.2a1.842,1.842,0,0,0-1.778-3.055,117.374,117.374,0,0,0-30.1,13.218c-3.891,2.447-1.456,9.3,3.251,7.711Z" transform="translate(6.51)" fill="#e73555"/></g><g transform="translate(2601 2034.206)"><g transform="translate(0 0)"><path d="M884.592,257.084c-.935,3.08-2.909,3.658-5.613,5.333-3.333,2.065-6.619,4.223-9.88,6.4-6.5,4.347-12.694,9.034-19.625,12.7-1.238.654-3.122-.791-2.117-2.116,4.691-6.185,10.52-10.924,16.905-15.274,3.5-2.383,7.082-4.585,10.784-6.64,2.847-1.58,5.062-3.445,8.343-2.518a1.746,1.746,0,0,1,1.2,2.119Z" transform="translate(-847.072 -254.718)" fill="#e73555"/></g><g transform="translate(0 32.976)"><path d="M874.2,292.344c-11.021.781-23.168.577-33.941-1.939-2.165-.505-2.259-4.029,0-4.475,11.1-2.188,23.617-1.268,34.651,1.165,3.089.681,2.157,5.045-.71,5.249Z" transform="translate(-838.601 -284.694)" fill="#e73555"/></g><g transform="translate(0 46.352)"><path d="M872.963,322.069A74.57,74.57,0,0,1,844.34,304.2a1.842,1.842,0,0,1,1.778-3.055,117.374,117.374,0,0,1,30.1,13.218c3.891,2.447,1.456,9.3-3.251,7.711Z" transform="translate(-843.825 -301.069)" fill="#e73555"/></g></g><g transform="translate(2088.533 1312.41)"><path d="M206.02,702.75c-22.35,5.342-60.993,24.8-59.8,55.726,1.039,27.008,31.8,45.677,55.726,49.95,5.187.927,32.937,5.881,50.969-11.553,25.487-24.643,15.839-78.826-11.553-93.1C228.908,697.28,215.552,700.472,206.02,702.75Z" fill="#292669"/><path d="M262.352,773.309c0,24.508-40.192,54.553-71.357,43.154-29.7-10.863-37.482-54.347-32.62-57.425,3.744-2.37,13.1,20.4,32.59,22.244,26.162,2.478,42.422-35.418,59.495-29.38C258.451,754.729,262.352,765.672,262.352,773.309Z" transform="translate(-1.626 -7.697)" fill="#ffc7c6"/><g transform="translate(146.189 699.924)"><g clip-path="url(#a)"><g transform="translate(31.623 -6.196)"><g transform="translate(32.295 16.76)"><path d="M221.384,713.3s14.279,25,16.262,19.951C240.059,727.111,222.2,707.884,221.384,713.3Z" transform="translate(-221.384 -712.352)" fill="#2ca5c6"/></g><g transform="translate(32.804)"><path d="M237.947,729.34a9.381,9.381,0,0,0-1.359-5,49.986,49.986,0,0,0-8.526-10.877,16.818,16.818,0,0,0-6.079-3.948l.027-.029c.254-.266,14.371-14.245,17.207-16.832,13.99-.533,16.412,11.34,25.941,12.279a20.844,20.844,0,0,1,14.311,7.574c-11.482,9.021-42.137,18.465-42.137,18.465a3.138,3.138,0,0,0,.2-.308,3.35,3.35,0,0,0,.411-1.3Z" transform="translate(-221.983 -692.636)" fill="#40bedb"/></g><g transform="translate(0 18.271)"><g transform="translate(4.185 7.735)"><path d="M199.966,723.23s-10.738.179-11.436,1.2c-1.346,1.959,4.064,1.959,4.064,1.959Z" transform="translate(-188.315 -723.23)" fill="#ee9681"/></g><g transform="translate(9.737)"><path d="M217.914,714.18c-3.336,1.758-5.77,2.795-8.068,3.967-5.667,2.893-15.522,10.277-14.978,15.857s7.525,11.838,9.583,10.244-2.227-9.386-1.423-11.18,11.154-1.771,11.49-.376-7.051,7.19-4.628,9.789c0,0,1.362,1.46,5.413-1.86,2.195-1.8,6.63-3.386,10.116-7.2a32.049,32.049,0,0,0,4.025-4.84C230.492,726.478,219.741,713.217,217.914,714.18Z" transform="translate(-194.847 -714.13)" fill="#f8c6a3"/></g><g transform="translate(3.054 5.059)"><path d="M206.779,720.082s-12.261,3.711-15.748,8.182-5.192,8.11-3.2,9.406,9.66-6.077,9.66-6.077Z" transform="translate(-186.984 -720.082)" fill="#f8c6a3"/></g><g transform="translate(0 2.227)"><path d="M211.944,716.75c-4.558,1.41-28.245,11.353-28.528,13.024-.547,3.237,8.386.124,8.386.124Z" transform="translate(-183.392 -716.75)" fill="#f8c6a3"/></g><g transform="translate(8.302 18.497)"><path d="M203.214,746.437s-4.322-4.056-8.55-.512,1.235,9.162,6.621,10.716,6.888,2.368,7.8,1.829,11.024-15.976,4.216-21.214C208.42,733.5,202.92,737.795,203.214,746.437Z" transform="translate(-193.158 -735.89)" fill="#e73555"/></g><g transform="translate(23.819 16.868)"><path d="M217,735.668s-6.089,6.7-5.558,9.424,5.879-1.142,12.006-5.187S219.7,731.491,217,735.668Z" transform="translate(-211.412 -733.974)" fill="#f8c6a3"/></g><g transform="translate(9.412 12.351)"><path d="M194.811,736.349a.166.166,0,0,1-.16-.122,6.024,6.024,0,0,1,4.821-7.561.166.166,0,1,1,.086.32,5.695,5.695,0,0,0-4.588,7.151.165.165,0,0,1-.16.211Z" transform="translate(-194.464 -728.66)" fill="#ee9681"/></g><g transform="translate(4.72 9.827)"><path d="M189.111,732.387a.17.17,0,0,1-.087-.025.166.166,0,0,1-.054-.229c.092-.15,2.271-3.668,4.062-4.608a32,32,0,0,1,5.036-1.828.166.166,0,0,1,.088.32,32.336,32.336,0,0,0-4.97,1.8c-1.71.9-3.912,4.452-3.933,4.488A.166.166,0,0,1,189.111,732.387Z" transform="translate(-188.945 -725.691)" fill="#ee9681"/></g></g><g transform="translate(4.548 44.795)"><path d="M196.205,753.381l-2.157-3.574a1.18,1.18,0,0,0-1.431-.492l-3.874,1.481,3.992-2.344a.742.742,0,0,0,.327-.881l-.762-2.238,1.409,1.851a1.086,1.086,0,0,0,1.116.4l2.112-.508-1.9,1.132a.773.773,0,0,0-.333.921Z" transform="translate(-188.742 -745.333)" fill="#fff"/></g></g><g transform="translate(26.289 48.19)"><g transform="translate(1.197 1.12)" opacity="0.8"><path d="M225.42,764.2l0,0a1.254,1.254,0,0,1-.371-.887v-3.235a2.138,2.138,0,0,0-2.18-2.138l-32.545.649a2.271,2.271,0,0,0-2.21,2s.475,2.559-.129,3.088c-5.179,4.536-9.456,11.772-9.456,19.2,0,10.061,5.365,17.268,12.116,22.155a78.642,78.642,0,0,0,14.775,1.254,88.814,88.814,0,0,0,16.741-1.254c6.752-4.887,12.349-10.14,12.349-21.032C234.5,776.564,230.288,769.067,225.42,764.2Z" transform="translate(-178.524 -757.934)" fill="#acc9c5"/></g><g opacity="0.6"><path d="M226.347,763.25l0,0a1.334,1.334,0,0,1-.39-.94V758.88a2.253,2.253,0,0,0-2.289-2.264L189.5,757.3a2.392,2.392,0,0,0-2.32,2.117s.5,2.71-.136,3.271c-5.438,4.8-9.927,12.467-9.927,20.333a27.236,27.236,0,0,0,8.416,19.8,15.412,15.412,0,0,0,9.136,4.389,98.269,98.269,0,0,0,10.677.6,114.358,114.358,0,0,0,12.734-.626,16.214,16.214,0,0,0,8.806-3.808c5.187-4.46,9-9.877,9-19.167C235.884,776.345,231.458,768.405,226.347,763.25Z" transform="translate(-177.116 -756.615)" fill="#bce3f6"/></g><g transform="translate(15.755 45.618)"><ellipse cx="13.316" cy="1.487" rx="13.316" ry="1.487" fill="#8bb2ac"/></g><g transform="translate(10.933 3.669)"><path d="M198.059,762.669c-2.863,0-5.616-.072-8.081-.248l.014-.2c13.747.983,36.531-1.268,36.76-1.29l.02.2C226.585,761.149,211.184,762.669,198.059,762.669Z" transform="translate(-189.978 -760.932)" fill="#8bb2ac"/></g><g transform="translate(10.941 5.628)"><path d="M206.312,764.208c-6.454,0-12.817-.181-16.325-.775l.034-.2c8.913,1.51,36.36.343,36.637.331l.009.2C226.5,763.774,216.3,764.208,206.312,764.208Z" transform="translate(-189.987 -763.236)" fill="#8bb2ac"/></g><g transform="translate(10.782 2.508)"><path d="M189.8,760.925v-.2c.32,0,32.1-.048,36.811-1.16l.046.194C221.92,760.878,190.121,760.925,189.8,760.925Z" transform="translate(-189.8 -759.566)" fill="#8bb2ac"/></g><g transform="translate(5.312 27.691)" opacity="0.7"><path d="M191.71,797.462s-3.31-3.544-6.951-.878.515,7.544,4.827,9.1,5.495,2.3,6.272,1.913,9.857-12.445,4.583-17.087C196.655,787.182,191.934,790.392,191.71,797.462Z" transform="translate(-183.365 -789.192)" fill="#ec6469"/><g transform="translate(12.403 1.565)"><path d="M201.605,793.026a.181.181,0,0,1-.17-.12,2.11,2.11,0,0,0-1.889-1.5,3.775,3.775,0,0,0-1.357.116.18.18,0,0,1-.107-.343c.028-.008,2.832-.848,3.693,1.608a.179.179,0,0,1-.111.229A.163.163,0,0,1,201.605,793.026Z" transform="translate(-197.956 -791.033)" fill="#daebe8"/></g></g><g transform="translate(26.009 26.78)"><path d="M218.278,795.732s.754-6.085-4.784-7.457-6.9,6.616-4.92,12.065,2.219,7.2,3.228,7.637,20.069-.524,20.3-9.406C232.264,792.2,225.32,790.219,218.278,795.732Z" transform="translate(-207.713 -788.12)" fill="#e73555"/><g transform="translate(19.972 6.319)"><path d="M232.8,800.588a.223.223,0,0,1-.116-.032.228.228,0,0,1-.079-.312,2.668,2.668,0,0,0-.076-3.048,4.76,4.76,0,0,0-1.212-1.223.228.228,0,0,1,.247-.383,5.167,5.167,0,0,1,1.345,1.353,3.132,3.132,0,0,1,.088,3.534A.227.227,0,0,1,232.8,800.588Z" transform="translate(-231.208 -795.553)" fill="#daebe8"/></g></g><g transform="translate(15.755 34.908)"><path d="M199.6,804.575s-3.041-.5-3.846,2.248,3.18,3.605,5.958,2.722,3.663-.965,3.9-1.462.154-10.093-4.3-10.392C198.115,797.476,196.978,800.923,199.6,804.575Z" transform="translate(-195.65 -797.682)" fill="#ec6469"/><g transform="translate(3.501 1.058)"><path d="M199.883,800.015a.115.115,0,0,1-.094-.181c.011-.015,1.1-1.524,2.485-.618a.114.114,0,1,1-.125.191,1.34,1.34,0,0,0-1.533-.025,2.379,2.379,0,0,0-.64.584A.115.115,0,0,1,199.883,800.015Z" transform="translate(-199.768 -798.926)" fill="#daebe8"/></g></g><g transform="translate(16.882 14.799)"><path d="M202.076,778.9s-1.916-2.231-4.19-.708.121,4.584,2.695,5.637,3.271,1.535,3.751,1.318,6.289-7.291,3.21-10.238C205.334,772.793,202.392,774.619,202.076,778.9Z" transform="translate(-196.976 -774.026)" fill="#e73555"/><g transform="translate(7.721 0.941)"><path d="M208.233,776.4a.11.11,0,0,1-.1-.077,1.279,1.279,0,0,0-1.1-.955,2.288,2.288,0,0,0-.831.035.109.109,0,1,1-.056-.211c.018-.005,1.738-.443,2.2,1.068a.109.109,0,0,1-.073.136A.1.1,0,0,1,208.233,776.4Z" transform="translate(-206.059 -775.132)" fill="#daebe8"/></g></g><g transform="translate(33.589 8.916)"><path d="M220.769,774s-3.046-.661-4,2.079,3.033,3.8,5.882,3.045,3.747-.792,4.015-1.284.656-10.185-3.83-10.708C219.621,766.757,218.3,770.182,220.769,774Z" transform="translate(-216.631 -767.105)" fill="#e73555"/><g transform="translate(3.925 1.058)"><path d="M221.364,769.376a.11.11,0,0,1-.071-.025.115.115,0,0,1-.02-.162c.012-.014,1.187-1.485,2.54-.5a.115.115,0,0,1,.026.161.116.116,0,0,1-.162.026,1.356,1.356,0,0,0-1.546-.1,2.408,2.408,0,0,0-.675.558A.117.117,0,0,1,221.364,769.376Z" transform="translate(-221.248 -768.349)" fill="#daebe8"/></g></g><g transform="translate(5.312 22.842)"><path d="M186.651,786.286a1.909,1.909,0,0,0-.247-2.488c-1.217-1.055-2.584.779-2.783,2.4s-.365,2.1-.167,2.334,5.115,2.44,6.31.235C190.622,787.189,189.129,785.8,186.651,786.286Z" transform="translate(-183.365 -783.487)" fill="#ec6469"/><g transform="translate(5.538 3.701)"><path d="M189.944,789.3a.064.064,0,0,1-.034-.118.754.754,0,0,0,.371-.777,1.332,1.332,0,0,0-.149-.462.064.064,0,0,1,.024-.088.063.063,0,0,1,.088.023c.005.009.521.918-.266,1.413A.06.06,0,0,1,189.944,789.3Z" transform="translate(-189.88 -787.841)" fill="#daebe8"/></g></g><g transform="translate(43.848 19.691)"><path d="M230.528,779.78l1.324,3.674a1.1,1.1,0,0,0,1.223.715l3.827-.649-4.093,1.418a.7.7,0,0,0-.462.75l.29,2.193-.955-1.957a1.014,1.014,0,0,0-.951-.569l-2.031.079,1.951-.691a.722.722,0,0,0,.474-.784Z" transform="translate(-228.7 -779.78)" fill="#def1f8"/></g><g transform="translate(15.265 14.8)"><path d="M200.5,774.026l-1.848,3.44a1.1,1.1,0,0,0,.286,1.388l3.04,2.412-3.79-2.1a.7.7,0,0,0-.866.156l-1.438,1.681.818-2.017a1.014,1.014,0,0,0-.213-1.088l-1.415-1.458,1.817.989a.722.722,0,0,0,.9-.171Z" transform="translate(-195.074 -774.026)" fill="#def1f8"/></g><g transform="translate(28.892 9.907)"><path d="M214.6,768.27l-1.189,2.214a.712.712,0,0,0,.184.893l1.955,1.552-2.438-1.349a.447.447,0,0,0-.557.1l-.925,1.081.525-1.3a.651.651,0,0,0-.136-.7l-.91-.938,1.169.637a.465.465,0,0,0,.579-.11Z" transform="translate(-211.105 -768.27)" fill="#def1f8"/></g><g transform="translate(9.735 8.916)"><path d="M192.059,767.1l-1.189,2.213a.711.711,0,0,0,.184.893l1.954,1.552-2.438-1.349a.448.448,0,0,0-.557.1l-.925,1.081.526-1.3a.653.653,0,0,0-.137-.7l-.91-.938,1.169.637a.464.464,0,0,0,.579-.11Z" transform="translate(-188.568 -767.105)" fill="#def1f8"/></g><g transform="translate(6.88 31.852)"><path d="M188.7,794.087l-1.189,2.213a.71.71,0,0,0,.184.892l1.955,1.552-2.438-1.348a.447.447,0,0,0-.557.1l-.925,1.081.525-1.3a.651.651,0,0,0-.136-.7l-.911-.938,1.17.637a.464.464,0,0,0,.579-.11Z" transform="translate(-185.21 -794.087)" fill="#def1f8"/></g><g transform="translate(12.445 45.452)"><path d="M210.032,815.964c-5.4,0-10.571-.322-12.342-.475a20.24,20.24,0,0,1-5.837-1.528.166.166,0,0,1,.139-.3,19.893,19.893,0,0,0,5.727,1.5c2.962.256,15.466.985,22.531-.116,6.9-1.076,9.946-4.854,9.976-4.892a.166.166,0,0,1,.261.206,11.3,11.3,0,0,1-2.439,2.1,19.146,19.146,0,0,1-7.746,2.915A71.712,71.712,0,0,1,210.032,815.964Z" transform="translate(-191.756 -810.087)" fill="#bce3f6"/></g><g transform="translate(3.261 39.55)"><path d="M187.3,811.042a.162.162,0,0,1-.1-.032c-3.225-2.339-6.2-7.566-6.233-7.619a.167.167,0,0,1,.29-.164c.029.053,2.972,5.217,6.138,7.514a.166.166,0,0,1-.1.3Z" transform="translate(-180.952 -803.143)" fill="#bce3f6"/></g></g></g></g><path d="M262.649,749.385a5.891,5.891,0,0,1,6.3-2.794,6.125,6.125,0,0,1,3.725,8.238c-1.637,3.31-6.822,4.155-9.384,1.647A5.908,5.908,0,0,1,262.649,749.385Z" transform="translate(-17.333 -6.975)" fill="#fdc331"/><path d="M244.882,725.966a2.946,2.946,0,0,1,3.152-1.4,3.062,3.062,0,0,1,1.862,4.118,3.121,3.121,0,0,1-4.692.824A2.955,2.955,0,0,1,244.882,725.966Z" transform="translate(-14.734 -3.684)" fill="#fdc331"/></g></g></svg>