<svg xmlns="http://www.w3.org/2000/svg" width="212.5" height="18.3" viewBox="0 0 212.5 18.3"><g transform="translate(-1.6 -1)"><path d="M1.7,18.9a.367.367,0,0,1-.1-.3V5.6a.6.6,0,0,1,.1-.4C1.8,5,1.9,5,2,5h8.7a.6.6,0,0,1,.4.1c.1.1.1.2.1.4V6.9c0,.1,0,.3-.1.3-.1.1-.2.1-.4.1H4.3v3.8h6a.6.6,0,0,1,.4.1c.1.1.1.2.1.4V13c0,.1,0,.3-.1.3-.1.1-.2.1-.4.1h-6v5a.6.6,0,0,1-.1.4.4.4,0,0,1-.4.2H2A.367.367,0,0,1,1.7,18.9Z" fill="#363638"/><path d="M15,17.8a5.378,5.378,0,0,1-1.5-4.2V5.5a.6.6,0,0,1,.1-.4.367.367,0,0,1,.3-.1h1.8c.1,0,.3,0,.3.1.1.1.1.2.1.4v8.1a3.293,3.293,0,0,0,.8,2.4,2.947,2.947,0,0,0,2.2.8,2.865,2.865,0,0,0,2.1-.8,3.293,3.293,0,0,0,.8-2.4V5.5a.6.6,0,0,1,.1-.4.9.9,0,0,1,.5-.1h1.8a.6.6,0,0,1,.4.1c.1.1.1.2.1.4v8.1a5.378,5.378,0,0,1-1.5,4.2,6.075,6.075,0,0,1-4.2,1.4A6.075,6.075,0,0,1,15,17.8Z" fill="#363638"/><path d="M28,18.9a.367.367,0,0,1-.1-.3V5.6a.6.6,0,0,1,.1-.4c.1-.2.2-.2.3-.2h1.5c.2,0,.3,0,.4.1s.2.1.2.2l5.8,9V5.5a.6.6,0,0,1,.1-.4c.1-.1.2-.1.4-.1h1.7a.6.6,0,0,1,.4.1c.1.1.1.2.1.4v13a.6.6,0,0,1-.1.4.756.756,0,0,1-.4.1H36.8a.864.864,0,0,1-.6-.3L30.5,9.9v8.6a.4.4,0,0,1-.5.5H28.3A.367.367,0,0,1,28,18.9Z" fill="#363638"/><path d="M42.1,18.9c-.1-.1-.1-.2-.1-.4V5.5a.6.6,0,0,1,.1-.4c.1-.1.2-.1.4-.1h4.9q5.85,0,6,5.4v3.1a5.938,5.938,0,0,1-1.5,4.1A6.374,6.374,0,0,1,47.4,19h-5A.367.367,0,0,1,42.1,18.9Zm5.2-2.2a2.921,2.921,0,0,0,2.4-.8,3.562,3.562,0,0,0,.8-2.5v-3A3.293,3.293,0,0,0,49.7,8a3.562,3.562,0,0,0-2.5-.8H44.7v9.4h2.6Z" fill="#363638"/><path d="M54.6,18.9a.367.367,0,0,1-.1-.3v-.2L59.3,5.5A.752.752,0,0,1,60,5h2.2a.752.752,0,0,1,.7.5l4.8,12.9v.2a.367.367,0,0,1-.1.3c-.1.1-.1.1-.2.1H65.7c-.2,0-.3,0-.4-.1s-.2-.2-.2-.3l-.9-2.4H58.3l-.9,2.4a.548.548,0,0,1-.6.4H55.1C54.8,19,54.7,19,54.6,18.9Zm8.8-5L61.1,7.7l-2.3,6.2Z" fill="#363638"/><path d="M70.5,17.8a5.649,5.649,0,0,1-1.6-4V10.2a5.836,5.836,0,0,1,1.6-4,5.634,5.634,0,0,1,4.2-1.4,7.455,7.455,0,0,1,3.1.6,4.25,4.25,0,0,1,2,1.7,4.9,4.9,0,0,1,.8,2.4h0a.354.354,0,0,1-.4.4H78.3c-.2,0-.3,0-.4-.1s-.1-.2-.2-.4a3.267,3.267,0,0,0-1.1-1.8,3.939,3.939,0,0,0-2-.5c-1.9,0-2.9,1.1-3,3.2v3.4c.1,2.1,1.1,3.2,3,3.2a3.939,3.939,0,0,0,2-.5,2.612,2.612,0,0,0,1-1.8.52.52,0,0,1,.2-.4c.1-.1.2-.1.4-.1h1.9a.354.354,0,0,1,.4.4,4.069,4.069,0,0,1-.8,2.4,5.51,5.51,0,0,1-2,1.7,7.455,7.455,0,0,1-3.1.6A5.984,5.984,0,0,1,70.5,17.8Z" fill="#363638"/><path d="M83.2,18.9a.367.367,0,0,1-.1-.3V5.6a.6.6,0,0,1,.1-.4c.1-.2.2-.2.3-.2h1.9a.6.6,0,0,1,.4.1c.1.1.1.2.1.4v13a.367.367,0,0,1-.1.3c-.2.2-.3.2-.4.2H83.5A.367.367,0,0,1,83.2,18.9Z" fill="#363638"/><path d="M90.1,17.8a5.719,5.719,0,0,1-1.6-4.1V10.3a5.9,5.9,0,0,1,1.6-4.1,7,7,0,0,1,8.4,0,5.335,5.335,0,0,1,1.6,4.1v3.4a5.719,5.719,0,0,1-1.6,4.1,6.075,6.075,0,0,1-4.2,1.4A6.443,6.443,0,0,1,90.1,17.8Zm6.4-1.7a4.113,4.113,0,0,0,.9-2.5V10.4a3.328,3.328,0,0,0-.9-2.5,3.156,3.156,0,0,0-4.2,0,4.113,4.113,0,0,0-.9,2.5v3.2a3.328,3.328,0,0,0,.9,2.5,3.156,3.156,0,0,0,4.2,0ZM93.2,3.7a.367.367,0,0,1,.1-.3l1.6-2,.3-.3c.1-.1.2-.1.4-.1h2.1c.3,0,.4.1.4.4,0,.1,0,.2-.1.2l-2.5,2c-.1.1-.2.2-.3.2s-.2.2-.3.2H93.5A.265.265,0,0,1,93.2,3.7Z" fill="#363638"/><path d="M103,18.9a.367.367,0,0,1-.1-.3V5.6a.6.6,0,0,1,.1-.4c.1-.1.2-.1.4-.1h1.5c.2,0,.3,0,.4.1s.2.1.2.2l5.8,9V5.5a.6.6,0,0,1,.1-.4.367.367,0,0,1,.3-.1h1.7a.6.6,0,0,1,.4.1c.1.1.1.2.1.4v13a.6.6,0,0,1-.1.4.367.367,0,0,1-.3.1h-1.6a.864.864,0,0,1-.6-.3l-5.7-8.8v8.6a.6.6,0,0,1-.1.4c-.1.1-.2.1-.4.1h-1.7C103.2,19,103.1,19,103,18.9Z" fill="#363638"/><path d="M117,18.9c-.1-.1-.1-.2-.1-.4V5.5a.6.6,0,0,1,.1-.4c.1-.1.2-.1.4-.1H120a.6.6,0,0,1,.4.1c.1.1.1.2.1.4v4.8h4.9V5.5a.6.6,0,0,1,.1-.4c.1-.1.2-.1.4-.1h2.6a.6.6,0,0,1,.4.1c.1.1.1.2.1.4v13a.6.6,0,0,1-.1.4c-.1.1-.2.1-.4.1h-2.6a.6.6,0,0,1-.4-.1c-.1-.1-.1-.2-.1-.4v-5h-4.9v5a.6.6,0,0,1-.1.4c-.1.1-.2.1-.4.1h-2.6C117.2,19,117.1,19,117,18.9Z" fill="#e73555"/><path d="M131.9,18.8c-.1-.1-.2-.2-.2-.3V5.5a.758.758,0,0,1,.2-.4c.1-.1.2-.1.4-.1h9.3a.6.6,0,0,1,.4.1c.1.1.1.2.1.4V7.4a.756.756,0,0,1-.1.4c-.1.1-.2.1-.4.1h-6.4v2.7h5.9a.4.4,0,0,1,.4.2c.1.1.1.2.1.4v1.7a.756.756,0,0,1-.1.4c-.1.1-.2.1-.4.1h-5.9v2.8h6.5a.6.6,0,0,1,.4.1c.1.1.1.2.1.4v1.9a.367.367,0,0,1-.1.3.52.52,0,0,1-.4.2h-9.5C132.1,19,132,19,131.9,18.8Z" fill="#e73555"/><path d="M144.7,18.8a.367.367,0,0,1-.1-.3V5.5a.6.6,0,0,1,.1-.4c.1-.1.2-.1.4-.1h2.2a.67.67,0,0,1,.7.4l3.5,6.3L155,5.4a.67.67,0,0,1,.7-.4h2.1a.6.6,0,0,1,.4.1.52.52,0,0,1,.2.4v13a.4.4,0,0,1-.2.4c-.1.1-.2.1-.4.1h-2.4a.6.6,0,0,1-.4-.1.52.52,0,0,1-.2-.4V11l-2.2,4.2c-.2.3-.4.5-.7.5h-1c-.2,0-.3,0-.4-.1l-.3-.3L148,11v7.5a.367.367,0,0,1-.1.3.52.52,0,0,1-.4.2h-2.4C144.9,19,144.8,19,144.7,18.8Z" fill="#e73555"/><path d="M162.4,17.8a5.06,5.06,0,0,1-1.7-4.1V10.3a5.619,5.619,0,0,1,1.8-4.1,6.3,6.3,0,0,1,4.4-1.4,6.817,6.817,0,0,1,4.4,1.4,5.06,5.06,0,0,1,1.7,4.1v3.4a5.551,5.551,0,0,1-1.7,4.1,6.3,6.3,0,0,1-4.4,1.4A7.11,7.11,0,0,1,162.4,17.8Zm6.2-2.1a2.822,2.822,0,0,0,.7-2V10.5a2.822,2.822,0,0,0-.7-2,2.413,2.413,0,0,0-1.7-.7,2.06,2.06,0,0,0-1.7.7,2.822,2.822,0,0,0-.7,2v3.2a2.822,2.822,0,0,0,.7,2,2.414,2.414,0,0,0,3.4,0Z" fill="#e73555"/><path d="M178.4,18.8a.367.367,0,0,1-.1-.3V8.1h-3.6a.367.367,0,0,1-.3-.1.52.52,0,0,1-.2-.4V5.5a.758.758,0,0,1,.2-.4.367.367,0,0,1,.3-.1h10.8a.6.6,0,0,1,.4.1c.1.1.1.2.1.4V7.6a.6.6,0,0,1-.1.4c-.1.1-.2.1-.4.1h-3.6V18.5a.367.367,0,0,1-.1.3.52.52,0,0,1-.4.2h-2.6C178.6,19,178.5,19,178.4,18.8Z" fill="#e73555"/><path d="M189.2,17.8a5.089,5.089,0,0,1-1.6-4.2V5.5a.4.4,0,0,1,.2-.4.367.367,0,0,1,.3-.1h2.6a.6.6,0,0,1,.4.1c.1.1.1.2.1.4v8.1a2.986,2.986,0,0,0,.6,2,2.481,2.481,0,0,0,1.8.7,2.268,2.268,0,0,0,1.8-.7,2.707,2.707,0,0,0,.6-1.9V5.5a.6.6,0,0,1,.1-.4c.1-.1.2-.1.4-.1h2.6a.6.6,0,0,1,.4.1c.1.1.1.2.1.4v8.2a5.221,5.221,0,0,1-1.6,4.2,6.627,6.627,0,0,1-4.4,1.4A7.241,7.241,0,0,1,189.2,17.8Z" fill="#e73555"/><path d="M203.5,17.8a5.32,5.32,0,0,1-1.7-4V10.2a5.321,5.321,0,0,1,1.7-4,6.818,6.818,0,0,1,4.4-1.4,8.291,8.291,0,0,1,3.2.6,5.43,5.43,0,0,1,2.2,1.7,4.376,4.376,0,0,1,.8,2.5h0a.354.354,0,0,1-.4.4H211c-.2,0-.3,0-.4-.1a.52.52,0,0,1-.2-.4,2.149,2.149,0,0,0-.9-1.4,3.408,3.408,0,0,0-1.6-.4c-1.6,0-2.4.9-2.4,2.6v3.4c.1,1.8.9,2.6,2.4,2.6a2.537,2.537,0,0,0,1.6-.4,2.845,2.845,0,0,0,.9-1.4c.1-.2.1-.3.2-.4s.2-.1.4-.1h2.7a.354.354,0,0,1,.4.4,4.147,4.147,0,0,1-.8,2.5,5.43,5.43,0,0,1-2.2,1.7,7.943,7.943,0,0,1-3.2.6A6.818,6.818,0,0,1,203.5,17.8Z" fill="#e73555"/></g></svg>