<?xml version="1.0" encoding="utf-8"?>
<!-- Generator: Adobe Illustrator 25.2.3, SVG Export Plug-In . SVG Version: 6.00 Build 0)  -->
<svg version="1.1" id="Capa_1" xmlns="http://www.w3.org/2000/svg" xmlns:xlink="http://www.w3.org/1999/xlink" x="0px" y="0px"
	 viewBox="0 0 215 24" style="enable-background:new 0 0 215 24;" xml:space="preserve">
<style type="text/css">
	.st0{enable-background:new    ;}
	.st1{fill:#363638;}
	.st2{fill:#E73555;}
</style>
<g class="st0">
	<path class="st1" d="M1.7,18.9c-0.1-0.1-0.1-0.2-0.1-0.3v-13c0-0.1,0-0.3,0.1-0.4C1.8,5,1.9,5,2,5h8.7c0.1,0,0.3,0,0.4,0.1
		c0.1,0.1,0.1,0.2,0.1,0.4v1.4c0,0.1,0,0.3-0.1,0.3c-0.1,0.1-0.2,0.1-0.4,0.1H4.3v3.8h6c0.1,0,0.3,0,0.4,0.1
		c0.1,0.1,0.1,0.2,0.1,0.4v1.4c0,0.1,0,0.3-0.1,0.3c-0.1,0.1-0.2,0.1-0.4,0.1h-6v5c0,0.1,0,0.3-0.1,0.4C4.1,19,3.9,19,3.8,19H2
		C1.9,19,1.8,19,1.7,18.9z"/>
	<path class="st1" d="M15,17.8c-1-0.9-1.5-2.3-1.5-4.2V5.5c0-0.1,0-0.3,0.1-0.4C13.7,5,13.8,5,13.9,5h1.8c0.1,0,0.3,0,0.3,0.1
		c0.1,0.1,0.1,0.2,0.1,0.4v8.1c0,1.1,0.3,1.9,0.8,2.4c0.5,0.5,1.2,0.8,2.2,0.8c0.9,0,1.6-0.3,2.1-0.8s0.8-1.3,0.8-2.4V5.5
		c0-0.1,0-0.3,0.1-0.4C22.3,5,22.4,5,22.6,5h1.8c0.1,0,0.3,0,0.4,0.1c0.1,0.1,0.1,0.2,0.1,0.4v8.1c0,1.9-0.5,3.3-1.5,4.2
		c-1,0.9-2.4,1.4-4.2,1.4C17.4,19.2,16,18.7,15,17.8z"/>
	<path class="st1" d="M28,18.9c-0.1-0.1-0.1-0.2-0.1-0.3v-13c0-0.1,0-0.3,0.1-0.4C28.1,5,28.2,5,28.3,5h1.5c0.2,0,0.3,0,0.4,0.1
		c0.1,0.1,0.2,0.1,0.2,0.2l5.8,9V5.5c0-0.1,0-0.3,0.1-0.4C36.4,5,36.5,5,36.7,5h1.7c0.1,0,0.3,0,0.4,0.1c0.1,0.1,0.1,0.2,0.1,0.4v13
		c0,0.1,0,0.3-0.1,0.4C38.6,19,38.5,19,38.4,19h-1.6c-0.2,0-0.4-0.1-0.6-0.3l-5.7-8.8v8.6c0,0.1,0,0.3-0.1,0.4
		C30.3,19,30.1,19,30,19h-1.7C28.2,19,28.1,19,28,18.9z"/>
	<path class="st1" d="M42.1,18.9C42,18.8,42,18.7,42,18.5v-13c0-0.1,0-0.3,0.1-0.4C42.2,5,42.3,5,42.5,5h4.9c3.9,0,5.9,1.8,6,5.4
		c0,0.8,0,1.3,0,1.6c0,0.3,0,0.8,0,1.5c-0.1,1.9-0.6,3.2-1.5,4.1S49.4,19,47.4,19h-5C42.3,19,42.2,19,42.1,18.9z M47.3,16.7
		c1.1,0,1.9-0.2,2.4-0.8s0.8-1.3,0.8-2.5c0-0.8,0-1.3,0-1.5c0-0.2,0-0.7,0-1.5c0-1.1-0.3-1.9-0.8-2.4c-0.5-0.5-1.4-0.8-2.5-0.8h-2.5
		v9.4H47.3z"/>
	<path class="st1" d="M54.6,18.9c-0.1-0.1-0.1-0.2-0.1-0.3l0-0.2l4.8-12.9C59.4,5.2,59.7,5,60,5h2.2c0.3,0,0.6,0.2,0.7,0.5l4.8,12.9
		c0,0,0,0.1,0,0.2c0,0.1,0,0.2-0.1,0.3S67.5,19,67.4,19h-1.7c-0.2,0-0.3,0-0.4-0.1s-0.2-0.2-0.2-0.3l-0.9-2.4h-5.9l-0.9,2.4
		c-0.1,0.3-0.3,0.4-0.6,0.4h-1.7C54.8,19,54.7,19,54.6,18.9z M63.4,13.9l-2.3-6.2l-2.3,6.2H63.4z"/>
	<path class="st1" d="M70.5,17.8c-1-0.9-1.5-2.3-1.6-4c0-0.4,0-0.9,0-1.8c0-0.8,0-1.4,0-1.8c0.1-1.7,0.6-3,1.6-4s2.4-1.4,4.2-1.4
		c1.2,0,2.2,0.2,3.1,0.6s1.6,1,2,1.7c0.5,0.7,0.7,1.5,0.8,2.4v0c0,0.1,0,0.2-0.1,0.3c-0.1,0.1-0.2,0.1-0.3,0.1h-1.9
		c-0.2,0-0.3,0-0.4-0.1c-0.1-0.1-0.1-0.2-0.2-0.4c-0.2-0.8-0.6-1.4-1.1-1.8c-0.5-0.3-1.2-0.5-2-0.5c-1.9,0-2.9,1.1-3,3.2
		c0,0.4,0,0.9,0,1.7c0,0.7,0,1.3,0,1.7c0.1,2.1,1.1,3.2,3,3.2c0.8,0,1.5-0.2,2-0.5s0.8-0.9,1-1.8c0-0.2,0.1-0.3,0.2-0.4
		c0.1-0.1,0.2-0.1,0.4-0.1h1.9c0.1,0,0.2,0,0.3,0.1c0.1,0.1,0.1,0.2,0.1,0.3c0,0.9-0.3,1.7-0.8,2.4c-0.5,0.7-1.2,1.3-2,1.7
		c-0.9,0.4-1.9,0.6-3.1,0.6C72.9,19.2,71.5,18.7,70.5,17.8z"/>
	<path class="st1" d="M83.2,18.9c-0.1-0.1-0.1-0.2-0.1-0.3v-13c0-0.1,0-0.3,0.1-0.4C83.3,5,83.4,5,83.5,5h1.9c0.1,0,0.3,0,0.4,0.1
		c0.1,0.1,0.1,0.2,0.1,0.4v13c0,0.1,0,0.2-0.1,0.3C85.6,19,85.5,19,85.4,19h-1.9C83.4,19,83.3,19,83.2,18.9z"/>
	<path class="st1" d="M90.1,17.8c-1-0.9-1.5-2.3-1.6-4.1c0-0.4,0-1,0-1.7c0-0.8,0-1.3,0-1.7c0.1-1.8,0.6-3.1,1.6-4.1
		c1-0.9,2.4-1.4,4.2-1.4c1.8,0,3.2,0.5,4.2,1.4c1,0.9,1.6,2.3,1.6,4.1c0,0.8,0,1.3,0,1.7c0,0.4,0,0.9,0,1.7
		c-0.1,1.8-0.6,3.2-1.6,4.1c-1,0.9-2.4,1.4-4.2,1.4C92.6,19.2,91.2,18.7,90.1,17.8z M96.5,16.1c0.5-0.5,0.8-1.4,0.9-2.5
		c0-0.8,0-1.3,0-1.6c0-0.3,0-0.8,0-1.6c0-1.1-0.3-1.9-0.9-2.5c-0.5-0.5-1.2-0.8-2.1-0.8c-0.9,0-1.6,0.3-2.1,0.8s-0.8,1.4-0.9,2.5
		c0,0.4,0,0.9,0,1.6c0,0.7,0,1.2,0,1.6c0,1.1,0.3,1.9,0.9,2.5c0.5,0.5,1.2,0.8,2.1,0.8C95.3,16.9,96,16.6,96.5,16.1z M93.2,3.7
		c0-0.1,0-0.2,0.1-0.3l1.6-2c0.1-0.1,0.2-0.2,0.3-0.3s0.2-0.1,0.4-0.1h2.1c0.3,0,0.4,0.1,0.4,0.4c0,0.1,0,0.2-0.1,0.2l-2.5,2
		c-0.1,0.1-0.2,0.2-0.3,0.2S95,4,94.9,4h-1.4C93.3,4,93.2,3.9,93.2,3.7z"/>
	<path class="st1" d="M103,18.9c-0.1-0.1-0.1-0.2-0.1-0.3v-13c0-0.1,0-0.3,0.1-0.4c0.1-0.1,0.2-0.1,0.4-0.1h1.5c0.2,0,0.3,0,0.4,0.1
		c0.1,0.1,0.2,0.1,0.2,0.2l5.8,9V5.5c0-0.1,0-0.3,0.1-0.4c0.1-0.1,0.2-0.1,0.3-0.1h1.7c0.1,0,0.3,0,0.4,0.1c0.1,0.1,0.1,0.2,0.1,0.4
		v13c0,0.1,0,0.3-0.1,0.4c-0.1,0.1-0.2,0.1-0.3,0.1h-1.6c-0.2,0-0.4-0.1-0.6-0.3l-5.7-8.8v8.6c0,0.1,0,0.3-0.1,0.4
		c-0.1,0.1-0.2,0.1-0.4,0.1h-1.7C103.2,19,103.1,19,103,18.9z"/>
</g>
<g class="st0">
	<path class="st2" d="M117,18.9c-0.1-0.1-0.1-0.2-0.1-0.4v-13c0-0.1,0-0.3,0.1-0.4c0.1-0.1,0.2-0.1,0.4-0.1h2.6c0.1,0,0.3,0,0.4,0.1
		c0.1,0.1,0.1,0.2,0.1,0.4v4.8h4.9V5.5c0-0.1,0-0.3,0.1-0.4c0.1-0.1,0.2-0.1,0.4-0.1h2.6c0.1,0,0.3,0,0.4,0.1
		c0.1,0.1,0.1,0.2,0.1,0.4v13c0,0.1,0,0.3-0.1,0.4c-0.1,0.1-0.2,0.1-0.4,0.1h-2.6c-0.1,0-0.3,0-0.4-0.1c-0.1-0.1-0.1-0.2-0.1-0.4v-5
		h-4.9v5c0,0.1,0,0.3-0.1,0.4c-0.1,0.1-0.2,0.1-0.4,0.1h-2.6C117.2,19,117.1,19,117,18.9z"/>
	<path class="st2" d="M131.9,18.8c-0.1-0.1-0.2-0.2-0.2-0.3v-13c0-0.1,0.1-0.3,0.2-0.4C132,5,132.1,5,132.3,5h9.3
		c0.1,0,0.3,0,0.4,0.1c0.1,0.1,0.1,0.2,0.1,0.4v1.9c0,0.1,0,0.2-0.1,0.4c-0.1,0.1-0.2,0.1-0.4,0.1h-6.4v2.7h5.9c0.1,0,0.3,0,0.4,0.2
		c0.1,0.1,0.1,0.2,0.1,0.4v1.7c0,0.1,0,0.2-0.1,0.4c-0.1,0.1-0.2,0.1-0.4,0.1h-5.9v2.8h6.5c0.1,0,0.3,0,0.4,0.1
		c0.1,0.1,0.1,0.2,0.1,0.4v1.9c0,0.1,0,0.2-0.1,0.3c-0.1,0.1-0.2,0.2-0.4,0.2h-9.5C132.1,19,132,19,131.9,18.8z"/>
	<path class="st2" d="M144.7,18.8c-0.1-0.1-0.1-0.2-0.1-0.3v-13c0-0.1,0-0.3,0.1-0.4c0.1-0.1,0.2-0.1,0.4-0.1h2.2
		c0.3,0,0.6,0.1,0.7,0.4l3.5,6.3l3.5-6.3c0.1-0.3,0.4-0.4,0.7-0.4h2.1c0.1,0,0.3,0,0.4,0.1c0.1,0.1,0.2,0.2,0.2,0.4v13
		c0,0.1,0,0.3-0.2,0.4c-0.1,0.1-0.2,0.1-0.4,0.1h-2.4c-0.1,0-0.3,0-0.4-0.1c-0.1-0.1-0.2-0.2-0.2-0.4V11l-2.2,4.2
		c-0.2,0.3-0.4,0.5-0.7,0.5h-1c-0.2,0-0.3,0-0.4-0.1c-0.1-0.1-0.2-0.2-0.3-0.3L148,11v7.5c0,0.1,0,0.2-0.1,0.3
		c-0.1,0.1-0.2,0.2-0.4,0.2h-2.4C144.9,19,144.8,19,144.7,18.8z"/>
	<path class="st2" d="M162.4,17.8c-1.1-0.9-1.7-2.3-1.7-4.1c0-0.4,0-1,0-1.7c0-0.8,0-1.4,0-1.7c0.1-1.8,0.7-3.1,1.8-4.1
		c1.1-1,2.6-1.4,4.4-1.4s3.3,0.5,4.4,1.4s1.7,2.3,1.7,4.1c0,0.8,0,1.4,0,1.7c0,0.4,0,0.9,0,1.7c-0.1,1.8-0.6,3.1-1.7,4.1
		s-2.6,1.4-4.4,1.4S163.5,18.7,162.4,17.8z M168.6,15.7c0.4-0.4,0.7-1.1,0.7-2c0-0.8,0-1.3,0-1.6c0-0.3,0-0.9,0-1.6
		c0-0.9-0.3-1.6-0.7-2c-0.4-0.4-1-0.7-1.7-0.7s-1.3,0.2-1.7,0.7c-0.4,0.4-0.7,1.1-0.7,2c0,0.4,0,0.9,0,1.6c0,0.7,0,1.3,0,1.6
		c0,0.9,0.3,1.6,0.7,2c0.4,0.4,1,0.7,1.7,0.7S168.2,16.1,168.6,15.7z"/>
	<path class="st2" d="M178.4,18.8c-0.1-0.1-0.1-0.2-0.1-0.3V8.1h-3.6c-0.1,0-0.2,0-0.3-0.1c-0.1-0.1-0.2-0.2-0.2-0.4V5.5
		c0-0.1,0.1-0.3,0.2-0.4c0.1-0.1,0.2-0.1,0.3-0.1h10.8c0.1,0,0.3,0,0.4,0.1c0.1,0.1,0.1,0.2,0.1,0.4v2.1c0,0.1,0,0.3-0.1,0.4
		c-0.1,0.1-0.2,0.1-0.4,0.1h-3.6v10.4c0,0.1,0,0.2-0.1,0.3c-0.1,0.1-0.2,0.2-0.4,0.2h-2.6C178.6,19,178.5,19,178.4,18.8z"/>
	<path class="st2" d="M189.2,17.8c-1.1-0.9-1.6-2.3-1.6-4.2V5.5c0-0.1,0-0.3,0.2-0.4C187.9,5,188,5,188.1,5h2.6c0.1,0,0.3,0,0.4,0.1
		c0.1,0.1,0.1,0.2,0.1,0.4v8.1c0,0.9,0.2,1.5,0.6,2c0.4,0.4,1,0.7,1.8,0.7c0.8,0,1.3-0.2,1.8-0.7c0.4-0.4,0.6-1.1,0.6-1.9V5.5
		c0-0.1,0-0.3,0.1-0.4c0.1-0.1,0.2-0.1,0.4-0.1h2.6c0.1,0,0.3,0,0.4,0.1c0.1,0.1,0.1,0.2,0.1,0.4v8.2c0,1.9-0.5,3.2-1.6,4.2
		c-1.1,0.9-2.5,1.4-4.4,1.4C191.7,19.2,190.3,18.7,189.2,17.8z"/>
	<path class="st2" d="M203.5,17.8c-1.1-0.9-1.6-2.3-1.7-4c0-0.4,0-0.9,0-1.8c0-0.8,0-1.4,0-1.8c0.1-1.7,0.6-3.1,1.7-4
		c1.1-0.9,2.6-1.4,4.4-1.4c1.2,0,2.2,0.2,3.2,0.6c0.9,0.4,1.7,1,2.2,1.7c0.5,0.7,0.8,1.6,0.8,2.5v0c0,0.1,0,0.2-0.1,0.3
		c-0.1,0.1-0.2,0.1-0.3,0.1h-2.7c-0.2,0-0.3,0-0.4-0.1c-0.1-0.1-0.2-0.2-0.2-0.4c-0.2-0.7-0.5-1.2-0.9-1.4s-0.9-0.4-1.6-0.4
		c-1.6,0-2.4,0.9-2.4,2.6c0,0.4,0,0.9,0,1.7c0,0.7,0,1.3,0,1.7c0.1,1.8,0.9,2.6,2.4,2.6c0.7,0,1.2-0.1,1.6-0.4
		c0.4-0.3,0.7-0.8,0.9-1.4c0.1-0.2,0.1-0.3,0.2-0.4c0.1-0.1,0.2-0.1,0.4-0.1h2.7c0.1,0,0.2,0,0.3,0.1c0.1,0.1,0.1,0.2,0.1,0.3
		c0,1-0.3,1.8-0.8,2.5c-0.5,0.7-1.3,1.3-2.2,1.7c-0.9,0.4-2,0.6-3.2,0.6C206.1,19.2,204.6,18.7,203.5,17.8z"/>
</g>
</svg>
